%
M48
M72
T01C0.03150
T02C0.03200
T03C0.04000
T04C0.07000
%
T01
X31500Y31500
X31500Y41500
X31500Y51500
X31500Y61500
X31500Y71500
X31500Y81500
X31500Y91500
X31500Y101500
X31500Y111500
X31500Y121500
X31500Y131500
X31500Y141500
X31500Y151500
X31500Y161500
X31500Y171500
X91500Y171500
X91500Y161500
X91500Y151500
X91500Y141500
X91500Y131500
X91500Y121500
X91500Y111500
X91500Y101500
X91500Y91500
X91500Y81500
X91500Y71500
X91500Y61500
X91500Y51500
X91500Y41500
X91500Y31500
T02
X141500Y21500
X161500Y21500
X181500Y21500
X201500Y26500
X211500Y26500
X221500Y26500
X231500Y26500
X261500Y26500
X271500Y26500
X281500Y26500
X291500Y26500
X321500Y26500
X331500Y26500
X341500Y26500
X351500Y26500
X361500Y26500
X371500Y26500
X381500Y26500
X381500Y56500
X371500Y56500
X361500Y56500
X351500Y56500
X341500Y56500
X331500Y56500
X321500Y56500
X291500Y56500
X281500Y56500
X271500Y56500
X261500Y56500
X231500Y56500
X221500Y56500
X211500Y56500
X201500Y56500
X181500Y61500
X161500Y61500
X141500Y61500
X166500Y76500
X186500Y76500
X181500Y96500
X191500Y96500
X171500Y96500
X161500Y96500
X216500Y111500
X191500Y126500
X181500Y126500
X171500Y126500
X161500Y126500
X161500Y141500
X141500Y141500
X181500Y141500
X201500Y146500
X211500Y146500
X221500Y146500
X231500Y146500
X241500Y146500
X251500Y146500
X261500Y146500
X211500Y131500
X201500Y131500
X256500Y111500
X321500Y146500
X331500Y146500
X341500Y146500
X351500Y146500
X361500Y146500
X371500Y146500
X381500Y146500
X381500Y176500
X371500Y176500
X361500Y176500
X351500Y176500
X341500Y176500
X331500Y176500
X321500Y176500
X261500Y176500
X251500Y176500
X241500Y176500
X231500Y176500
X221500Y176500
X211500Y176500
X201500Y176500
X181500Y181500
X161500Y181500
X141500Y181500
T03
X281500Y126500
X306500Y126500
X336500Y126500
X336500Y101500
X306500Y101500
X281500Y101500
X281500Y76500
X306500Y76500
X336500Y76500
T04
X31500Y21500
X91500Y21500
X91500Y181500
X31500Y181500
M30
