G75*
%MOIN*%
%OFA0B0*%
%FSLAX25Y25*%
%IPPOS*%
%LPD*%
%AMOC8*
5,1,8,0,0,1.08239X$1,22.5*
%
%ADD10C,0.07000*%
%ADD11R,0.05550X0.05550*%
%ADD12C,0.05550*%
%ADD13C,0.05600*%
%ADD14OC8,0.05600*%
%ADD15C,0.01600*%
%ADD16C,0.01000*%
D10*
X0281500Y0076500D03*
X0306500Y0076500D03*
X0336500Y0076500D03*
X0336500Y0101500D03*
X0306500Y0101500D03*
X0281500Y0101500D03*
X0281500Y0126500D03*
X0306500Y0126500D03*
X0336500Y0126500D03*
D11*
X0031500Y0171500D03*
D12*
X0031500Y0161500D03*
X0031500Y0151500D03*
X0031500Y0141500D03*
X0031500Y0131500D03*
X0031500Y0121500D03*
X0031500Y0111500D03*
X0031500Y0101500D03*
X0031500Y0091500D03*
X0031500Y0081500D03*
X0031500Y0071500D03*
X0031500Y0061500D03*
X0031500Y0051500D03*
X0031500Y0041500D03*
X0031500Y0031500D03*
X0091500Y0031500D03*
X0091500Y0041500D03*
X0091500Y0051500D03*
X0091500Y0061500D03*
X0091500Y0071500D03*
X0091500Y0081500D03*
X0091500Y0091500D03*
X0091500Y0101500D03*
X0091500Y0111500D03*
X0091500Y0121500D03*
X0091500Y0131500D03*
X0091500Y0141500D03*
X0091500Y0151500D03*
X0091500Y0161500D03*
X0091500Y0171500D03*
D13*
X0161500Y0129300D02*
X0161500Y0123700D01*
X0171500Y0123700D02*
X0171500Y0129300D01*
X0181500Y0129300D02*
X0181500Y0123700D01*
X0191500Y0123700D02*
X0191500Y0129300D01*
X0201500Y0143700D02*
X0201500Y0149300D01*
X0211500Y0149300D02*
X0211500Y0143700D01*
X0221500Y0143700D02*
X0221500Y0149300D01*
X0231500Y0149300D02*
X0231500Y0143700D01*
X0241500Y0143700D02*
X0241500Y0149300D01*
X0251500Y0149300D02*
X0251500Y0143700D01*
X0261500Y0143700D02*
X0261500Y0149300D01*
X0261500Y0173700D02*
X0261500Y0179300D01*
X0251500Y0179300D02*
X0251500Y0173700D01*
X0241500Y0173700D02*
X0241500Y0179300D01*
X0231500Y0179300D02*
X0231500Y0173700D01*
X0221500Y0173700D02*
X0221500Y0179300D01*
X0211500Y0179300D02*
X0211500Y0173700D01*
X0201500Y0173700D02*
X0201500Y0179300D01*
X0321500Y0179300D02*
X0321500Y0173700D01*
X0331500Y0173700D02*
X0331500Y0179300D01*
X0341500Y0179300D02*
X0341500Y0173700D01*
X0351500Y0173700D02*
X0351500Y0179300D01*
X0361500Y0179300D02*
X0361500Y0173700D01*
X0371500Y0173700D02*
X0371500Y0179300D01*
X0381500Y0179300D02*
X0381500Y0173700D01*
X0381500Y0149300D02*
X0381500Y0143700D01*
X0371500Y0143700D02*
X0371500Y0149300D01*
X0361500Y0149300D02*
X0361500Y0143700D01*
X0351500Y0143700D02*
X0351500Y0149300D01*
X0341500Y0149300D02*
X0341500Y0143700D01*
X0331500Y0143700D02*
X0331500Y0149300D01*
X0321500Y0149300D02*
X0321500Y0143700D01*
X0191500Y0099300D02*
X0191500Y0093700D01*
X0181500Y0093700D02*
X0181500Y0099300D01*
X0171500Y0099300D02*
X0171500Y0093700D01*
X0161500Y0093700D02*
X0161500Y0099300D01*
X0201500Y0059300D02*
X0201500Y0053700D01*
X0211500Y0053700D02*
X0211500Y0059300D01*
X0221500Y0059300D02*
X0221500Y0053700D01*
X0231500Y0053700D02*
X0231500Y0059300D01*
X0261500Y0059300D02*
X0261500Y0053700D01*
X0271500Y0053700D02*
X0271500Y0059300D01*
X0281500Y0059300D02*
X0281500Y0053700D01*
X0291500Y0053700D02*
X0291500Y0059300D01*
X0321500Y0059300D02*
X0321500Y0053700D01*
X0331500Y0053700D02*
X0331500Y0059300D01*
X0341500Y0059300D02*
X0341500Y0053700D01*
X0351500Y0053700D02*
X0351500Y0059300D01*
X0361500Y0059300D02*
X0361500Y0053700D01*
X0371500Y0053700D02*
X0371500Y0059300D01*
X0381500Y0059300D02*
X0381500Y0053700D01*
X0381500Y0029300D02*
X0381500Y0023700D01*
X0371500Y0023700D02*
X0371500Y0029300D01*
X0361500Y0029300D02*
X0361500Y0023700D01*
X0351500Y0023700D02*
X0351500Y0029300D01*
X0341500Y0029300D02*
X0341500Y0023700D01*
X0331500Y0023700D02*
X0331500Y0029300D01*
X0321500Y0029300D02*
X0321500Y0023700D01*
X0291500Y0023700D02*
X0291500Y0029300D01*
X0281500Y0029300D02*
X0281500Y0023700D01*
X0271500Y0023700D02*
X0271500Y0029300D01*
X0261500Y0029300D02*
X0261500Y0023700D01*
X0231500Y0023700D02*
X0231500Y0029300D01*
X0221500Y0029300D02*
X0221500Y0023700D01*
X0211500Y0023700D02*
X0211500Y0029300D01*
X0201500Y0029300D02*
X0201500Y0023700D01*
D14*
X0181500Y0021500D03*
X0161500Y0021500D03*
X0141500Y0021500D03*
X0141500Y0061500D03*
X0161500Y0061500D03*
X0181500Y0061500D03*
X0186500Y0076500D03*
X0166500Y0076500D03*
X0216500Y0111500D03*
X0211500Y0131500D03*
X0201500Y0131500D03*
X0181500Y0141500D03*
X0161500Y0141500D03*
X0141500Y0141500D03*
X0141500Y0181500D03*
X0161500Y0181500D03*
X0181500Y0181500D03*
X0256500Y0111500D03*
D15*
X0281500Y0101500D02*
X0226500Y0101500D01*
X0221500Y0096500D01*
X0221500Y0056500D01*
X0211500Y0056500D02*
X0211500Y0131500D01*
X0211500Y0146500D01*
X0201500Y0146500D02*
X0201500Y0131500D01*
X0171500Y0131500D02*
X0171500Y0126500D01*
X0171500Y0131500D02*
X0166500Y0136500D01*
X0046500Y0136500D01*
X0041500Y0141500D01*
X0041500Y0156500D01*
X0036500Y0161500D01*
X0031500Y0161500D01*
X0021500Y0141500D02*
X0021500Y0186500D01*
X0026500Y0191500D01*
X0101500Y0191500D01*
X0126500Y0166500D01*
X0216500Y0166500D01*
X0221500Y0171500D01*
X0221500Y0176500D01*
X0211500Y0176500D02*
X0211500Y0181500D01*
X0206500Y0186500D01*
X0196500Y0186500D01*
X0186500Y0176500D01*
X0126500Y0176500D01*
X0106500Y0196500D01*
X0021500Y0196500D01*
X0016500Y0191500D01*
X0016500Y0131500D01*
X0021500Y0126500D01*
X0036500Y0126500D01*
X0041500Y0121500D01*
X0091500Y0121500D01*
X0096500Y0126500D02*
X0046500Y0126500D01*
X0036500Y0136500D01*
X0026500Y0136500D01*
X0021500Y0141500D01*
X0091500Y0171500D02*
X0101500Y0161500D01*
X0246500Y0161500D01*
X0251500Y0156500D01*
X0251500Y0146500D01*
X0246500Y0151500D02*
X0246500Y0141500D01*
X0251500Y0136500D01*
X0256500Y0136500D01*
X0261500Y0141500D01*
X0261500Y0146500D01*
X0246500Y0151500D02*
X0241500Y0156500D01*
X0191500Y0156500D01*
X0186500Y0151500D01*
X0186500Y0111500D01*
X0191500Y0106500D01*
X0191500Y0096500D01*
X0191500Y0091500D01*
X0186500Y0086500D01*
X0181500Y0086500D01*
X0176500Y0081500D01*
X0176500Y0066500D01*
X0041500Y0066500D01*
X0036500Y0061500D01*
X0031500Y0061500D01*
X0091500Y0101500D02*
X0096500Y0101500D01*
X0101500Y0106500D01*
X0101500Y0121500D01*
X0096500Y0126500D01*
X0181500Y0181500D02*
X0181500Y0186500D01*
X0186500Y0191500D01*
X0256500Y0191500D01*
X0261500Y0186500D01*
X0261500Y0176500D01*
X0276500Y0176500D01*
X0281500Y0171500D01*
X0281500Y0126500D01*
X0296500Y0131500D02*
X0301500Y0126500D01*
X0306500Y0126500D01*
X0296500Y0131500D02*
X0296500Y0181500D01*
X0301500Y0186500D01*
X0376500Y0186500D01*
X0381500Y0181500D01*
X0381500Y0176500D01*
X0371500Y0176500D02*
X0371500Y0146500D01*
X0361500Y0156500D01*
X0336500Y0156500D01*
X0331500Y0151500D01*
X0331500Y0146500D01*
X0321500Y0146500D01*
X0321500Y0066500D01*
X0376500Y0066500D01*
X0381500Y0061500D01*
X0381500Y0056500D01*
X0371500Y0056500D02*
X0371500Y0046500D01*
X0366500Y0041500D01*
X0331500Y0041500D01*
X0331500Y0026500D01*
X0306500Y0021500D02*
X0301500Y0016500D01*
X0226500Y0016500D01*
X0221500Y0021500D01*
X0221500Y0026500D01*
X0221500Y0031500D01*
X0216500Y0036500D01*
X0186500Y0036500D01*
X0181500Y0041500D01*
X0181500Y0061500D01*
X0176500Y0066500D02*
X0176500Y0026500D01*
X0181500Y0021500D01*
X0271500Y0056500D02*
X0271500Y0081500D01*
X0291500Y0101500D01*
X0291500Y0186500D01*
X0296500Y0191500D01*
X0381500Y0191500D01*
X0386500Y0186500D01*
X0386500Y0111500D01*
X0376500Y0101500D01*
X0336500Y0101500D01*
X0306500Y0101500D02*
X0296500Y0101500D01*
X0291500Y0096500D01*
X0291500Y0056500D01*
X0281500Y0056500D02*
X0281500Y0076500D01*
X0306500Y0076500D02*
X0306500Y0021500D01*
X0331500Y0041500D02*
X0331500Y0056500D01*
X0321500Y0056500D02*
X0321500Y0066500D01*
D16*
X0003600Y0003600D02*
X0003600Y0199361D01*
X0020828Y0199361D01*
X0019857Y0198958D01*
X0019041Y0198143D01*
X0014041Y0193143D01*
X0013600Y0192077D01*
X0013600Y0130923D01*
X0014041Y0129857D01*
X0014857Y0129041D01*
X0014857Y0129041D01*
X0019041Y0124857D01*
X0019857Y0124041D01*
X0020923Y0123600D01*
X0027093Y0123600D01*
X0026625Y0122470D01*
X0026625Y0120530D01*
X0027367Y0118739D01*
X0028739Y0117367D01*
X0030530Y0116625D01*
X0032470Y0116625D01*
X0034261Y0117367D01*
X0035633Y0118739D01*
X0036375Y0120530D01*
X0036375Y0122470D01*
X0036336Y0122562D01*
X0039857Y0119041D01*
X0040923Y0118600D01*
X0087506Y0118600D01*
X0088739Y0117367D01*
X0090530Y0116625D01*
X0092470Y0116625D01*
X0094261Y0117367D01*
X0095633Y0118739D01*
X0096375Y0120530D01*
X0096375Y0122470D01*
X0096336Y0122562D01*
X0098600Y0120299D01*
X0098600Y0107701D01*
X0095396Y0104498D01*
X0094261Y0105633D01*
X0092470Y0106375D01*
X0090530Y0106375D01*
X0088739Y0105633D01*
X0087367Y0104261D01*
X0086625Y0102470D01*
X0086625Y0100530D01*
X0087367Y0098739D01*
X0088739Y0097367D01*
X0090530Y0096625D01*
X0092470Y0096625D01*
X0094261Y0097367D01*
X0095494Y0098600D01*
X0097077Y0098600D01*
X0098143Y0099041D01*
X0103143Y0104041D01*
X0103958Y0104857D01*
X0104400Y0105923D01*
X0104400Y0122077D01*
X0103958Y0123143D01*
X0098958Y0128143D01*
X0098143Y0128958D01*
X0097077Y0129400D01*
X0095907Y0129400D01*
X0096375Y0130530D01*
X0096375Y0132470D01*
X0095907Y0133600D01*
X0165299Y0133600D01*
X0167193Y0131706D01*
X0166600Y0130275D01*
X0166600Y0122725D01*
X0167346Y0120924D01*
X0168724Y0119546D01*
X0170525Y0118800D01*
X0172475Y0118800D01*
X0174276Y0119546D01*
X0175654Y0120924D01*
X0176400Y0122725D01*
X0176400Y0130275D01*
X0175654Y0132076D01*
X0174276Y0133454D01*
X0173203Y0133898D01*
X0173143Y0133958D01*
X0168958Y0138143D01*
X0168143Y0138958D01*
X0167077Y0139400D01*
X0166330Y0139400D01*
X0166400Y0139470D01*
X0166400Y0143530D01*
X0163530Y0146400D01*
X0159470Y0146400D01*
X0156600Y0143530D01*
X0156600Y0139470D01*
X0156670Y0139400D01*
X0146330Y0139400D01*
X0146400Y0139470D01*
X0146400Y0143530D01*
X0143530Y0146400D01*
X0139470Y0146400D01*
X0136600Y0143530D01*
X0136600Y0139470D01*
X0136670Y0139400D01*
X0095907Y0139400D01*
X0096375Y0140530D01*
X0096375Y0142470D01*
X0095633Y0144261D01*
X0094261Y0145633D01*
X0092470Y0146375D01*
X0090530Y0146375D01*
X0088739Y0145633D01*
X0087367Y0144261D01*
X0086625Y0142470D01*
X0086625Y0140530D01*
X0087093Y0139400D01*
X0047701Y0139400D01*
X0044400Y0142701D01*
X0044400Y0157077D01*
X0043958Y0158143D01*
X0038958Y0163143D01*
X0038143Y0163958D01*
X0037077Y0164400D01*
X0035494Y0164400D01*
X0034261Y0165633D01*
X0032470Y0166375D01*
X0030530Y0166375D01*
X0028739Y0165633D01*
X0027367Y0164261D01*
X0026625Y0162470D01*
X0026625Y0160530D01*
X0027367Y0158739D01*
X0028739Y0157367D01*
X0030530Y0156625D01*
X0032470Y0156625D01*
X0034261Y0157367D01*
X0035396Y0158502D01*
X0038600Y0155299D01*
X0038600Y0140923D01*
X0039041Y0139857D01*
X0039857Y0139041D01*
X0039857Y0139041D01*
X0044857Y0134041D01*
X0045923Y0133600D01*
X0087093Y0133600D01*
X0086625Y0132470D01*
X0086625Y0130530D01*
X0087093Y0129400D01*
X0047701Y0129400D01*
X0038958Y0138143D01*
X0038143Y0138958D01*
X0037077Y0139400D01*
X0035907Y0139400D01*
X0036375Y0140530D01*
X0036375Y0142470D01*
X0035633Y0144261D01*
X0034261Y0145633D01*
X0032470Y0146375D01*
X0030530Y0146375D01*
X0028739Y0145633D01*
X0027367Y0144261D01*
X0026625Y0142470D01*
X0026625Y0140530D01*
X0026664Y0140438D01*
X0024400Y0142701D01*
X0024400Y0185299D01*
X0027701Y0188600D01*
X0100299Y0188600D01*
X0124041Y0164857D01*
X0124499Y0164400D01*
X0102701Y0164400D01*
X0096375Y0170726D01*
X0096375Y0172470D01*
X0095633Y0174261D01*
X0094261Y0175633D01*
X0093115Y0176108D01*
X0094672Y0176753D01*
X0096247Y0178328D01*
X0097100Y0180386D01*
X0097100Y0182614D01*
X0096247Y0184672D01*
X0094672Y0186247D01*
X0092614Y0187100D01*
X0090386Y0187100D01*
X0088328Y0186247D01*
X0086753Y0184672D01*
X0085900Y0182614D01*
X0085900Y0180386D01*
X0086753Y0178328D01*
X0088328Y0176753D01*
X0089885Y0176108D01*
X0088739Y0175633D01*
X0087367Y0174261D01*
X0086625Y0172470D01*
X0086625Y0170530D01*
X0087367Y0168739D01*
X0088739Y0167367D01*
X0090530Y0166625D01*
X0092274Y0166625D01*
X0092562Y0166336D01*
X0092470Y0166375D01*
X0090530Y0166375D01*
X0088739Y0165633D01*
X0087367Y0164261D01*
X0086625Y0162470D01*
X0086625Y0160530D01*
X0087367Y0158739D01*
X0088739Y0157367D01*
X0090530Y0156625D01*
X0092470Y0156625D01*
X0094261Y0157367D01*
X0095633Y0158739D01*
X0096375Y0160530D01*
X0096375Y0162470D01*
X0096336Y0162562D01*
X0099857Y0159041D01*
X0100923Y0158600D01*
X0189499Y0158600D01*
X0189041Y0158143D01*
X0184041Y0153143D01*
X0183600Y0152077D01*
X0183600Y0145481D01*
X0183281Y0145800D01*
X0181800Y0145800D01*
X0181800Y0141800D01*
X0181200Y0141800D01*
X0181200Y0145800D01*
X0179719Y0145800D01*
X0177200Y0143281D01*
X0177200Y0141800D01*
X0181200Y0141800D01*
X0181200Y0141200D01*
X0181800Y0141200D01*
X0181800Y0137200D01*
X0183281Y0137200D01*
X0183600Y0137519D01*
X0183600Y0133734D01*
X0182475Y0134200D01*
X0180525Y0134200D01*
X0178724Y0133454D01*
X0177346Y0132076D01*
X0176600Y0130275D01*
X0176600Y0122725D01*
X0177346Y0120924D01*
X0178724Y0119546D01*
X0180525Y0118800D01*
X0182475Y0118800D01*
X0183600Y0119266D01*
X0183600Y0110923D01*
X0184041Y0109857D01*
X0184857Y0109041D01*
X0188600Y0105299D01*
X0188600Y0103330D01*
X0187346Y0102076D01*
X0186600Y0100275D01*
X0186600Y0092725D01*
X0187193Y0091294D01*
X0185299Y0089400D01*
X0183923Y0089400D01*
X0184276Y0089546D01*
X0185654Y0090924D01*
X0186400Y0092725D01*
X0186400Y0100275D01*
X0185654Y0102076D01*
X0184276Y0103454D01*
X0182475Y0104200D01*
X0180525Y0104200D01*
X0178724Y0103454D01*
X0177346Y0102076D01*
X0176600Y0100275D01*
X0176600Y0092725D01*
X0177346Y0090924D01*
X0178724Y0089546D01*
X0180000Y0089018D01*
X0179857Y0088958D01*
X0174857Y0083958D01*
X0174041Y0083143D01*
X0173600Y0082077D01*
X0173600Y0069400D01*
X0095907Y0069400D01*
X0096375Y0070530D01*
X0096375Y0072470D01*
X0095633Y0074261D01*
X0094261Y0075633D01*
X0092470Y0076375D01*
X0090530Y0076375D01*
X0088739Y0075633D01*
X0087367Y0074261D01*
X0086625Y0072470D01*
X0086625Y0070530D01*
X0087093Y0069400D01*
X0040923Y0069400D01*
X0039857Y0068958D01*
X0039041Y0068143D01*
X0035396Y0064498D01*
X0034261Y0065633D01*
X0032470Y0066375D01*
X0030530Y0066375D01*
X0028739Y0065633D01*
X0027367Y0064261D01*
X0026625Y0062470D01*
X0026625Y0060530D01*
X0027367Y0058739D01*
X0028739Y0057367D01*
X0030530Y0056625D01*
X0032470Y0056625D01*
X0034261Y0057367D01*
X0035494Y0058600D01*
X0037077Y0058600D01*
X0038143Y0059041D01*
X0042701Y0063600D01*
X0087093Y0063600D01*
X0086625Y0062470D01*
X0086625Y0060530D01*
X0087367Y0058739D01*
X0088739Y0057367D01*
X0090530Y0056625D01*
X0092470Y0056625D01*
X0094261Y0057367D01*
X0095633Y0058739D01*
X0096375Y0060530D01*
X0096375Y0062470D01*
X0095907Y0063600D01*
X0136670Y0063600D01*
X0136600Y0063530D01*
X0136600Y0059470D01*
X0139470Y0056600D01*
X0143530Y0056600D01*
X0146400Y0059470D01*
X0146400Y0063530D01*
X0146330Y0063600D01*
X0156670Y0063600D01*
X0156600Y0063530D01*
X0156600Y0059470D01*
X0159470Y0056600D01*
X0163530Y0056600D01*
X0166400Y0059470D01*
X0166400Y0063530D01*
X0166330Y0063600D01*
X0173600Y0063600D01*
X0173600Y0025923D01*
X0174041Y0024857D01*
X0176600Y0022299D01*
X0176600Y0019470D01*
X0179470Y0016600D01*
X0183530Y0016600D01*
X0186400Y0019470D01*
X0186400Y0023530D01*
X0183530Y0026400D01*
X0180701Y0026400D01*
X0179400Y0027701D01*
X0179400Y0039499D01*
X0179857Y0039041D01*
X0184857Y0034041D01*
X0185923Y0033600D01*
X0199077Y0033600D01*
X0198724Y0033454D01*
X0197346Y0032076D01*
X0196600Y0030275D01*
X0196600Y0022725D01*
X0197346Y0020924D01*
X0198724Y0019546D01*
X0200525Y0018800D01*
X0202475Y0018800D01*
X0204276Y0019546D01*
X0205654Y0020924D01*
X0206400Y0022725D01*
X0206400Y0030275D01*
X0205654Y0032076D01*
X0204276Y0033454D01*
X0203923Y0033600D01*
X0209077Y0033600D01*
X0208724Y0033454D01*
X0207346Y0032076D01*
X0206600Y0030275D01*
X0206600Y0022725D01*
X0207346Y0020924D01*
X0208724Y0019546D01*
X0210525Y0018800D01*
X0212475Y0018800D01*
X0214276Y0019546D01*
X0215654Y0020924D01*
X0216400Y0022725D01*
X0216400Y0030275D01*
X0215654Y0032076D01*
X0214276Y0033454D01*
X0213923Y0033600D01*
X0215299Y0033600D01*
X0217193Y0031706D01*
X0216600Y0030275D01*
X0216600Y0022725D01*
X0217346Y0020924D01*
X0218724Y0019546D01*
X0219797Y0019102D01*
X0219857Y0019041D01*
X0224857Y0014041D01*
X0225923Y0013600D01*
X0302077Y0013600D01*
X0303143Y0014041D01*
X0303958Y0014857D01*
X0308958Y0019857D01*
X0309400Y0020923D01*
X0309400Y0071640D01*
X0309672Y0071753D01*
X0311247Y0073328D01*
X0312100Y0075386D01*
X0312100Y0077614D01*
X0311247Y0079672D01*
X0309672Y0081247D01*
X0307614Y0082100D01*
X0305386Y0082100D01*
X0303328Y0081247D01*
X0301753Y0079672D01*
X0300900Y0077614D01*
X0300900Y0075386D01*
X0301753Y0073328D01*
X0303328Y0071753D01*
X0303600Y0071640D01*
X0303600Y0022701D01*
X0300299Y0019400D01*
X0293923Y0019400D01*
X0294276Y0019546D01*
X0295654Y0020924D01*
X0296400Y0022725D01*
X0296400Y0030275D01*
X0295654Y0032076D01*
X0294276Y0033454D01*
X0292475Y0034200D01*
X0290525Y0034200D01*
X0288724Y0033454D01*
X0287346Y0032076D01*
X0286600Y0030275D01*
X0286600Y0022725D01*
X0287346Y0020924D01*
X0288724Y0019546D01*
X0289077Y0019400D01*
X0283923Y0019400D01*
X0284276Y0019546D01*
X0285654Y0020924D01*
X0286400Y0022725D01*
X0286400Y0030275D01*
X0285654Y0032076D01*
X0284276Y0033454D01*
X0282475Y0034200D01*
X0280525Y0034200D01*
X0278724Y0033454D01*
X0277346Y0032076D01*
X0276600Y0030275D01*
X0276600Y0022725D01*
X0277346Y0020924D01*
X0278724Y0019546D01*
X0279077Y0019400D01*
X0273923Y0019400D01*
X0274276Y0019546D01*
X0275654Y0020924D01*
X0276400Y0022725D01*
X0276400Y0030275D01*
X0275654Y0032076D01*
X0274276Y0033454D01*
X0272475Y0034200D01*
X0270525Y0034200D01*
X0268724Y0033454D01*
X0267346Y0032076D01*
X0266600Y0030275D01*
X0266600Y0022725D01*
X0267346Y0020924D01*
X0268724Y0019546D01*
X0269077Y0019400D01*
X0263923Y0019400D01*
X0264276Y0019546D01*
X0265654Y0020924D01*
X0266400Y0022725D01*
X0266400Y0030275D01*
X0265654Y0032076D01*
X0264276Y0033454D01*
X0262475Y0034200D01*
X0260525Y0034200D01*
X0258724Y0033454D01*
X0257346Y0032076D01*
X0256600Y0030275D01*
X0256600Y0022725D01*
X0257346Y0020924D01*
X0258724Y0019546D01*
X0259077Y0019400D01*
X0233923Y0019400D01*
X0234276Y0019546D01*
X0235654Y0020924D01*
X0236400Y0022725D01*
X0236400Y0030275D01*
X0235654Y0032076D01*
X0234276Y0033454D01*
X0232475Y0034200D01*
X0230525Y0034200D01*
X0228724Y0033454D01*
X0227346Y0032076D01*
X0226600Y0030275D01*
X0226600Y0022725D01*
X0227346Y0020924D01*
X0228724Y0019546D01*
X0229077Y0019400D01*
X0227701Y0019400D01*
X0225807Y0021294D01*
X0226400Y0022725D01*
X0226400Y0030275D01*
X0225654Y0032076D01*
X0224276Y0033454D01*
X0223203Y0033898D01*
X0218958Y0038143D01*
X0218143Y0038958D01*
X0217077Y0039400D01*
X0187701Y0039400D01*
X0184400Y0042701D01*
X0184400Y0057470D01*
X0186400Y0059470D01*
X0186400Y0063530D01*
X0183530Y0066400D01*
X0179470Y0066400D01*
X0179400Y0066330D01*
X0179400Y0080299D01*
X0182701Y0083600D01*
X0187077Y0083600D01*
X0188143Y0084041D01*
X0193203Y0089102D01*
X0194276Y0089546D01*
X0195654Y0090924D01*
X0196400Y0092725D01*
X0196400Y0100275D01*
X0195654Y0102076D01*
X0194400Y0103330D01*
X0194400Y0107077D01*
X0193958Y0108143D01*
X0189400Y0112701D01*
X0189400Y0119266D01*
X0190525Y0118800D01*
X0192475Y0118800D01*
X0194276Y0119546D01*
X0195654Y0120924D01*
X0196400Y0122725D01*
X0196400Y0130275D01*
X0195654Y0132076D01*
X0194276Y0133454D01*
X0192475Y0134200D01*
X0190525Y0134200D01*
X0189400Y0133734D01*
X0189400Y0150299D01*
X0192701Y0153600D01*
X0199077Y0153600D01*
X0198724Y0153454D01*
X0197346Y0152076D01*
X0196600Y0150275D01*
X0196600Y0142725D01*
X0197346Y0140924D01*
X0198600Y0139670D01*
X0198600Y0135530D01*
X0196600Y0133530D01*
X0196600Y0129470D01*
X0199470Y0126600D01*
X0203530Y0126600D01*
X0206400Y0129470D01*
X0206400Y0133530D01*
X0204400Y0135530D01*
X0204400Y0139670D01*
X0205654Y0140924D01*
X0206400Y0142725D01*
X0206400Y0150275D01*
X0205654Y0152076D01*
X0204276Y0153454D01*
X0203923Y0153600D01*
X0209077Y0153600D01*
X0208724Y0153454D01*
X0207346Y0152076D01*
X0206600Y0150275D01*
X0206600Y0142725D01*
X0207346Y0140924D01*
X0208600Y0139670D01*
X0208600Y0135530D01*
X0206600Y0133530D01*
X0206600Y0129470D01*
X0208600Y0127470D01*
X0208600Y0063330D01*
X0207346Y0062076D01*
X0206600Y0060275D01*
X0206600Y0052725D01*
X0207346Y0050924D01*
X0208724Y0049546D01*
X0210525Y0048800D01*
X0212475Y0048800D01*
X0214276Y0049546D01*
X0215654Y0050924D01*
X0216400Y0052725D01*
X0216400Y0060275D01*
X0215654Y0062076D01*
X0214400Y0063330D01*
X0214400Y0107519D01*
X0214719Y0107200D01*
X0216200Y0107200D01*
X0216200Y0111200D01*
X0216800Y0111200D01*
X0216800Y0111800D01*
X0216200Y0111800D01*
X0216200Y0115800D01*
X0214719Y0115800D01*
X0214400Y0115481D01*
X0214400Y0127470D01*
X0216400Y0129470D01*
X0216400Y0133530D01*
X0214400Y0135530D01*
X0214400Y0139670D01*
X0215654Y0140924D01*
X0216400Y0142725D01*
X0216400Y0150275D01*
X0215654Y0152076D01*
X0214276Y0153454D01*
X0213923Y0153600D01*
X0219077Y0153600D01*
X0218724Y0153454D01*
X0217346Y0152076D01*
X0216600Y0150275D01*
X0216600Y0142725D01*
X0217346Y0140924D01*
X0218724Y0139546D01*
X0220525Y0138800D01*
X0222475Y0138800D01*
X0224276Y0139546D01*
X0225654Y0140924D01*
X0226400Y0142725D01*
X0226400Y0150275D01*
X0225654Y0152076D01*
X0224276Y0153454D01*
X0223923Y0153600D01*
X0229077Y0153600D01*
X0228724Y0153454D01*
X0227346Y0152076D01*
X0226600Y0150275D01*
X0226600Y0142725D01*
X0227346Y0140924D01*
X0228724Y0139546D01*
X0230525Y0138800D01*
X0232475Y0138800D01*
X0234276Y0139546D01*
X0235654Y0140924D01*
X0236400Y0142725D01*
X0236400Y0150275D01*
X0235654Y0152076D01*
X0234276Y0153454D01*
X0233923Y0153600D01*
X0239077Y0153600D01*
X0238724Y0153454D01*
X0237346Y0152076D01*
X0236600Y0150275D01*
X0236600Y0142725D01*
X0237346Y0140924D01*
X0238724Y0139546D01*
X0240525Y0138800D01*
X0242475Y0138800D01*
X0244276Y0139546D01*
X0244314Y0139585D01*
X0249041Y0134857D01*
X0249857Y0134041D01*
X0250923Y0133600D01*
X0257077Y0133600D01*
X0258143Y0134041D01*
X0263143Y0139041D01*
X0263203Y0139102D01*
X0264276Y0139546D01*
X0265654Y0140924D01*
X0266400Y0142725D01*
X0266400Y0150275D01*
X0265654Y0152076D01*
X0264276Y0153454D01*
X0262475Y0154200D01*
X0260525Y0154200D01*
X0258724Y0153454D01*
X0257346Y0152076D01*
X0256600Y0150275D01*
X0256600Y0142725D01*
X0257193Y0141294D01*
X0255299Y0139400D01*
X0253923Y0139400D01*
X0254276Y0139546D01*
X0255654Y0140924D01*
X0256400Y0142725D01*
X0256400Y0150275D01*
X0255654Y0152076D01*
X0254400Y0153330D01*
X0254400Y0157077D01*
X0253958Y0158143D01*
X0248143Y0163958D01*
X0247077Y0164400D01*
X0218501Y0164400D01*
X0223143Y0169041D01*
X0223203Y0169102D01*
X0224276Y0169546D01*
X0225654Y0170924D01*
X0226400Y0172725D01*
X0226400Y0180275D01*
X0225654Y0182076D01*
X0224276Y0183454D01*
X0222475Y0184200D01*
X0220525Y0184200D01*
X0218724Y0183454D01*
X0217346Y0182076D01*
X0216600Y0180275D01*
X0216600Y0172725D01*
X0217193Y0171294D01*
X0215299Y0169400D01*
X0213923Y0169400D01*
X0214276Y0169546D01*
X0215654Y0170924D01*
X0216400Y0172725D01*
X0216400Y0180275D01*
X0215654Y0182076D01*
X0214276Y0183454D01*
X0213203Y0183898D01*
X0213143Y0183958D01*
X0208501Y0188600D01*
X0255299Y0188600D01*
X0258600Y0185299D01*
X0258600Y0183330D01*
X0257346Y0182076D01*
X0256600Y0180275D01*
X0256600Y0172725D01*
X0257346Y0170924D01*
X0258724Y0169546D01*
X0260525Y0168800D01*
X0262475Y0168800D01*
X0264276Y0169546D01*
X0265654Y0170924D01*
X0266400Y0172725D01*
X0266400Y0173600D01*
X0275299Y0173600D01*
X0278600Y0170299D01*
X0278600Y0131360D01*
X0278328Y0131247D01*
X0276753Y0129672D01*
X0275900Y0127614D01*
X0275900Y0125386D01*
X0276753Y0123328D01*
X0278328Y0121753D01*
X0280386Y0120900D01*
X0282614Y0120900D01*
X0284672Y0121753D01*
X0286247Y0123328D01*
X0287100Y0125386D01*
X0287100Y0127614D01*
X0286247Y0129672D01*
X0284672Y0131247D01*
X0284400Y0131360D01*
X0284400Y0172077D01*
X0283958Y0173143D01*
X0283143Y0173958D01*
X0278143Y0178958D01*
X0277077Y0179400D01*
X0266400Y0179400D01*
X0266400Y0180275D01*
X0265654Y0182076D01*
X0264400Y0183330D01*
X0264400Y0187077D01*
X0263958Y0188143D01*
X0263143Y0188958D01*
X0258958Y0193143D01*
X0258143Y0193958D01*
X0257077Y0194400D01*
X0185923Y0194400D01*
X0184857Y0193958D01*
X0179041Y0188143D01*
X0178600Y0187077D01*
X0178600Y0185530D01*
X0176600Y0183530D01*
X0176600Y0179470D01*
X0176670Y0179400D01*
X0166330Y0179400D01*
X0166400Y0179470D01*
X0166400Y0183530D01*
X0163530Y0186400D01*
X0159470Y0186400D01*
X0156600Y0183530D01*
X0156600Y0179470D01*
X0156670Y0179400D01*
X0145481Y0179400D01*
X0145800Y0179719D01*
X0145800Y0181200D01*
X0141800Y0181200D01*
X0141800Y0181800D01*
X0141200Y0181800D01*
X0141200Y0185800D01*
X0139719Y0185800D01*
X0137200Y0183281D01*
X0137200Y0181800D01*
X0141200Y0181800D01*
X0141200Y0181200D01*
X0137200Y0181200D01*
X0137200Y0179719D01*
X0137519Y0179400D01*
X0127701Y0179400D01*
X0108143Y0198958D01*
X0107172Y0199361D01*
X0398101Y0199361D01*
X0398101Y0003600D01*
X0003600Y0003600D01*
X0003600Y0004496D02*
X0398101Y0004496D01*
X0398101Y0005494D02*
X0003600Y0005494D01*
X0003600Y0006493D02*
X0398101Y0006493D01*
X0398101Y0007491D02*
X0003600Y0007491D01*
X0003600Y0008490D02*
X0398101Y0008490D01*
X0398101Y0009488D02*
X0003600Y0009488D01*
X0003600Y0010487D02*
X0398101Y0010487D01*
X0398101Y0011485D02*
X0003600Y0011485D01*
X0003600Y0012484D02*
X0398101Y0012484D01*
X0398101Y0013482D02*
X0003600Y0013482D01*
X0003600Y0014481D02*
X0224418Y0014481D01*
X0223420Y0015479D02*
X0003600Y0015479D01*
X0003600Y0016478D02*
X0028991Y0016478D01*
X0028328Y0016753D02*
X0030386Y0015900D01*
X0032614Y0015900D01*
X0034672Y0016753D01*
X0036247Y0018328D01*
X0037100Y0020386D01*
X0037100Y0022614D01*
X0036247Y0024672D01*
X0034672Y0026247D01*
X0033115Y0026892D01*
X0034261Y0027367D01*
X0035633Y0028739D01*
X0036375Y0030530D01*
X0036375Y0032470D01*
X0035633Y0034261D01*
X0034261Y0035633D01*
X0032470Y0036375D01*
X0030530Y0036375D01*
X0028739Y0035633D01*
X0027367Y0034261D01*
X0026625Y0032470D01*
X0026625Y0030530D01*
X0027367Y0028739D01*
X0028739Y0027367D01*
X0029885Y0026892D01*
X0028328Y0026247D01*
X0026753Y0024672D01*
X0025900Y0022614D01*
X0025900Y0020386D01*
X0026753Y0018328D01*
X0028328Y0016753D01*
X0027604Y0017476D02*
X0003600Y0017476D01*
X0003600Y0018475D02*
X0026692Y0018475D01*
X0026278Y0019473D02*
X0003600Y0019473D01*
X0003600Y0020472D02*
X0025900Y0020472D01*
X0025900Y0021470D02*
X0003600Y0021470D01*
X0003600Y0022469D02*
X0025900Y0022469D01*
X0026253Y0023467D02*
X0003600Y0023467D01*
X0003600Y0024466D02*
X0026667Y0024466D01*
X0027545Y0025464D02*
X0003600Y0025464D01*
X0003600Y0026463D02*
X0028848Y0026463D01*
X0028645Y0027461D02*
X0003600Y0027461D01*
X0003600Y0028460D02*
X0027646Y0028460D01*
X0027069Y0029458D02*
X0003600Y0029458D01*
X0003600Y0030457D02*
X0026656Y0030457D01*
X0026625Y0031455D02*
X0003600Y0031455D01*
X0003600Y0032454D02*
X0026625Y0032454D01*
X0027032Y0033452D02*
X0003600Y0033452D01*
X0003600Y0034451D02*
X0027557Y0034451D01*
X0028555Y0035449D02*
X0003600Y0035449D01*
X0003600Y0036448D02*
X0173600Y0036448D01*
X0173600Y0037446D02*
X0094340Y0037446D01*
X0094261Y0037367D02*
X0095633Y0038739D01*
X0096375Y0040530D01*
X0096375Y0042470D01*
X0095633Y0044261D01*
X0094261Y0045633D01*
X0092470Y0046375D01*
X0090530Y0046375D01*
X0088739Y0045633D01*
X0087367Y0044261D01*
X0086625Y0042470D01*
X0086625Y0040530D01*
X0087367Y0038739D01*
X0088739Y0037367D01*
X0090530Y0036625D01*
X0092470Y0036625D01*
X0094261Y0037367D01*
X0095339Y0038445D02*
X0173600Y0038445D01*
X0173600Y0039443D02*
X0095925Y0039443D01*
X0096338Y0040442D02*
X0173600Y0040442D01*
X0173600Y0041440D02*
X0096375Y0041440D01*
X0096375Y0042439D02*
X0173600Y0042439D01*
X0173600Y0043437D02*
X0095974Y0043437D01*
X0095458Y0044436D02*
X0173600Y0044436D01*
X0173600Y0045434D02*
X0094459Y0045434D01*
X0094261Y0047367D02*
X0095633Y0048739D01*
X0096375Y0050530D01*
X0096375Y0052470D01*
X0095633Y0054261D01*
X0094261Y0055633D01*
X0092470Y0056375D01*
X0090530Y0056375D01*
X0088739Y0055633D01*
X0087367Y0054261D01*
X0086625Y0052470D01*
X0086625Y0050530D01*
X0087367Y0048739D01*
X0088739Y0047367D01*
X0090530Y0046625D01*
X0092470Y0046625D01*
X0094261Y0047367D01*
X0094326Y0047432D02*
X0173600Y0047432D01*
X0173600Y0048430D02*
X0095324Y0048430D01*
X0095918Y0049429D02*
X0173600Y0049429D01*
X0173600Y0050427D02*
X0096332Y0050427D01*
X0096375Y0051426D02*
X0173600Y0051426D01*
X0173600Y0052424D02*
X0096375Y0052424D01*
X0095980Y0053423D02*
X0173600Y0053423D01*
X0173600Y0054421D02*
X0095473Y0054421D01*
X0094474Y0055420D02*
X0173600Y0055420D01*
X0173600Y0056418D02*
X0003600Y0056418D01*
X0003600Y0055420D02*
X0028526Y0055420D01*
X0028739Y0055633D02*
X0027367Y0054261D01*
X0026625Y0052470D01*
X0026625Y0050530D01*
X0027367Y0048739D01*
X0028739Y0047367D01*
X0030530Y0046625D01*
X0032470Y0046625D01*
X0034261Y0047367D01*
X0035633Y0048739D01*
X0036375Y0050530D01*
X0036375Y0052470D01*
X0035633Y0054261D01*
X0034261Y0055633D01*
X0032470Y0056375D01*
X0030530Y0056375D01*
X0028739Y0055633D01*
X0027527Y0054421D02*
X0003600Y0054421D01*
X0003600Y0053423D02*
X0027020Y0053423D01*
X0026625Y0052424D02*
X0003600Y0052424D01*
X0003600Y0051426D02*
X0026625Y0051426D01*
X0026668Y0050427D02*
X0003600Y0050427D01*
X0003600Y0049429D02*
X0027082Y0049429D01*
X0027676Y0048430D02*
X0003600Y0048430D01*
X0003600Y0047432D02*
X0028674Y0047432D01*
X0029806Y0045434D02*
X0003600Y0045434D01*
X0003600Y0044436D02*
X0028391Y0044436D01*
X0028239Y0044285D02*
X0027844Y0043740D01*
X0027538Y0043141D01*
X0027330Y0042501D01*
X0027225Y0041836D01*
X0027225Y0041787D01*
X0031213Y0041787D01*
X0031213Y0041213D01*
X0027225Y0041213D01*
X0027225Y0041164D01*
X0027330Y0040499D01*
X0027538Y0039859D01*
X0027844Y0039260D01*
X0028239Y0038715D01*
X0028715Y0038239D01*
X0029260Y0037844D01*
X0029859Y0037538D01*
X0030499Y0037330D01*
X0031164Y0037225D01*
X0031213Y0037225D01*
X0031213Y0041213D01*
X0031787Y0041213D01*
X0031787Y0037225D01*
X0031836Y0037225D01*
X0032501Y0037330D01*
X0033141Y0037538D01*
X0033740Y0037844D01*
X0034285Y0038239D01*
X0034761Y0038715D01*
X0035156Y0039260D01*
X0035462Y0039859D01*
X0035670Y0040499D01*
X0035775Y0041164D01*
X0035775Y0041213D01*
X0031787Y0041213D01*
X0031787Y0041787D01*
X0031213Y0041787D01*
X0031213Y0045775D01*
X0031164Y0045775D01*
X0030499Y0045670D01*
X0029859Y0045462D01*
X0029260Y0045156D01*
X0028715Y0044761D01*
X0028239Y0044285D01*
X0027689Y0043437D02*
X0003600Y0043437D01*
X0003600Y0042439D02*
X0027321Y0042439D01*
X0027349Y0040442D02*
X0003600Y0040442D01*
X0003600Y0041440D02*
X0031213Y0041440D01*
X0031787Y0041440D02*
X0086625Y0041440D01*
X0086662Y0040442D02*
X0035651Y0040442D01*
X0035250Y0039443D02*
X0087075Y0039443D01*
X0087661Y0038445D02*
X0034490Y0038445D01*
X0032858Y0037446D02*
X0088660Y0037446D01*
X0088739Y0035633D02*
X0087367Y0034261D01*
X0086625Y0032470D01*
X0086625Y0030530D01*
X0087367Y0028739D01*
X0088739Y0027367D01*
X0089885Y0026892D01*
X0088328Y0026247D01*
X0086753Y0024672D01*
X0085900Y0022614D01*
X0085900Y0020386D01*
X0086753Y0018328D01*
X0088328Y0016753D01*
X0090386Y0015900D01*
X0092614Y0015900D01*
X0094672Y0016753D01*
X0096247Y0018328D01*
X0097100Y0020386D01*
X0097100Y0022614D01*
X0096247Y0024672D01*
X0094672Y0026247D01*
X0093115Y0026892D01*
X0094261Y0027367D01*
X0095633Y0028739D01*
X0096375Y0030530D01*
X0096375Y0032470D01*
X0095633Y0034261D01*
X0094261Y0035633D01*
X0092470Y0036375D01*
X0090530Y0036375D01*
X0088739Y0035633D01*
X0088555Y0035449D02*
X0034445Y0035449D01*
X0035443Y0034451D02*
X0087557Y0034451D01*
X0087032Y0033452D02*
X0035968Y0033452D01*
X0036375Y0032454D02*
X0086625Y0032454D01*
X0086625Y0031455D02*
X0036375Y0031455D01*
X0036344Y0030457D02*
X0086656Y0030457D01*
X0087069Y0029458D02*
X0035931Y0029458D01*
X0035354Y0028460D02*
X0087646Y0028460D01*
X0088645Y0027461D02*
X0034355Y0027461D01*
X0034152Y0026463D02*
X0088848Y0026463D01*
X0087545Y0025464D02*
X0035455Y0025464D01*
X0036333Y0024466D02*
X0086667Y0024466D01*
X0086253Y0023467D02*
X0036747Y0023467D01*
X0037100Y0022469D02*
X0085900Y0022469D01*
X0085900Y0021470D02*
X0037100Y0021470D01*
X0037100Y0020472D02*
X0085900Y0020472D01*
X0086278Y0019473D02*
X0036722Y0019473D01*
X0036308Y0018475D02*
X0086692Y0018475D01*
X0087604Y0017476D02*
X0035396Y0017476D01*
X0034009Y0016478D02*
X0088991Y0016478D01*
X0094009Y0016478D02*
X0222421Y0016478D01*
X0221423Y0017476D02*
X0184406Y0017476D01*
X0185404Y0018475D02*
X0220424Y0018475D01*
X0218900Y0019473D02*
X0214100Y0019473D01*
X0215201Y0020472D02*
X0217799Y0020472D01*
X0217120Y0021470D02*
X0215880Y0021470D01*
X0216294Y0022469D02*
X0216706Y0022469D01*
X0216600Y0023467D02*
X0216400Y0023467D01*
X0216400Y0024466D02*
X0216600Y0024466D01*
X0216600Y0025464D02*
X0216400Y0025464D01*
X0216400Y0026463D02*
X0216600Y0026463D01*
X0216600Y0027461D02*
X0216400Y0027461D01*
X0216400Y0028460D02*
X0216600Y0028460D01*
X0216600Y0029458D02*
X0216400Y0029458D01*
X0216325Y0030457D02*
X0216675Y0030457D01*
X0217089Y0031455D02*
X0215911Y0031455D01*
X0216445Y0032454D02*
X0215276Y0032454D01*
X0215446Y0033452D02*
X0214277Y0033452D01*
X0220653Y0036448D02*
X0303600Y0036448D01*
X0303600Y0037446D02*
X0219655Y0037446D01*
X0218656Y0038445D02*
X0303600Y0038445D01*
X0303600Y0039443D02*
X0187658Y0039443D01*
X0186659Y0040442D02*
X0303600Y0040442D01*
X0303600Y0041440D02*
X0185661Y0041440D01*
X0184662Y0042439D02*
X0303600Y0042439D01*
X0303600Y0043437D02*
X0184400Y0043437D01*
X0184400Y0044436D02*
X0303600Y0044436D01*
X0303600Y0045434D02*
X0184400Y0045434D01*
X0184400Y0046433D02*
X0303600Y0046433D01*
X0303600Y0047432D02*
X0184400Y0047432D01*
X0184400Y0048430D02*
X0303600Y0048430D01*
X0303600Y0049429D02*
X0293992Y0049429D01*
X0294276Y0049546D02*
X0292475Y0048800D01*
X0290525Y0048800D01*
X0288724Y0049546D01*
X0287346Y0050924D01*
X0286600Y0052725D01*
X0286600Y0060275D01*
X0287346Y0062076D01*
X0288600Y0063330D01*
X0288600Y0094499D01*
X0274400Y0080299D01*
X0274400Y0063330D01*
X0275654Y0062076D01*
X0276400Y0060275D01*
X0276400Y0052725D01*
X0275654Y0050924D01*
X0274276Y0049546D01*
X0272475Y0048800D01*
X0270525Y0048800D01*
X0268724Y0049546D01*
X0267346Y0050924D01*
X0266600Y0052725D01*
X0266600Y0060275D01*
X0267346Y0062076D01*
X0268600Y0063330D01*
X0268600Y0082077D01*
X0269041Y0083143D01*
X0269857Y0083958D01*
X0281799Y0095900D01*
X0280386Y0095900D01*
X0278328Y0096753D01*
X0276753Y0098328D01*
X0276640Y0098600D01*
X0227701Y0098600D01*
X0224400Y0095299D01*
X0224400Y0063330D01*
X0225654Y0062076D01*
X0226400Y0060275D01*
X0226400Y0052725D01*
X0225654Y0050924D01*
X0224276Y0049546D01*
X0222475Y0048800D01*
X0220525Y0048800D01*
X0218724Y0049546D01*
X0217346Y0050924D01*
X0216600Y0052725D01*
X0216600Y0060275D01*
X0217346Y0062076D01*
X0218600Y0063330D01*
X0218600Y0097077D01*
X0219041Y0098143D01*
X0219857Y0098958D01*
X0219857Y0098958D01*
X0224857Y0103958D01*
X0225923Y0104400D01*
X0276640Y0104400D01*
X0276753Y0104672D01*
X0278328Y0106247D01*
X0280386Y0107100D01*
X0282614Y0107100D01*
X0284672Y0106247D01*
X0286247Y0104672D01*
X0287100Y0102614D01*
X0287100Y0101201D01*
X0288600Y0102701D01*
X0288600Y0187077D01*
X0289041Y0188143D01*
X0289857Y0188958D01*
X0294857Y0193958D01*
X0295923Y0194400D01*
X0382077Y0194400D01*
X0383143Y0193958D01*
X0383958Y0193143D01*
X0388958Y0188143D01*
X0389400Y0187077D01*
X0389400Y0110923D01*
X0388958Y0109857D01*
X0388143Y0109041D01*
X0378143Y0099041D01*
X0377077Y0098600D01*
X0341360Y0098600D01*
X0341247Y0098328D01*
X0339672Y0096753D01*
X0337614Y0095900D01*
X0335386Y0095900D01*
X0333328Y0096753D01*
X0331753Y0098328D01*
X0330900Y0100386D01*
X0330900Y0102614D01*
X0331753Y0104672D01*
X0333328Y0106247D01*
X0335386Y0107100D01*
X0337614Y0107100D01*
X0339672Y0106247D01*
X0341247Y0104672D01*
X0341360Y0104400D01*
X0375299Y0104400D01*
X0383600Y0112701D01*
X0383600Y0139266D01*
X0382475Y0138800D01*
X0380525Y0138800D01*
X0378724Y0139546D01*
X0377346Y0140924D01*
X0376600Y0142725D01*
X0376600Y0150275D01*
X0377346Y0152076D01*
X0378724Y0153454D01*
X0380525Y0154200D01*
X0382475Y0154200D01*
X0383600Y0153734D01*
X0383600Y0169266D01*
X0382475Y0168800D01*
X0380525Y0168800D01*
X0378724Y0169546D01*
X0377346Y0170924D01*
X0376600Y0172725D01*
X0376600Y0180275D01*
X0377193Y0181706D01*
X0375299Y0183600D01*
X0373923Y0183600D01*
X0374276Y0183454D01*
X0375654Y0182076D01*
X0376400Y0180275D01*
X0376400Y0172725D01*
X0375654Y0170924D01*
X0374400Y0169670D01*
X0374400Y0153330D01*
X0375654Y0152076D01*
X0376400Y0150275D01*
X0376400Y0142725D01*
X0375654Y0140924D01*
X0374276Y0139546D01*
X0372475Y0138800D01*
X0370525Y0138800D01*
X0368724Y0139546D01*
X0367346Y0140924D01*
X0366600Y0142725D01*
X0366600Y0147299D01*
X0366400Y0147499D01*
X0366400Y0142725D01*
X0365654Y0140924D01*
X0364276Y0139546D01*
X0362475Y0138800D01*
X0360525Y0138800D01*
X0358724Y0139546D01*
X0357346Y0140924D01*
X0356600Y0142725D01*
X0356600Y0150275D01*
X0357346Y0152076D01*
X0358724Y0153454D01*
X0359077Y0153600D01*
X0353923Y0153600D01*
X0354276Y0153454D01*
X0355654Y0152076D01*
X0356400Y0150275D01*
X0356400Y0142725D01*
X0355654Y0140924D01*
X0354276Y0139546D01*
X0352475Y0138800D01*
X0350525Y0138800D01*
X0348724Y0139546D01*
X0347346Y0140924D01*
X0346600Y0142725D01*
X0346600Y0150275D01*
X0347346Y0152076D01*
X0348724Y0153454D01*
X0349077Y0153600D01*
X0343923Y0153600D01*
X0344276Y0153454D01*
X0345654Y0152076D01*
X0346400Y0150275D01*
X0346400Y0142725D01*
X0345654Y0140924D01*
X0344276Y0139546D01*
X0342475Y0138800D01*
X0340525Y0138800D01*
X0338724Y0139546D01*
X0337346Y0140924D01*
X0336600Y0142725D01*
X0336600Y0150275D01*
X0337346Y0152076D01*
X0338724Y0153454D01*
X0339077Y0153600D01*
X0337701Y0153600D01*
X0335807Y0151706D01*
X0336400Y0150275D01*
X0336400Y0142725D01*
X0335654Y0140924D01*
X0334276Y0139546D01*
X0332475Y0138800D01*
X0330525Y0138800D01*
X0328724Y0139546D01*
X0327346Y0140924D01*
X0326600Y0142725D01*
X0326600Y0143600D01*
X0326400Y0143600D01*
X0326400Y0142725D01*
X0325654Y0140924D01*
X0324400Y0139670D01*
X0324400Y0069400D01*
X0377077Y0069400D01*
X0378143Y0068958D01*
X0378958Y0068143D01*
X0383203Y0063898D01*
X0384276Y0063454D01*
X0385654Y0062076D01*
X0386400Y0060275D01*
X0386400Y0052725D01*
X0385654Y0050924D01*
X0384276Y0049546D01*
X0382475Y0048800D01*
X0380525Y0048800D01*
X0378724Y0049546D01*
X0377346Y0050924D01*
X0376600Y0052725D01*
X0376600Y0060275D01*
X0377193Y0061706D01*
X0375299Y0063600D01*
X0373923Y0063600D01*
X0374276Y0063454D01*
X0375654Y0062076D01*
X0376400Y0060275D01*
X0376400Y0052725D01*
X0375654Y0050924D01*
X0374400Y0049670D01*
X0374400Y0045923D01*
X0373958Y0044857D01*
X0368958Y0039857D01*
X0368143Y0039041D01*
X0367077Y0038600D01*
X0334400Y0038600D01*
X0334400Y0033330D01*
X0335654Y0032076D01*
X0336400Y0030275D01*
X0336400Y0022725D01*
X0335654Y0020924D01*
X0334276Y0019546D01*
X0332475Y0018800D01*
X0330525Y0018800D01*
X0328724Y0019546D01*
X0327346Y0020924D01*
X0326600Y0022725D01*
X0326600Y0030275D01*
X0327346Y0032076D01*
X0328600Y0033330D01*
X0328600Y0049670D01*
X0327346Y0050924D01*
X0326600Y0052725D01*
X0326600Y0060275D01*
X0327346Y0062076D01*
X0328724Y0063454D01*
X0329077Y0063600D01*
X0324400Y0063600D01*
X0324400Y0063330D01*
X0325654Y0062076D01*
X0326400Y0060275D01*
X0326400Y0052725D01*
X0325654Y0050924D01*
X0324276Y0049546D01*
X0322475Y0048800D01*
X0320525Y0048800D01*
X0318724Y0049546D01*
X0317346Y0050924D01*
X0316600Y0052725D01*
X0316600Y0060275D01*
X0317346Y0062076D01*
X0318600Y0063330D01*
X0318600Y0139670D01*
X0317346Y0140924D01*
X0316600Y0142725D01*
X0316600Y0150275D01*
X0317346Y0152076D01*
X0318724Y0153454D01*
X0320525Y0154200D01*
X0322475Y0154200D01*
X0324276Y0153454D01*
X0325654Y0152076D01*
X0326400Y0150275D01*
X0326400Y0149400D01*
X0326600Y0149400D01*
X0326600Y0150275D01*
X0327346Y0152076D01*
X0328724Y0153454D01*
X0329797Y0153898D01*
X0334041Y0158143D01*
X0334857Y0158958D01*
X0335923Y0159400D01*
X0362077Y0159400D01*
X0363143Y0158958D01*
X0368600Y0153501D01*
X0368600Y0169670D01*
X0367346Y0170924D01*
X0366600Y0172725D01*
X0366600Y0180275D01*
X0367346Y0182076D01*
X0368724Y0183454D01*
X0369077Y0183600D01*
X0363923Y0183600D01*
X0364276Y0183454D01*
X0365654Y0182076D01*
X0366400Y0180275D01*
X0366400Y0172725D01*
X0365654Y0170924D01*
X0364276Y0169546D01*
X0362475Y0168800D01*
X0360525Y0168800D01*
X0358724Y0169546D01*
X0357346Y0170924D01*
X0356600Y0172725D01*
X0356600Y0180275D01*
X0357346Y0182076D01*
X0358724Y0183454D01*
X0359077Y0183600D01*
X0353923Y0183600D01*
X0354276Y0183454D01*
X0355654Y0182076D01*
X0356400Y0180275D01*
X0356400Y0172725D01*
X0355654Y0170924D01*
X0354276Y0169546D01*
X0352475Y0168800D01*
X0350525Y0168800D01*
X0348724Y0169546D01*
X0347346Y0170924D01*
X0346600Y0172725D01*
X0346600Y0180275D01*
X0347346Y0182076D01*
X0348724Y0183454D01*
X0349077Y0183600D01*
X0343923Y0183600D01*
X0344276Y0183454D01*
X0345654Y0182076D01*
X0346400Y0180275D01*
X0346400Y0172725D01*
X0345654Y0170924D01*
X0344276Y0169546D01*
X0342475Y0168800D01*
X0340525Y0168800D01*
X0338724Y0169546D01*
X0337346Y0170924D01*
X0336600Y0172725D01*
X0336600Y0180275D01*
X0337346Y0182076D01*
X0338724Y0183454D01*
X0339077Y0183600D01*
X0333923Y0183600D01*
X0334276Y0183454D01*
X0335654Y0182076D01*
X0336400Y0180275D01*
X0336400Y0172725D01*
X0335654Y0170924D01*
X0334276Y0169546D01*
X0332475Y0168800D01*
X0330525Y0168800D01*
X0328724Y0169546D01*
X0327346Y0170924D01*
X0326600Y0172725D01*
X0326600Y0180275D01*
X0327346Y0182076D01*
X0328724Y0183454D01*
X0329077Y0183600D01*
X0323923Y0183600D01*
X0324276Y0183454D01*
X0325654Y0182076D01*
X0326400Y0180275D01*
X0326400Y0172725D01*
X0325654Y0170924D01*
X0324276Y0169546D01*
X0322475Y0168800D01*
X0320525Y0168800D01*
X0318724Y0169546D01*
X0317346Y0170924D01*
X0316600Y0172725D01*
X0316600Y0180275D01*
X0317346Y0182076D01*
X0318724Y0183454D01*
X0319077Y0183600D01*
X0302701Y0183600D01*
X0299400Y0180299D01*
X0299400Y0132701D01*
X0302091Y0130010D01*
X0303328Y0131247D01*
X0305386Y0132100D01*
X0307614Y0132100D01*
X0309672Y0131247D01*
X0311247Y0129672D01*
X0312100Y0127614D01*
X0312100Y0125386D01*
X0311247Y0123328D01*
X0309672Y0121753D01*
X0307614Y0120900D01*
X0305386Y0120900D01*
X0303328Y0121753D01*
X0301753Y0123328D01*
X0301640Y0123600D01*
X0300923Y0123600D01*
X0299857Y0124041D01*
X0299041Y0124857D01*
X0294400Y0129499D01*
X0294400Y0103501D01*
X0294857Y0103958D01*
X0295923Y0104400D01*
X0301640Y0104400D01*
X0301753Y0104672D01*
X0303328Y0106247D01*
X0305386Y0107100D01*
X0307614Y0107100D01*
X0309672Y0106247D01*
X0311247Y0104672D01*
X0312100Y0102614D01*
X0312100Y0100386D01*
X0311247Y0098328D01*
X0309672Y0096753D01*
X0307614Y0095900D01*
X0305386Y0095900D01*
X0303328Y0096753D01*
X0301753Y0098328D01*
X0301640Y0098600D01*
X0297701Y0098600D01*
X0294400Y0095299D01*
X0294400Y0063330D01*
X0295654Y0062076D01*
X0296400Y0060275D01*
X0296400Y0052725D01*
X0295654Y0050924D01*
X0294276Y0049546D01*
X0295157Y0050427D02*
X0303600Y0050427D01*
X0303600Y0051426D02*
X0295862Y0051426D01*
X0296275Y0052424D02*
X0303600Y0052424D01*
X0303600Y0053423D02*
X0296400Y0053423D01*
X0296400Y0054421D02*
X0303600Y0054421D01*
X0303600Y0055420D02*
X0296400Y0055420D01*
X0296400Y0056418D02*
X0303600Y0056418D01*
X0303600Y0057417D02*
X0296400Y0057417D01*
X0296400Y0058415D02*
X0303600Y0058415D01*
X0303600Y0059414D02*
X0296400Y0059414D01*
X0296343Y0060412D02*
X0303600Y0060412D01*
X0303600Y0061411D02*
X0295929Y0061411D01*
X0295320Y0062409D02*
X0303600Y0062409D01*
X0303600Y0063408D02*
X0294400Y0063408D01*
X0294400Y0064406D02*
X0303600Y0064406D01*
X0303600Y0065405D02*
X0294400Y0065405D01*
X0294400Y0066403D02*
X0303600Y0066403D01*
X0303600Y0067402D02*
X0294400Y0067402D01*
X0294400Y0068400D02*
X0303600Y0068400D01*
X0303600Y0069399D02*
X0294400Y0069399D01*
X0294400Y0070397D02*
X0303600Y0070397D01*
X0303600Y0071396D02*
X0294400Y0071396D01*
X0294400Y0072394D02*
X0302686Y0072394D01*
X0301726Y0073393D02*
X0294400Y0073393D01*
X0294400Y0074391D02*
X0301312Y0074391D01*
X0300900Y0075390D02*
X0294400Y0075390D01*
X0294400Y0076388D02*
X0300900Y0076388D01*
X0300900Y0077387D02*
X0294400Y0077387D01*
X0294400Y0078385D02*
X0301220Y0078385D01*
X0301633Y0079384D02*
X0294400Y0079384D01*
X0294400Y0080382D02*
X0302463Y0080382D01*
X0303650Y0081381D02*
X0294400Y0081381D01*
X0294400Y0082379D02*
X0318600Y0082379D01*
X0318600Y0081381D02*
X0309350Y0081381D01*
X0310537Y0080382D02*
X0318600Y0080382D01*
X0318600Y0079384D02*
X0311367Y0079384D01*
X0311780Y0078385D02*
X0318600Y0078385D01*
X0318600Y0077387D02*
X0312100Y0077387D01*
X0312100Y0076388D02*
X0318600Y0076388D01*
X0318600Y0075390D02*
X0312100Y0075390D01*
X0311688Y0074391D02*
X0318600Y0074391D01*
X0318600Y0073393D02*
X0311274Y0073393D01*
X0310314Y0072394D02*
X0318600Y0072394D01*
X0318600Y0071396D02*
X0309400Y0071396D01*
X0309400Y0070397D02*
X0318600Y0070397D01*
X0318600Y0069399D02*
X0309400Y0069399D01*
X0309400Y0068400D02*
X0318600Y0068400D01*
X0318600Y0067402D02*
X0309400Y0067402D01*
X0309400Y0066403D02*
X0318600Y0066403D01*
X0318600Y0065405D02*
X0309400Y0065405D01*
X0309400Y0064406D02*
X0318600Y0064406D01*
X0318600Y0063408D02*
X0309400Y0063408D01*
X0309400Y0062409D02*
X0317680Y0062409D01*
X0317071Y0061411D02*
X0309400Y0061411D01*
X0309400Y0060412D02*
X0316657Y0060412D01*
X0316600Y0059414D02*
X0309400Y0059414D01*
X0309400Y0058415D02*
X0316600Y0058415D01*
X0316600Y0057417D02*
X0309400Y0057417D01*
X0309400Y0056418D02*
X0316600Y0056418D01*
X0316600Y0055420D02*
X0309400Y0055420D01*
X0309400Y0054421D02*
X0316600Y0054421D01*
X0316600Y0053423D02*
X0309400Y0053423D01*
X0309400Y0052424D02*
X0316725Y0052424D01*
X0317138Y0051426D02*
X0309400Y0051426D01*
X0309400Y0050427D02*
X0317843Y0050427D01*
X0319008Y0049429D02*
X0309400Y0049429D01*
X0309400Y0048430D02*
X0328600Y0048430D01*
X0328600Y0047432D02*
X0309400Y0047432D01*
X0309400Y0046433D02*
X0328600Y0046433D01*
X0328600Y0045434D02*
X0309400Y0045434D01*
X0309400Y0044436D02*
X0328600Y0044436D01*
X0328600Y0043437D02*
X0309400Y0043437D01*
X0309400Y0042439D02*
X0328600Y0042439D01*
X0328600Y0041440D02*
X0309400Y0041440D01*
X0309400Y0040442D02*
X0328600Y0040442D01*
X0328600Y0039443D02*
X0309400Y0039443D01*
X0309400Y0038445D02*
X0328600Y0038445D01*
X0328600Y0037446D02*
X0309400Y0037446D01*
X0309400Y0036448D02*
X0328600Y0036448D01*
X0328600Y0035449D02*
X0309400Y0035449D01*
X0309400Y0034451D02*
X0328600Y0034451D01*
X0328600Y0033452D02*
X0324277Y0033452D01*
X0324276Y0033454D02*
X0322475Y0034200D01*
X0320525Y0034200D01*
X0318724Y0033454D01*
X0317346Y0032076D01*
X0316600Y0030275D01*
X0316600Y0022725D01*
X0317346Y0020924D01*
X0318724Y0019546D01*
X0320525Y0018800D01*
X0322475Y0018800D01*
X0324276Y0019546D01*
X0325654Y0020924D01*
X0326400Y0022725D01*
X0326400Y0030275D01*
X0325654Y0032076D01*
X0324276Y0033454D01*
X0325276Y0032454D02*
X0327724Y0032454D01*
X0327089Y0031455D02*
X0325911Y0031455D01*
X0326325Y0030457D02*
X0326675Y0030457D01*
X0326600Y0029458D02*
X0326400Y0029458D01*
X0326400Y0028460D02*
X0326600Y0028460D01*
X0326600Y0027461D02*
X0326400Y0027461D01*
X0326400Y0026463D02*
X0326600Y0026463D01*
X0326600Y0025464D02*
X0326400Y0025464D01*
X0326400Y0024466D02*
X0326600Y0024466D01*
X0326600Y0023467D02*
X0326400Y0023467D01*
X0326294Y0022469D02*
X0326706Y0022469D01*
X0327120Y0021470D02*
X0325880Y0021470D01*
X0325201Y0020472D02*
X0327799Y0020472D01*
X0328900Y0019473D02*
X0324100Y0019473D01*
X0318900Y0019473D02*
X0308574Y0019473D01*
X0309213Y0020472D02*
X0317799Y0020472D01*
X0317120Y0021470D02*
X0309400Y0021470D01*
X0309400Y0022469D02*
X0316706Y0022469D01*
X0316600Y0023467D02*
X0309400Y0023467D01*
X0309400Y0024466D02*
X0316600Y0024466D01*
X0316600Y0025464D02*
X0309400Y0025464D01*
X0309400Y0026463D02*
X0316600Y0026463D01*
X0316600Y0027461D02*
X0309400Y0027461D01*
X0309400Y0028460D02*
X0316600Y0028460D01*
X0316600Y0029458D02*
X0309400Y0029458D01*
X0309400Y0030457D02*
X0316675Y0030457D01*
X0317089Y0031455D02*
X0309400Y0031455D01*
X0309400Y0032454D02*
X0317724Y0032454D01*
X0318723Y0033452D02*
X0309400Y0033452D01*
X0303600Y0033452D02*
X0294277Y0033452D01*
X0295276Y0032454D02*
X0303600Y0032454D01*
X0303600Y0031455D02*
X0295911Y0031455D01*
X0296325Y0030457D02*
X0303600Y0030457D01*
X0303600Y0029458D02*
X0296400Y0029458D01*
X0296400Y0028460D02*
X0303600Y0028460D01*
X0303600Y0027461D02*
X0296400Y0027461D01*
X0296400Y0026463D02*
X0303600Y0026463D01*
X0303600Y0025464D02*
X0296400Y0025464D01*
X0296400Y0024466D02*
X0303600Y0024466D01*
X0303600Y0023467D02*
X0296400Y0023467D01*
X0296294Y0022469D02*
X0303368Y0022469D01*
X0302369Y0021470D02*
X0295880Y0021470D01*
X0295201Y0020472D02*
X0301370Y0020472D01*
X0300372Y0019473D02*
X0294100Y0019473D01*
X0288900Y0019473D02*
X0284100Y0019473D01*
X0285201Y0020472D02*
X0287799Y0020472D01*
X0287120Y0021470D02*
X0285880Y0021470D01*
X0286294Y0022469D02*
X0286706Y0022469D01*
X0286600Y0023467D02*
X0286400Y0023467D01*
X0286400Y0024466D02*
X0286600Y0024466D01*
X0286600Y0025464D02*
X0286400Y0025464D01*
X0286400Y0026463D02*
X0286600Y0026463D01*
X0286600Y0027461D02*
X0286400Y0027461D01*
X0286400Y0028460D02*
X0286600Y0028460D01*
X0286600Y0029458D02*
X0286400Y0029458D01*
X0286325Y0030457D02*
X0286675Y0030457D01*
X0287089Y0031455D02*
X0285911Y0031455D01*
X0285276Y0032454D02*
X0287724Y0032454D01*
X0288723Y0033452D02*
X0284277Y0033452D01*
X0278723Y0033452D02*
X0274277Y0033452D01*
X0275276Y0032454D02*
X0277724Y0032454D01*
X0277089Y0031455D02*
X0275911Y0031455D01*
X0276325Y0030457D02*
X0276675Y0030457D01*
X0276600Y0029458D02*
X0276400Y0029458D01*
X0276400Y0028460D02*
X0276600Y0028460D01*
X0276600Y0027461D02*
X0276400Y0027461D01*
X0276400Y0026463D02*
X0276600Y0026463D01*
X0276600Y0025464D02*
X0276400Y0025464D01*
X0276400Y0024466D02*
X0276600Y0024466D01*
X0276600Y0023467D02*
X0276400Y0023467D01*
X0276294Y0022469D02*
X0276706Y0022469D01*
X0277120Y0021470D02*
X0275880Y0021470D01*
X0275201Y0020472D02*
X0277799Y0020472D01*
X0278900Y0019473D02*
X0274100Y0019473D01*
X0268900Y0019473D02*
X0264100Y0019473D01*
X0265201Y0020472D02*
X0267799Y0020472D01*
X0267120Y0021470D02*
X0265880Y0021470D01*
X0266294Y0022469D02*
X0266706Y0022469D01*
X0266600Y0023467D02*
X0266400Y0023467D01*
X0266400Y0024466D02*
X0266600Y0024466D01*
X0266600Y0025464D02*
X0266400Y0025464D01*
X0266400Y0026463D02*
X0266600Y0026463D01*
X0266600Y0027461D02*
X0266400Y0027461D01*
X0266400Y0028460D02*
X0266600Y0028460D01*
X0266600Y0029458D02*
X0266400Y0029458D01*
X0266325Y0030457D02*
X0266675Y0030457D01*
X0267089Y0031455D02*
X0265911Y0031455D01*
X0265276Y0032454D02*
X0267724Y0032454D01*
X0268723Y0033452D02*
X0264277Y0033452D01*
X0258723Y0033452D02*
X0234277Y0033452D01*
X0235276Y0032454D02*
X0257724Y0032454D01*
X0257089Y0031455D02*
X0235911Y0031455D01*
X0236325Y0030457D02*
X0256675Y0030457D01*
X0256600Y0029458D02*
X0236400Y0029458D01*
X0236400Y0028460D02*
X0256600Y0028460D01*
X0256600Y0027461D02*
X0236400Y0027461D01*
X0236400Y0026463D02*
X0256600Y0026463D01*
X0256600Y0025464D02*
X0236400Y0025464D01*
X0236400Y0024466D02*
X0256600Y0024466D01*
X0256600Y0023467D02*
X0236400Y0023467D01*
X0236294Y0022469D02*
X0256706Y0022469D01*
X0257120Y0021470D02*
X0235880Y0021470D01*
X0235201Y0020472D02*
X0257799Y0020472D01*
X0258900Y0019473D02*
X0234100Y0019473D01*
X0228900Y0019473D02*
X0227628Y0019473D01*
X0227799Y0020472D02*
X0226629Y0020472D01*
X0227120Y0021470D02*
X0225880Y0021470D01*
X0226294Y0022469D02*
X0226706Y0022469D01*
X0226600Y0023467D02*
X0226400Y0023467D01*
X0226400Y0024466D02*
X0226600Y0024466D01*
X0226600Y0025464D02*
X0226400Y0025464D01*
X0226400Y0026463D02*
X0226600Y0026463D01*
X0226600Y0027461D02*
X0226400Y0027461D01*
X0226400Y0028460D02*
X0226600Y0028460D01*
X0226600Y0029458D02*
X0226400Y0029458D01*
X0226325Y0030457D02*
X0226675Y0030457D01*
X0227089Y0031455D02*
X0225911Y0031455D01*
X0225276Y0032454D02*
X0227724Y0032454D01*
X0228723Y0033452D02*
X0224277Y0033452D01*
X0222650Y0034451D02*
X0303600Y0034451D01*
X0303600Y0035449D02*
X0221652Y0035449D01*
X0208723Y0033452D02*
X0204277Y0033452D01*
X0205276Y0032454D02*
X0207724Y0032454D01*
X0207089Y0031455D02*
X0205911Y0031455D01*
X0206325Y0030457D02*
X0206675Y0030457D01*
X0206600Y0029458D02*
X0206400Y0029458D01*
X0206400Y0028460D02*
X0206600Y0028460D01*
X0206600Y0027461D02*
X0206400Y0027461D01*
X0206400Y0026463D02*
X0206600Y0026463D01*
X0206600Y0025464D02*
X0206400Y0025464D01*
X0206400Y0024466D02*
X0206600Y0024466D01*
X0206600Y0023467D02*
X0206400Y0023467D01*
X0206294Y0022469D02*
X0206706Y0022469D01*
X0207120Y0021470D02*
X0205880Y0021470D01*
X0205201Y0020472D02*
X0207799Y0020472D01*
X0208900Y0019473D02*
X0204100Y0019473D01*
X0198900Y0019473D02*
X0186400Y0019473D01*
X0186400Y0020472D02*
X0197799Y0020472D01*
X0197120Y0021470D02*
X0186400Y0021470D01*
X0186400Y0022469D02*
X0196706Y0022469D01*
X0196600Y0023467D02*
X0186400Y0023467D01*
X0185464Y0024466D02*
X0196600Y0024466D01*
X0196600Y0025464D02*
X0184465Y0025464D01*
X0180638Y0026463D02*
X0196600Y0026463D01*
X0196600Y0027461D02*
X0179640Y0027461D01*
X0179400Y0028460D02*
X0196600Y0028460D01*
X0196600Y0029458D02*
X0179400Y0029458D01*
X0179400Y0030457D02*
X0196675Y0030457D01*
X0197089Y0031455D02*
X0179400Y0031455D01*
X0179400Y0032454D02*
X0197724Y0032454D01*
X0198723Y0033452D02*
X0179400Y0033452D01*
X0179400Y0034451D02*
X0184448Y0034451D01*
X0183449Y0035449D02*
X0179400Y0035449D01*
X0179400Y0036448D02*
X0182451Y0036448D01*
X0181452Y0037446D02*
X0179400Y0037446D01*
X0179400Y0038445D02*
X0180454Y0038445D01*
X0179455Y0039443D02*
X0179400Y0039443D01*
X0173600Y0035449D02*
X0094445Y0035449D01*
X0095443Y0034451D02*
X0173600Y0034451D01*
X0173600Y0033452D02*
X0095968Y0033452D01*
X0096375Y0032454D02*
X0173600Y0032454D01*
X0173600Y0031455D02*
X0096375Y0031455D01*
X0096344Y0030457D02*
X0173600Y0030457D01*
X0173600Y0029458D02*
X0095931Y0029458D01*
X0095354Y0028460D02*
X0173600Y0028460D01*
X0173600Y0027461D02*
X0094355Y0027461D01*
X0094152Y0026463D02*
X0173600Y0026463D01*
X0173790Y0025464D02*
X0163617Y0025464D01*
X0163281Y0025800D02*
X0161800Y0025800D01*
X0161800Y0021800D01*
X0161200Y0021800D01*
X0161200Y0025800D01*
X0159719Y0025800D01*
X0157200Y0023281D01*
X0157200Y0021800D01*
X0161200Y0021800D01*
X0161200Y0021200D01*
X0157200Y0021200D01*
X0157200Y0019719D01*
X0159719Y0017200D01*
X0161200Y0017200D01*
X0161200Y0021200D01*
X0161800Y0021200D01*
X0161800Y0021800D01*
X0165800Y0021800D01*
X0165800Y0023281D01*
X0163281Y0025800D01*
X0161800Y0025464D02*
X0161200Y0025464D01*
X0161200Y0024466D02*
X0161800Y0024466D01*
X0161800Y0023467D02*
X0161200Y0023467D01*
X0161200Y0022469D02*
X0161800Y0022469D01*
X0161800Y0021470D02*
X0176600Y0021470D01*
X0176600Y0020472D02*
X0165800Y0020472D01*
X0165800Y0021200D02*
X0161800Y0021200D01*
X0161800Y0017200D01*
X0163281Y0017200D01*
X0165800Y0019719D01*
X0165800Y0021200D01*
X0165800Y0022469D02*
X0176430Y0022469D01*
X0175432Y0023467D02*
X0165614Y0023467D01*
X0164615Y0024466D02*
X0174433Y0024466D01*
X0176600Y0019473D02*
X0165554Y0019473D01*
X0164556Y0018475D02*
X0177596Y0018475D01*
X0178594Y0017476D02*
X0163557Y0017476D01*
X0161800Y0017476D02*
X0161200Y0017476D01*
X0161200Y0018475D02*
X0161800Y0018475D01*
X0161800Y0019473D02*
X0161200Y0019473D01*
X0161200Y0020472D02*
X0161800Y0020472D01*
X0161200Y0021470D02*
X0146400Y0021470D01*
X0146400Y0020472D02*
X0157200Y0020472D01*
X0157446Y0019473D02*
X0146400Y0019473D01*
X0146400Y0019470D02*
X0143530Y0016600D01*
X0139470Y0016600D01*
X0136600Y0019470D01*
X0136600Y0023530D01*
X0139470Y0026400D01*
X0143530Y0026400D01*
X0146400Y0023530D01*
X0146400Y0019470D01*
X0145404Y0018475D02*
X0158444Y0018475D01*
X0159443Y0017476D02*
X0144406Y0017476D01*
X0138594Y0017476D02*
X0095396Y0017476D01*
X0096308Y0018475D02*
X0137596Y0018475D01*
X0136600Y0019473D02*
X0096722Y0019473D01*
X0097100Y0020472D02*
X0136600Y0020472D01*
X0136600Y0021470D02*
X0097100Y0021470D01*
X0097100Y0022469D02*
X0136600Y0022469D01*
X0136600Y0023467D02*
X0096747Y0023467D01*
X0096333Y0024466D02*
X0137536Y0024466D01*
X0138535Y0025464D02*
X0095455Y0025464D01*
X0086625Y0042439D02*
X0035679Y0042439D01*
X0035670Y0042501D02*
X0035462Y0043141D01*
X0035156Y0043740D01*
X0034761Y0044285D01*
X0034285Y0044761D01*
X0033740Y0045156D01*
X0033141Y0045462D01*
X0032501Y0045670D01*
X0031836Y0045775D01*
X0031787Y0045775D01*
X0031787Y0041787D01*
X0035775Y0041787D01*
X0035775Y0041836D01*
X0035670Y0042501D01*
X0035311Y0043437D02*
X0087026Y0043437D01*
X0087542Y0044436D02*
X0034609Y0044436D01*
X0033194Y0045434D02*
X0088540Y0045434D01*
X0088674Y0047432D02*
X0034326Y0047432D01*
X0035324Y0048430D02*
X0087676Y0048430D01*
X0087082Y0049429D02*
X0035918Y0049429D01*
X0036332Y0050427D02*
X0086668Y0050427D01*
X0086625Y0051426D02*
X0036375Y0051426D01*
X0036375Y0052424D02*
X0086625Y0052424D01*
X0087020Y0053423D02*
X0035980Y0053423D01*
X0035473Y0054421D02*
X0087527Y0054421D01*
X0088526Y0055420D02*
X0034474Y0055420D01*
X0034311Y0057417D02*
X0088689Y0057417D01*
X0087691Y0058415D02*
X0035309Y0058415D01*
X0038515Y0059414D02*
X0087088Y0059414D01*
X0086674Y0060412D02*
X0039513Y0060412D01*
X0040512Y0061411D02*
X0086625Y0061411D01*
X0086625Y0062409D02*
X0041510Y0062409D01*
X0042509Y0063408D02*
X0087014Y0063408D01*
X0095986Y0063408D02*
X0136600Y0063408D01*
X0136600Y0062409D02*
X0096375Y0062409D01*
X0096375Y0061411D02*
X0136600Y0061411D01*
X0136600Y0060412D02*
X0096326Y0060412D01*
X0095912Y0059414D02*
X0136657Y0059414D01*
X0137655Y0058415D02*
X0095309Y0058415D01*
X0094311Y0057417D02*
X0138654Y0057417D01*
X0144346Y0057417D02*
X0158654Y0057417D01*
X0157655Y0058415D02*
X0145345Y0058415D01*
X0146343Y0059414D02*
X0156657Y0059414D01*
X0156600Y0060412D02*
X0146400Y0060412D01*
X0146400Y0061411D02*
X0156600Y0061411D01*
X0156600Y0062409D02*
X0146400Y0062409D01*
X0146400Y0063408D02*
X0156600Y0063408D01*
X0164346Y0057417D02*
X0173600Y0057417D01*
X0173600Y0058415D02*
X0165345Y0058415D01*
X0166343Y0059414D02*
X0173600Y0059414D01*
X0173600Y0060412D02*
X0166400Y0060412D01*
X0166400Y0061411D02*
X0173600Y0061411D01*
X0173600Y0062409D02*
X0166400Y0062409D01*
X0166400Y0063408D02*
X0173600Y0063408D01*
X0179400Y0066403D02*
X0208600Y0066403D01*
X0208600Y0065405D02*
X0184525Y0065405D01*
X0185523Y0064406D02*
X0208600Y0064406D01*
X0208600Y0063408D02*
X0202773Y0063408D01*
X0202507Y0063494D02*
X0201838Y0063600D01*
X0201800Y0063600D01*
X0201800Y0056800D01*
X0201200Y0056800D01*
X0201200Y0063600D01*
X0201162Y0063600D01*
X0200493Y0063494D01*
X0199849Y0063285D01*
X0199246Y0062978D01*
X0198699Y0062580D01*
X0198220Y0062101D01*
X0197822Y0061554D01*
X0197515Y0060951D01*
X0197306Y0060307D01*
X0197200Y0059638D01*
X0197200Y0056800D01*
X0201200Y0056800D01*
X0201200Y0056200D01*
X0197200Y0056200D01*
X0197200Y0053362D01*
X0197306Y0052693D01*
X0197515Y0052049D01*
X0197822Y0051446D01*
X0198220Y0050899D01*
X0198699Y0050420D01*
X0199246Y0050022D01*
X0199849Y0049715D01*
X0200493Y0049506D01*
X0201162Y0049400D01*
X0201200Y0049400D01*
X0201200Y0056200D01*
X0201800Y0056200D01*
X0201800Y0056800D01*
X0205800Y0056800D01*
X0205800Y0059638D01*
X0205694Y0060307D01*
X0205485Y0060951D01*
X0205178Y0061554D01*
X0204780Y0062101D01*
X0204301Y0062580D01*
X0203754Y0062978D01*
X0203151Y0063285D01*
X0202507Y0063494D01*
X0201800Y0063408D02*
X0201200Y0063408D01*
X0200227Y0063408D02*
X0186400Y0063408D01*
X0186400Y0062409D02*
X0198528Y0062409D01*
X0197749Y0061411D02*
X0186400Y0061411D01*
X0186400Y0060412D02*
X0197340Y0060412D01*
X0197200Y0059414D02*
X0186343Y0059414D01*
X0185345Y0058415D02*
X0197200Y0058415D01*
X0197200Y0057417D02*
X0184400Y0057417D01*
X0184400Y0056418D02*
X0201200Y0056418D01*
X0201800Y0056418D02*
X0206600Y0056418D01*
X0205800Y0056200D02*
X0201800Y0056200D01*
X0201800Y0049400D01*
X0201838Y0049400D01*
X0202507Y0049506D01*
X0203151Y0049715D01*
X0203754Y0050022D01*
X0204301Y0050420D01*
X0204780Y0050899D01*
X0205178Y0051446D01*
X0205485Y0052049D01*
X0205694Y0052693D01*
X0205800Y0053362D01*
X0205800Y0056200D01*
X0205800Y0055420D02*
X0206600Y0055420D01*
X0206600Y0054421D02*
X0205800Y0054421D01*
X0205800Y0053423D02*
X0206600Y0053423D01*
X0206725Y0052424D02*
X0205607Y0052424D01*
X0205163Y0051426D02*
X0207138Y0051426D01*
X0207843Y0050427D02*
X0204308Y0050427D01*
X0202019Y0049429D02*
X0209008Y0049429D01*
X0201800Y0049429D02*
X0201200Y0049429D01*
X0200981Y0049429D02*
X0184400Y0049429D01*
X0184400Y0050427D02*
X0198692Y0050427D01*
X0197837Y0051426D02*
X0184400Y0051426D01*
X0184400Y0052424D02*
X0197393Y0052424D01*
X0197200Y0053423D02*
X0184400Y0053423D01*
X0184400Y0054421D02*
X0197200Y0054421D01*
X0197200Y0055420D02*
X0184400Y0055420D01*
X0201200Y0055420D02*
X0201800Y0055420D01*
X0201800Y0054421D02*
X0201200Y0054421D01*
X0201200Y0053423D02*
X0201800Y0053423D01*
X0201800Y0052424D02*
X0201200Y0052424D01*
X0201200Y0051426D02*
X0201800Y0051426D01*
X0201800Y0050427D02*
X0201200Y0050427D01*
X0201200Y0057417D02*
X0201800Y0057417D01*
X0201800Y0058415D02*
X0201200Y0058415D01*
X0201200Y0059414D02*
X0201800Y0059414D01*
X0201800Y0060412D02*
X0201200Y0060412D01*
X0201200Y0061411D02*
X0201800Y0061411D01*
X0201800Y0062409D02*
X0201200Y0062409D01*
X0204472Y0062409D02*
X0207680Y0062409D01*
X0207071Y0061411D02*
X0205251Y0061411D01*
X0205660Y0060412D02*
X0206657Y0060412D01*
X0206600Y0059414D02*
X0205800Y0059414D01*
X0205800Y0058415D02*
X0206600Y0058415D01*
X0206600Y0057417D02*
X0205800Y0057417D01*
X0216400Y0057417D02*
X0216600Y0057417D01*
X0216600Y0058415D02*
X0216400Y0058415D01*
X0216400Y0059414D02*
X0216600Y0059414D01*
X0216657Y0060412D02*
X0216343Y0060412D01*
X0215929Y0061411D02*
X0217071Y0061411D01*
X0217680Y0062409D02*
X0215320Y0062409D01*
X0214400Y0063408D02*
X0218600Y0063408D01*
X0218600Y0064406D02*
X0214400Y0064406D01*
X0214400Y0065405D02*
X0218600Y0065405D01*
X0218600Y0066403D02*
X0214400Y0066403D01*
X0214400Y0067402D02*
X0218600Y0067402D01*
X0218600Y0068400D02*
X0214400Y0068400D01*
X0214400Y0069399D02*
X0218600Y0069399D01*
X0218600Y0070397D02*
X0214400Y0070397D01*
X0214400Y0071396D02*
X0218600Y0071396D01*
X0218600Y0072394D02*
X0214400Y0072394D01*
X0214400Y0073393D02*
X0218600Y0073393D01*
X0218600Y0074391D02*
X0214400Y0074391D01*
X0214400Y0075390D02*
X0218600Y0075390D01*
X0218600Y0076388D02*
X0214400Y0076388D01*
X0214400Y0077387D02*
X0218600Y0077387D01*
X0218600Y0078385D02*
X0214400Y0078385D01*
X0214400Y0079384D02*
X0218600Y0079384D01*
X0218600Y0080382D02*
X0214400Y0080382D01*
X0214400Y0081381D02*
X0218600Y0081381D01*
X0218600Y0082379D02*
X0214400Y0082379D01*
X0214400Y0083378D02*
X0218600Y0083378D01*
X0218600Y0084376D02*
X0214400Y0084376D01*
X0214400Y0085375D02*
X0218600Y0085375D01*
X0218600Y0086373D02*
X0214400Y0086373D01*
X0214400Y0087372D02*
X0218600Y0087372D01*
X0218600Y0088370D02*
X0214400Y0088370D01*
X0214400Y0089369D02*
X0218600Y0089369D01*
X0218600Y0090368D02*
X0214400Y0090368D01*
X0214400Y0091366D02*
X0218600Y0091366D01*
X0218600Y0092365D02*
X0214400Y0092365D01*
X0214400Y0093363D02*
X0218600Y0093363D01*
X0218600Y0094362D02*
X0214400Y0094362D01*
X0214400Y0095360D02*
X0218600Y0095360D01*
X0218600Y0096359D02*
X0214400Y0096359D01*
X0214400Y0097357D02*
X0218716Y0097357D01*
X0219254Y0098356D02*
X0214400Y0098356D01*
X0214400Y0099354D02*
X0220253Y0099354D01*
X0221251Y0100353D02*
X0214400Y0100353D01*
X0214400Y0101351D02*
X0222250Y0101351D01*
X0223248Y0102350D02*
X0214400Y0102350D01*
X0214400Y0103348D02*
X0224247Y0103348D01*
X0225794Y0104347D02*
X0214400Y0104347D01*
X0214400Y0105345D02*
X0277426Y0105345D01*
X0278560Y0106344D02*
X0214400Y0106344D01*
X0214400Y0107342D02*
X0214577Y0107342D01*
X0216200Y0107342D02*
X0216800Y0107342D01*
X0216800Y0107200D02*
X0218281Y0107200D01*
X0220800Y0109719D01*
X0220800Y0111200D01*
X0216800Y0111200D01*
X0216800Y0107200D01*
X0216800Y0108341D02*
X0216200Y0108341D01*
X0216200Y0109339D02*
X0216800Y0109339D01*
X0216800Y0110338D02*
X0216200Y0110338D01*
X0216800Y0111336D02*
X0251600Y0111336D01*
X0251600Y0110338D02*
X0220800Y0110338D01*
X0220420Y0109339D02*
X0251731Y0109339D01*
X0251600Y0109470D02*
X0254470Y0106600D01*
X0258530Y0106600D01*
X0261400Y0109470D01*
X0261400Y0113530D01*
X0258530Y0116400D01*
X0254470Y0116400D01*
X0251600Y0113530D01*
X0251600Y0109470D01*
X0252730Y0108341D02*
X0219422Y0108341D01*
X0218423Y0107342D02*
X0253728Y0107342D01*
X0259272Y0107342D02*
X0288600Y0107342D01*
X0288600Y0106344D02*
X0284440Y0106344D01*
X0285574Y0105345D02*
X0288600Y0105345D01*
X0288600Y0104347D02*
X0286382Y0104347D01*
X0286796Y0103348D02*
X0288600Y0103348D01*
X0288248Y0102350D02*
X0287100Y0102350D01*
X0287100Y0101351D02*
X0287250Y0101351D01*
X0294400Y0104347D02*
X0295794Y0104347D01*
X0294400Y0105345D02*
X0302426Y0105345D01*
X0303560Y0106344D02*
X0294400Y0106344D01*
X0294400Y0107342D02*
X0318600Y0107342D01*
X0318600Y0106344D02*
X0309440Y0106344D01*
X0310574Y0105345D02*
X0318600Y0105345D01*
X0318600Y0104347D02*
X0311382Y0104347D01*
X0311796Y0103348D02*
X0318600Y0103348D01*
X0318600Y0102350D02*
X0312100Y0102350D01*
X0312100Y0101351D02*
X0318600Y0101351D01*
X0318600Y0100353D02*
X0312086Y0100353D01*
X0311673Y0099354D02*
X0318600Y0099354D01*
X0318600Y0098356D02*
X0311259Y0098356D01*
X0310277Y0097357D02*
X0318600Y0097357D01*
X0318600Y0096359D02*
X0308721Y0096359D01*
X0304279Y0096359D02*
X0295460Y0096359D01*
X0296458Y0097357D02*
X0302723Y0097357D01*
X0301741Y0098356D02*
X0297457Y0098356D01*
X0294461Y0095360D02*
X0318600Y0095360D01*
X0318600Y0094362D02*
X0294400Y0094362D01*
X0294400Y0093363D02*
X0318600Y0093363D01*
X0318600Y0092365D02*
X0294400Y0092365D01*
X0294400Y0091366D02*
X0318600Y0091366D01*
X0318600Y0090368D02*
X0294400Y0090368D01*
X0294400Y0089369D02*
X0318600Y0089369D01*
X0318600Y0088370D02*
X0294400Y0088370D01*
X0294400Y0087372D02*
X0318600Y0087372D01*
X0318600Y0086373D02*
X0294400Y0086373D01*
X0294400Y0085375D02*
X0318600Y0085375D01*
X0318600Y0084376D02*
X0294400Y0084376D01*
X0294400Y0083378D02*
X0318600Y0083378D01*
X0324400Y0083378D02*
X0398101Y0083378D01*
X0398101Y0084376D02*
X0324400Y0084376D01*
X0324400Y0085375D02*
X0398101Y0085375D01*
X0398101Y0086373D02*
X0324400Y0086373D01*
X0324400Y0087372D02*
X0398101Y0087372D01*
X0398101Y0088370D02*
X0324400Y0088370D01*
X0324400Y0089369D02*
X0398101Y0089369D01*
X0398101Y0090368D02*
X0324400Y0090368D01*
X0324400Y0091366D02*
X0398101Y0091366D01*
X0398101Y0092365D02*
X0324400Y0092365D01*
X0324400Y0093363D02*
X0398101Y0093363D01*
X0398101Y0094362D02*
X0324400Y0094362D01*
X0324400Y0095360D02*
X0398101Y0095360D01*
X0398101Y0096359D02*
X0338721Y0096359D01*
X0340277Y0097357D02*
X0398101Y0097357D01*
X0398101Y0098356D02*
X0341259Y0098356D01*
X0334279Y0096359D02*
X0324400Y0096359D01*
X0324400Y0097357D02*
X0332723Y0097357D01*
X0331741Y0098356D02*
X0324400Y0098356D01*
X0324400Y0099354D02*
X0331327Y0099354D01*
X0330914Y0100353D02*
X0324400Y0100353D01*
X0324400Y0101351D02*
X0330900Y0101351D01*
X0330900Y0102350D02*
X0324400Y0102350D01*
X0324400Y0103348D02*
X0331204Y0103348D01*
X0331618Y0104347D02*
X0324400Y0104347D01*
X0324400Y0105345D02*
X0332426Y0105345D01*
X0333560Y0106344D02*
X0324400Y0106344D01*
X0324400Y0107342D02*
X0378241Y0107342D01*
X0377242Y0106344D02*
X0339440Y0106344D01*
X0340574Y0105345D02*
X0376244Y0105345D01*
X0381451Y0102350D02*
X0398101Y0102350D01*
X0398101Y0103348D02*
X0382449Y0103348D01*
X0383448Y0104347D02*
X0398101Y0104347D01*
X0398101Y0105345D02*
X0384446Y0105345D01*
X0385445Y0106344D02*
X0398101Y0106344D01*
X0398101Y0107342D02*
X0386443Y0107342D01*
X0387442Y0108341D02*
X0398101Y0108341D01*
X0398101Y0109339D02*
X0388440Y0109339D01*
X0389157Y0110338D02*
X0398101Y0110338D01*
X0398101Y0111336D02*
X0389400Y0111336D01*
X0389400Y0112335D02*
X0398101Y0112335D01*
X0398101Y0113333D02*
X0389400Y0113333D01*
X0389400Y0114332D02*
X0398101Y0114332D01*
X0398101Y0115330D02*
X0389400Y0115330D01*
X0389400Y0116329D02*
X0398101Y0116329D01*
X0398101Y0117327D02*
X0389400Y0117327D01*
X0389400Y0118326D02*
X0398101Y0118326D01*
X0398101Y0119324D02*
X0389400Y0119324D01*
X0389400Y0120323D02*
X0398101Y0120323D01*
X0398101Y0121321D02*
X0389400Y0121321D01*
X0389400Y0122320D02*
X0398101Y0122320D01*
X0398101Y0123318D02*
X0389400Y0123318D01*
X0389400Y0124317D02*
X0398101Y0124317D01*
X0398101Y0125315D02*
X0389400Y0125315D01*
X0389400Y0126314D02*
X0398101Y0126314D01*
X0398101Y0127312D02*
X0389400Y0127312D01*
X0389400Y0128311D02*
X0398101Y0128311D01*
X0398101Y0129309D02*
X0389400Y0129309D01*
X0389400Y0130308D02*
X0398101Y0130308D01*
X0398101Y0131306D02*
X0389400Y0131306D01*
X0389400Y0132305D02*
X0398101Y0132305D01*
X0398101Y0133303D02*
X0389400Y0133303D01*
X0389400Y0134302D02*
X0398101Y0134302D01*
X0398101Y0135301D02*
X0389400Y0135301D01*
X0389400Y0136299D02*
X0398101Y0136299D01*
X0398101Y0137298D02*
X0389400Y0137298D01*
X0389400Y0138296D02*
X0398101Y0138296D01*
X0398101Y0139295D02*
X0389400Y0139295D01*
X0389400Y0140293D02*
X0398101Y0140293D01*
X0398101Y0141292D02*
X0389400Y0141292D01*
X0389400Y0142290D02*
X0398101Y0142290D01*
X0398101Y0143289D02*
X0389400Y0143289D01*
X0389400Y0144287D02*
X0398101Y0144287D01*
X0398101Y0145286D02*
X0389400Y0145286D01*
X0389400Y0146284D02*
X0398101Y0146284D01*
X0398101Y0147283D02*
X0389400Y0147283D01*
X0389400Y0148281D02*
X0398101Y0148281D01*
X0398101Y0149280D02*
X0389400Y0149280D01*
X0389400Y0150278D02*
X0398101Y0150278D01*
X0398101Y0151277D02*
X0389400Y0151277D01*
X0389400Y0152275D02*
X0398101Y0152275D01*
X0398101Y0153274D02*
X0389400Y0153274D01*
X0389400Y0154272D02*
X0398101Y0154272D01*
X0398101Y0155271D02*
X0389400Y0155271D01*
X0389400Y0156269D02*
X0398101Y0156269D01*
X0398101Y0157268D02*
X0389400Y0157268D01*
X0389400Y0158266D02*
X0398101Y0158266D01*
X0398101Y0159265D02*
X0389400Y0159265D01*
X0389400Y0160263D02*
X0398101Y0160263D01*
X0398101Y0161262D02*
X0389400Y0161262D01*
X0389400Y0162260D02*
X0398101Y0162260D01*
X0398101Y0163259D02*
X0389400Y0163259D01*
X0389400Y0164257D02*
X0398101Y0164257D01*
X0398101Y0165256D02*
X0389400Y0165256D01*
X0389400Y0166254D02*
X0398101Y0166254D01*
X0398101Y0167253D02*
X0389400Y0167253D01*
X0389400Y0168251D02*
X0398101Y0168251D01*
X0398101Y0169250D02*
X0389400Y0169250D01*
X0389400Y0170248D02*
X0398101Y0170248D01*
X0398101Y0171247D02*
X0389400Y0171247D01*
X0389400Y0172245D02*
X0398101Y0172245D01*
X0398101Y0173244D02*
X0389400Y0173244D01*
X0389400Y0174242D02*
X0398101Y0174242D01*
X0398101Y0175241D02*
X0389400Y0175241D01*
X0389400Y0176239D02*
X0398101Y0176239D01*
X0398101Y0177238D02*
X0389400Y0177238D01*
X0389400Y0178237D02*
X0398101Y0178237D01*
X0398101Y0179235D02*
X0389400Y0179235D01*
X0389400Y0180234D02*
X0398101Y0180234D01*
X0398101Y0181232D02*
X0389400Y0181232D01*
X0389400Y0182231D02*
X0398101Y0182231D01*
X0398101Y0183229D02*
X0389400Y0183229D01*
X0389400Y0184228D02*
X0398101Y0184228D01*
X0398101Y0185226D02*
X0389400Y0185226D01*
X0389400Y0186225D02*
X0398101Y0186225D01*
X0398101Y0187223D02*
X0389339Y0187223D01*
X0388880Y0188222D02*
X0398101Y0188222D01*
X0398101Y0189220D02*
X0387881Y0189220D01*
X0386883Y0190219D02*
X0398101Y0190219D01*
X0398101Y0191217D02*
X0385884Y0191217D01*
X0384886Y0192216D02*
X0398101Y0192216D01*
X0398101Y0193214D02*
X0383887Y0193214D01*
X0382529Y0194213D02*
X0398101Y0194213D01*
X0398101Y0195211D02*
X0111890Y0195211D01*
X0112889Y0194213D02*
X0185471Y0194213D01*
X0184113Y0193214D02*
X0113887Y0193214D01*
X0114886Y0192216D02*
X0183114Y0192216D01*
X0182116Y0191217D02*
X0115884Y0191217D01*
X0116883Y0190219D02*
X0181117Y0190219D01*
X0180119Y0189220D02*
X0117881Y0189220D01*
X0118880Y0188222D02*
X0179120Y0188222D01*
X0178661Y0187223D02*
X0119878Y0187223D01*
X0120877Y0186225D02*
X0159295Y0186225D01*
X0158296Y0185226D02*
X0143855Y0185226D01*
X0143281Y0185800D02*
X0141800Y0185800D01*
X0141800Y0181800D01*
X0145800Y0181800D01*
X0145800Y0183281D01*
X0143281Y0185800D01*
X0141800Y0185226D02*
X0141200Y0185226D01*
X0141200Y0184228D02*
X0141800Y0184228D01*
X0141800Y0183229D02*
X0141200Y0183229D01*
X0141200Y0182231D02*
X0141800Y0182231D01*
X0141800Y0181232D02*
X0156600Y0181232D01*
X0156600Y0180234D02*
X0145800Y0180234D01*
X0145800Y0182231D02*
X0156600Y0182231D01*
X0156600Y0183229D02*
X0145800Y0183229D01*
X0144854Y0184228D02*
X0157298Y0184228D01*
X0163705Y0186225D02*
X0178600Y0186225D01*
X0178296Y0185226D02*
X0164704Y0185226D01*
X0165702Y0184228D02*
X0177298Y0184228D01*
X0176600Y0183229D02*
X0166400Y0183229D01*
X0166400Y0182231D02*
X0176600Y0182231D01*
X0176600Y0181232D02*
X0166400Y0181232D01*
X0166400Y0180234D02*
X0176600Y0180234D01*
X0187077Y0173600D02*
X0188143Y0174041D01*
X0197701Y0183600D01*
X0205299Y0183600D01*
X0207193Y0181706D01*
X0206600Y0180275D01*
X0206600Y0172725D01*
X0207346Y0170924D01*
X0208724Y0169546D01*
X0209077Y0169400D01*
X0127701Y0169400D01*
X0103501Y0193600D01*
X0105299Y0193600D01*
X0124041Y0174857D01*
X0124857Y0174041D01*
X0125923Y0173600D01*
X0187077Y0173600D01*
X0188344Y0174242D02*
X0197200Y0174242D01*
X0197200Y0173362D02*
X0197306Y0172693D01*
X0197515Y0172049D01*
X0197822Y0171446D01*
X0198220Y0170899D01*
X0198699Y0170420D01*
X0199246Y0170022D01*
X0199849Y0169715D01*
X0200493Y0169506D01*
X0201162Y0169400D01*
X0201200Y0169400D01*
X0201200Y0176200D01*
X0197200Y0176200D01*
X0197200Y0173362D01*
X0197219Y0173244D02*
X0123857Y0173244D01*
X0124656Y0174242D02*
X0122859Y0174242D01*
X0123658Y0175241D02*
X0121860Y0175241D01*
X0122659Y0176239D02*
X0120862Y0176239D01*
X0121661Y0177238D02*
X0119863Y0177238D01*
X0120662Y0178237D02*
X0118865Y0178237D01*
X0119664Y0179235D02*
X0117866Y0179235D01*
X0118665Y0180234D02*
X0116868Y0180234D01*
X0117667Y0181232D02*
X0115869Y0181232D01*
X0116668Y0182231D02*
X0114871Y0182231D01*
X0115670Y0183229D02*
X0113872Y0183229D01*
X0114671Y0184228D02*
X0112874Y0184228D01*
X0113673Y0185226D02*
X0111875Y0185226D01*
X0112674Y0186225D02*
X0110877Y0186225D01*
X0111676Y0187223D02*
X0109878Y0187223D01*
X0110677Y0188222D02*
X0108880Y0188222D01*
X0109679Y0189220D02*
X0107881Y0189220D01*
X0108680Y0190219D02*
X0106883Y0190219D01*
X0107682Y0191217D02*
X0105884Y0191217D01*
X0106683Y0192216D02*
X0104886Y0192216D01*
X0105685Y0193214D02*
X0103887Y0193214D01*
X0108894Y0198207D02*
X0398101Y0198207D01*
X0398101Y0199205D02*
X0107547Y0199205D01*
X0109893Y0197208D02*
X0398101Y0197208D01*
X0398101Y0196210D02*
X0110891Y0196210D01*
X0101676Y0187223D02*
X0026324Y0187223D01*
X0025326Y0186225D02*
X0028305Y0186225D01*
X0028328Y0186247D02*
X0026753Y0184672D01*
X0025900Y0182614D01*
X0025900Y0180386D01*
X0026753Y0178328D01*
X0028328Y0176753D01*
X0029240Y0176375D01*
X0027855Y0176375D01*
X0026625Y0175145D01*
X0026625Y0167855D01*
X0027855Y0166625D01*
X0035145Y0166625D01*
X0036375Y0167855D01*
X0036375Y0175145D01*
X0035145Y0176375D01*
X0033760Y0176375D01*
X0034672Y0176753D01*
X0036247Y0178328D01*
X0037100Y0180386D01*
X0037100Y0182614D01*
X0036247Y0184672D01*
X0034672Y0186247D01*
X0032614Y0187100D01*
X0030386Y0187100D01*
X0028328Y0186247D01*
X0027306Y0185226D02*
X0024400Y0185226D01*
X0024400Y0184228D02*
X0026568Y0184228D01*
X0026155Y0183229D02*
X0024400Y0183229D01*
X0024400Y0182231D02*
X0025900Y0182231D01*
X0025900Y0181232D02*
X0024400Y0181232D01*
X0024400Y0180234D02*
X0025963Y0180234D01*
X0026377Y0179235D02*
X0024400Y0179235D01*
X0024400Y0178237D02*
X0026844Y0178237D01*
X0027842Y0177238D02*
X0024400Y0177238D01*
X0024400Y0176239D02*
X0027720Y0176239D01*
X0026722Y0175241D02*
X0024400Y0175241D01*
X0024400Y0174242D02*
X0026625Y0174242D01*
X0026625Y0173244D02*
X0024400Y0173244D01*
X0024400Y0172245D02*
X0026625Y0172245D01*
X0026625Y0171247D02*
X0024400Y0171247D01*
X0024400Y0170248D02*
X0026625Y0170248D01*
X0026625Y0169250D02*
X0024400Y0169250D01*
X0024400Y0168251D02*
X0026625Y0168251D01*
X0027228Y0167253D02*
X0024400Y0167253D01*
X0024400Y0166254D02*
X0030240Y0166254D01*
X0028362Y0165256D02*
X0024400Y0165256D01*
X0024400Y0164257D02*
X0027366Y0164257D01*
X0026952Y0163259D02*
X0024400Y0163259D01*
X0024400Y0162260D02*
X0026625Y0162260D01*
X0026625Y0161262D02*
X0024400Y0161262D01*
X0024400Y0160263D02*
X0026736Y0160263D01*
X0027149Y0159265D02*
X0024400Y0159265D01*
X0024400Y0158266D02*
X0027840Y0158266D01*
X0028979Y0157268D02*
X0024400Y0157268D01*
X0024400Y0156269D02*
X0030276Y0156269D01*
X0030530Y0156375D02*
X0028739Y0155633D01*
X0027367Y0154261D01*
X0026625Y0152470D01*
X0026625Y0150530D01*
X0027367Y0148739D01*
X0028739Y0147367D01*
X0030530Y0146625D01*
X0032470Y0146625D01*
X0034261Y0147367D01*
X0035633Y0148739D01*
X0036375Y0150530D01*
X0036375Y0152470D01*
X0035633Y0154261D01*
X0034261Y0155633D01*
X0032470Y0156375D01*
X0030530Y0156375D01*
X0032724Y0156269D02*
X0037630Y0156269D01*
X0038600Y0155271D02*
X0034623Y0155271D01*
X0035622Y0154272D02*
X0038600Y0154272D01*
X0038600Y0153274D02*
X0036042Y0153274D01*
X0036375Y0152275D02*
X0038600Y0152275D01*
X0038600Y0151277D02*
X0036375Y0151277D01*
X0036270Y0150278D02*
X0038600Y0150278D01*
X0038600Y0149280D02*
X0035857Y0149280D01*
X0035175Y0148281D02*
X0038600Y0148281D01*
X0038600Y0147283D02*
X0034057Y0147283D01*
X0032689Y0146284D02*
X0038600Y0146284D01*
X0038600Y0145286D02*
X0034608Y0145286D01*
X0035607Y0144287D02*
X0038600Y0144287D01*
X0038600Y0143289D02*
X0036036Y0143289D01*
X0036375Y0142290D02*
X0038600Y0142290D01*
X0038600Y0141292D02*
X0036375Y0141292D01*
X0036277Y0140293D02*
X0038861Y0140293D01*
X0039604Y0139295D02*
X0037331Y0139295D01*
X0038805Y0138296D02*
X0040603Y0138296D01*
X0039804Y0137298D02*
X0041601Y0137298D01*
X0040802Y0136299D02*
X0042600Y0136299D01*
X0041801Y0135301D02*
X0043598Y0135301D01*
X0042799Y0134302D02*
X0044597Y0134302D01*
X0043798Y0133303D02*
X0086971Y0133303D01*
X0086625Y0132305D02*
X0044796Y0132305D01*
X0045795Y0131306D02*
X0086625Y0131306D01*
X0086717Y0130308D02*
X0046793Y0130308D01*
X0036579Y0122320D02*
X0036375Y0122320D01*
X0036375Y0121321D02*
X0037577Y0121321D01*
X0038576Y0120323D02*
X0036289Y0120323D01*
X0035875Y0119324D02*
X0039574Y0119324D01*
X0035220Y0118326D02*
X0087780Y0118326D01*
X0088835Y0117327D02*
X0034165Y0117327D01*
X0034261Y0115633D02*
X0032470Y0116375D01*
X0030530Y0116375D01*
X0028739Y0115633D01*
X0027367Y0114261D01*
X0026625Y0112470D01*
X0026625Y0110530D01*
X0027367Y0108739D01*
X0028739Y0107367D01*
X0030530Y0106625D01*
X0032470Y0106625D01*
X0034261Y0107367D01*
X0035633Y0108739D01*
X0036375Y0110530D01*
X0036375Y0112470D01*
X0035633Y0114261D01*
X0034261Y0115633D01*
X0034564Y0115330D02*
X0088436Y0115330D01*
X0088739Y0115633D02*
X0087367Y0114261D01*
X0086625Y0112470D01*
X0086625Y0110530D01*
X0087367Y0108739D01*
X0088739Y0107367D01*
X0090530Y0106625D01*
X0092470Y0106625D01*
X0094261Y0107367D01*
X0095633Y0108739D01*
X0096375Y0110530D01*
X0096375Y0112470D01*
X0095633Y0114261D01*
X0094261Y0115633D01*
X0092470Y0116375D01*
X0090530Y0116375D01*
X0088739Y0115633D01*
X0090419Y0116329D02*
X0032581Y0116329D01*
X0030419Y0116329D02*
X0003600Y0116329D01*
X0003600Y0117327D02*
X0028835Y0117327D01*
X0027780Y0118326D02*
X0003600Y0118326D01*
X0003600Y0119324D02*
X0027125Y0119324D01*
X0026711Y0120323D02*
X0003600Y0120323D01*
X0003600Y0121321D02*
X0026625Y0121321D01*
X0026625Y0122320D02*
X0003600Y0122320D01*
X0003600Y0123318D02*
X0026977Y0123318D01*
X0019582Y0124317D02*
X0003600Y0124317D01*
X0003600Y0125315D02*
X0018583Y0125315D01*
X0019041Y0124857D02*
X0019041Y0124857D01*
X0017585Y0126314D02*
X0003600Y0126314D01*
X0003600Y0127312D02*
X0016586Y0127312D01*
X0015588Y0128311D02*
X0003600Y0128311D01*
X0003600Y0129309D02*
X0014589Y0129309D01*
X0013855Y0130308D02*
X0003600Y0130308D01*
X0003600Y0131306D02*
X0013600Y0131306D01*
X0013600Y0132305D02*
X0003600Y0132305D01*
X0003600Y0133303D02*
X0013600Y0133303D01*
X0013600Y0134302D02*
X0003600Y0134302D01*
X0003600Y0135301D02*
X0013600Y0135301D01*
X0013600Y0136299D02*
X0003600Y0136299D01*
X0003600Y0137298D02*
X0013600Y0137298D01*
X0013600Y0138296D02*
X0003600Y0138296D01*
X0003600Y0139295D02*
X0013600Y0139295D01*
X0013600Y0140293D02*
X0003600Y0140293D01*
X0003600Y0141292D02*
X0013600Y0141292D01*
X0013600Y0142290D02*
X0003600Y0142290D01*
X0003600Y0143289D02*
X0013600Y0143289D01*
X0013600Y0144287D02*
X0003600Y0144287D01*
X0003600Y0145286D02*
X0013600Y0145286D01*
X0013600Y0146284D02*
X0003600Y0146284D01*
X0003600Y0147283D02*
X0013600Y0147283D01*
X0013600Y0148281D02*
X0003600Y0148281D01*
X0003600Y0149280D02*
X0013600Y0149280D01*
X0013600Y0150278D02*
X0003600Y0150278D01*
X0003600Y0151277D02*
X0013600Y0151277D01*
X0013600Y0152275D02*
X0003600Y0152275D01*
X0003600Y0153274D02*
X0013600Y0153274D01*
X0013600Y0154272D02*
X0003600Y0154272D01*
X0003600Y0155271D02*
X0013600Y0155271D01*
X0013600Y0156269D02*
X0003600Y0156269D01*
X0003600Y0157268D02*
X0013600Y0157268D01*
X0013600Y0158266D02*
X0003600Y0158266D01*
X0003600Y0159265D02*
X0013600Y0159265D01*
X0013600Y0160263D02*
X0003600Y0160263D01*
X0003600Y0161262D02*
X0013600Y0161262D01*
X0013600Y0162260D02*
X0003600Y0162260D01*
X0003600Y0163259D02*
X0013600Y0163259D01*
X0013600Y0164257D02*
X0003600Y0164257D01*
X0003600Y0165256D02*
X0013600Y0165256D01*
X0013600Y0166254D02*
X0003600Y0166254D01*
X0003600Y0167253D02*
X0013600Y0167253D01*
X0013600Y0168251D02*
X0003600Y0168251D01*
X0003600Y0169250D02*
X0013600Y0169250D01*
X0013600Y0170248D02*
X0003600Y0170248D01*
X0003600Y0171247D02*
X0013600Y0171247D01*
X0013600Y0172245D02*
X0003600Y0172245D01*
X0003600Y0173244D02*
X0013600Y0173244D01*
X0013600Y0174242D02*
X0003600Y0174242D01*
X0003600Y0175241D02*
X0013600Y0175241D01*
X0013600Y0176239D02*
X0003600Y0176239D01*
X0003600Y0177238D02*
X0013600Y0177238D01*
X0013600Y0178237D02*
X0003600Y0178237D01*
X0003600Y0179235D02*
X0013600Y0179235D01*
X0013600Y0180234D02*
X0003600Y0180234D01*
X0003600Y0181232D02*
X0013600Y0181232D01*
X0013600Y0182231D02*
X0003600Y0182231D01*
X0003600Y0183229D02*
X0013600Y0183229D01*
X0013600Y0184228D02*
X0003600Y0184228D01*
X0003600Y0185226D02*
X0013600Y0185226D01*
X0013600Y0186225D02*
X0003600Y0186225D01*
X0003600Y0187223D02*
X0013600Y0187223D01*
X0013600Y0188222D02*
X0003600Y0188222D01*
X0003600Y0189220D02*
X0013600Y0189220D01*
X0013600Y0190219D02*
X0003600Y0190219D01*
X0003600Y0191217D02*
X0013600Y0191217D01*
X0013658Y0192216D02*
X0003600Y0192216D01*
X0003600Y0193214D02*
X0014113Y0193214D01*
X0015111Y0194213D02*
X0003600Y0194213D01*
X0003600Y0195211D02*
X0016110Y0195211D01*
X0017109Y0196210D02*
X0003600Y0196210D01*
X0003600Y0197208D02*
X0018107Y0197208D01*
X0019041Y0198143D02*
X0019041Y0198143D01*
X0019106Y0198207D02*
X0003600Y0198207D01*
X0003600Y0199205D02*
X0020453Y0199205D01*
X0027323Y0188222D02*
X0100677Y0188222D01*
X0102674Y0186225D02*
X0094695Y0186225D01*
X0095693Y0185226D02*
X0103673Y0185226D01*
X0104671Y0184228D02*
X0096432Y0184228D01*
X0096845Y0183229D02*
X0105670Y0183229D01*
X0106668Y0182231D02*
X0097100Y0182231D01*
X0097100Y0181232D02*
X0107667Y0181232D01*
X0108665Y0180234D02*
X0097037Y0180234D01*
X0096623Y0179235D02*
X0109664Y0179235D01*
X0110662Y0178237D02*
X0096156Y0178237D01*
X0095158Y0177238D02*
X0111661Y0177238D01*
X0112659Y0176239D02*
X0093433Y0176239D01*
X0094653Y0175241D02*
X0113658Y0175241D01*
X0114656Y0174242D02*
X0095640Y0174242D01*
X0096054Y0173244D02*
X0115655Y0173244D01*
X0116653Y0172245D02*
X0096375Y0172245D01*
X0096375Y0171247D02*
X0117652Y0171247D01*
X0118650Y0170248D02*
X0096853Y0170248D01*
X0097851Y0169250D02*
X0119649Y0169250D01*
X0120647Y0168251D02*
X0098850Y0168251D01*
X0099848Y0167253D02*
X0121646Y0167253D01*
X0122644Y0166254D02*
X0100847Y0166254D01*
X0101845Y0165256D02*
X0123643Y0165256D01*
X0126853Y0170248D02*
X0198935Y0170248D01*
X0197967Y0171247D02*
X0125854Y0171247D01*
X0124856Y0172245D02*
X0197451Y0172245D01*
X0201200Y0172245D02*
X0201800Y0172245D01*
X0201800Y0171247D02*
X0201200Y0171247D01*
X0201200Y0170248D02*
X0201800Y0170248D01*
X0201800Y0169400D02*
X0201838Y0169400D01*
X0202507Y0169506D01*
X0203151Y0169715D01*
X0203754Y0170022D01*
X0204301Y0170420D01*
X0204780Y0170899D01*
X0205178Y0171446D01*
X0205485Y0172049D01*
X0205694Y0172693D01*
X0205800Y0173362D01*
X0205800Y0176200D01*
X0201800Y0176200D01*
X0201800Y0176800D01*
X0201200Y0176800D01*
X0201200Y0183600D01*
X0201162Y0183600D01*
X0200493Y0183494D01*
X0199849Y0183285D01*
X0199246Y0182978D01*
X0198699Y0182580D01*
X0198220Y0182101D01*
X0197822Y0181554D01*
X0197515Y0180951D01*
X0197306Y0180307D01*
X0197200Y0179638D01*
X0197200Y0176800D01*
X0201200Y0176800D01*
X0201200Y0176200D01*
X0201800Y0176200D01*
X0201800Y0169400D01*
X0204065Y0170248D02*
X0208022Y0170248D01*
X0207212Y0171247D02*
X0205033Y0171247D01*
X0205549Y0172245D02*
X0206799Y0172245D01*
X0206600Y0173244D02*
X0205781Y0173244D01*
X0205800Y0174242D02*
X0206600Y0174242D01*
X0206600Y0175241D02*
X0205800Y0175241D01*
X0206600Y0176239D02*
X0201800Y0176239D01*
X0201800Y0176800D02*
X0205800Y0176800D01*
X0205800Y0179638D01*
X0205694Y0180307D01*
X0205485Y0180951D01*
X0205178Y0181554D01*
X0204780Y0182101D01*
X0204301Y0182580D01*
X0203754Y0182978D01*
X0203151Y0183285D01*
X0202507Y0183494D01*
X0201838Y0183600D01*
X0201800Y0183600D01*
X0201800Y0176800D01*
X0201800Y0177238D02*
X0201200Y0177238D01*
X0201200Y0178237D02*
X0201800Y0178237D01*
X0201800Y0179235D02*
X0201200Y0179235D01*
X0201200Y0180234D02*
X0201800Y0180234D01*
X0201800Y0181232D02*
X0201200Y0181232D01*
X0201200Y0182231D02*
X0201800Y0182231D01*
X0201800Y0183229D02*
X0201200Y0183229D01*
X0199740Y0183229D02*
X0197330Y0183229D01*
X0196332Y0182231D02*
X0198349Y0182231D01*
X0197658Y0181232D02*
X0195333Y0181232D01*
X0194335Y0180234D02*
X0197294Y0180234D01*
X0197200Y0179235D02*
X0193336Y0179235D01*
X0192338Y0178237D02*
X0197200Y0178237D01*
X0197200Y0177238D02*
X0191339Y0177238D01*
X0190341Y0176239D02*
X0201200Y0176239D01*
X0201200Y0175241D02*
X0201800Y0175241D01*
X0201800Y0174242D02*
X0201200Y0174242D01*
X0201200Y0173244D02*
X0201800Y0173244D01*
X0197200Y0175241D02*
X0189342Y0175241D01*
X0203260Y0183229D02*
X0205670Y0183229D01*
X0206668Y0182231D02*
X0204651Y0182231D01*
X0205342Y0181232D02*
X0206997Y0181232D01*
X0206600Y0180234D02*
X0205706Y0180234D01*
X0205800Y0179235D02*
X0206600Y0179235D01*
X0206600Y0178237D02*
X0205800Y0178237D01*
X0205800Y0177238D02*
X0206600Y0177238D01*
X0216400Y0177238D02*
X0216600Y0177238D01*
X0216600Y0178237D02*
X0216400Y0178237D01*
X0216400Y0179235D02*
X0216600Y0179235D01*
X0216600Y0180234D02*
X0216400Y0180234D01*
X0216003Y0181232D02*
X0216997Y0181232D01*
X0217501Y0182231D02*
X0215499Y0182231D01*
X0214501Y0183229D02*
X0218499Y0183229D01*
X0224501Y0183229D02*
X0228499Y0183229D01*
X0228724Y0183454D02*
X0227346Y0182076D01*
X0226600Y0180275D01*
X0226600Y0172725D01*
X0227346Y0170924D01*
X0228724Y0169546D01*
X0230525Y0168800D01*
X0232475Y0168800D01*
X0234276Y0169546D01*
X0235654Y0170924D01*
X0236400Y0172725D01*
X0236400Y0180275D01*
X0235654Y0182076D01*
X0234276Y0183454D01*
X0232475Y0184200D01*
X0230525Y0184200D01*
X0228724Y0183454D01*
X0227501Y0182231D02*
X0225499Y0182231D01*
X0226003Y0181232D02*
X0226997Y0181232D01*
X0226600Y0180234D02*
X0226400Y0180234D01*
X0226400Y0179235D02*
X0226600Y0179235D01*
X0226600Y0178237D02*
X0226400Y0178237D01*
X0226400Y0177238D02*
X0226600Y0177238D01*
X0226600Y0176239D02*
X0226400Y0176239D01*
X0226400Y0175241D02*
X0226600Y0175241D01*
X0226600Y0174242D02*
X0226400Y0174242D01*
X0226400Y0173244D02*
X0226600Y0173244D01*
X0226799Y0172245D02*
X0226201Y0172245D01*
X0225788Y0171247D02*
X0227212Y0171247D01*
X0228022Y0170248D02*
X0224978Y0170248D01*
X0223561Y0169250D02*
X0229439Y0169250D01*
X0233561Y0169250D02*
X0239439Y0169250D01*
X0238724Y0169546D02*
X0240525Y0168800D01*
X0242475Y0168800D01*
X0244276Y0169546D01*
X0245654Y0170924D01*
X0246400Y0172725D01*
X0246400Y0180275D01*
X0245654Y0182076D01*
X0244276Y0183454D01*
X0242475Y0184200D01*
X0240525Y0184200D01*
X0238724Y0183454D01*
X0237346Y0182076D01*
X0236600Y0180275D01*
X0236600Y0172725D01*
X0237346Y0170924D01*
X0238724Y0169546D01*
X0238022Y0170248D02*
X0234978Y0170248D01*
X0235788Y0171247D02*
X0237212Y0171247D01*
X0236799Y0172245D02*
X0236201Y0172245D01*
X0236400Y0173244D02*
X0236600Y0173244D01*
X0236600Y0174242D02*
X0236400Y0174242D01*
X0236400Y0175241D02*
X0236600Y0175241D01*
X0236600Y0176239D02*
X0236400Y0176239D01*
X0236400Y0177238D02*
X0236600Y0177238D01*
X0236600Y0178237D02*
X0236400Y0178237D01*
X0236400Y0179235D02*
X0236600Y0179235D01*
X0236600Y0180234D02*
X0236400Y0180234D01*
X0236003Y0181232D02*
X0236997Y0181232D01*
X0237501Y0182231D02*
X0235499Y0182231D01*
X0234501Y0183229D02*
X0238499Y0183229D01*
X0244501Y0183229D02*
X0248499Y0183229D01*
X0248724Y0183454D02*
X0247346Y0182076D01*
X0246600Y0180275D01*
X0246600Y0172725D01*
X0247346Y0170924D01*
X0248724Y0169546D01*
X0250525Y0168800D01*
X0252475Y0168800D01*
X0254276Y0169546D01*
X0255654Y0170924D01*
X0256400Y0172725D01*
X0256400Y0180275D01*
X0255654Y0182076D01*
X0254276Y0183454D01*
X0252475Y0184200D01*
X0250525Y0184200D01*
X0248724Y0183454D01*
X0247501Y0182231D02*
X0245499Y0182231D01*
X0246003Y0181232D02*
X0246997Y0181232D01*
X0246600Y0180234D02*
X0246400Y0180234D01*
X0246400Y0179235D02*
X0246600Y0179235D01*
X0246600Y0178237D02*
X0246400Y0178237D01*
X0246400Y0177238D02*
X0246600Y0177238D01*
X0246600Y0176239D02*
X0246400Y0176239D01*
X0246400Y0175241D02*
X0246600Y0175241D01*
X0246600Y0174242D02*
X0246400Y0174242D01*
X0246400Y0173244D02*
X0246600Y0173244D01*
X0246799Y0172245D02*
X0246201Y0172245D01*
X0245788Y0171247D02*
X0247212Y0171247D01*
X0248022Y0170248D02*
X0244978Y0170248D01*
X0243561Y0169250D02*
X0249439Y0169250D01*
X0253561Y0169250D02*
X0259439Y0169250D01*
X0258022Y0170248D02*
X0254978Y0170248D01*
X0255788Y0171247D02*
X0257212Y0171247D01*
X0256799Y0172245D02*
X0256201Y0172245D01*
X0256400Y0173244D02*
X0256600Y0173244D01*
X0256600Y0174242D02*
X0256400Y0174242D01*
X0256400Y0175241D02*
X0256600Y0175241D01*
X0256600Y0176239D02*
X0256400Y0176239D01*
X0256400Y0177238D02*
X0256600Y0177238D01*
X0256600Y0178237D02*
X0256400Y0178237D01*
X0256400Y0179235D02*
X0256600Y0179235D01*
X0256600Y0180234D02*
X0256400Y0180234D01*
X0256003Y0181232D02*
X0256997Y0181232D01*
X0257501Y0182231D02*
X0255499Y0182231D01*
X0254501Y0183229D02*
X0258499Y0183229D01*
X0258600Y0184228D02*
X0212874Y0184228D01*
X0211875Y0185226D02*
X0258600Y0185226D01*
X0257674Y0186225D02*
X0210877Y0186225D01*
X0209878Y0187223D02*
X0256676Y0187223D01*
X0255677Y0188222D02*
X0208880Y0188222D01*
X0216400Y0176239D02*
X0216600Y0176239D01*
X0216600Y0175241D02*
X0216400Y0175241D01*
X0216400Y0174242D02*
X0216600Y0174242D01*
X0216600Y0173244D02*
X0216400Y0173244D01*
X0216201Y0172245D02*
X0216799Y0172245D01*
X0217146Y0171247D02*
X0215788Y0171247D01*
X0216147Y0170248D02*
X0214978Y0170248D01*
X0221354Y0167253D02*
X0278600Y0167253D01*
X0278600Y0168251D02*
X0222353Y0168251D01*
X0220356Y0166254D02*
X0278600Y0166254D01*
X0278600Y0165256D02*
X0219357Y0165256D01*
X0218544Y0153274D02*
X0214456Y0153274D01*
X0215454Y0152275D02*
X0217546Y0152275D01*
X0217015Y0151277D02*
X0215985Y0151277D01*
X0216399Y0150278D02*
X0216601Y0150278D01*
X0216600Y0149280D02*
X0216400Y0149280D01*
X0216400Y0148281D02*
X0216600Y0148281D01*
X0216600Y0147283D02*
X0216400Y0147283D01*
X0216400Y0146284D02*
X0216600Y0146284D01*
X0216600Y0145286D02*
X0216400Y0145286D01*
X0216400Y0144287D02*
X0216600Y0144287D01*
X0216600Y0143289D02*
X0216400Y0143289D01*
X0216220Y0142290D02*
X0216780Y0142290D01*
X0217194Y0141292D02*
X0215806Y0141292D01*
X0215023Y0140293D02*
X0217977Y0140293D01*
X0219331Y0139295D02*
X0214400Y0139295D01*
X0214400Y0138296D02*
X0245603Y0138296D01*
X0246601Y0137298D02*
X0214400Y0137298D01*
X0214400Y0136299D02*
X0247600Y0136299D01*
X0248598Y0135301D02*
X0214629Y0135301D01*
X0215628Y0134302D02*
X0249597Y0134302D01*
X0244604Y0139295D02*
X0243669Y0139295D01*
X0239331Y0139295D02*
X0233669Y0139295D01*
X0235023Y0140293D02*
X0237977Y0140293D01*
X0237194Y0141292D02*
X0235806Y0141292D01*
X0236220Y0142290D02*
X0236780Y0142290D01*
X0236600Y0143289D02*
X0236400Y0143289D01*
X0236400Y0144287D02*
X0236600Y0144287D01*
X0236600Y0145286D02*
X0236400Y0145286D01*
X0236400Y0146284D02*
X0236600Y0146284D01*
X0236600Y0147283D02*
X0236400Y0147283D01*
X0236400Y0148281D02*
X0236600Y0148281D01*
X0236600Y0149280D02*
X0236400Y0149280D01*
X0236399Y0150278D02*
X0236601Y0150278D01*
X0237015Y0151277D02*
X0235985Y0151277D01*
X0235454Y0152275D02*
X0237546Y0152275D01*
X0238544Y0153274D02*
X0234456Y0153274D01*
X0228544Y0153274D02*
X0224456Y0153274D01*
X0225454Y0152275D02*
X0227546Y0152275D01*
X0227015Y0151277D02*
X0225985Y0151277D01*
X0226399Y0150278D02*
X0226601Y0150278D01*
X0226600Y0149280D02*
X0226400Y0149280D01*
X0226400Y0148281D02*
X0226600Y0148281D01*
X0226600Y0147283D02*
X0226400Y0147283D01*
X0226400Y0146284D02*
X0226600Y0146284D01*
X0226600Y0145286D02*
X0226400Y0145286D01*
X0226400Y0144287D02*
X0226600Y0144287D01*
X0226600Y0143289D02*
X0226400Y0143289D01*
X0226220Y0142290D02*
X0226780Y0142290D01*
X0227194Y0141292D02*
X0225806Y0141292D01*
X0225023Y0140293D02*
X0227977Y0140293D01*
X0229331Y0139295D02*
X0223669Y0139295D01*
X0216400Y0133303D02*
X0278600Y0133303D01*
X0278600Y0132305D02*
X0216400Y0132305D01*
X0216400Y0131306D02*
X0278470Y0131306D01*
X0277388Y0130308D02*
X0216400Y0130308D01*
X0216239Y0129309D02*
X0276602Y0129309D01*
X0276189Y0128311D02*
X0215241Y0128311D01*
X0214400Y0127312D02*
X0275900Y0127312D01*
X0275900Y0126314D02*
X0214400Y0126314D01*
X0214400Y0125315D02*
X0275929Y0125315D01*
X0276343Y0124317D02*
X0214400Y0124317D01*
X0214400Y0123318D02*
X0276762Y0123318D01*
X0277761Y0122320D02*
X0214400Y0122320D01*
X0214400Y0121321D02*
X0279369Y0121321D01*
X0283631Y0121321D02*
X0288600Y0121321D01*
X0288600Y0120323D02*
X0214400Y0120323D01*
X0214400Y0119324D02*
X0288600Y0119324D01*
X0288600Y0118326D02*
X0214400Y0118326D01*
X0214400Y0117327D02*
X0288600Y0117327D01*
X0288600Y0116329D02*
X0258601Y0116329D01*
X0259599Y0115330D02*
X0288600Y0115330D01*
X0288600Y0114332D02*
X0260598Y0114332D01*
X0261400Y0113333D02*
X0288600Y0113333D01*
X0288600Y0112335D02*
X0261400Y0112335D01*
X0261400Y0111336D02*
X0288600Y0111336D01*
X0288600Y0110338D02*
X0261400Y0110338D01*
X0261269Y0109339D02*
X0288600Y0109339D01*
X0288600Y0108341D02*
X0260270Y0108341D01*
X0251600Y0112335D02*
X0220800Y0112335D01*
X0220800Y0111800D02*
X0220800Y0113281D01*
X0218281Y0115800D01*
X0216800Y0115800D01*
X0216800Y0111800D01*
X0220800Y0111800D01*
X0220748Y0113333D02*
X0251600Y0113333D01*
X0252402Y0114332D02*
X0219749Y0114332D01*
X0218751Y0115330D02*
X0253401Y0115330D01*
X0254399Y0116329D02*
X0214400Y0116329D01*
X0216200Y0115330D02*
X0216800Y0115330D01*
X0216800Y0114332D02*
X0216200Y0114332D01*
X0216200Y0113333D02*
X0216800Y0113333D01*
X0216800Y0112335D02*
X0216200Y0112335D01*
X0208600Y0112335D02*
X0189766Y0112335D01*
X0189400Y0113333D02*
X0208600Y0113333D01*
X0208600Y0114332D02*
X0189400Y0114332D01*
X0189400Y0115330D02*
X0208600Y0115330D01*
X0208600Y0116329D02*
X0189400Y0116329D01*
X0189400Y0117327D02*
X0208600Y0117327D01*
X0208600Y0118326D02*
X0189400Y0118326D01*
X0183600Y0118326D02*
X0104400Y0118326D01*
X0104400Y0119324D02*
X0169259Y0119324D01*
X0167948Y0120323D02*
X0164167Y0120323D01*
X0164301Y0120420D02*
X0164780Y0120899D01*
X0165178Y0121446D01*
X0165485Y0122049D01*
X0165694Y0122693D01*
X0165800Y0123362D01*
X0165800Y0126200D01*
X0161800Y0126200D01*
X0161800Y0126800D01*
X0161200Y0126800D01*
X0161200Y0133600D01*
X0161162Y0133600D01*
X0160493Y0133494D01*
X0159849Y0133285D01*
X0159246Y0132978D01*
X0158699Y0132580D01*
X0158220Y0132101D01*
X0157822Y0131554D01*
X0157515Y0130951D01*
X0157306Y0130307D01*
X0157200Y0129638D01*
X0157200Y0126800D01*
X0161200Y0126800D01*
X0161200Y0126200D01*
X0157200Y0126200D01*
X0157200Y0123362D01*
X0157306Y0122693D01*
X0157515Y0122049D01*
X0157822Y0121446D01*
X0158220Y0120899D01*
X0158699Y0120420D01*
X0159246Y0120022D01*
X0159849Y0119715D01*
X0160493Y0119506D01*
X0161162Y0119400D01*
X0161200Y0119400D01*
X0161200Y0126200D01*
X0161800Y0126200D01*
X0161800Y0119400D01*
X0161838Y0119400D01*
X0162507Y0119506D01*
X0163151Y0119715D01*
X0163754Y0120022D01*
X0164301Y0120420D01*
X0165087Y0121321D02*
X0167182Y0121321D01*
X0166768Y0122320D02*
X0165573Y0122320D01*
X0165793Y0123318D02*
X0166600Y0123318D01*
X0166600Y0124317D02*
X0165800Y0124317D01*
X0165800Y0125315D02*
X0166600Y0125315D01*
X0166600Y0126314D02*
X0161800Y0126314D01*
X0161800Y0126800D02*
X0165800Y0126800D01*
X0165800Y0129638D01*
X0165694Y0130307D01*
X0165485Y0130951D01*
X0165178Y0131554D01*
X0164780Y0132101D01*
X0164301Y0132580D01*
X0163754Y0132978D01*
X0163151Y0133285D01*
X0162507Y0133494D01*
X0161838Y0133600D01*
X0161800Y0133600D01*
X0161800Y0126800D01*
X0161800Y0127312D02*
X0161200Y0127312D01*
X0161200Y0126314D02*
X0100787Y0126314D01*
X0099789Y0127312D02*
X0157200Y0127312D01*
X0157200Y0128311D02*
X0098790Y0128311D01*
X0097295Y0129309D02*
X0157200Y0129309D01*
X0157306Y0130308D02*
X0096283Y0130308D01*
X0096375Y0131306D02*
X0157696Y0131306D01*
X0158424Y0132305D02*
X0096375Y0132305D01*
X0096029Y0133303D02*
X0159906Y0133303D01*
X0161200Y0133303D02*
X0161800Y0133303D01*
X0161800Y0132305D02*
X0161200Y0132305D01*
X0161200Y0131306D02*
X0161800Y0131306D01*
X0161800Y0130308D02*
X0161200Y0130308D01*
X0161200Y0129309D02*
X0161800Y0129309D01*
X0161800Y0128311D02*
X0161200Y0128311D01*
X0165800Y0128311D02*
X0166600Y0128311D01*
X0166600Y0129309D02*
X0165800Y0129309D01*
X0165694Y0130308D02*
X0166614Y0130308D01*
X0167027Y0131306D02*
X0165304Y0131306D01*
X0164576Y0132305D02*
X0166594Y0132305D01*
X0165595Y0133303D02*
X0163094Y0133303D01*
X0169804Y0137298D02*
X0179621Y0137298D01*
X0179719Y0137200D02*
X0181200Y0137200D01*
X0181200Y0141200D01*
X0177200Y0141200D01*
X0177200Y0139719D01*
X0179719Y0137200D01*
X0181200Y0137298D02*
X0181800Y0137298D01*
X0181800Y0138296D02*
X0181200Y0138296D01*
X0181200Y0139295D02*
X0181800Y0139295D01*
X0181800Y0140293D02*
X0181200Y0140293D01*
X0181200Y0141292D02*
X0166400Y0141292D01*
X0166400Y0142290D02*
X0177200Y0142290D01*
X0177208Y0143289D02*
X0166400Y0143289D01*
X0165643Y0144287D02*
X0178206Y0144287D01*
X0179205Y0145286D02*
X0164644Y0145286D01*
X0163645Y0146284D02*
X0183600Y0146284D01*
X0183600Y0147283D02*
X0094057Y0147283D01*
X0094261Y0147367D02*
X0095633Y0148739D01*
X0096375Y0150530D01*
X0096375Y0152470D01*
X0095633Y0154261D01*
X0094261Y0155633D01*
X0092470Y0156375D01*
X0090530Y0156375D01*
X0088739Y0155633D01*
X0087367Y0154261D01*
X0086625Y0152470D01*
X0086625Y0150530D01*
X0087367Y0148739D01*
X0088739Y0147367D01*
X0090530Y0146625D01*
X0092470Y0146625D01*
X0094261Y0147367D01*
X0095175Y0148281D02*
X0183600Y0148281D01*
X0183600Y0149280D02*
X0095857Y0149280D01*
X0096270Y0150278D02*
X0183600Y0150278D01*
X0183600Y0151277D02*
X0096375Y0151277D01*
X0096375Y0152275D02*
X0183682Y0152275D01*
X0184173Y0153274D02*
X0096042Y0153274D01*
X0095622Y0154272D02*
X0185171Y0154272D01*
X0186170Y0155271D02*
X0094623Y0155271D01*
X0094021Y0157268D02*
X0188167Y0157268D01*
X0189165Y0158266D02*
X0095160Y0158266D01*
X0095851Y0159265D02*
X0099634Y0159265D01*
X0098635Y0160263D02*
X0096264Y0160263D01*
X0096375Y0161262D02*
X0097637Y0161262D01*
X0096638Y0162260D02*
X0096375Y0162260D01*
X0090240Y0166254D02*
X0032760Y0166254D01*
X0034638Y0165256D02*
X0088362Y0165256D01*
X0087366Y0164257D02*
X0037421Y0164257D01*
X0038842Y0163259D02*
X0086952Y0163259D01*
X0086625Y0162260D02*
X0039841Y0162260D01*
X0040839Y0161262D02*
X0086625Y0161262D01*
X0086736Y0160263D02*
X0041838Y0160263D01*
X0042836Y0159265D02*
X0087149Y0159265D01*
X0087840Y0158266D02*
X0043835Y0158266D01*
X0044321Y0157268D02*
X0088979Y0157268D01*
X0090276Y0156269D02*
X0044400Y0156269D01*
X0044400Y0155271D02*
X0088377Y0155271D01*
X0087378Y0154272D02*
X0044400Y0154272D01*
X0044400Y0153274D02*
X0086958Y0153274D01*
X0086625Y0152275D02*
X0044400Y0152275D01*
X0044400Y0151277D02*
X0086625Y0151277D01*
X0086730Y0150278D02*
X0044400Y0150278D01*
X0044400Y0149280D02*
X0087143Y0149280D01*
X0087825Y0148281D02*
X0044400Y0148281D01*
X0044400Y0147283D02*
X0088943Y0147283D01*
X0090311Y0146284D02*
X0044400Y0146284D01*
X0044400Y0145286D02*
X0088392Y0145286D01*
X0087393Y0144287D02*
X0044400Y0144287D01*
X0044400Y0143289D02*
X0086964Y0143289D01*
X0086625Y0142290D02*
X0044811Y0142290D01*
X0045810Y0141292D02*
X0086625Y0141292D01*
X0086723Y0140293D02*
X0046808Y0140293D01*
X0030311Y0146284D02*
X0024400Y0146284D01*
X0024400Y0145286D02*
X0028392Y0145286D01*
X0027393Y0144287D02*
X0024400Y0144287D01*
X0024400Y0143289D02*
X0026964Y0143289D01*
X0026625Y0142290D02*
X0024811Y0142290D01*
X0025810Y0141292D02*
X0026625Y0141292D01*
X0024400Y0147283D02*
X0028943Y0147283D01*
X0027825Y0148281D02*
X0024400Y0148281D01*
X0024400Y0149280D02*
X0027143Y0149280D01*
X0026730Y0150278D02*
X0024400Y0150278D01*
X0024400Y0151277D02*
X0026625Y0151277D01*
X0026625Y0152275D02*
X0024400Y0152275D01*
X0024400Y0153274D02*
X0026958Y0153274D01*
X0027378Y0154272D02*
X0024400Y0154272D01*
X0024400Y0155271D02*
X0028377Y0155271D01*
X0034021Y0157268D02*
X0036631Y0157268D01*
X0035632Y0158266D02*
X0035160Y0158266D01*
X0035772Y0167253D02*
X0089015Y0167253D01*
X0087855Y0168251D02*
X0036375Y0168251D01*
X0036375Y0169250D02*
X0087156Y0169250D01*
X0086742Y0170248D02*
X0036375Y0170248D01*
X0036375Y0171247D02*
X0086625Y0171247D01*
X0086625Y0172245D02*
X0036375Y0172245D01*
X0036375Y0173244D02*
X0086946Y0173244D01*
X0087360Y0174242D02*
X0036375Y0174242D01*
X0036278Y0175241D02*
X0088347Y0175241D01*
X0089567Y0176239D02*
X0035280Y0176239D01*
X0035158Y0177238D02*
X0087842Y0177238D01*
X0086844Y0178237D02*
X0036156Y0178237D01*
X0036623Y0179235D02*
X0086377Y0179235D01*
X0085963Y0180234D02*
X0037037Y0180234D01*
X0037100Y0181232D02*
X0085900Y0181232D01*
X0085900Y0182231D02*
X0037100Y0182231D01*
X0036845Y0183229D02*
X0086155Y0183229D01*
X0086568Y0184228D02*
X0036432Y0184228D01*
X0035693Y0185226D02*
X0087306Y0185226D01*
X0088305Y0186225D02*
X0034695Y0186225D01*
X0092724Y0156269D02*
X0187168Y0156269D01*
X0191376Y0152275D02*
X0197546Y0152275D01*
X0197015Y0151277D02*
X0190378Y0151277D01*
X0189400Y0150278D02*
X0196601Y0150278D01*
X0196600Y0149280D02*
X0189400Y0149280D01*
X0189400Y0148281D02*
X0196600Y0148281D01*
X0196600Y0147283D02*
X0189400Y0147283D01*
X0189400Y0146284D02*
X0196600Y0146284D01*
X0196600Y0145286D02*
X0189400Y0145286D01*
X0189400Y0144287D02*
X0196600Y0144287D01*
X0196600Y0143289D02*
X0189400Y0143289D01*
X0189400Y0142290D02*
X0196780Y0142290D01*
X0197194Y0141292D02*
X0189400Y0141292D01*
X0189400Y0140293D02*
X0197977Y0140293D01*
X0198600Y0139295D02*
X0189400Y0139295D01*
X0189400Y0138296D02*
X0198600Y0138296D01*
X0198600Y0137298D02*
X0189400Y0137298D01*
X0189400Y0136299D02*
X0198600Y0136299D01*
X0198371Y0135301D02*
X0189400Y0135301D01*
X0189400Y0134302D02*
X0197372Y0134302D01*
X0196600Y0133303D02*
X0194426Y0133303D01*
X0195425Y0132305D02*
X0196600Y0132305D01*
X0196600Y0131306D02*
X0195973Y0131306D01*
X0196386Y0130308D02*
X0196600Y0130308D01*
X0196761Y0129309D02*
X0196400Y0129309D01*
X0196400Y0128311D02*
X0197759Y0128311D01*
X0198758Y0127312D02*
X0196400Y0127312D01*
X0196400Y0126314D02*
X0208600Y0126314D01*
X0208600Y0127312D02*
X0204242Y0127312D01*
X0205241Y0128311D02*
X0207759Y0128311D01*
X0206761Y0129309D02*
X0206239Y0129309D01*
X0206400Y0130308D02*
X0206600Y0130308D01*
X0206600Y0131306D02*
X0206400Y0131306D01*
X0206400Y0132305D02*
X0206600Y0132305D01*
X0206600Y0133303D02*
X0206400Y0133303D01*
X0205628Y0134302D02*
X0207372Y0134302D01*
X0208371Y0135301D02*
X0204629Y0135301D01*
X0204400Y0136299D02*
X0208600Y0136299D01*
X0208600Y0137298D02*
X0204400Y0137298D01*
X0204400Y0138296D02*
X0208600Y0138296D01*
X0208600Y0139295D02*
X0204400Y0139295D01*
X0205023Y0140293D02*
X0207977Y0140293D01*
X0207194Y0141292D02*
X0205806Y0141292D01*
X0206220Y0142290D02*
X0206780Y0142290D01*
X0206600Y0143289D02*
X0206400Y0143289D01*
X0206400Y0144287D02*
X0206600Y0144287D01*
X0206600Y0145286D02*
X0206400Y0145286D01*
X0206400Y0146284D02*
X0206600Y0146284D01*
X0206600Y0147283D02*
X0206400Y0147283D01*
X0206400Y0148281D02*
X0206600Y0148281D01*
X0206600Y0149280D02*
X0206400Y0149280D01*
X0206399Y0150278D02*
X0206601Y0150278D01*
X0207015Y0151277D02*
X0205985Y0151277D01*
X0205454Y0152275D02*
X0207546Y0152275D01*
X0208544Y0153274D02*
X0204456Y0153274D01*
X0198544Y0153274D02*
X0192375Y0153274D01*
X0181800Y0145286D02*
X0181200Y0145286D01*
X0181200Y0144287D02*
X0181800Y0144287D01*
X0181800Y0143289D02*
X0181200Y0143289D01*
X0181200Y0142290D02*
X0181800Y0142290D01*
X0177200Y0140293D02*
X0166400Y0140293D01*
X0167331Y0139295D02*
X0177624Y0139295D01*
X0178623Y0138296D02*
X0168805Y0138296D01*
X0168958Y0138143D02*
X0168958Y0138143D01*
X0170802Y0136299D02*
X0183600Y0136299D01*
X0183600Y0135301D02*
X0171801Y0135301D01*
X0172799Y0134302D02*
X0183600Y0134302D01*
X0183600Y0137298D02*
X0183379Y0137298D01*
X0178574Y0133303D02*
X0174426Y0133303D01*
X0175425Y0132305D02*
X0177575Y0132305D01*
X0177027Y0131306D02*
X0175973Y0131306D01*
X0176386Y0130308D02*
X0176614Y0130308D01*
X0176600Y0129309D02*
X0176400Y0129309D01*
X0176400Y0128311D02*
X0176600Y0128311D01*
X0176600Y0127312D02*
X0176400Y0127312D01*
X0176400Y0126314D02*
X0176600Y0126314D01*
X0176600Y0125315D02*
X0176400Y0125315D01*
X0176400Y0124317D02*
X0176600Y0124317D01*
X0176600Y0123318D02*
X0176400Y0123318D01*
X0176232Y0122320D02*
X0176768Y0122320D01*
X0177182Y0121321D02*
X0175818Y0121321D01*
X0175052Y0120323D02*
X0177948Y0120323D01*
X0179259Y0119324D02*
X0173741Y0119324D01*
X0183600Y0117327D02*
X0104400Y0117327D01*
X0104400Y0116329D02*
X0183600Y0116329D01*
X0183600Y0115330D02*
X0104400Y0115330D01*
X0104400Y0114332D02*
X0183600Y0114332D01*
X0183600Y0113333D02*
X0104400Y0113333D01*
X0104400Y0112335D02*
X0183600Y0112335D01*
X0183600Y0111336D02*
X0104400Y0111336D01*
X0104400Y0110338D02*
X0183842Y0110338D01*
X0184560Y0109339D02*
X0104400Y0109339D01*
X0104400Y0108341D02*
X0185558Y0108341D01*
X0186557Y0107342D02*
X0104400Y0107342D01*
X0104400Y0106344D02*
X0187555Y0106344D01*
X0188554Y0105345D02*
X0104161Y0105345D01*
X0103448Y0104347D02*
X0188600Y0104347D01*
X0188600Y0103348D02*
X0184381Y0103348D01*
X0185380Y0102350D02*
X0187620Y0102350D01*
X0187046Y0101351D02*
X0185954Y0101351D01*
X0186368Y0100353D02*
X0186632Y0100353D01*
X0186600Y0099354D02*
X0186400Y0099354D01*
X0186400Y0098356D02*
X0186600Y0098356D01*
X0186600Y0097357D02*
X0186400Y0097357D01*
X0186400Y0096359D02*
X0186600Y0096359D01*
X0186600Y0095360D02*
X0186400Y0095360D01*
X0186400Y0094362D02*
X0186600Y0094362D01*
X0186600Y0093363D02*
X0186400Y0093363D01*
X0186251Y0092365D02*
X0186749Y0092365D01*
X0187163Y0091366D02*
X0185837Y0091366D01*
X0186266Y0090368D02*
X0185097Y0090368D01*
X0179152Y0089369D02*
X0173848Y0089369D01*
X0174276Y0089546D02*
X0175654Y0090924D01*
X0176400Y0092725D01*
X0176400Y0100275D01*
X0175654Y0102076D01*
X0174276Y0103454D01*
X0172475Y0104200D01*
X0170525Y0104200D01*
X0168724Y0103454D01*
X0167346Y0102076D01*
X0166600Y0100275D01*
X0166600Y0092725D01*
X0167346Y0090924D01*
X0168724Y0089546D01*
X0170525Y0088800D01*
X0172475Y0088800D01*
X0174276Y0089546D01*
X0175097Y0090368D02*
X0177903Y0090368D01*
X0177163Y0091366D02*
X0175837Y0091366D01*
X0176251Y0092365D02*
X0176749Y0092365D01*
X0176600Y0093363D02*
X0176400Y0093363D01*
X0176400Y0094362D02*
X0176600Y0094362D01*
X0176600Y0095360D02*
X0176400Y0095360D01*
X0176400Y0096359D02*
X0176600Y0096359D01*
X0176600Y0097357D02*
X0176400Y0097357D01*
X0176400Y0098356D02*
X0176600Y0098356D01*
X0176600Y0099354D02*
X0176400Y0099354D01*
X0176368Y0100353D02*
X0176632Y0100353D01*
X0177046Y0101351D02*
X0175954Y0101351D01*
X0175380Y0102350D02*
X0177620Y0102350D01*
X0178619Y0103348D02*
X0174381Y0103348D01*
X0168619Y0103348D02*
X0164381Y0103348D01*
X0164276Y0103454D02*
X0162475Y0104200D01*
X0160525Y0104200D01*
X0158724Y0103454D01*
X0157346Y0102076D01*
X0156600Y0100275D01*
X0156600Y0092725D01*
X0157346Y0090924D01*
X0158724Y0089546D01*
X0160525Y0088800D01*
X0162475Y0088800D01*
X0164276Y0089546D01*
X0165654Y0090924D01*
X0166400Y0092725D01*
X0166400Y0100275D01*
X0165654Y0102076D01*
X0164276Y0103454D01*
X0165380Y0102350D02*
X0167620Y0102350D01*
X0167046Y0101351D02*
X0165954Y0101351D01*
X0166368Y0100353D02*
X0166632Y0100353D01*
X0166600Y0099354D02*
X0166400Y0099354D01*
X0166400Y0098356D02*
X0166600Y0098356D01*
X0166600Y0097357D02*
X0166400Y0097357D01*
X0166400Y0096359D02*
X0166600Y0096359D01*
X0166600Y0095360D02*
X0166400Y0095360D01*
X0166400Y0094362D02*
X0166600Y0094362D01*
X0166600Y0093363D02*
X0166400Y0093363D01*
X0166251Y0092365D02*
X0166749Y0092365D01*
X0167163Y0091366D02*
X0165837Y0091366D01*
X0165097Y0090368D02*
X0167903Y0090368D01*
X0169152Y0089369D02*
X0163848Y0089369D01*
X0159152Y0089369D02*
X0095894Y0089369D01*
X0095633Y0088739D02*
X0096375Y0090530D01*
X0096375Y0092470D01*
X0095633Y0094261D01*
X0094261Y0095633D01*
X0092470Y0096375D01*
X0090530Y0096375D01*
X0088739Y0095633D01*
X0087367Y0094261D01*
X0086625Y0092470D01*
X0086625Y0090530D01*
X0087367Y0088739D01*
X0088739Y0087367D01*
X0090530Y0086625D01*
X0092470Y0086625D01*
X0094261Y0087367D01*
X0095633Y0088739D01*
X0095264Y0088370D02*
X0179269Y0088370D01*
X0178271Y0087372D02*
X0094266Y0087372D01*
X0094261Y0085633D02*
X0092470Y0086375D01*
X0090530Y0086375D01*
X0088739Y0085633D01*
X0087367Y0084261D01*
X0086625Y0082470D01*
X0086625Y0080530D01*
X0087367Y0078739D01*
X0088739Y0077367D01*
X0090530Y0076625D01*
X0092470Y0076625D01*
X0094261Y0077367D01*
X0095633Y0078739D01*
X0096375Y0080530D01*
X0096375Y0082470D01*
X0095633Y0084261D01*
X0094261Y0085633D01*
X0094519Y0085375D02*
X0176274Y0085375D01*
X0177272Y0086373D02*
X0092473Y0086373D01*
X0090527Y0086373D02*
X0032473Y0086373D01*
X0032470Y0086375D02*
X0030530Y0086375D01*
X0028739Y0085633D01*
X0027367Y0084261D01*
X0026625Y0082470D01*
X0026625Y0080530D01*
X0027367Y0078739D01*
X0028739Y0077367D01*
X0030530Y0076625D01*
X0032470Y0076625D01*
X0034261Y0077367D01*
X0035633Y0078739D01*
X0036375Y0080530D01*
X0036375Y0082470D01*
X0035633Y0084261D01*
X0034261Y0085633D01*
X0032470Y0086375D01*
X0032470Y0086625D02*
X0034261Y0087367D01*
X0035633Y0088739D01*
X0036375Y0090530D01*
X0036375Y0092470D01*
X0035633Y0094261D01*
X0034261Y0095633D01*
X0032470Y0096375D01*
X0030530Y0096375D01*
X0028739Y0095633D01*
X0027367Y0094261D01*
X0026625Y0092470D01*
X0026625Y0090530D01*
X0027367Y0088739D01*
X0028739Y0087367D01*
X0030530Y0086625D01*
X0032470Y0086625D01*
X0034266Y0087372D02*
X0088734Y0087372D01*
X0087735Y0088370D02*
X0035264Y0088370D01*
X0035894Y0089369D02*
X0087106Y0089369D01*
X0086693Y0090368D02*
X0036307Y0090368D01*
X0036375Y0091366D02*
X0086625Y0091366D01*
X0086625Y0092365D02*
X0036375Y0092365D01*
X0036005Y0093363D02*
X0086995Y0093363D01*
X0087468Y0094362D02*
X0035532Y0094362D01*
X0034534Y0095360D02*
X0088466Y0095360D01*
X0088763Y0097357D02*
X0034237Y0097357D01*
X0034261Y0097367D02*
X0035633Y0098739D01*
X0036375Y0100530D01*
X0036375Y0102470D01*
X0035633Y0104261D01*
X0034261Y0105633D01*
X0032470Y0106375D01*
X0030530Y0106375D01*
X0028739Y0105633D01*
X0027367Y0104261D01*
X0026625Y0102470D01*
X0026625Y0100530D01*
X0027367Y0098739D01*
X0028739Y0097367D01*
X0030530Y0096625D01*
X0032470Y0096625D01*
X0034261Y0097367D01*
X0035250Y0098356D02*
X0087750Y0098356D01*
X0087112Y0099354D02*
X0035888Y0099354D01*
X0036301Y0100353D02*
X0086699Y0100353D01*
X0086625Y0101351D02*
X0036375Y0101351D01*
X0036375Y0102350D02*
X0086625Y0102350D01*
X0086989Y0103348D02*
X0036011Y0103348D01*
X0035547Y0104347D02*
X0087453Y0104347D01*
X0088451Y0105345D02*
X0034549Y0105345D01*
X0034201Y0107342D02*
X0088799Y0107342D01*
X0087765Y0108341D02*
X0035235Y0108341D01*
X0035881Y0109339D02*
X0087119Y0109339D01*
X0086705Y0110338D02*
X0036295Y0110338D01*
X0036375Y0111336D02*
X0086625Y0111336D01*
X0086625Y0112335D02*
X0036375Y0112335D01*
X0036017Y0113333D02*
X0086983Y0113333D01*
X0087438Y0114332D02*
X0035562Y0114332D01*
X0028436Y0115330D02*
X0003600Y0115330D01*
X0003600Y0114332D02*
X0027438Y0114332D01*
X0026983Y0113333D02*
X0003600Y0113333D01*
X0003600Y0112335D02*
X0026625Y0112335D01*
X0026625Y0111336D02*
X0003600Y0111336D01*
X0003600Y0110338D02*
X0026705Y0110338D01*
X0027119Y0109339D02*
X0003600Y0109339D01*
X0003600Y0108341D02*
X0027765Y0108341D01*
X0028799Y0107342D02*
X0003600Y0107342D01*
X0003600Y0106344D02*
X0030455Y0106344D01*
X0032545Y0106344D02*
X0090455Y0106344D01*
X0092545Y0106344D02*
X0097242Y0106344D01*
X0096244Y0105345D02*
X0094549Y0105345D01*
X0094201Y0107342D02*
X0098241Y0107342D01*
X0098600Y0108341D02*
X0095235Y0108341D01*
X0095881Y0109339D02*
X0098600Y0109339D01*
X0098600Y0110338D02*
X0096295Y0110338D01*
X0096375Y0111336D02*
X0098600Y0111336D01*
X0098600Y0112335D02*
X0096375Y0112335D01*
X0096017Y0113333D02*
X0098600Y0113333D01*
X0098600Y0114332D02*
X0095562Y0114332D01*
X0094564Y0115330D02*
X0098600Y0115330D01*
X0098600Y0116329D02*
X0092581Y0116329D01*
X0094165Y0117327D02*
X0098600Y0117327D01*
X0098600Y0118326D02*
X0095220Y0118326D01*
X0095875Y0119324D02*
X0098600Y0119324D01*
X0098576Y0120323D02*
X0096289Y0120323D01*
X0096375Y0121321D02*
X0097577Y0121321D01*
X0096579Y0122320D02*
X0096375Y0122320D01*
X0101786Y0125315D02*
X0157200Y0125315D01*
X0157200Y0124317D02*
X0102784Y0124317D01*
X0103783Y0123318D02*
X0157207Y0123318D01*
X0157427Y0122320D02*
X0104299Y0122320D01*
X0104400Y0121321D02*
X0157913Y0121321D01*
X0158833Y0120323D02*
X0104400Y0120323D01*
X0102449Y0103348D02*
X0158619Y0103348D01*
X0157620Y0102350D02*
X0101451Y0102350D01*
X0100452Y0101351D02*
X0157046Y0101351D01*
X0156632Y0100353D02*
X0099454Y0100353D01*
X0098455Y0099354D02*
X0156600Y0099354D01*
X0156600Y0098356D02*
X0095250Y0098356D01*
X0094237Y0097357D02*
X0156600Y0097357D01*
X0156600Y0096359D02*
X0092509Y0096359D01*
X0090491Y0096359D02*
X0032509Y0096359D01*
X0030491Y0096359D02*
X0003600Y0096359D01*
X0003600Y0097357D02*
X0028763Y0097357D01*
X0027750Y0098356D02*
X0003600Y0098356D01*
X0003600Y0099354D02*
X0027112Y0099354D01*
X0026699Y0100353D02*
X0003600Y0100353D01*
X0003600Y0101351D02*
X0026625Y0101351D01*
X0026625Y0102350D02*
X0003600Y0102350D01*
X0003600Y0103348D02*
X0026989Y0103348D01*
X0027453Y0104347D02*
X0003600Y0104347D01*
X0003600Y0105345D02*
X0028451Y0105345D01*
X0028466Y0095360D02*
X0003600Y0095360D01*
X0003600Y0094362D02*
X0027468Y0094362D01*
X0026995Y0093363D02*
X0003600Y0093363D01*
X0003600Y0092365D02*
X0026625Y0092365D01*
X0026625Y0091366D02*
X0003600Y0091366D01*
X0003600Y0090368D02*
X0026693Y0090368D01*
X0027106Y0089369D02*
X0003600Y0089369D01*
X0003600Y0088370D02*
X0027735Y0088370D01*
X0028734Y0087372D02*
X0003600Y0087372D01*
X0003600Y0086373D02*
X0030527Y0086373D01*
X0028481Y0085375D02*
X0003600Y0085375D01*
X0003600Y0084376D02*
X0027482Y0084376D01*
X0027001Y0083378D02*
X0003600Y0083378D01*
X0003600Y0082379D02*
X0026625Y0082379D01*
X0026625Y0081381D02*
X0003600Y0081381D01*
X0003600Y0080382D02*
X0026686Y0080382D01*
X0027100Y0079384D02*
X0003600Y0079384D01*
X0003600Y0078385D02*
X0027721Y0078385D01*
X0028719Y0077387D02*
X0003600Y0077387D01*
X0003600Y0076388D02*
X0161600Y0076388D01*
X0161600Y0075390D02*
X0094504Y0075390D01*
X0095503Y0074391D02*
X0161679Y0074391D01*
X0161600Y0074470D02*
X0164470Y0071600D01*
X0168530Y0071600D01*
X0171400Y0074470D01*
X0171400Y0078530D01*
X0168530Y0081400D01*
X0164470Y0081400D01*
X0161600Y0078530D01*
X0161600Y0074470D01*
X0162678Y0073393D02*
X0095992Y0073393D01*
X0096375Y0072394D02*
X0163676Y0072394D01*
X0169324Y0072394D02*
X0173600Y0072394D01*
X0173600Y0071396D02*
X0096375Y0071396D01*
X0096320Y0070397D02*
X0173600Y0070397D01*
X0179400Y0070397D02*
X0208600Y0070397D01*
X0208600Y0069399D02*
X0179400Y0069399D01*
X0179400Y0068400D02*
X0208600Y0068400D01*
X0208600Y0067402D02*
X0179400Y0067402D01*
X0179400Y0071396D02*
X0208600Y0071396D01*
X0208600Y0072394D02*
X0189324Y0072394D01*
X0188530Y0071600D02*
X0191400Y0074470D01*
X0191400Y0078530D01*
X0188530Y0081400D01*
X0184470Y0081400D01*
X0181600Y0078530D01*
X0181600Y0074470D01*
X0184470Y0071600D01*
X0188530Y0071600D01*
X0190322Y0073393D02*
X0208600Y0073393D01*
X0208600Y0074391D02*
X0191321Y0074391D01*
X0191400Y0075390D02*
X0208600Y0075390D01*
X0208600Y0076388D02*
X0191400Y0076388D01*
X0191400Y0077387D02*
X0208600Y0077387D01*
X0208600Y0078385D02*
X0191400Y0078385D01*
X0190546Y0079384D02*
X0208600Y0079384D01*
X0208600Y0080382D02*
X0189547Y0080382D01*
X0188549Y0081381D02*
X0208600Y0081381D01*
X0208600Y0082379D02*
X0181481Y0082379D01*
X0180482Y0081381D02*
X0184451Y0081381D01*
X0183453Y0080382D02*
X0179484Y0080382D01*
X0179400Y0079384D02*
X0182454Y0079384D01*
X0181600Y0078385D02*
X0179400Y0078385D01*
X0179400Y0077387D02*
X0181600Y0077387D01*
X0181600Y0076388D02*
X0179400Y0076388D01*
X0179400Y0075390D02*
X0181600Y0075390D01*
X0181679Y0074391D02*
X0179400Y0074391D01*
X0179400Y0073393D02*
X0182678Y0073393D01*
X0183676Y0072394D02*
X0179400Y0072394D01*
X0173600Y0073393D02*
X0170322Y0073393D01*
X0171321Y0074391D02*
X0173600Y0074391D01*
X0173600Y0075390D02*
X0171400Y0075390D01*
X0171400Y0076388D02*
X0173600Y0076388D01*
X0173600Y0077387D02*
X0171400Y0077387D01*
X0171400Y0078385D02*
X0173600Y0078385D01*
X0173600Y0079384D02*
X0170546Y0079384D01*
X0169547Y0080382D02*
X0173600Y0080382D01*
X0173600Y0081381D02*
X0168549Y0081381D01*
X0164451Y0081381D02*
X0096375Y0081381D01*
X0096375Y0082379D02*
X0173725Y0082379D01*
X0174277Y0083378D02*
X0095999Y0083378D01*
X0095518Y0084376D02*
X0175275Y0084376D01*
X0174857Y0083958D02*
X0174857Y0083958D01*
X0182479Y0083378D02*
X0208600Y0083378D01*
X0208600Y0084376D02*
X0188478Y0084376D01*
X0189476Y0085375D02*
X0208600Y0085375D01*
X0208600Y0086373D02*
X0190475Y0086373D01*
X0191473Y0087372D02*
X0208600Y0087372D01*
X0208600Y0088370D02*
X0192472Y0088370D01*
X0193848Y0089369D02*
X0208600Y0089369D01*
X0208600Y0090368D02*
X0195097Y0090368D01*
X0195837Y0091366D02*
X0208600Y0091366D01*
X0208600Y0092365D02*
X0196251Y0092365D01*
X0196400Y0093363D02*
X0208600Y0093363D01*
X0208600Y0094362D02*
X0196400Y0094362D01*
X0196400Y0095360D02*
X0208600Y0095360D01*
X0208600Y0096359D02*
X0196400Y0096359D01*
X0196400Y0097357D02*
X0208600Y0097357D01*
X0208600Y0098356D02*
X0196400Y0098356D01*
X0196400Y0099354D02*
X0208600Y0099354D01*
X0208600Y0100353D02*
X0196368Y0100353D01*
X0195954Y0101351D02*
X0208600Y0101351D01*
X0208600Y0102350D02*
X0195380Y0102350D01*
X0194400Y0103348D02*
X0208600Y0103348D01*
X0208600Y0104347D02*
X0194400Y0104347D01*
X0194400Y0105345D02*
X0208600Y0105345D01*
X0208600Y0106344D02*
X0194400Y0106344D01*
X0194290Y0107342D02*
X0208600Y0107342D01*
X0208600Y0108341D02*
X0193760Y0108341D01*
X0192762Y0109339D02*
X0208600Y0109339D01*
X0208600Y0110338D02*
X0191763Y0110338D01*
X0190765Y0111336D02*
X0208600Y0111336D01*
X0208600Y0119324D02*
X0193741Y0119324D01*
X0195052Y0120323D02*
X0208600Y0120323D01*
X0208600Y0121321D02*
X0195818Y0121321D01*
X0196232Y0122320D02*
X0208600Y0122320D01*
X0208600Y0123318D02*
X0196400Y0123318D01*
X0196400Y0124317D02*
X0208600Y0124317D01*
X0208600Y0125315D02*
X0196400Y0125315D01*
X0173143Y0133958D02*
X0173143Y0133958D01*
X0166600Y0127312D02*
X0165800Y0127312D01*
X0161800Y0125315D02*
X0161200Y0125315D01*
X0161200Y0124317D02*
X0161800Y0124317D01*
X0161800Y0123318D02*
X0161200Y0123318D01*
X0161200Y0122320D02*
X0161800Y0122320D01*
X0161800Y0121321D02*
X0161200Y0121321D01*
X0161200Y0120323D02*
X0161800Y0120323D01*
X0156600Y0140293D02*
X0146400Y0140293D01*
X0146400Y0141292D02*
X0156600Y0141292D01*
X0156600Y0142290D02*
X0146400Y0142290D01*
X0146400Y0143289D02*
X0156600Y0143289D01*
X0157357Y0144287D02*
X0145643Y0144287D01*
X0144644Y0145286D02*
X0158356Y0145286D01*
X0159355Y0146284D02*
X0143645Y0146284D01*
X0139355Y0146284D02*
X0092689Y0146284D01*
X0094608Y0145286D02*
X0138356Y0145286D01*
X0137357Y0144287D02*
X0095607Y0144287D01*
X0096036Y0143289D02*
X0136600Y0143289D01*
X0136600Y0142290D02*
X0096375Y0142290D01*
X0096375Y0141292D02*
X0136600Y0141292D01*
X0136600Y0140293D02*
X0096277Y0140293D01*
X0126868Y0180234D02*
X0137200Y0180234D01*
X0137200Y0182231D02*
X0124871Y0182231D01*
X0123872Y0183229D02*
X0137200Y0183229D01*
X0138146Y0184228D02*
X0122874Y0184228D01*
X0121875Y0185226D02*
X0139145Y0185226D01*
X0141200Y0181232D02*
X0125869Y0181232D01*
X0247421Y0164257D02*
X0278600Y0164257D01*
X0278600Y0163259D02*
X0248842Y0163259D01*
X0249841Y0162260D02*
X0278600Y0162260D01*
X0278600Y0161262D02*
X0250839Y0161262D01*
X0251838Y0160263D02*
X0278600Y0160263D01*
X0278600Y0159265D02*
X0252836Y0159265D01*
X0253835Y0158266D02*
X0278600Y0158266D01*
X0278600Y0157268D02*
X0254321Y0157268D01*
X0254400Y0156269D02*
X0278600Y0156269D01*
X0278600Y0155271D02*
X0254400Y0155271D01*
X0254400Y0154272D02*
X0278600Y0154272D01*
X0278600Y0153274D02*
X0264456Y0153274D01*
X0265454Y0152275D02*
X0278600Y0152275D01*
X0278600Y0151277D02*
X0265985Y0151277D01*
X0266399Y0150278D02*
X0278600Y0150278D01*
X0278600Y0149280D02*
X0266400Y0149280D01*
X0266400Y0148281D02*
X0278600Y0148281D01*
X0278600Y0147283D02*
X0266400Y0147283D01*
X0266400Y0146284D02*
X0278600Y0146284D01*
X0278600Y0145286D02*
X0266400Y0145286D01*
X0266400Y0144287D02*
X0278600Y0144287D01*
X0278600Y0143289D02*
X0266400Y0143289D01*
X0266220Y0142290D02*
X0278600Y0142290D01*
X0278600Y0141292D02*
X0265806Y0141292D01*
X0265023Y0140293D02*
X0278600Y0140293D01*
X0278600Y0139295D02*
X0263669Y0139295D01*
X0262397Y0138296D02*
X0278600Y0138296D01*
X0278600Y0137298D02*
X0261399Y0137298D01*
X0260400Y0136299D02*
X0278600Y0136299D01*
X0278600Y0135301D02*
X0259402Y0135301D01*
X0258403Y0134302D02*
X0278600Y0134302D01*
X0284400Y0134302D02*
X0288600Y0134302D01*
X0288600Y0135301D02*
X0284400Y0135301D01*
X0284400Y0136299D02*
X0288600Y0136299D01*
X0288600Y0137298D02*
X0284400Y0137298D01*
X0284400Y0138296D02*
X0288600Y0138296D01*
X0288600Y0139295D02*
X0284400Y0139295D01*
X0284400Y0140293D02*
X0288600Y0140293D01*
X0288600Y0141292D02*
X0284400Y0141292D01*
X0284400Y0142290D02*
X0288600Y0142290D01*
X0288600Y0143289D02*
X0284400Y0143289D01*
X0284400Y0144287D02*
X0288600Y0144287D01*
X0288600Y0145286D02*
X0284400Y0145286D01*
X0284400Y0146284D02*
X0288600Y0146284D01*
X0288600Y0147283D02*
X0284400Y0147283D01*
X0284400Y0148281D02*
X0288600Y0148281D01*
X0288600Y0149280D02*
X0284400Y0149280D01*
X0284400Y0150278D02*
X0288600Y0150278D01*
X0288600Y0151277D02*
X0284400Y0151277D01*
X0284400Y0152275D02*
X0288600Y0152275D01*
X0288600Y0153274D02*
X0284400Y0153274D01*
X0284400Y0154272D02*
X0288600Y0154272D01*
X0288600Y0155271D02*
X0284400Y0155271D01*
X0284400Y0156269D02*
X0288600Y0156269D01*
X0288600Y0157268D02*
X0284400Y0157268D01*
X0284400Y0158266D02*
X0288600Y0158266D01*
X0288600Y0159265D02*
X0284400Y0159265D01*
X0284400Y0160263D02*
X0288600Y0160263D01*
X0288600Y0161262D02*
X0284400Y0161262D01*
X0284400Y0162260D02*
X0288600Y0162260D01*
X0288600Y0163259D02*
X0284400Y0163259D01*
X0284400Y0164257D02*
X0288600Y0164257D01*
X0288600Y0165256D02*
X0284400Y0165256D01*
X0284400Y0166254D02*
X0288600Y0166254D01*
X0288600Y0167253D02*
X0284400Y0167253D01*
X0284400Y0168251D02*
X0288600Y0168251D01*
X0288600Y0169250D02*
X0284400Y0169250D01*
X0284400Y0170248D02*
X0288600Y0170248D01*
X0288600Y0171247D02*
X0284400Y0171247D01*
X0284330Y0172245D02*
X0288600Y0172245D01*
X0288600Y0173244D02*
X0283857Y0173244D01*
X0282859Y0174242D02*
X0288600Y0174242D01*
X0288600Y0175241D02*
X0281860Y0175241D01*
X0280862Y0176239D02*
X0288600Y0176239D01*
X0288600Y0177238D02*
X0279863Y0177238D01*
X0278865Y0178237D02*
X0288600Y0178237D01*
X0288600Y0179235D02*
X0277475Y0179235D01*
X0266400Y0180234D02*
X0288600Y0180234D01*
X0288600Y0181232D02*
X0266003Y0181232D01*
X0265499Y0182231D02*
X0288600Y0182231D01*
X0288600Y0183229D02*
X0264501Y0183229D01*
X0264400Y0184228D02*
X0288600Y0184228D01*
X0288600Y0185226D02*
X0264400Y0185226D01*
X0264400Y0186225D02*
X0288600Y0186225D01*
X0288661Y0187223D02*
X0264339Y0187223D01*
X0263880Y0188222D02*
X0289120Y0188222D01*
X0290119Y0189220D02*
X0262881Y0189220D01*
X0263143Y0188958D02*
X0263143Y0188958D01*
X0261883Y0190219D02*
X0291117Y0190219D01*
X0292116Y0191217D02*
X0260884Y0191217D01*
X0259886Y0192216D02*
X0293114Y0192216D01*
X0294113Y0193214D02*
X0258887Y0193214D01*
X0258958Y0193143D02*
X0258958Y0193143D01*
X0257529Y0194213D02*
X0295471Y0194213D01*
X0302330Y0183229D02*
X0318499Y0183229D01*
X0317501Y0182231D02*
X0301332Y0182231D01*
X0300333Y0181232D02*
X0316997Y0181232D01*
X0316600Y0180234D02*
X0299400Y0180234D01*
X0299400Y0179235D02*
X0316600Y0179235D01*
X0316600Y0178237D02*
X0299400Y0178237D01*
X0299400Y0177238D02*
X0316600Y0177238D01*
X0316600Y0176239D02*
X0299400Y0176239D01*
X0299400Y0175241D02*
X0316600Y0175241D01*
X0316600Y0174242D02*
X0299400Y0174242D01*
X0299400Y0173244D02*
X0316600Y0173244D01*
X0316799Y0172245D02*
X0299400Y0172245D01*
X0299400Y0171247D02*
X0317212Y0171247D01*
X0318022Y0170248D02*
X0299400Y0170248D01*
X0299400Y0169250D02*
X0319439Y0169250D01*
X0323561Y0169250D02*
X0329439Y0169250D01*
X0328022Y0170248D02*
X0324978Y0170248D01*
X0325788Y0171247D02*
X0327212Y0171247D01*
X0326799Y0172245D02*
X0326201Y0172245D01*
X0326400Y0173244D02*
X0326600Y0173244D01*
X0326600Y0174242D02*
X0326400Y0174242D01*
X0326400Y0175241D02*
X0326600Y0175241D01*
X0326600Y0176239D02*
X0326400Y0176239D01*
X0326400Y0177238D02*
X0326600Y0177238D01*
X0326600Y0178237D02*
X0326400Y0178237D01*
X0326400Y0179235D02*
X0326600Y0179235D01*
X0326600Y0180234D02*
X0326400Y0180234D01*
X0326003Y0181232D02*
X0326997Y0181232D01*
X0327501Y0182231D02*
X0325499Y0182231D01*
X0324501Y0183229D02*
X0328499Y0183229D01*
X0334501Y0183229D02*
X0338499Y0183229D01*
X0337501Y0182231D02*
X0335499Y0182231D01*
X0336003Y0181232D02*
X0336997Y0181232D01*
X0336600Y0180234D02*
X0336400Y0180234D01*
X0336400Y0179235D02*
X0336600Y0179235D01*
X0336600Y0178237D02*
X0336400Y0178237D01*
X0336400Y0177238D02*
X0336600Y0177238D01*
X0336600Y0176239D02*
X0336400Y0176239D01*
X0336400Y0175241D02*
X0336600Y0175241D01*
X0336600Y0174242D02*
X0336400Y0174242D01*
X0336400Y0173244D02*
X0336600Y0173244D01*
X0336799Y0172245D02*
X0336201Y0172245D01*
X0335788Y0171247D02*
X0337212Y0171247D01*
X0338022Y0170248D02*
X0334978Y0170248D01*
X0333561Y0169250D02*
X0339439Y0169250D01*
X0343561Y0169250D02*
X0349439Y0169250D01*
X0348022Y0170248D02*
X0344978Y0170248D01*
X0345788Y0171247D02*
X0347212Y0171247D01*
X0346799Y0172245D02*
X0346201Y0172245D01*
X0346400Y0173244D02*
X0346600Y0173244D01*
X0346600Y0174242D02*
X0346400Y0174242D01*
X0346400Y0175241D02*
X0346600Y0175241D01*
X0346600Y0176239D02*
X0346400Y0176239D01*
X0346400Y0177238D02*
X0346600Y0177238D01*
X0346600Y0178237D02*
X0346400Y0178237D01*
X0346400Y0179235D02*
X0346600Y0179235D01*
X0346600Y0180234D02*
X0346400Y0180234D01*
X0346003Y0181232D02*
X0346997Y0181232D01*
X0347501Y0182231D02*
X0345499Y0182231D01*
X0344501Y0183229D02*
X0348499Y0183229D01*
X0354501Y0183229D02*
X0358499Y0183229D01*
X0357501Y0182231D02*
X0355499Y0182231D01*
X0356003Y0181232D02*
X0356997Y0181232D01*
X0356600Y0180234D02*
X0356400Y0180234D01*
X0356400Y0179235D02*
X0356600Y0179235D01*
X0356600Y0178237D02*
X0356400Y0178237D01*
X0356400Y0177238D02*
X0356600Y0177238D01*
X0356600Y0176239D02*
X0356400Y0176239D01*
X0356400Y0175241D02*
X0356600Y0175241D01*
X0356600Y0174242D02*
X0356400Y0174242D01*
X0356400Y0173244D02*
X0356600Y0173244D01*
X0356799Y0172245D02*
X0356201Y0172245D01*
X0355788Y0171247D02*
X0357212Y0171247D01*
X0358022Y0170248D02*
X0354978Y0170248D01*
X0353561Y0169250D02*
X0359439Y0169250D01*
X0363561Y0169250D02*
X0368600Y0169250D01*
X0368600Y0168251D02*
X0299400Y0168251D01*
X0299400Y0167253D02*
X0368600Y0167253D01*
X0368600Y0166254D02*
X0299400Y0166254D01*
X0299400Y0165256D02*
X0368600Y0165256D01*
X0368600Y0164257D02*
X0299400Y0164257D01*
X0299400Y0163259D02*
X0368600Y0163259D01*
X0368600Y0162260D02*
X0299400Y0162260D01*
X0299400Y0161262D02*
X0368600Y0161262D01*
X0368600Y0160263D02*
X0299400Y0160263D01*
X0299400Y0159265D02*
X0335597Y0159265D01*
X0334165Y0158266D02*
X0299400Y0158266D01*
X0299400Y0157268D02*
X0333167Y0157268D01*
X0332168Y0156269D02*
X0299400Y0156269D01*
X0299400Y0155271D02*
X0331170Y0155271D01*
X0330171Y0154272D02*
X0299400Y0154272D01*
X0299400Y0153274D02*
X0318544Y0153274D01*
X0317546Y0152275D02*
X0299400Y0152275D01*
X0299400Y0151277D02*
X0317015Y0151277D01*
X0316601Y0150278D02*
X0299400Y0150278D01*
X0299400Y0149280D02*
X0316600Y0149280D01*
X0316600Y0148281D02*
X0299400Y0148281D01*
X0299400Y0147283D02*
X0316600Y0147283D01*
X0316600Y0146284D02*
X0299400Y0146284D01*
X0299400Y0145286D02*
X0316600Y0145286D01*
X0316600Y0144287D02*
X0299400Y0144287D01*
X0299400Y0143289D02*
X0316600Y0143289D01*
X0316780Y0142290D02*
X0299400Y0142290D01*
X0299400Y0141292D02*
X0317194Y0141292D01*
X0317977Y0140293D02*
X0299400Y0140293D01*
X0299400Y0139295D02*
X0318600Y0139295D01*
X0318600Y0138296D02*
X0299400Y0138296D01*
X0299400Y0137298D02*
X0318600Y0137298D01*
X0318600Y0136299D02*
X0299400Y0136299D01*
X0299400Y0135301D02*
X0318600Y0135301D01*
X0318600Y0134302D02*
X0299400Y0134302D01*
X0299400Y0133303D02*
X0318600Y0133303D01*
X0318600Y0132305D02*
X0299796Y0132305D01*
X0300795Y0131306D02*
X0303470Y0131306D01*
X0302388Y0130308D02*
X0301793Y0130308D01*
X0295588Y0128311D02*
X0294400Y0128311D01*
X0294400Y0129309D02*
X0294589Y0129309D01*
X0294400Y0127312D02*
X0296586Y0127312D01*
X0297585Y0126314D02*
X0294400Y0126314D01*
X0294400Y0125315D02*
X0298583Y0125315D01*
X0299582Y0124317D02*
X0294400Y0124317D01*
X0294400Y0123318D02*
X0301762Y0123318D01*
X0302761Y0122320D02*
X0294400Y0122320D01*
X0294400Y0121321D02*
X0304369Y0121321D01*
X0308631Y0121321D02*
X0318600Y0121321D01*
X0318600Y0120323D02*
X0294400Y0120323D01*
X0294400Y0119324D02*
X0318600Y0119324D01*
X0318600Y0118326D02*
X0294400Y0118326D01*
X0294400Y0117327D02*
X0318600Y0117327D01*
X0318600Y0116329D02*
X0294400Y0116329D01*
X0294400Y0115330D02*
X0318600Y0115330D01*
X0318600Y0114332D02*
X0294400Y0114332D01*
X0294400Y0113333D02*
X0318600Y0113333D01*
X0318600Y0112335D02*
X0294400Y0112335D01*
X0294400Y0111336D02*
X0318600Y0111336D01*
X0318600Y0110338D02*
X0294400Y0110338D01*
X0294400Y0109339D02*
X0318600Y0109339D01*
X0318600Y0108341D02*
X0294400Y0108341D01*
X0276741Y0098356D02*
X0227457Y0098356D01*
X0226458Y0097357D02*
X0277723Y0097357D01*
X0279279Y0096359D02*
X0225460Y0096359D01*
X0224461Y0095360D02*
X0281259Y0095360D01*
X0280260Y0094362D02*
X0224400Y0094362D01*
X0224400Y0093363D02*
X0279262Y0093363D01*
X0278263Y0092365D02*
X0224400Y0092365D01*
X0224400Y0091366D02*
X0277265Y0091366D01*
X0276266Y0090368D02*
X0224400Y0090368D01*
X0224400Y0089369D02*
X0275268Y0089369D01*
X0274269Y0088370D02*
X0224400Y0088370D01*
X0224400Y0087372D02*
X0273271Y0087372D01*
X0272272Y0086373D02*
X0224400Y0086373D01*
X0224400Y0085375D02*
X0271274Y0085375D01*
X0270275Y0084376D02*
X0224400Y0084376D01*
X0224400Y0083378D02*
X0269277Y0083378D01*
X0268725Y0082379D02*
X0224400Y0082379D01*
X0224400Y0081381D02*
X0268600Y0081381D01*
X0268600Y0080382D02*
X0224400Y0080382D01*
X0224400Y0079384D02*
X0268600Y0079384D01*
X0268600Y0078385D02*
X0224400Y0078385D01*
X0224400Y0077387D02*
X0268600Y0077387D01*
X0268600Y0076388D02*
X0224400Y0076388D01*
X0224400Y0075390D02*
X0268600Y0075390D01*
X0268600Y0074391D02*
X0224400Y0074391D01*
X0224400Y0073393D02*
X0268600Y0073393D01*
X0268600Y0072394D02*
X0224400Y0072394D01*
X0224400Y0071396D02*
X0268600Y0071396D01*
X0268600Y0070397D02*
X0224400Y0070397D01*
X0224400Y0069399D02*
X0268600Y0069399D01*
X0268600Y0068400D02*
X0224400Y0068400D01*
X0224400Y0067402D02*
X0268600Y0067402D01*
X0268600Y0066403D02*
X0224400Y0066403D01*
X0224400Y0065405D02*
X0268600Y0065405D01*
X0268600Y0064406D02*
X0224400Y0064406D01*
X0224400Y0063408D02*
X0230227Y0063408D01*
X0230493Y0063494D02*
X0229849Y0063285D01*
X0229246Y0062978D01*
X0228699Y0062580D01*
X0228220Y0062101D01*
X0227822Y0061554D01*
X0227515Y0060951D01*
X0227306Y0060307D01*
X0227200Y0059638D01*
X0227200Y0056800D01*
X0231200Y0056800D01*
X0231200Y0063600D01*
X0231162Y0063600D01*
X0230493Y0063494D01*
X0231200Y0063408D02*
X0231800Y0063408D01*
X0231800Y0063600D02*
X0231800Y0056800D01*
X0231200Y0056800D01*
X0231200Y0056200D01*
X0227200Y0056200D01*
X0227200Y0053362D01*
X0227306Y0052693D01*
X0227515Y0052049D01*
X0227822Y0051446D01*
X0228220Y0050899D01*
X0228699Y0050420D01*
X0229246Y0050022D01*
X0229849Y0049715D01*
X0230493Y0049506D01*
X0231162Y0049400D01*
X0231200Y0049400D01*
X0231200Y0056200D01*
X0231800Y0056200D01*
X0231800Y0056800D01*
X0235800Y0056800D01*
X0235800Y0059638D01*
X0235694Y0060307D01*
X0235485Y0060951D01*
X0235178Y0061554D01*
X0234780Y0062101D01*
X0234301Y0062580D01*
X0233754Y0062978D01*
X0233151Y0063285D01*
X0232507Y0063494D01*
X0231838Y0063600D01*
X0231800Y0063600D01*
X0232773Y0063408D02*
X0260227Y0063408D01*
X0260493Y0063494D02*
X0259849Y0063285D01*
X0259246Y0062978D01*
X0258699Y0062580D01*
X0258220Y0062101D01*
X0257822Y0061554D01*
X0257515Y0060951D01*
X0257306Y0060307D01*
X0257200Y0059638D01*
X0257200Y0056800D01*
X0261200Y0056800D01*
X0261200Y0063600D01*
X0261162Y0063600D01*
X0260493Y0063494D01*
X0261200Y0063408D02*
X0261800Y0063408D01*
X0261800Y0063600D02*
X0261800Y0056800D01*
X0261200Y0056800D01*
X0261200Y0056200D01*
X0257200Y0056200D01*
X0257200Y0053362D01*
X0257306Y0052693D01*
X0257515Y0052049D01*
X0257822Y0051446D01*
X0258220Y0050899D01*
X0258699Y0050420D01*
X0259246Y0050022D01*
X0259849Y0049715D01*
X0260493Y0049506D01*
X0261162Y0049400D01*
X0261200Y0049400D01*
X0261200Y0056200D01*
X0261800Y0056200D01*
X0261800Y0056800D01*
X0265800Y0056800D01*
X0265800Y0059638D01*
X0265694Y0060307D01*
X0265485Y0060951D01*
X0265178Y0061554D01*
X0264780Y0062101D01*
X0264301Y0062580D01*
X0263754Y0062978D01*
X0263151Y0063285D01*
X0262507Y0063494D01*
X0261838Y0063600D01*
X0261800Y0063600D01*
X0262773Y0063408D02*
X0268600Y0063408D01*
X0267680Y0062409D02*
X0264472Y0062409D01*
X0265251Y0061411D02*
X0267071Y0061411D01*
X0266657Y0060412D02*
X0265660Y0060412D01*
X0265800Y0059414D02*
X0266600Y0059414D01*
X0266600Y0058415D02*
X0265800Y0058415D01*
X0265800Y0057417D02*
X0266600Y0057417D01*
X0266600Y0056418D02*
X0261800Y0056418D01*
X0261800Y0056200D02*
X0265800Y0056200D01*
X0265800Y0053362D01*
X0265694Y0052693D01*
X0265485Y0052049D01*
X0265178Y0051446D01*
X0264780Y0050899D01*
X0264301Y0050420D01*
X0263754Y0050022D01*
X0263151Y0049715D01*
X0262507Y0049506D01*
X0261838Y0049400D01*
X0261800Y0049400D01*
X0261800Y0056200D01*
X0261200Y0056418D02*
X0231800Y0056418D01*
X0231800Y0056200D02*
X0235800Y0056200D01*
X0235800Y0053362D01*
X0235694Y0052693D01*
X0235485Y0052049D01*
X0235178Y0051446D01*
X0234780Y0050899D01*
X0234301Y0050420D01*
X0233754Y0050022D01*
X0233151Y0049715D01*
X0232507Y0049506D01*
X0231838Y0049400D01*
X0231800Y0049400D01*
X0231800Y0056200D01*
X0231200Y0056418D02*
X0226400Y0056418D01*
X0226400Y0055420D02*
X0227200Y0055420D01*
X0227200Y0054421D02*
X0226400Y0054421D01*
X0226400Y0053423D02*
X0227200Y0053423D01*
X0227393Y0052424D02*
X0226275Y0052424D01*
X0225862Y0051426D02*
X0227837Y0051426D01*
X0228692Y0050427D02*
X0225157Y0050427D01*
X0223992Y0049429D02*
X0230981Y0049429D01*
X0231200Y0049429D02*
X0231800Y0049429D01*
X0232019Y0049429D02*
X0260981Y0049429D01*
X0261200Y0049429D02*
X0261800Y0049429D01*
X0262019Y0049429D02*
X0269008Y0049429D01*
X0267843Y0050427D02*
X0264308Y0050427D01*
X0265163Y0051426D02*
X0267138Y0051426D01*
X0266725Y0052424D02*
X0265607Y0052424D01*
X0265800Y0053423D02*
X0266600Y0053423D01*
X0266600Y0054421D02*
X0265800Y0054421D01*
X0265800Y0055420D02*
X0266600Y0055420D01*
X0261800Y0055420D02*
X0261200Y0055420D01*
X0261200Y0054421D02*
X0261800Y0054421D01*
X0261800Y0053423D02*
X0261200Y0053423D01*
X0261200Y0052424D02*
X0261800Y0052424D01*
X0261800Y0051426D02*
X0261200Y0051426D01*
X0261200Y0050427D02*
X0261800Y0050427D01*
X0258692Y0050427D02*
X0234308Y0050427D01*
X0235163Y0051426D02*
X0257837Y0051426D01*
X0257393Y0052424D02*
X0235607Y0052424D01*
X0235800Y0053423D02*
X0257200Y0053423D01*
X0257200Y0054421D02*
X0235800Y0054421D01*
X0235800Y0055420D02*
X0257200Y0055420D01*
X0257200Y0057417D02*
X0235800Y0057417D01*
X0235800Y0058415D02*
X0257200Y0058415D01*
X0257200Y0059414D02*
X0235800Y0059414D01*
X0235660Y0060412D02*
X0257340Y0060412D01*
X0257749Y0061411D02*
X0235251Y0061411D01*
X0234472Y0062409D02*
X0258528Y0062409D01*
X0261200Y0062409D02*
X0261800Y0062409D01*
X0261800Y0061411D02*
X0261200Y0061411D01*
X0261200Y0060412D02*
X0261800Y0060412D01*
X0261800Y0059414D02*
X0261200Y0059414D01*
X0261200Y0058415D02*
X0261800Y0058415D01*
X0261800Y0057417D02*
X0261200Y0057417D01*
X0274400Y0063408D02*
X0278600Y0063408D01*
X0278600Y0063330D02*
X0277346Y0062076D01*
X0276600Y0060275D01*
X0276600Y0052725D01*
X0277346Y0050924D01*
X0278724Y0049546D01*
X0280525Y0048800D01*
X0282475Y0048800D01*
X0284276Y0049546D01*
X0285654Y0050924D01*
X0286400Y0052725D01*
X0286400Y0060275D01*
X0285654Y0062076D01*
X0284400Y0063330D01*
X0284400Y0071640D01*
X0284672Y0071753D01*
X0286247Y0073328D01*
X0287100Y0075386D01*
X0287100Y0077614D01*
X0286247Y0079672D01*
X0284672Y0081247D01*
X0282614Y0082100D01*
X0280386Y0082100D01*
X0278328Y0081247D01*
X0276753Y0079672D01*
X0275900Y0077614D01*
X0275900Y0075386D01*
X0276753Y0073328D01*
X0278328Y0071753D01*
X0278600Y0071640D01*
X0278600Y0063330D01*
X0278600Y0064406D02*
X0274400Y0064406D01*
X0274400Y0065405D02*
X0278600Y0065405D01*
X0278600Y0066403D02*
X0274400Y0066403D01*
X0274400Y0067402D02*
X0278600Y0067402D01*
X0278600Y0068400D02*
X0274400Y0068400D01*
X0274400Y0069399D02*
X0278600Y0069399D01*
X0278600Y0070397D02*
X0274400Y0070397D01*
X0274400Y0071396D02*
X0278600Y0071396D01*
X0277686Y0072394D02*
X0274400Y0072394D01*
X0274400Y0073393D02*
X0276726Y0073393D01*
X0276312Y0074391D02*
X0274400Y0074391D01*
X0274400Y0075390D02*
X0275900Y0075390D01*
X0275900Y0076388D02*
X0274400Y0076388D01*
X0274400Y0077387D02*
X0275900Y0077387D01*
X0276220Y0078385D02*
X0274400Y0078385D01*
X0274400Y0079384D02*
X0276633Y0079384D01*
X0277463Y0080382D02*
X0274484Y0080382D01*
X0275482Y0081381D02*
X0278650Y0081381D01*
X0277479Y0083378D02*
X0288600Y0083378D01*
X0288600Y0084376D02*
X0278478Y0084376D01*
X0279476Y0085375D02*
X0288600Y0085375D01*
X0288600Y0086373D02*
X0280475Y0086373D01*
X0281473Y0087372D02*
X0288600Y0087372D01*
X0288600Y0088370D02*
X0282472Y0088370D01*
X0283470Y0089369D02*
X0288600Y0089369D01*
X0288600Y0090368D02*
X0284469Y0090368D01*
X0285467Y0091366D02*
X0288600Y0091366D01*
X0288600Y0092365D02*
X0286466Y0092365D01*
X0287464Y0093363D02*
X0288600Y0093363D01*
X0288600Y0094362D02*
X0288463Y0094362D01*
X0288600Y0082379D02*
X0276481Y0082379D01*
X0284350Y0081381D02*
X0288600Y0081381D01*
X0288600Y0080382D02*
X0285537Y0080382D01*
X0286367Y0079384D02*
X0288600Y0079384D01*
X0288600Y0078385D02*
X0286780Y0078385D01*
X0287100Y0077387D02*
X0288600Y0077387D01*
X0288600Y0076388D02*
X0287100Y0076388D01*
X0287100Y0075390D02*
X0288600Y0075390D01*
X0288600Y0074391D02*
X0286688Y0074391D01*
X0286274Y0073393D02*
X0288600Y0073393D01*
X0288600Y0072394D02*
X0285314Y0072394D01*
X0284400Y0071396D02*
X0288600Y0071396D01*
X0288600Y0070397D02*
X0284400Y0070397D01*
X0284400Y0069399D02*
X0288600Y0069399D01*
X0288600Y0068400D02*
X0284400Y0068400D01*
X0284400Y0067402D02*
X0288600Y0067402D01*
X0288600Y0066403D02*
X0284400Y0066403D01*
X0284400Y0065405D02*
X0288600Y0065405D01*
X0288600Y0064406D02*
X0284400Y0064406D01*
X0284400Y0063408D02*
X0288600Y0063408D01*
X0287680Y0062409D02*
X0285320Y0062409D01*
X0285929Y0061411D02*
X0287071Y0061411D01*
X0286657Y0060412D02*
X0286343Y0060412D01*
X0286400Y0059414D02*
X0286600Y0059414D01*
X0286600Y0058415D02*
X0286400Y0058415D01*
X0286400Y0057417D02*
X0286600Y0057417D01*
X0286600Y0056418D02*
X0286400Y0056418D01*
X0286400Y0055420D02*
X0286600Y0055420D01*
X0286600Y0054421D02*
X0286400Y0054421D01*
X0286400Y0053423D02*
X0286600Y0053423D01*
X0286725Y0052424D02*
X0286275Y0052424D01*
X0285862Y0051426D02*
X0287138Y0051426D01*
X0287843Y0050427D02*
X0285157Y0050427D01*
X0283992Y0049429D02*
X0289008Y0049429D01*
X0279008Y0049429D02*
X0273992Y0049429D01*
X0275157Y0050427D02*
X0277843Y0050427D01*
X0277138Y0051426D02*
X0275862Y0051426D01*
X0276275Y0052424D02*
X0276725Y0052424D01*
X0276600Y0053423D02*
X0276400Y0053423D01*
X0276400Y0054421D02*
X0276600Y0054421D01*
X0276600Y0055420D02*
X0276400Y0055420D01*
X0276400Y0056418D02*
X0276600Y0056418D01*
X0276600Y0057417D02*
X0276400Y0057417D01*
X0276400Y0058415D02*
X0276600Y0058415D01*
X0276600Y0059414D02*
X0276400Y0059414D01*
X0276343Y0060412D02*
X0276657Y0060412D01*
X0277071Y0061411D02*
X0275929Y0061411D01*
X0275320Y0062409D02*
X0277680Y0062409D01*
X0231800Y0062409D02*
X0231200Y0062409D01*
X0231200Y0061411D02*
X0231800Y0061411D01*
X0231800Y0060412D02*
X0231200Y0060412D01*
X0231200Y0059414D02*
X0231800Y0059414D01*
X0231800Y0058415D02*
X0231200Y0058415D01*
X0231200Y0057417D02*
X0231800Y0057417D01*
X0231800Y0055420D02*
X0231200Y0055420D01*
X0231200Y0054421D02*
X0231800Y0054421D01*
X0231800Y0053423D02*
X0231200Y0053423D01*
X0231200Y0052424D02*
X0231800Y0052424D01*
X0231800Y0051426D02*
X0231200Y0051426D01*
X0231200Y0050427D02*
X0231800Y0050427D01*
X0219008Y0049429D02*
X0213992Y0049429D01*
X0215157Y0050427D02*
X0217843Y0050427D01*
X0217138Y0051426D02*
X0215862Y0051426D01*
X0216275Y0052424D02*
X0216725Y0052424D01*
X0216600Y0053423D02*
X0216400Y0053423D01*
X0216400Y0054421D02*
X0216600Y0054421D01*
X0216600Y0055420D02*
X0216400Y0055420D01*
X0216400Y0056418D02*
X0216600Y0056418D01*
X0226400Y0057417D02*
X0227200Y0057417D01*
X0227200Y0058415D02*
X0226400Y0058415D01*
X0226400Y0059414D02*
X0227200Y0059414D01*
X0227340Y0060412D02*
X0226343Y0060412D01*
X0225929Y0061411D02*
X0227749Y0061411D01*
X0228528Y0062409D02*
X0225320Y0062409D01*
X0173600Y0046433D02*
X0003600Y0046433D01*
X0003600Y0039443D02*
X0027750Y0039443D01*
X0028510Y0038445D02*
X0003600Y0038445D01*
X0003600Y0037446D02*
X0030142Y0037446D01*
X0031213Y0037446D02*
X0031787Y0037446D01*
X0031787Y0038445D02*
X0031213Y0038445D01*
X0031213Y0039443D02*
X0031787Y0039443D01*
X0031787Y0040442D02*
X0031213Y0040442D01*
X0031213Y0042439D02*
X0031787Y0042439D01*
X0031787Y0043437D02*
X0031213Y0043437D01*
X0031213Y0044436D02*
X0031787Y0044436D01*
X0031787Y0045434D02*
X0031213Y0045434D01*
X0028689Y0057417D02*
X0003600Y0057417D01*
X0003600Y0058415D02*
X0027691Y0058415D01*
X0027088Y0059414D02*
X0003600Y0059414D01*
X0003600Y0060412D02*
X0026674Y0060412D01*
X0026625Y0061411D02*
X0003600Y0061411D01*
X0003600Y0062409D02*
X0026625Y0062409D01*
X0027014Y0063408D02*
X0003600Y0063408D01*
X0003600Y0064406D02*
X0027512Y0064406D01*
X0028511Y0065405D02*
X0003600Y0065405D01*
X0003600Y0066403D02*
X0037302Y0066403D01*
X0036304Y0065405D02*
X0034489Y0065405D01*
X0034261Y0067367D02*
X0032470Y0066625D01*
X0030530Y0066625D01*
X0028739Y0067367D01*
X0027367Y0068739D01*
X0026625Y0070530D01*
X0026625Y0072470D01*
X0027367Y0074261D01*
X0028739Y0075633D01*
X0030530Y0076375D01*
X0032470Y0076375D01*
X0034261Y0075633D01*
X0035633Y0074261D01*
X0036375Y0072470D01*
X0036375Y0070530D01*
X0035633Y0068739D01*
X0034261Y0067367D01*
X0034296Y0067402D02*
X0038301Y0067402D01*
X0039299Y0068400D02*
X0035294Y0068400D01*
X0035906Y0069399D02*
X0040920Y0069399D01*
X0036320Y0070397D02*
X0086680Y0070397D01*
X0086625Y0071396D02*
X0036375Y0071396D01*
X0036375Y0072394D02*
X0086625Y0072394D01*
X0087008Y0073393D02*
X0035992Y0073393D01*
X0035503Y0074391D02*
X0087497Y0074391D01*
X0088496Y0075390D02*
X0034504Y0075390D01*
X0034281Y0077387D02*
X0088719Y0077387D01*
X0087721Y0078385D02*
X0035279Y0078385D01*
X0035900Y0079384D02*
X0087100Y0079384D01*
X0086686Y0080382D02*
X0036314Y0080382D01*
X0036375Y0081381D02*
X0086625Y0081381D01*
X0086625Y0082379D02*
X0036375Y0082379D01*
X0035999Y0083378D02*
X0087001Y0083378D01*
X0087482Y0084376D02*
X0035518Y0084376D01*
X0034519Y0085375D02*
X0088481Y0085375D01*
X0096307Y0090368D02*
X0157903Y0090368D01*
X0157163Y0091366D02*
X0096375Y0091366D01*
X0096375Y0092365D02*
X0156749Y0092365D01*
X0156600Y0093363D02*
X0096005Y0093363D01*
X0095532Y0094362D02*
X0156600Y0094362D01*
X0156600Y0095360D02*
X0094534Y0095360D01*
X0096314Y0080382D02*
X0163453Y0080382D01*
X0162454Y0079384D02*
X0095900Y0079384D01*
X0095279Y0078385D02*
X0161600Y0078385D01*
X0161600Y0077387D02*
X0094281Y0077387D01*
X0028496Y0075390D02*
X0003600Y0075390D01*
X0003600Y0074391D02*
X0027497Y0074391D01*
X0027008Y0073393D02*
X0003600Y0073393D01*
X0003600Y0072394D02*
X0026625Y0072394D01*
X0026625Y0071396D02*
X0003600Y0071396D01*
X0003600Y0070397D02*
X0026680Y0070397D01*
X0027094Y0069399D02*
X0003600Y0069399D01*
X0003600Y0068400D02*
X0027706Y0068400D01*
X0028704Y0067402D02*
X0003600Y0067402D01*
X0144465Y0025464D02*
X0159383Y0025464D01*
X0158385Y0024466D02*
X0145464Y0024466D01*
X0146400Y0023467D02*
X0157386Y0023467D01*
X0157200Y0022469D02*
X0146400Y0022469D01*
X0303582Y0014481D02*
X0398101Y0014481D01*
X0398101Y0015479D02*
X0304580Y0015479D01*
X0305579Y0016478D02*
X0398101Y0016478D01*
X0398101Y0017476D02*
X0306577Y0017476D01*
X0307576Y0018475D02*
X0398101Y0018475D01*
X0398101Y0019473D02*
X0384100Y0019473D01*
X0384276Y0019546D02*
X0385654Y0020924D01*
X0386400Y0022725D01*
X0386400Y0030275D01*
X0385654Y0032076D01*
X0384276Y0033454D01*
X0382475Y0034200D01*
X0380525Y0034200D01*
X0378724Y0033454D01*
X0377346Y0032076D01*
X0376600Y0030275D01*
X0376600Y0022725D01*
X0377346Y0020924D01*
X0378724Y0019546D01*
X0380525Y0018800D01*
X0382475Y0018800D01*
X0384276Y0019546D01*
X0385201Y0020472D02*
X0398101Y0020472D01*
X0398101Y0021470D02*
X0385880Y0021470D01*
X0386294Y0022469D02*
X0398101Y0022469D01*
X0398101Y0023467D02*
X0386400Y0023467D01*
X0386400Y0024466D02*
X0398101Y0024466D01*
X0398101Y0025464D02*
X0386400Y0025464D01*
X0386400Y0026463D02*
X0398101Y0026463D01*
X0398101Y0027461D02*
X0386400Y0027461D01*
X0386400Y0028460D02*
X0398101Y0028460D01*
X0398101Y0029458D02*
X0386400Y0029458D01*
X0386325Y0030457D02*
X0398101Y0030457D01*
X0398101Y0031455D02*
X0385911Y0031455D01*
X0385276Y0032454D02*
X0398101Y0032454D01*
X0398101Y0033452D02*
X0384277Y0033452D01*
X0378723Y0033452D02*
X0374277Y0033452D01*
X0374276Y0033454D02*
X0372475Y0034200D01*
X0370525Y0034200D01*
X0368724Y0033454D01*
X0367346Y0032076D01*
X0366600Y0030275D01*
X0366600Y0022725D01*
X0367346Y0020924D01*
X0368724Y0019546D01*
X0370525Y0018800D01*
X0372475Y0018800D01*
X0374276Y0019546D01*
X0375654Y0020924D01*
X0376400Y0022725D01*
X0376400Y0030275D01*
X0375654Y0032076D01*
X0374276Y0033454D01*
X0375276Y0032454D02*
X0377724Y0032454D01*
X0377089Y0031455D02*
X0375911Y0031455D01*
X0376325Y0030457D02*
X0376675Y0030457D01*
X0376600Y0029458D02*
X0376400Y0029458D01*
X0376400Y0028460D02*
X0376600Y0028460D01*
X0376600Y0027461D02*
X0376400Y0027461D01*
X0376400Y0026463D02*
X0376600Y0026463D01*
X0376600Y0025464D02*
X0376400Y0025464D01*
X0376400Y0024466D02*
X0376600Y0024466D01*
X0376600Y0023467D02*
X0376400Y0023467D01*
X0376294Y0022469D02*
X0376706Y0022469D01*
X0377120Y0021470D02*
X0375880Y0021470D01*
X0375201Y0020472D02*
X0377799Y0020472D01*
X0378900Y0019473D02*
X0374100Y0019473D01*
X0368900Y0019473D02*
X0364100Y0019473D01*
X0364276Y0019546D02*
X0365654Y0020924D01*
X0366400Y0022725D01*
X0366400Y0030275D01*
X0365654Y0032076D01*
X0364276Y0033454D01*
X0362475Y0034200D01*
X0360525Y0034200D01*
X0358724Y0033454D01*
X0357346Y0032076D01*
X0356600Y0030275D01*
X0356600Y0022725D01*
X0357346Y0020924D01*
X0358724Y0019546D01*
X0360525Y0018800D01*
X0362475Y0018800D01*
X0364276Y0019546D01*
X0365201Y0020472D02*
X0367799Y0020472D01*
X0367120Y0021470D02*
X0365880Y0021470D01*
X0366294Y0022469D02*
X0366706Y0022469D01*
X0366600Y0023467D02*
X0366400Y0023467D01*
X0366400Y0024466D02*
X0366600Y0024466D01*
X0366600Y0025464D02*
X0366400Y0025464D01*
X0366400Y0026463D02*
X0366600Y0026463D01*
X0366600Y0027461D02*
X0366400Y0027461D01*
X0366400Y0028460D02*
X0366600Y0028460D01*
X0366600Y0029458D02*
X0366400Y0029458D01*
X0366325Y0030457D02*
X0366675Y0030457D01*
X0367089Y0031455D02*
X0365911Y0031455D01*
X0365276Y0032454D02*
X0367724Y0032454D01*
X0368723Y0033452D02*
X0364277Y0033452D01*
X0358723Y0033452D02*
X0354277Y0033452D01*
X0354276Y0033454D02*
X0352475Y0034200D01*
X0350525Y0034200D01*
X0348724Y0033454D01*
X0347346Y0032076D01*
X0346600Y0030275D01*
X0346600Y0022725D01*
X0347346Y0020924D01*
X0348724Y0019546D01*
X0350525Y0018800D01*
X0352475Y0018800D01*
X0354276Y0019546D01*
X0355654Y0020924D01*
X0356400Y0022725D01*
X0356400Y0030275D01*
X0355654Y0032076D01*
X0354276Y0033454D01*
X0355276Y0032454D02*
X0357724Y0032454D01*
X0357089Y0031455D02*
X0355911Y0031455D01*
X0356325Y0030457D02*
X0356675Y0030457D01*
X0356600Y0029458D02*
X0356400Y0029458D01*
X0356400Y0028460D02*
X0356600Y0028460D01*
X0356600Y0027461D02*
X0356400Y0027461D01*
X0356400Y0026463D02*
X0356600Y0026463D01*
X0356600Y0025464D02*
X0356400Y0025464D01*
X0356400Y0024466D02*
X0356600Y0024466D01*
X0356600Y0023467D02*
X0356400Y0023467D01*
X0356294Y0022469D02*
X0356706Y0022469D01*
X0357120Y0021470D02*
X0355880Y0021470D01*
X0355201Y0020472D02*
X0357799Y0020472D01*
X0358900Y0019473D02*
X0354100Y0019473D01*
X0348900Y0019473D02*
X0342301Y0019473D01*
X0342507Y0019506D02*
X0343151Y0019715D01*
X0343754Y0020022D01*
X0344301Y0020420D01*
X0344780Y0020899D01*
X0345178Y0021446D01*
X0345485Y0022049D01*
X0345694Y0022693D01*
X0345800Y0023362D01*
X0345800Y0026200D01*
X0341800Y0026200D01*
X0341800Y0026800D01*
X0341200Y0026800D01*
X0341200Y0033600D01*
X0341162Y0033600D01*
X0340493Y0033494D01*
X0339849Y0033285D01*
X0339246Y0032978D01*
X0338699Y0032580D01*
X0338220Y0032101D01*
X0337822Y0031554D01*
X0337515Y0030951D01*
X0337306Y0030307D01*
X0337200Y0029638D01*
X0337200Y0026800D01*
X0341200Y0026800D01*
X0341200Y0026200D01*
X0337200Y0026200D01*
X0337200Y0023362D01*
X0337306Y0022693D01*
X0337515Y0022049D01*
X0337822Y0021446D01*
X0338220Y0020899D01*
X0338699Y0020420D01*
X0339246Y0020022D01*
X0339849Y0019715D01*
X0340493Y0019506D01*
X0341162Y0019400D01*
X0341200Y0019400D01*
X0341200Y0026200D01*
X0341800Y0026200D01*
X0341800Y0019400D01*
X0341838Y0019400D01*
X0342507Y0019506D01*
X0341800Y0019473D02*
X0341200Y0019473D01*
X0340699Y0019473D02*
X0334100Y0019473D01*
X0335201Y0020472D02*
X0338647Y0020472D01*
X0337810Y0021470D02*
X0335880Y0021470D01*
X0336294Y0022469D02*
X0337379Y0022469D01*
X0337200Y0023467D02*
X0336400Y0023467D01*
X0336400Y0024466D02*
X0337200Y0024466D01*
X0337200Y0025464D02*
X0336400Y0025464D01*
X0336400Y0026463D02*
X0341200Y0026463D01*
X0341800Y0026463D02*
X0346600Y0026463D01*
X0345800Y0026800D02*
X0345800Y0029638D01*
X0345694Y0030307D01*
X0345485Y0030951D01*
X0345178Y0031554D01*
X0344780Y0032101D01*
X0344301Y0032580D01*
X0343754Y0032978D01*
X0343151Y0033285D01*
X0342507Y0033494D01*
X0341838Y0033600D01*
X0341800Y0033600D01*
X0341800Y0026800D01*
X0345800Y0026800D01*
X0345800Y0027461D02*
X0346600Y0027461D01*
X0346600Y0028460D02*
X0345800Y0028460D01*
X0345800Y0029458D02*
X0346600Y0029458D01*
X0346675Y0030457D02*
X0345645Y0030457D01*
X0345228Y0031455D02*
X0347089Y0031455D01*
X0347724Y0032454D02*
X0344427Y0032454D01*
X0342635Y0033452D02*
X0348723Y0033452D01*
X0341800Y0033452D02*
X0341200Y0033452D01*
X0340365Y0033452D02*
X0334400Y0033452D01*
X0334400Y0034451D02*
X0398101Y0034451D01*
X0398101Y0035449D02*
X0334400Y0035449D01*
X0334400Y0036448D02*
X0398101Y0036448D01*
X0398101Y0037446D02*
X0334400Y0037446D01*
X0334400Y0038445D02*
X0398101Y0038445D01*
X0398101Y0039443D02*
X0368545Y0039443D01*
X0369543Y0040442D02*
X0398101Y0040442D01*
X0398101Y0041440D02*
X0370542Y0041440D01*
X0371540Y0042439D02*
X0398101Y0042439D01*
X0398101Y0043437D02*
X0372539Y0043437D01*
X0373537Y0044436D02*
X0398101Y0044436D01*
X0398101Y0045434D02*
X0374198Y0045434D01*
X0374400Y0046433D02*
X0398101Y0046433D01*
X0398101Y0047432D02*
X0374400Y0047432D01*
X0374400Y0048430D02*
X0398101Y0048430D01*
X0398101Y0049429D02*
X0383992Y0049429D01*
X0385157Y0050427D02*
X0398101Y0050427D01*
X0398101Y0051426D02*
X0385862Y0051426D01*
X0386275Y0052424D02*
X0398101Y0052424D01*
X0398101Y0053423D02*
X0386400Y0053423D01*
X0386400Y0054421D02*
X0398101Y0054421D01*
X0398101Y0055420D02*
X0386400Y0055420D01*
X0386400Y0056418D02*
X0398101Y0056418D01*
X0398101Y0057417D02*
X0386400Y0057417D01*
X0386400Y0058415D02*
X0398101Y0058415D01*
X0398101Y0059414D02*
X0386400Y0059414D01*
X0386343Y0060412D02*
X0398101Y0060412D01*
X0398101Y0061411D02*
X0385929Y0061411D01*
X0385320Y0062409D02*
X0398101Y0062409D01*
X0398101Y0063408D02*
X0384322Y0063408D01*
X0382695Y0064406D02*
X0398101Y0064406D01*
X0398101Y0065405D02*
X0381696Y0065405D01*
X0380698Y0066403D02*
X0398101Y0066403D01*
X0398101Y0067402D02*
X0379699Y0067402D01*
X0378701Y0068400D02*
X0398101Y0068400D01*
X0398101Y0069399D02*
X0377080Y0069399D01*
X0375491Y0063408D02*
X0374322Y0063408D01*
X0375320Y0062409D02*
X0376490Y0062409D01*
X0375929Y0061411D02*
X0377071Y0061411D01*
X0376657Y0060412D02*
X0376343Y0060412D01*
X0376400Y0059414D02*
X0376600Y0059414D01*
X0376600Y0058415D02*
X0376400Y0058415D01*
X0376400Y0057417D02*
X0376600Y0057417D01*
X0376600Y0056418D02*
X0376400Y0056418D01*
X0376400Y0055420D02*
X0376600Y0055420D01*
X0376600Y0054421D02*
X0376400Y0054421D01*
X0376400Y0053423D02*
X0376600Y0053423D01*
X0376725Y0052424D02*
X0376275Y0052424D01*
X0375862Y0051426D02*
X0377138Y0051426D01*
X0377843Y0050427D02*
X0375157Y0050427D01*
X0374400Y0049429D02*
X0379008Y0049429D01*
X0398101Y0070397D02*
X0324400Y0070397D01*
X0324400Y0071396D02*
X0398101Y0071396D01*
X0398101Y0072394D02*
X0339355Y0072394D01*
X0339121Y0072224D02*
X0339757Y0072686D01*
X0340314Y0073243D01*
X0340776Y0073879D01*
X0341134Y0074581D01*
X0341377Y0075329D01*
X0341483Y0076000D01*
X0337000Y0076000D01*
X0337000Y0077000D01*
X0336000Y0077000D01*
X0336000Y0081483D01*
X0335329Y0081377D01*
X0334581Y0081134D01*
X0333879Y0080776D01*
X0333243Y0080314D01*
X0332686Y0079757D01*
X0332224Y0079121D01*
X0331866Y0078419D01*
X0331623Y0077671D01*
X0331517Y0077000D01*
X0336000Y0077000D01*
X0336000Y0076000D01*
X0331517Y0076000D01*
X0331623Y0075329D01*
X0331866Y0074581D01*
X0332224Y0073879D01*
X0332686Y0073243D01*
X0333243Y0072686D01*
X0333879Y0072224D01*
X0334581Y0071866D01*
X0335329Y0071623D01*
X0336000Y0071517D01*
X0336000Y0076000D01*
X0337000Y0076000D01*
X0337000Y0071517D01*
X0337671Y0071623D01*
X0338419Y0071866D01*
X0339121Y0072224D01*
X0340423Y0073393D02*
X0398101Y0073393D01*
X0398101Y0074391D02*
X0341037Y0074391D01*
X0341386Y0075390D02*
X0398101Y0075390D01*
X0398101Y0076388D02*
X0337000Y0076388D01*
X0337000Y0077000D02*
X0341483Y0077000D01*
X0341377Y0077671D01*
X0341134Y0078419D01*
X0340776Y0079121D01*
X0340314Y0079757D01*
X0339757Y0080314D01*
X0339121Y0080776D01*
X0338419Y0081134D01*
X0337671Y0081377D01*
X0337000Y0081483D01*
X0337000Y0077000D01*
X0337000Y0077387D02*
X0336000Y0077387D01*
X0336000Y0078385D02*
X0337000Y0078385D01*
X0337000Y0079384D02*
X0336000Y0079384D01*
X0336000Y0080382D02*
X0337000Y0080382D01*
X0337000Y0081381D02*
X0336000Y0081381D01*
X0335355Y0081381D02*
X0324400Y0081381D01*
X0324400Y0082379D02*
X0398101Y0082379D01*
X0398101Y0081381D02*
X0337645Y0081381D01*
X0339663Y0080382D02*
X0398101Y0080382D01*
X0398101Y0079384D02*
X0340585Y0079384D01*
X0341145Y0078385D02*
X0398101Y0078385D01*
X0398101Y0077387D02*
X0341422Y0077387D01*
X0337000Y0075390D02*
X0336000Y0075390D01*
X0336000Y0076388D02*
X0324400Y0076388D01*
X0324400Y0075390D02*
X0331613Y0075390D01*
X0331963Y0074391D02*
X0324400Y0074391D01*
X0324400Y0073393D02*
X0332577Y0073393D01*
X0333644Y0072394D02*
X0324400Y0072394D01*
X0324400Y0077387D02*
X0331578Y0077387D01*
X0331855Y0078385D02*
X0324400Y0078385D01*
X0324400Y0079384D02*
X0332415Y0079384D01*
X0333337Y0080382D02*
X0324400Y0080382D01*
X0336000Y0074391D02*
X0337000Y0074391D01*
X0337000Y0073393D02*
X0336000Y0073393D01*
X0336000Y0072394D02*
X0337000Y0072394D01*
X0328678Y0063408D02*
X0324400Y0063408D01*
X0325320Y0062409D02*
X0327680Y0062409D01*
X0327071Y0061411D02*
X0325929Y0061411D01*
X0326343Y0060412D02*
X0326657Y0060412D01*
X0326600Y0059414D02*
X0326400Y0059414D01*
X0326400Y0058415D02*
X0326600Y0058415D01*
X0326600Y0057417D02*
X0326400Y0057417D01*
X0326400Y0056418D02*
X0326600Y0056418D01*
X0326600Y0055420D02*
X0326400Y0055420D01*
X0326400Y0054421D02*
X0326600Y0054421D01*
X0326600Y0053423D02*
X0326400Y0053423D01*
X0326275Y0052424D02*
X0326725Y0052424D01*
X0327138Y0051426D02*
X0325862Y0051426D01*
X0325157Y0050427D02*
X0327843Y0050427D01*
X0328600Y0049429D02*
X0323992Y0049429D01*
X0335276Y0032454D02*
X0338573Y0032454D01*
X0337772Y0031455D02*
X0335911Y0031455D01*
X0336325Y0030457D02*
X0337355Y0030457D01*
X0337200Y0029458D02*
X0336400Y0029458D01*
X0336400Y0028460D02*
X0337200Y0028460D01*
X0337200Y0027461D02*
X0336400Y0027461D01*
X0341200Y0027461D02*
X0341800Y0027461D01*
X0341800Y0028460D02*
X0341200Y0028460D01*
X0341200Y0029458D02*
X0341800Y0029458D01*
X0341800Y0030457D02*
X0341200Y0030457D01*
X0341200Y0031455D02*
X0341800Y0031455D01*
X0341800Y0032454D02*
X0341200Y0032454D01*
X0341200Y0025464D02*
X0341800Y0025464D01*
X0341800Y0024466D02*
X0341200Y0024466D01*
X0341200Y0023467D02*
X0341800Y0023467D01*
X0341800Y0022469D02*
X0341200Y0022469D01*
X0341200Y0021470D02*
X0341800Y0021470D01*
X0341800Y0020472D02*
X0341200Y0020472D01*
X0344353Y0020472D02*
X0347799Y0020472D01*
X0347120Y0021470D02*
X0345190Y0021470D01*
X0345621Y0022469D02*
X0346706Y0022469D01*
X0346600Y0023467D02*
X0345800Y0023467D01*
X0345800Y0024466D02*
X0346600Y0024466D01*
X0346600Y0025464D02*
X0345800Y0025464D01*
X0378455Y0099354D02*
X0398101Y0099354D01*
X0398101Y0100353D02*
X0379454Y0100353D01*
X0380452Y0101351D02*
X0398101Y0101351D01*
X0380238Y0109339D02*
X0324400Y0109339D01*
X0324400Y0108341D02*
X0379239Y0108341D01*
X0381237Y0110338D02*
X0324400Y0110338D01*
X0324400Y0111336D02*
X0382235Y0111336D01*
X0383234Y0112335D02*
X0324400Y0112335D01*
X0324400Y0113333D02*
X0383600Y0113333D01*
X0383600Y0114332D02*
X0324400Y0114332D01*
X0324400Y0115330D02*
X0383600Y0115330D01*
X0383600Y0116329D02*
X0324400Y0116329D01*
X0324400Y0117327D02*
X0383600Y0117327D01*
X0383600Y0118326D02*
X0324400Y0118326D01*
X0324400Y0119324D02*
X0383600Y0119324D01*
X0383600Y0120323D02*
X0324400Y0120323D01*
X0324400Y0121321D02*
X0334369Y0121321D01*
X0335386Y0120900D02*
X0333328Y0121753D01*
X0331753Y0123328D01*
X0330900Y0125386D01*
X0330900Y0127614D01*
X0331753Y0129672D01*
X0333328Y0131247D01*
X0335386Y0132100D01*
X0337614Y0132100D01*
X0339672Y0131247D01*
X0341247Y0129672D01*
X0342100Y0127614D01*
X0342100Y0125386D01*
X0341247Y0123328D01*
X0339672Y0121753D01*
X0337614Y0120900D01*
X0335386Y0120900D01*
X0332761Y0122320D02*
X0324400Y0122320D01*
X0324400Y0123318D02*
X0331762Y0123318D01*
X0331343Y0124317D02*
X0324400Y0124317D01*
X0324400Y0125315D02*
X0330929Y0125315D01*
X0330900Y0126314D02*
X0324400Y0126314D01*
X0324400Y0127312D02*
X0330900Y0127312D01*
X0331189Y0128311D02*
X0324400Y0128311D01*
X0324400Y0129309D02*
X0331602Y0129309D01*
X0332388Y0130308D02*
X0324400Y0130308D01*
X0324400Y0131306D02*
X0333470Y0131306D01*
X0339530Y0131306D02*
X0383600Y0131306D01*
X0383600Y0130308D02*
X0340612Y0130308D01*
X0341398Y0129309D02*
X0383600Y0129309D01*
X0383600Y0128311D02*
X0341811Y0128311D01*
X0342100Y0127312D02*
X0383600Y0127312D01*
X0383600Y0126314D02*
X0342100Y0126314D01*
X0342071Y0125315D02*
X0383600Y0125315D01*
X0383600Y0124317D02*
X0341657Y0124317D01*
X0341238Y0123318D02*
X0383600Y0123318D01*
X0383600Y0122320D02*
X0340239Y0122320D01*
X0338631Y0121321D02*
X0383600Y0121321D01*
X0383600Y0132305D02*
X0324400Y0132305D01*
X0324400Y0133303D02*
X0383600Y0133303D01*
X0383600Y0134302D02*
X0324400Y0134302D01*
X0324400Y0135301D02*
X0383600Y0135301D01*
X0383600Y0136299D02*
X0324400Y0136299D01*
X0324400Y0137298D02*
X0383600Y0137298D01*
X0383600Y0138296D02*
X0324400Y0138296D01*
X0324400Y0139295D02*
X0329331Y0139295D01*
X0327977Y0140293D02*
X0325023Y0140293D01*
X0325806Y0141292D02*
X0327194Y0141292D01*
X0326780Y0142290D02*
X0326220Y0142290D01*
X0326400Y0143289D02*
X0326600Y0143289D01*
X0333669Y0139295D02*
X0339331Y0139295D01*
X0337977Y0140293D02*
X0335023Y0140293D01*
X0335806Y0141292D02*
X0337194Y0141292D01*
X0336780Y0142290D02*
X0336220Y0142290D01*
X0336400Y0143289D02*
X0336600Y0143289D01*
X0336600Y0144287D02*
X0336400Y0144287D01*
X0336400Y0145286D02*
X0336600Y0145286D01*
X0336600Y0146284D02*
X0336400Y0146284D01*
X0336400Y0147283D02*
X0336600Y0147283D01*
X0336600Y0148281D02*
X0336400Y0148281D01*
X0336400Y0149280D02*
X0336600Y0149280D01*
X0336601Y0150278D02*
X0336399Y0150278D01*
X0335985Y0151277D02*
X0337015Y0151277D01*
X0337546Y0152275D02*
X0336376Y0152275D01*
X0337375Y0153274D02*
X0338544Y0153274D01*
X0344456Y0153274D02*
X0348544Y0153274D01*
X0347546Y0152275D02*
X0345454Y0152275D01*
X0345985Y0151277D02*
X0347015Y0151277D01*
X0346601Y0150278D02*
X0346399Y0150278D01*
X0346400Y0149280D02*
X0346600Y0149280D01*
X0346600Y0148281D02*
X0346400Y0148281D01*
X0346400Y0147283D02*
X0346600Y0147283D01*
X0346600Y0146284D02*
X0346400Y0146284D01*
X0346400Y0145286D02*
X0346600Y0145286D01*
X0346600Y0144287D02*
X0346400Y0144287D01*
X0346400Y0143289D02*
X0346600Y0143289D01*
X0346780Y0142290D02*
X0346220Y0142290D01*
X0345806Y0141292D02*
X0347194Y0141292D01*
X0347977Y0140293D02*
X0345023Y0140293D01*
X0343669Y0139295D02*
X0349331Y0139295D01*
X0353669Y0139295D02*
X0359331Y0139295D01*
X0357977Y0140293D02*
X0355023Y0140293D01*
X0355806Y0141292D02*
X0357194Y0141292D01*
X0356780Y0142290D02*
X0356220Y0142290D01*
X0356400Y0143289D02*
X0356600Y0143289D01*
X0356600Y0144287D02*
X0356400Y0144287D01*
X0356400Y0145286D02*
X0356600Y0145286D01*
X0356600Y0146284D02*
X0356400Y0146284D01*
X0356400Y0147283D02*
X0356600Y0147283D01*
X0356600Y0148281D02*
X0356400Y0148281D01*
X0356400Y0149280D02*
X0356600Y0149280D01*
X0356601Y0150278D02*
X0356399Y0150278D01*
X0355985Y0151277D02*
X0357015Y0151277D01*
X0357546Y0152275D02*
X0355454Y0152275D01*
X0354456Y0153274D02*
X0358544Y0153274D01*
X0363835Y0158266D02*
X0368600Y0158266D01*
X0368600Y0157268D02*
X0364833Y0157268D01*
X0365832Y0156269D02*
X0368600Y0156269D01*
X0368600Y0155271D02*
X0366830Y0155271D01*
X0367829Y0154272D02*
X0368600Y0154272D01*
X0374400Y0154272D02*
X0383600Y0154272D01*
X0383600Y0155271D02*
X0374400Y0155271D01*
X0374400Y0156269D02*
X0383600Y0156269D01*
X0383600Y0157268D02*
X0374400Y0157268D01*
X0374400Y0158266D02*
X0383600Y0158266D01*
X0383600Y0159265D02*
X0374400Y0159265D01*
X0374400Y0160263D02*
X0383600Y0160263D01*
X0383600Y0161262D02*
X0374400Y0161262D01*
X0374400Y0162260D02*
X0383600Y0162260D01*
X0383600Y0163259D02*
X0374400Y0163259D01*
X0374400Y0164257D02*
X0383600Y0164257D01*
X0383600Y0165256D02*
X0374400Y0165256D01*
X0374400Y0166254D02*
X0383600Y0166254D01*
X0383600Y0167253D02*
X0374400Y0167253D01*
X0374400Y0168251D02*
X0383600Y0168251D01*
X0383561Y0169250D02*
X0383600Y0169250D01*
X0379439Y0169250D02*
X0374400Y0169250D01*
X0374978Y0170248D02*
X0378022Y0170248D01*
X0377212Y0171247D02*
X0375788Y0171247D01*
X0376201Y0172245D02*
X0376799Y0172245D01*
X0376600Y0173244D02*
X0376400Y0173244D01*
X0376400Y0174242D02*
X0376600Y0174242D01*
X0376600Y0175241D02*
X0376400Y0175241D01*
X0376400Y0176239D02*
X0376600Y0176239D01*
X0376600Y0177238D02*
X0376400Y0177238D01*
X0376400Y0178237D02*
X0376600Y0178237D01*
X0376600Y0179235D02*
X0376400Y0179235D01*
X0376400Y0180234D02*
X0376600Y0180234D01*
X0376997Y0181232D02*
X0376003Y0181232D01*
X0375499Y0182231D02*
X0376668Y0182231D01*
X0375670Y0183229D02*
X0374501Y0183229D01*
X0368499Y0183229D02*
X0364501Y0183229D01*
X0365499Y0182231D02*
X0367501Y0182231D01*
X0366997Y0181232D02*
X0366003Y0181232D01*
X0366400Y0180234D02*
X0366600Y0180234D01*
X0366600Y0179235D02*
X0366400Y0179235D01*
X0366400Y0178237D02*
X0366600Y0178237D01*
X0366600Y0177238D02*
X0366400Y0177238D01*
X0366400Y0176239D02*
X0366600Y0176239D01*
X0366600Y0175241D02*
X0366400Y0175241D01*
X0366400Y0174242D02*
X0366600Y0174242D01*
X0366600Y0173244D02*
X0366400Y0173244D01*
X0366201Y0172245D02*
X0366799Y0172245D01*
X0367212Y0171247D02*
X0365788Y0171247D01*
X0364978Y0170248D02*
X0368022Y0170248D01*
X0368600Y0159265D02*
X0362403Y0159265D01*
X0374456Y0153274D02*
X0378544Y0153274D01*
X0377546Y0152275D02*
X0375454Y0152275D01*
X0375985Y0151277D02*
X0377015Y0151277D01*
X0376601Y0150278D02*
X0376399Y0150278D01*
X0376400Y0149280D02*
X0376600Y0149280D01*
X0376600Y0148281D02*
X0376400Y0148281D01*
X0376400Y0147283D02*
X0376600Y0147283D01*
X0376600Y0146284D02*
X0376400Y0146284D01*
X0376400Y0145286D02*
X0376600Y0145286D01*
X0376600Y0144287D02*
X0376400Y0144287D01*
X0376400Y0143289D02*
X0376600Y0143289D01*
X0376780Y0142290D02*
X0376220Y0142290D01*
X0375806Y0141292D02*
X0377194Y0141292D01*
X0377977Y0140293D02*
X0375023Y0140293D01*
X0373669Y0139295D02*
X0379331Y0139295D01*
X0369331Y0139295D02*
X0363669Y0139295D01*
X0365023Y0140293D02*
X0367977Y0140293D01*
X0367194Y0141292D02*
X0365806Y0141292D01*
X0366220Y0142290D02*
X0366780Y0142290D01*
X0366600Y0143289D02*
X0366400Y0143289D01*
X0366400Y0144287D02*
X0366600Y0144287D01*
X0366600Y0145286D02*
X0366400Y0145286D01*
X0366400Y0146284D02*
X0366600Y0146284D01*
X0366600Y0147283D02*
X0366400Y0147283D01*
X0328544Y0153274D02*
X0324456Y0153274D01*
X0325454Y0152275D02*
X0327546Y0152275D01*
X0327015Y0151277D02*
X0325985Y0151277D01*
X0326399Y0150278D02*
X0326601Y0150278D01*
X0318600Y0131306D02*
X0309530Y0131306D01*
X0310612Y0130308D02*
X0318600Y0130308D01*
X0318600Y0129309D02*
X0311398Y0129309D01*
X0311811Y0128311D02*
X0318600Y0128311D01*
X0318600Y0127312D02*
X0312100Y0127312D01*
X0312100Y0126314D02*
X0318600Y0126314D01*
X0318600Y0125315D02*
X0312071Y0125315D01*
X0311657Y0124317D02*
X0318600Y0124317D01*
X0318600Y0123318D02*
X0311238Y0123318D01*
X0310239Y0122320D02*
X0318600Y0122320D01*
X0288600Y0122320D02*
X0285239Y0122320D01*
X0286238Y0123318D02*
X0288600Y0123318D01*
X0288600Y0124317D02*
X0286657Y0124317D01*
X0287071Y0125315D02*
X0288600Y0125315D01*
X0288600Y0126314D02*
X0287100Y0126314D01*
X0287100Y0127312D02*
X0288600Y0127312D01*
X0288600Y0128311D02*
X0286811Y0128311D01*
X0286398Y0129309D02*
X0288600Y0129309D01*
X0288600Y0130308D02*
X0285612Y0130308D01*
X0284530Y0131306D02*
X0288600Y0131306D01*
X0288600Y0132305D02*
X0284400Y0132305D01*
X0284400Y0133303D02*
X0288600Y0133303D01*
X0257190Y0141292D02*
X0255806Y0141292D01*
X0256192Y0140293D02*
X0255023Y0140293D01*
X0256220Y0142290D02*
X0256780Y0142290D01*
X0256600Y0143289D02*
X0256400Y0143289D01*
X0256400Y0144287D02*
X0256600Y0144287D01*
X0256600Y0145286D02*
X0256400Y0145286D01*
X0256400Y0146284D02*
X0256600Y0146284D01*
X0256600Y0147283D02*
X0256400Y0147283D01*
X0256400Y0148281D02*
X0256600Y0148281D01*
X0256600Y0149280D02*
X0256400Y0149280D01*
X0256399Y0150278D02*
X0256601Y0150278D01*
X0257015Y0151277D02*
X0255985Y0151277D01*
X0255454Y0152275D02*
X0257546Y0152275D01*
X0258544Y0153274D02*
X0254456Y0153274D01*
X0263561Y0169250D02*
X0278600Y0169250D01*
X0278600Y0170248D02*
X0264978Y0170248D01*
X0265788Y0171247D02*
X0277652Y0171247D01*
X0276653Y0172245D02*
X0266201Y0172245D01*
X0266400Y0173244D02*
X0275655Y0173244D01*
M02*
