G75*
%MOIN*%
%OFA0B0*%
%FSLAX25Y25*%
%IPPOS*%
%LPD*%
%AMOC8*
5,1,8,0,0,1.08239X$1,22.5*
%
%ADD10C,0.07000*%
%ADD11R,0.05550X0.05550*%
%ADD12C,0.05550*%
%ADD13C,0.05600*%
%ADD14OC8,0.05600*%
%ADD15C,0.01600*%
%ADD16C,0.01000*%
D10*
X0281500Y0076500D03*
X0306500Y0076500D03*
X0336500Y0076500D03*
X0336500Y0101500D03*
X0306500Y0101500D03*
X0281500Y0101500D03*
X0281500Y0126500D03*
X0306500Y0126500D03*
X0336500Y0126500D03*
D11*
X0031500Y0171500D03*
D12*
X0031500Y0161500D03*
X0031500Y0151500D03*
X0031500Y0141500D03*
X0031500Y0131500D03*
X0031500Y0121500D03*
X0031500Y0111500D03*
X0031500Y0101500D03*
X0031500Y0091500D03*
X0031500Y0081500D03*
X0031500Y0071500D03*
X0031500Y0061500D03*
X0031500Y0051500D03*
X0031500Y0041500D03*
X0031500Y0031500D03*
X0091500Y0031500D03*
X0091500Y0041500D03*
X0091500Y0051500D03*
X0091500Y0061500D03*
X0091500Y0071500D03*
X0091500Y0081500D03*
X0091500Y0091500D03*
X0091500Y0101500D03*
X0091500Y0111500D03*
X0091500Y0121500D03*
X0091500Y0131500D03*
X0091500Y0141500D03*
X0091500Y0151500D03*
X0091500Y0161500D03*
X0091500Y0171500D03*
D13*
X0161500Y0129300D02*
X0161500Y0123700D01*
X0171500Y0123700D02*
X0171500Y0129300D01*
X0181500Y0129300D02*
X0181500Y0123700D01*
X0191500Y0123700D02*
X0191500Y0129300D01*
X0201500Y0143700D02*
X0201500Y0149300D01*
X0211500Y0149300D02*
X0211500Y0143700D01*
X0221500Y0143700D02*
X0221500Y0149300D01*
X0231500Y0149300D02*
X0231500Y0143700D01*
X0241500Y0143700D02*
X0241500Y0149300D01*
X0251500Y0149300D02*
X0251500Y0143700D01*
X0261500Y0143700D02*
X0261500Y0149300D01*
X0261500Y0173700D02*
X0261500Y0179300D01*
X0251500Y0179300D02*
X0251500Y0173700D01*
X0241500Y0173700D02*
X0241500Y0179300D01*
X0231500Y0179300D02*
X0231500Y0173700D01*
X0221500Y0173700D02*
X0221500Y0179300D01*
X0211500Y0179300D02*
X0211500Y0173700D01*
X0201500Y0173700D02*
X0201500Y0179300D01*
X0321500Y0179300D02*
X0321500Y0173700D01*
X0331500Y0173700D02*
X0331500Y0179300D01*
X0341500Y0179300D02*
X0341500Y0173700D01*
X0351500Y0173700D02*
X0351500Y0179300D01*
X0361500Y0179300D02*
X0361500Y0173700D01*
X0371500Y0173700D02*
X0371500Y0179300D01*
X0381500Y0179300D02*
X0381500Y0173700D01*
X0381500Y0149300D02*
X0381500Y0143700D01*
X0371500Y0143700D02*
X0371500Y0149300D01*
X0361500Y0149300D02*
X0361500Y0143700D01*
X0351500Y0143700D02*
X0351500Y0149300D01*
X0341500Y0149300D02*
X0341500Y0143700D01*
X0331500Y0143700D02*
X0331500Y0149300D01*
X0321500Y0149300D02*
X0321500Y0143700D01*
X0191500Y0099300D02*
X0191500Y0093700D01*
X0181500Y0093700D02*
X0181500Y0099300D01*
X0171500Y0099300D02*
X0171500Y0093700D01*
X0161500Y0093700D02*
X0161500Y0099300D01*
X0201500Y0059300D02*
X0201500Y0053700D01*
X0211500Y0053700D02*
X0211500Y0059300D01*
X0221500Y0059300D02*
X0221500Y0053700D01*
X0231500Y0053700D02*
X0231500Y0059300D01*
X0261500Y0059300D02*
X0261500Y0053700D01*
X0271500Y0053700D02*
X0271500Y0059300D01*
X0281500Y0059300D02*
X0281500Y0053700D01*
X0291500Y0053700D02*
X0291500Y0059300D01*
X0321500Y0059300D02*
X0321500Y0053700D01*
X0331500Y0053700D02*
X0331500Y0059300D01*
X0341500Y0059300D02*
X0341500Y0053700D01*
X0351500Y0053700D02*
X0351500Y0059300D01*
X0361500Y0059300D02*
X0361500Y0053700D01*
X0371500Y0053700D02*
X0371500Y0059300D01*
X0381500Y0059300D02*
X0381500Y0053700D01*
X0381500Y0029300D02*
X0381500Y0023700D01*
X0371500Y0023700D02*
X0371500Y0029300D01*
X0361500Y0029300D02*
X0361500Y0023700D01*
X0351500Y0023700D02*
X0351500Y0029300D01*
X0341500Y0029300D02*
X0341500Y0023700D01*
X0331500Y0023700D02*
X0331500Y0029300D01*
X0321500Y0029300D02*
X0321500Y0023700D01*
X0291500Y0023700D02*
X0291500Y0029300D01*
X0281500Y0029300D02*
X0281500Y0023700D01*
X0271500Y0023700D02*
X0271500Y0029300D01*
X0261500Y0029300D02*
X0261500Y0023700D01*
X0231500Y0023700D02*
X0231500Y0029300D01*
X0221500Y0029300D02*
X0221500Y0023700D01*
X0211500Y0023700D02*
X0211500Y0029300D01*
X0201500Y0029300D02*
X0201500Y0023700D01*
D14*
X0181500Y0021500D03*
X0161500Y0021500D03*
X0141500Y0021500D03*
X0141500Y0061500D03*
X0161500Y0061500D03*
X0181500Y0061500D03*
X0186500Y0076500D03*
X0166500Y0076500D03*
X0216500Y0111500D03*
X0211500Y0131500D03*
X0201500Y0131500D03*
X0181500Y0141500D03*
X0161500Y0141500D03*
X0141500Y0141500D03*
X0141500Y0181500D03*
X0161500Y0181500D03*
X0181500Y0181500D03*
X0256500Y0111500D03*
D15*
X0351500Y0111500D01*
X0361500Y0101500D01*
X0361500Y0056500D01*
X0361500Y0051500D01*
X0356500Y0046500D01*
X0346500Y0046500D01*
X0341500Y0051500D01*
X0341500Y0056500D01*
X0331500Y0056500D02*
X0331500Y0061500D01*
X0326500Y0066500D01*
X0276500Y0066500D01*
X0271500Y0071500D01*
X0231500Y0071500D01*
X0226500Y0076500D01*
X0186500Y0076500D01*
X0181500Y0071500D02*
X0181500Y0096500D01*
X0171500Y0096500D01*
X0161500Y0096500D02*
X0156500Y0096500D01*
X0151500Y0101500D01*
X0151500Y0141500D01*
X0161500Y0141500D01*
X0151500Y0141500D02*
X0141500Y0141500D01*
X0121500Y0126500D02*
X0116500Y0131500D01*
X0091500Y0131500D01*
X0121500Y0126500D02*
X0121500Y0081500D01*
X0126500Y0076500D01*
X0166500Y0076500D01*
X0181500Y0071500D02*
X0221500Y0071500D01*
X0226500Y0066500D01*
X0266500Y0066500D01*
X0271500Y0061500D01*
X0271500Y0056500D01*
X0286500Y0046500D02*
X0291500Y0051500D01*
X0291500Y0056500D01*
X0286500Y0046500D02*
X0216500Y0046500D01*
X0211500Y0051500D01*
X0211500Y0056500D01*
X0221500Y0056500D02*
X0221500Y0061500D01*
X0216500Y0066500D01*
X0166500Y0066500D01*
X0161500Y0061500D01*
X0141500Y0061500D01*
X0146500Y0056500D02*
X0176500Y0056500D01*
X0181500Y0061500D01*
X0146500Y0056500D02*
X0141500Y0051500D01*
X0141500Y0021500D01*
X0136500Y0021500D01*
X0131500Y0026500D01*
X0131500Y0066500D01*
X0126500Y0071500D01*
X0091500Y0071500D01*
X0176500Y0116500D02*
X0176500Y0136500D01*
X0151500Y0161500D01*
X0151500Y0181500D01*
X0161500Y0191500D01*
X0191500Y0191500D01*
X0196500Y0186500D01*
X0196500Y0156500D01*
X0201500Y0151500D01*
X0206500Y0156500D01*
X0241500Y0156500D01*
X0246500Y0161500D01*
X0246500Y0176500D01*
X0251500Y0176500D01*
X0246500Y0176500D02*
X0241500Y0176500D01*
X0231500Y0176500D02*
X0231500Y0186500D01*
X0236500Y0191500D01*
X0376500Y0191500D01*
X0381500Y0186500D01*
X0381500Y0176500D01*
X0361500Y0176500D02*
X0361500Y0156500D01*
X0346500Y0156500D01*
X0341500Y0151500D01*
X0341500Y0146500D01*
X0336500Y0141500D01*
X0336500Y0126500D01*
X0326500Y0116500D01*
X0271500Y0116500D01*
X0261500Y0126500D01*
X0191500Y0126500D01*
X0191500Y0181500D01*
X0186500Y0186500D01*
X0166500Y0186500D01*
X0161500Y0181500D01*
X0201500Y0151500D02*
X0201500Y0146500D01*
X0191500Y0126500D02*
X0181500Y0126500D01*
X0176500Y0116500D02*
X0181500Y0111500D01*
X0191500Y0111500D01*
X0196500Y0106500D01*
X0196500Y0086500D01*
X0201500Y0081500D01*
X0231500Y0081500D01*
X0236500Y0076500D01*
X0281500Y0076500D01*
X0286500Y0036500D02*
X0236500Y0036500D01*
X0231500Y0031500D01*
X0231500Y0026500D01*
X0231500Y0031500D02*
X0226500Y0036500D01*
X0196500Y0036500D01*
X0181500Y0021500D01*
X0286500Y0036500D02*
X0291500Y0031500D01*
X0291500Y0026500D01*
X0321500Y0026500D02*
X0331500Y0026500D01*
X0371500Y0056500D02*
X0381500Y0066500D01*
X0381500Y0146500D01*
X0361500Y0146500D02*
X0361500Y0156500D01*
D16*
X0003600Y0199361D02*
X0003600Y0003600D01*
X0398101Y0003600D01*
X0398101Y0199361D01*
X0003600Y0199361D01*
X0003600Y0199205D02*
X0398101Y0199205D01*
X0398101Y0198207D02*
X0003600Y0198207D01*
X0003600Y0197208D02*
X0398101Y0197208D01*
X0398101Y0196210D02*
X0003600Y0196210D01*
X0003600Y0195211D02*
X0398101Y0195211D01*
X0398101Y0194213D02*
X0377529Y0194213D01*
X0377077Y0194400D02*
X0235923Y0194400D01*
X0234857Y0193958D01*
X0229857Y0188958D01*
X0229041Y0188143D01*
X0228600Y0187077D01*
X0228600Y0183330D01*
X0227346Y0182076D01*
X0226600Y0180275D01*
X0226600Y0172725D01*
X0227346Y0170924D01*
X0228724Y0169546D01*
X0230525Y0168800D01*
X0232475Y0168800D01*
X0234276Y0169546D01*
X0235654Y0170924D01*
X0236400Y0172725D01*
X0236400Y0180275D01*
X0235654Y0182076D01*
X0234400Y0183330D01*
X0234400Y0185299D01*
X0237701Y0188600D01*
X0375299Y0188600D01*
X0378600Y0185299D01*
X0378600Y0183330D01*
X0377346Y0182076D01*
X0376600Y0180275D01*
X0376600Y0172725D01*
X0377346Y0170924D01*
X0378724Y0169546D01*
X0380525Y0168800D01*
X0382475Y0168800D01*
X0384276Y0169546D01*
X0385654Y0170924D01*
X0386400Y0172725D01*
X0386400Y0180275D01*
X0385654Y0182076D01*
X0384400Y0183330D01*
X0384400Y0187077D01*
X0383958Y0188143D01*
X0378958Y0193143D01*
X0378143Y0193958D01*
X0377077Y0194400D01*
X0378887Y0193214D02*
X0398101Y0193214D01*
X0398101Y0192216D02*
X0379886Y0192216D01*
X0380884Y0191217D02*
X0398101Y0191217D01*
X0398101Y0190219D02*
X0381883Y0190219D01*
X0382881Y0189220D02*
X0398101Y0189220D01*
X0398101Y0188222D02*
X0383880Y0188222D01*
X0384339Y0187223D02*
X0398101Y0187223D01*
X0398101Y0186225D02*
X0384400Y0186225D01*
X0384400Y0185226D02*
X0398101Y0185226D01*
X0398101Y0184228D02*
X0384400Y0184228D01*
X0384501Y0183229D02*
X0398101Y0183229D01*
X0398101Y0182231D02*
X0385499Y0182231D01*
X0386003Y0181232D02*
X0398101Y0181232D01*
X0398101Y0180234D02*
X0386400Y0180234D01*
X0386400Y0179235D02*
X0398101Y0179235D01*
X0398101Y0178237D02*
X0386400Y0178237D01*
X0386400Y0177238D02*
X0398101Y0177238D01*
X0398101Y0176239D02*
X0386400Y0176239D01*
X0386400Y0175241D02*
X0398101Y0175241D01*
X0398101Y0174242D02*
X0386400Y0174242D01*
X0386400Y0173244D02*
X0398101Y0173244D01*
X0398101Y0172245D02*
X0386201Y0172245D01*
X0385788Y0171247D02*
X0398101Y0171247D01*
X0398101Y0170248D02*
X0384978Y0170248D01*
X0383561Y0169250D02*
X0398101Y0169250D01*
X0398101Y0168251D02*
X0364400Y0168251D01*
X0364400Y0167253D02*
X0398101Y0167253D01*
X0398101Y0166254D02*
X0364400Y0166254D01*
X0364400Y0165256D02*
X0398101Y0165256D01*
X0398101Y0164257D02*
X0364400Y0164257D01*
X0364400Y0163259D02*
X0398101Y0163259D01*
X0398101Y0162260D02*
X0364400Y0162260D01*
X0364400Y0161262D02*
X0398101Y0161262D01*
X0398101Y0160263D02*
X0364400Y0160263D01*
X0364400Y0159265D02*
X0398101Y0159265D01*
X0398101Y0158266D02*
X0364400Y0158266D01*
X0364400Y0157268D02*
X0398101Y0157268D01*
X0398101Y0156269D02*
X0364400Y0156269D01*
X0364400Y0155271D02*
X0398101Y0155271D01*
X0398101Y0154272D02*
X0364400Y0154272D01*
X0364400Y0153330D02*
X0364400Y0169670D01*
X0365654Y0170924D01*
X0366400Y0172725D01*
X0366400Y0180275D01*
X0365654Y0182076D01*
X0364276Y0183454D01*
X0362475Y0184200D01*
X0360525Y0184200D01*
X0358724Y0183454D01*
X0357346Y0182076D01*
X0356600Y0180275D01*
X0356600Y0172725D01*
X0357346Y0170924D01*
X0358600Y0169670D01*
X0358600Y0159400D01*
X0345923Y0159400D01*
X0344857Y0158958D01*
X0344041Y0158143D01*
X0339797Y0153898D01*
X0338724Y0153454D01*
X0337346Y0152076D01*
X0336600Y0150275D01*
X0336600Y0145701D01*
X0336400Y0145501D01*
X0336400Y0150275D01*
X0335654Y0152076D01*
X0334276Y0153454D01*
X0332475Y0154200D01*
X0330525Y0154200D01*
X0328724Y0153454D01*
X0327346Y0152076D01*
X0326600Y0150275D01*
X0326600Y0142725D01*
X0327346Y0140924D01*
X0328724Y0139546D01*
X0330525Y0138800D01*
X0332475Y0138800D01*
X0333600Y0139266D01*
X0333600Y0131360D01*
X0333328Y0131247D01*
X0331753Y0129672D01*
X0330900Y0127614D01*
X0330900Y0125386D01*
X0331013Y0125114D01*
X0325299Y0119400D01*
X0272701Y0119400D01*
X0263143Y0128958D01*
X0262077Y0129400D01*
X0216330Y0129400D01*
X0216400Y0129470D01*
X0216400Y0133530D01*
X0213530Y0136400D01*
X0209470Y0136400D01*
X0206600Y0133530D01*
X0206600Y0129470D01*
X0206670Y0129400D01*
X0206330Y0129400D01*
X0206400Y0129470D01*
X0206400Y0133530D01*
X0203530Y0136400D01*
X0199470Y0136400D01*
X0196600Y0133530D01*
X0196600Y0129470D01*
X0196670Y0129400D01*
X0196400Y0129400D01*
X0196400Y0130275D01*
X0195654Y0132076D01*
X0194400Y0133330D01*
X0194400Y0154499D01*
X0197193Y0151706D01*
X0196600Y0150275D01*
X0196600Y0142725D01*
X0197346Y0140924D01*
X0198724Y0139546D01*
X0200525Y0138800D01*
X0202475Y0138800D01*
X0204276Y0139546D01*
X0205654Y0140924D01*
X0206400Y0142725D01*
X0206400Y0150275D01*
X0205807Y0151706D01*
X0207701Y0153600D01*
X0209077Y0153600D01*
X0208724Y0153454D01*
X0207346Y0152076D01*
X0206600Y0150275D01*
X0206600Y0142725D01*
X0207346Y0140924D01*
X0208724Y0139546D01*
X0210525Y0138800D01*
X0212475Y0138800D01*
X0214276Y0139546D01*
X0215654Y0140924D01*
X0216400Y0142725D01*
X0216400Y0150275D01*
X0215654Y0152076D01*
X0214276Y0153454D01*
X0213923Y0153600D01*
X0219077Y0153600D01*
X0218724Y0153454D01*
X0217346Y0152076D01*
X0216600Y0150275D01*
X0216600Y0142725D01*
X0217346Y0140924D01*
X0218724Y0139546D01*
X0220525Y0138800D01*
X0222475Y0138800D01*
X0224276Y0139546D01*
X0225654Y0140924D01*
X0226400Y0142725D01*
X0226400Y0150275D01*
X0225654Y0152076D01*
X0224276Y0153454D01*
X0223923Y0153600D01*
X0229077Y0153600D01*
X0228724Y0153454D01*
X0227346Y0152076D01*
X0226600Y0150275D01*
X0226600Y0142725D01*
X0227346Y0140924D01*
X0228724Y0139546D01*
X0230525Y0138800D01*
X0232475Y0138800D01*
X0234276Y0139546D01*
X0235654Y0140924D01*
X0236400Y0142725D01*
X0236400Y0150275D01*
X0235654Y0152076D01*
X0234276Y0153454D01*
X0233923Y0153600D01*
X0239077Y0153600D01*
X0238724Y0153454D01*
X0237346Y0152076D01*
X0236600Y0150275D01*
X0236600Y0142725D01*
X0237346Y0140924D01*
X0238724Y0139546D01*
X0240525Y0138800D01*
X0242475Y0138800D01*
X0244276Y0139546D01*
X0245654Y0140924D01*
X0246400Y0142725D01*
X0246400Y0150275D01*
X0245654Y0152076D01*
X0244276Y0153454D01*
X0243000Y0153982D01*
X0243143Y0154041D01*
X0248143Y0159041D01*
X0248958Y0159857D01*
X0249400Y0160923D01*
X0249400Y0169266D01*
X0250525Y0168800D01*
X0252475Y0168800D01*
X0254276Y0169546D01*
X0255654Y0170924D01*
X0256400Y0172725D01*
X0256400Y0180275D01*
X0255654Y0182076D01*
X0254276Y0183454D01*
X0252475Y0184200D01*
X0250525Y0184200D01*
X0248724Y0183454D01*
X0247346Y0182076D01*
X0246600Y0180275D01*
X0246600Y0179400D01*
X0246400Y0179400D01*
X0246400Y0180275D01*
X0245654Y0182076D01*
X0244276Y0183454D01*
X0242475Y0184200D01*
X0240525Y0184200D01*
X0238724Y0183454D01*
X0237346Y0182076D01*
X0236600Y0180275D01*
X0236600Y0172725D01*
X0237346Y0170924D01*
X0238724Y0169546D01*
X0240525Y0168800D01*
X0242475Y0168800D01*
X0243600Y0169266D01*
X0243600Y0162701D01*
X0240299Y0159400D01*
X0205923Y0159400D01*
X0204857Y0158958D01*
X0204041Y0158143D01*
X0201500Y0155601D01*
X0199400Y0157701D01*
X0199400Y0169944D01*
X0199849Y0169715D01*
X0200493Y0169506D01*
X0201162Y0169400D01*
X0201200Y0169400D01*
X0201200Y0176200D01*
X0201800Y0176200D01*
X0201800Y0176800D01*
X0201200Y0176800D01*
X0201200Y0183600D01*
X0201162Y0183600D01*
X0200493Y0183494D01*
X0199849Y0183285D01*
X0199400Y0183056D01*
X0199400Y0187077D01*
X0198958Y0188143D01*
X0198143Y0188958D01*
X0193143Y0193958D01*
X0192077Y0194400D01*
X0160923Y0194400D01*
X0159857Y0193958D01*
X0159041Y0193143D01*
X0149041Y0183143D01*
X0148600Y0182077D01*
X0148600Y0160923D01*
X0149041Y0159857D01*
X0149857Y0159041D01*
X0149857Y0159041D01*
X0162499Y0146400D01*
X0159470Y0146400D01*
X0157470Y0144400D01*
X0145530Y0144400D01*
X0143530Y0146400D01*
X0139470Y0146400D01*
X0136600Y0143530D01*
X0136600Y0139470D01*
X0139470Y0136600D01*
X0143530Y0136600D01*
X0145530Y0138600D01*
X0148600Y0138600D01*
X0148600Y0100923D01*
X0149041Y0099857D01*
X0149857Y0099041D01*
X0154857Y0094041D01*
X0155923Y0093600D01*
X0156600Y0093600D01*
X0156600Y0092725D01*
X0157346Y0090924D01*
X0158724Y0089546D01*
X0160525Y0088800D01*
X0162475Y0088800D01*
X0164276Y0089546D01*
X0165654Y0090924D01*
X0166400Y0092725D01*
X0166400Y0100275D01*
X0165654Y0102076D01*
X0164276Y0103454D01*
X0162475Y0104200D01*
X0160525Y0104200D01*
X0158724Y0103454D01*
X0157346Y0102076D01*
X0156666Y0100435D01*
X0154400Y0102701D01*
X0154400Y0138600D01*
X0157470Y0138600D01*
X0159470Y0136600D01*
X0163530Y0136600D01*
X0166400Y0139470D01*
X0166400Y0142499D01*
X0173600Y0135299D01*
X0173600Y0133734D01*
X0172475Y0134200D01*
X0170525Y0134200D01*
X0168724Y0133454D01*
X0167346Y0132076D01*
X0166600Y0130275D01*
X0166600Y0122725D01*
X0167346Y0120924D01*
X0168724Y0119546D01*
X0170525Y0118800D01*
X0172475Y0118800D01*
X0173600Y0119266D01*
X0173600Y0115923D01*
X0174041Y0114857D01*
X0179857Y0109041D01*
X0180923Y0108600D01*
X0190299Y0108600D01*
X0193600Y0105299D01*
X0193600Y0103734D01*
X0192475Y0104200D01*
X0190525Y0104200D01*
X0188724Y0103454D01*
X0187346Y0102076D01*
X0186600Y0100275D01*
X0186600Y0092725D01*
X0187346Y0090924D01*
X0188724Y0089546D01*
X0190525Y0088800D01*
X0192475Y0088800D01*
X0193600Y0089266D01*
X0193600Y0085923D01*
X0194041Y0084857D01*
X0194857Y0084041D01*
X0199499Y0079400D01*
X0190530Y0079400D01*
X0188530Y0081400D01*
X0184470Y0081400D01*
X0184400Y0081330D01*
X0184400Y0089670D01*
X0185654Y0090924D01*
X0186400Y0092725D01*
X0186400Y0100275D01*
X0185654Y0102076D01*
X0184276Y0103454D01*
X0182475Y0104200D01*
X0180525Y0104200D01*
X0178724Y0103454D01*
X0177346Y0102076D01*
X0176600Y0100275D01*
X0176600Y0099400D01*
X0176400Y0099400D01*
X0176400Y0100275D01*
X0175654Y0102076D01*
X0174276Y0103454D01*
X0172475Y0104200D01*
X0170525Y0104200D01*
X0168724Y0103454D01*
X0167346Y0102076D01*
X0166600Y0100275D01*
X0166600Y0092725D01*
X0167346Y0090924D01*
X0168724Y0089546D01*
X0170525Y0088800D01*
X0172475Y0088800D01*
X0174276Y0089546D01*
X0175654Y0090924D01*
X0176400Y0092725D01*
X0176400Y0093600D01*
X0176600Y0093600D01*
X0176600Y0092725D01*
X0177346Y0090924D01*
X0178600Y0089670D01*
X0178600Y0070923D01*
X0179041Y0069857D01*
X0179499Y0069400D01*
X0165923Y0069400D01*
X0164857Y0068958D01*
X0162299Y0066400D01*
X0159470Y0066400D01*
X0157470Y0064400D01*
X0145530Y0064400D01*
X0143530Y0066400D01*
X0139470Y0066400D01*
X0136600Y0063530D01*
X0136600Y0059470D01*
X0139470Y0056600D01*
X0142499Y0056600D01*
X0139041Y0053143D01*
X0138600Y0052077D01*
X0138600Y0025530D01*
X0137586Y0024515D01*
X0134400Y0027701D01*
X0134400Y0067077D01*
X0133958Y0068143D01*
X0133143Y0068958D01*
X0128501Y0073600D01*
X0162470Y0073600D01*
X0164470Y0071600D01*
X0168530Y0071600D01*
X0171400Y0074470D01*
X0171400Y0078530D01*
X0168530Y0081400D01*
X0164470Y0081400D01*
X0162470Y0079400D01*
X0127701Y0079400D01*
X0124400Y0082701D01*
X0124400Y0127077D01*
X0123958Y0128143D01*
X0118958Y0133143D01*
X0118143Y0133958D01*
X0117077Y0134400D01*
X0095494Y0134400D01*
X0094261Y0135633D01*
X0092470Y0136375D01*
X0090530Y0136375D01*
X0088739Y0135633D01*
X0087367Y0134261D01*
X0086625Y0132470D01*
X0086625Y0130530D01*
X0087367Y0128739D01*
X0088739Y0127367D01*
X0090530Y0126625D01*
X0092470Y0126625D01*
X0094261Y0127367D01*
X0095494Y0128600D01*
X0115299Y0128600D01*
X0118600Y0125299D01*
X0118600Y0080923D01*
X0119041Y0079857D01*
X0119857Y0079041D01*
X0124499Y0074400D01*
X0095494Y0074400D01*
X0094261Y0075633D01*
X0092470Y0076375D01*
X0090530Y0076375D01*
X0088739Y0075633D01*
X0087367Y0074261D01*
X0086625Y0072470D01*
X0086625Y0070530D01*
X0087367Y0068739D01*
X0088739Y0067367D01*
X0090530Y0066625D01*
X0092470Y0066625D01*
X0094261Y0067367D01*
X0095494Y0068600D01*
X0125299Y0068600D01*
X0128600Y0065299D01*
X0128600Y0025923D01*
X0129041Y0024857D01*
X0134041Y0019857D01*
X0134857Y0019041D01*
X0135923Y0018600D01*
X0137470Y0018600D01*
X0139470Y0016600D01*
X0143530Y0016600D01*
X0146400Y0019470D01*
X0146400Y0023530D01*
X0144400Y0025530D01*
X0144400Y0050299D01*
X0147701Y0053600D01*
X0177077Y0053600D01*
X0178143Y0054041D01*
X0180701Y0056600D01*
X0183530Y0056600D01*
X0186400Y0059470D01*
X0186400Y0063530D01*
X0186330Y0063600D01*
X0209077Y0063600D01*
X0208724Y0063454D01*
X0207346Y0062076D01*
X0206600Y0060275D01*
X0206600Y0052725D01*
X0207346Y0050924D01*
X0208724Y0049546D01*
X0209797Y0049102D01*
X0214041Y0044857D01*
X0214857Y0044041D01*
X0215923Y0043600D01*
X0287077Y0043600D01*
X0288143Y0044041D01*
X0293143Y0049041D01*
X0293203Y0049102D01*
X0294276Y0049546D01*
X0295654Y0050924D01*
X0296400Y0052725D01*
X0296400Y0060275D01*
X0295654Y0062076D01*
X0294276Y0063454D01*
X0293923Y0063600D01*
X0319077Y0063600D01*
X0318724Y0063454D01*
X0317346Y0062076D01*
X0316600Y0060275D01*
X0316600Y0052725D01*
X0317346Y0050924D01*
X0318724Y0049546D01*
X0320525Y0048800D01*
X0322475Y0048800D01*
X0324276Y0049546D01*
X0325654Y0050924D01*
X0326400Y0052725D01*
X0326400Y0060275D01*
X0325654Y0062076D01*
X0324276Y0063454D01*
X0323923Y0063600D01*
X0325299Y0063600D01*
X0327193Y0061706D01*
X0326600Y0060275D01*
X0326600Y0052725D01*
X0327346Y0050924D01*
X0328724Y0049546D01*
X0330525Y0048800D01*
X0332475Y0048800D01*
X0334276Y0049546D01*
X0335654Y0050924D01*
X0336400Y0052725D01*
X0336400Y0060275D01*
X0335654Y0062076D01*
X0334276Y0063454D01*
X0333203Y0063898D01*
X0333143Y0063958D01*
X0328958Y0068143D01*
X0328143Y0068958D01*
X0327077Y0069400D01*
X0277701Y0069400D01*
X0273958Y0073143D01*
X0273501Y0073600D01*
X0276640Y0073600D01*
X0276753Y0073328D01*
X0278328Y0071753D01*
X0280386Y0070900D01*
X0282614Y0070900D01*
X0284672Y0071753D01*
X0286247Y0073328D01*
X0287100Y0075386D01*
X0287100Y0077614D01*
X0286247Y0079672D01*
X0284672Y0081247D01*
X0282614Y0082100D01*
X0280386Y0082100D01*
X0278328Y0081247D01*
X0276753Y0079672D01*
X0276640Y0079400D01*
X0237701Y0079400D01*
X0233958Y0083143D01*
X0233143Y0083958D01*
X0232077Y0084400D01*
X0202701Y0084400D01*
X0199400Y0087701D01*
X0199400Y0107077D01*
X0198958Y0108143D01*
X0193958Y0113143D01*
X0193143Y0113958D01*
X0192077Y0114400D01*
X0182701Y0114400D01*
X0179400Y0117701D01*
X0179400Y0119266D01*
X0180525Y0118800D01*
X0182475Y0118800D01*
X0184276Y0119546D01*
X0185654Y0120924D01*
X0186400Y0122725D01*
X0186400Y0123600D01*
X0186600Y0123600D01*
X0186600Y0122725D01*
X0187346Y0120924D01*
X0188724Y0119546D01*
X0190525Y0118800D01*
X0192475Y0118800D01*
X0194276Y0119546D01*
X0195654Y0120924D01*
X0196400Y0122725D01*
X0196400Y0123600D01*
X0260299Y0123600D01*
X0269041Y0114857D01*
X0269499Y0114400D01*
X0260530Y0114400D01*
X0258530Y0116400D01*
X0254470Y0116400D01*
X0251600Y0113530D01*
X0251600Y0109470D01*
X0254470Y0106600D01*
X0258530Y0106600D01*
X0260530Y0108600D01*
X0350299Y0108600D01*
X0358600Y0100299D01*
X0358600Y0063330D01*
X0357346Y0062076D01*
X0356600Y0060275D01*
X0356600Y0052725D01*
X0357193Y0051294D01*
X0355299Y0049400D01*
X0353923Y0049400D01*
X0354276Y0049546D01*
X0355654Y0050924D01*
X0356400Y0052725D01*
X0356400Y0060275D01*
X0355654Y0062076D01*
X0354276Y0063454D01*
X0352475Y0064200D01*
X0350525Y0064200D01*
X0348724Y0063454D01*
X0347346Y0062076D01*
X0346600Y0060275D01*
X0346600Y0052725D01*
X0347346Y0050924D01*
X0348724Y0049546D01*
X0349077Y0049400D01*
X0347701Y0049400D01*
X0345807Y0051294D01*
X0346400Y0052725D01*
X0346400Y0060275D01*
X0345654Y0062076D01*
X0344276Y0063454D01*
X0342475Y0064200D01*
X0340525Y0064200D01*
X0338724Y0063454D01*
X0337346Y0062076D01*
X0336600Y0060275D01*
X0336600Y0052725D01*
X0337346Y0050924D01*
X0338724Y0049546D01*
X0339797Y0049102D01*
X0344041Y0044857D01*
X0344857Y0044041D01*
X0345923Y0043600D01*
X0357077Y0043600D01*
X0358143Y0044041D01*
X0363143Y0049041D01*
X0363203Y0049102D01*
X0364276Y0049546D01*
X0365654Y0050924D01*
X0366400Y0052725D01*
X0366400Y0060275D01*
X0365654Y0062076D01*
X0364400Y0063330D01*
X0364400Y0102077D01*
X0363958Y0103143D01*
X0363143Y0103958D01*
X0353143Y0113958D01*
X0352077Y0114400D01*
X0328501Y0114400D01*
X0335114Y0121013D01*
X0335386Y0120900D01*
X0337614Y0120900D01*
X0339672Y0121753D01*
X0341247Y0123328D01*
X0342100Y0125386D01*
X0342100Y0127614D01*
X0341247Y0129672D01*
X0339672Y0131247D01*
X0339400Y0131360D01*
X0339400Y0139266D01*
X0340525Y0138800D01*
X0342475Y0138800D01*
X0344276Y0139546D01*
X0345654Y0140924D01*
X0346400Y0142725D01*
X0346400Y0150275D01*
X0345807Y0151706D01*
X0347701Y0153600D01*
X0349077Y0153600D01*
X0348724Y0153454D01*
X0347346Y0152076D01*
X0346600Y0150275D01*
X0346600Y0142725D01*
X0347346Y0140924D01*
X0348724Y0139546D01*
X0350525Y0138800D01*
X0352475Y0138800D01*
X0354276Y0139546D01*
X0355654Y0140924D01*
X0356400Y0142725D01*
X0356400Y0150275D01*
X0355654Y0152076D01*
X0354276Y0153454D01*
X0353923Y0153600D01*
X0358600Y0153600D01*
X0358600Y0153330D01*
X0357346Y0152076D01*
X0356600Y0150275D01*
X0356600Y0142725D01*
X0357346Y0140924D01*
X0358724Y0139546D01*
X0360525Y0138800D01*
X0362475Y0138800D01*
X0364276Y0139546D01*
X0365654Y0140924D01*
X0366400Y0142725D01*
X0366400Y0150275D01*
X0365654Y0152076D01*
X0364400Y0153330D01*
X0364456Y0153274D02*
X0368544Y0153274D01*
X0368724Y0153454D02*
X0367346Y0152076D01*
X0366600Y0150275D01*
X0366600Y0142725D01*
X0367346Y0140924D01*
X0368724Y0139546D01*
X0370525Y0138800D01*
X0372475Y0138800D01*
X0374276Y0139546D01*
X0375654Y0140924D01*
X0376400Y0142725D01*
X0376400Y0150275D01*
X0375654Y0152076D01*
X0374276Y0153454D01*
X0372475Y0154200D01*
X0370525Y0154200D01*
X0368724Y0153454D01*
X0367546Y0152275D02*
X0365454Y0152275D01*
X0365985Y0151277D02*
X0367015Y0151277D01*
X0366601Y0150278D02*
X0366399Y0150278D01*
X0366400Y0149280D02*
X0366600Y0149280D01*
X0366600Y0148281D02*
X0366400Y0148281D01*
X0366400Y0147283D02*
X0366600Y0147283D01*
X0366600Y0146284D02*
X0366400Y0146284D01*
X0366400Y0145286D02*
X0366600Y0145286D01*
X0366600Y0144287D02*
X0366400Y0144287D01*
X0366400Y0143289D02*
X0366600Y0143289D01*
X0366780Y0142290D02*
X0366220Y0142290D01*
X0365806Y0141292D02*
X0367194Y0141292D01*
X0367977Y0140293D02*
X0365023Y0140293D01*
X0363669Y0139295D02*
X0369331Y0139295D01*
X0373669Y0139295D02*
X0378600Y0139295D01*
X0378600Y0139670D02*
X0378600Y0067701D01*
X0374314Y0063415D01*
X0374276Y0063454D01*
X0372475Y0064200D01*
X0370525Y0064200D01*
X0368724Y0063454D01*
X0367346Y0062076D01*
X0366600Y0060275D01*
X0366600Y0052725D01*
X0367346Y0050924D01*
X0368724Y0049546D01*
X0370525Y0048800D01*
X0372475Y0048800D01*
X0374276Y0049546D01*
X0375654Y0050924D01*
X0376400Y0052725D01*
X0376400Y0057299D01*
X0376600Y0057499D01*
X0376600Y0052725D01*
X0377346Y0050924D01*
X0378724Y0049546D01*
X0380525Y0048800D01*
X0382475Y0048800D01*
X0384276Y0049546D01*
X0385654Y0050924D01*
X0386400Y0052725D01*
X0386400Y0060275D01*
X0385654Y0062076D01*
X0384276Y0063454D01*
X0383059Y0063958D01*
X0383958Y0064857D01*
X0384400Y0065923D01*
X0384400Y0139670D01*
X0385654Y0140924D01*
X0386400Y0142725D01*
X0386400Y0150275D01*
X0385654Y0152076D01*
X0384276Y0153454D01*
X0382475Y0154200D01*
X0380525Y0154200D01*
X0378724Y0153454D01*
X0377346Y0152076D01*
X0376600Y0150275D01*
X0376600Y0142725D01*
X0377346Y0140924D01*
X0378600Y0139670D01*
X0377977Y0140293D02*
X0375023Y0140293D01*
X0375806Y0141292D02*
X0377194Y0141292D01*
X0376780Y0142290D02*
X0376220Y0142290D01*
X0376400Y0143289D02*
X0376600Y0143289D01*
X0376600Y0144287D02*
X0376400Y0144287D01*
X0376400Y0145286D02*
X0376600Y0145286D01*
X0376600Y0146284D02*
X0376400Y0146284D01*
X0376400Y0147283D02*
X0376600Y0147283D01*
X0376600Y0148281D02*
X0376400Y0148281D01*
X0376400Y0149280D02*
X0376600Y0149280D01*
X0376601Y0150278D02*
X0376399Y0150278D01*
X0375985Y0151277D02*
X0377015Y0151277D01*
X0377546Y0152275D02*
X0375454Y0152275D01*
X0374456Y0153274D02*
X0378544Y0153274D01*
X0384456Y0153274D02*
X0398101Y0153274D01*
X0398101Y0152275D02*
X0385454Y0152275D01*
X0385985Y0151277D02*
X0398101Y0151277D01*
X0398101Y0150278D02*
X0386399Y0150278D01*
X0386400Y0149280D02*
X0398101Y0149280D01*
X0398101Y0148281D02*
X0386400Y0148281D01*
X0386400Y0147283D02*
X0398101Y0147283D01*
X0398101Y0146284D02*
X0386400Y0146284D01*
X0386400Y0145286D02*
X0398101Y0145286D01*
X0398101Y0144287D02*
X0386400Y0144287D01*
X0386400Y0143289D02*
X0398101Y0143289D01*
X0398101Y0142290D02*
X0386220Y0142290D01*
X0385806Y0141292D02*
X0398101Y0141292D01*
X0398101Y0140293D02*
X0385023Y0140293D01*
X0384400Y0139295D02*
X0398101Y0139295D01*
X0398101Y0138296D02*
X0384400Y0138296D01*
X0384400Y0137298D02*
X0398101Y0137298D01*
X0398101Y0136299D02*
X0384400Y0136299D01*
X0384400Y0135301D02*
X0398101Y0135301D01*
X0398101Y0134302D02*
X0384400Y0134302D01*
X0384400Y0133303D02*
X0398101Y0133303D01*
X0398101Y0132305D02*
X0384400Y0132305D01*
X0384400Y0131306D02*
X0398101Y0131306D01*
X0398101Y0130308D02*
X0384400Y0130308D01*
X0384400Y0129309D02*
X0398101Y0129309D01*
X0398101Y0128311D02*
X0384400Y0128311D01*
X0384400Y0127312D02*
X0398101Y0127312D01*
X0398101Y0126314D02*
X0384400Y0126314D01*
X0384400Y0125315D02*
X0398101Y0125315D01*
X0398101Y0124317D02*
X0384400Y0124317D01*
X0384400Y0123318D02*
X0398101Y0123318D01*
X0398101Y0122320D02*
X0384400Y0122320D01*
X0384400Y0121321D02*
X0398101Y0121321D01*
X0398101Y0120323D02*
X0384400Y0120323D01*
X0384400Y0119324D02*
X0398101Y0119324D01*
X0398101Y0118326D02*
X0384400Y0118326D01*
X0384400Y0117327D02*
X0398101Y0117327D01*
X0398101Y0116329D02*
X0384400Y0116329D01*
X0384400Y0115330D02*
X0398101Y0115330D01*
X0398101Y0114332D02*
X0384400Y0114332D01*
X0384400Y0113333D02*
X0398101Y0113333D01*
X0398101Y0112335D02*
X0384400Y0112335D01*
X0384400Y0111336D02*
X0398101Y0111336D01*
X0398101Y0110338D02*
X0384400Y0110338D01*
X0384400Y0109339D02*
X0398101Y0109339D01*
X0398101Y0108341D02*
X0384400Y0108341D01*
X0384400Y0107342D02*
X0398101Y0107342D01*
X0398101Y0106344D02*
X0384400Y0106344D01*
X0384400Y0105345D02*
X0398101Y0105345D01*
X0398101Y0104347D02*
X0384400Y0104347D01*
X0384400Y0103348D02*
X0398101Y0103348D01*
X0398101Y0102350D02*
X0384400Y0102350D01*
X0384400Y0101351D02*
X0398101Y0101351D01*
X0398101Y0100353D02*
X0384400Y0100353D01*
X0384400Y0099354D02*
X0398101Y0099354D01*
X0398101Y0098356D02*
X0384400Y0098356D01*
X0384400Y0097357D02*
X0398101Y0097357D01*
X0398101Y0096359D02*
X0384400Y0096359D01*
X0384400Y0095360D02*
X0398101Y0095360D01*
X0398101Y0094362D02*
X0384400Y0094362D01*
X0384400Y0093363D02*
X0398101Y0093363D01*
X0398101Y0092365D02*
X0384400Y0092365D01*
X0384400Y0091366D02*
X0398101Y0091366D01*
X0398101Y0090368D02*
X0384400Y0090368D01*
X0384400Y0089369D02*
X0398101Y0089369D01*
X0398101Y0088370D02*
X0384400Y0088370D01*
X0384400Y0087372D02*
X0398101Y0087372D01*
X0398101Y0086373D02*
X0384400Y0086373D01*
X0384400Y0085375D02*
X0398101Y0085375D01*
X0398101Y0084376D02*
X0384400Y0084376D01*
X0384400Y0083378D02*
X0398101Y0083378D01*
X0398101Y0082379D02*
X0384400Y0082379D01*
X0384400Y0081381D02*
X0398101Y0081381D01*
X0398101Y0080382D02*
X0384400Y0080382D01*
X0384400Y0079384D02*
X0398101Y0079384D01*
X0398101Y0078385D02*
X0384400Y0078385D01*
X0384400Y0077387D02*
X0398101Y0077387D01*
X0398101Y0076388D02*
X0384400Y0076388D01*
X0384400Y0075390D02*
X0398101Y0075390D01*
X0398101Y0074391D02*
X0384400Y0074391D01*
X0384400Y0073393D02*
X0398101Y0073393D01*
X0398101Y0072394D02*
X0384400Y0072394D01*
X0384400Y0071396D02*
X0398101Y0071396D01*
X0398101Y0070397D02*
X0384400Y0070397D01*
X0384400Y0069399D02*
X0398101Y0069399D01*
X0398101Y0068400D02*
X0384400Y0068400D01*
X0384400Y0067402D02*
X0398101Y0067402D01*
X0398101Y0066403D02*
X0384400Y0066403D01*
X0384185Y0065405D02*
X0398101Y0065405D01*
X0398101Y0064406D02*
X0383507Y0064406D01*
X0384322Y0063408D02*
X0398101Y0063408D01*
X0398101Y0062409D02*
X0385320Y0062409D01*
X0385929Y0061411D02*
X0398101Y0061411D01*
X0398101Y0060412D02*
X0386343Y0060412D01*
X0386400Y0059414D02*
X0398101Y0059414D01*
X0398101Y0058415D02*
X0386400Y0058415D01*
X0386400Y0057417D02*
X0398101Y0057417D01*
X0398101Y0056418D02*
X0386400Y0056418D01*
X0386400Y0055420D02*
X0398101Y0055420D01*
X0398101Y0054421D02*
X0386400Y0054421D01*
X0386400Y0053423D02*
X0398101Y0053423D01*
X0398101Y0052424D02*
X0386275Y0052424D01*
X0385862Y0051426D02*
X0398101Y0051426D01*
X0398101Y0050427D02*
X0385157Y0050427D01*
X0383992Y0049429D02*
X0398101Y0049429D01*
X0398101Y0048430D02*
X0362531Y0048430D01*
X0361533Y0047432D02*
X0398101Y0047432D01*
X0398101Y0046433D02*
X0360534Y0046433D01*
X0359536Y0045434D02*
X0398101Y0045434D01*
X0398101Y0044436D02*
X0358537Y0044436D01*
X0355327Y0049429D02*
X0353992Y0049429D01*
X0355157Y0050427D02*
X0356326Y0050427D01*
X0355862Y0051426D02*
X0357138Y0051426D01*
X0356725Y0052424D02*
X0356275Y0052424D01*
X0356400Y0053423D02*
X0356600Y0053423D01*
X0356600Y0054421D02*
X0356400Y0054421D01*
X0356400Y0055420D02*
X0356600Y0055420D01*
X0356600Y0056418D02*
X0356400Y0056418D01*
X0356400Y0057417D02*
X0356600Y0057417D01*
X0356600Y0058415D02*
X0356400Y0058415D01*
X0356400Y0059414D02*
X0356600Y0059414D01*
X0356657Y0060412D02*
X0356343Y0060412D01*
X0355929Y0061411D02*
X0357071Y0061411D01*
X0357680Y0062409D02*
X0355320Y0062409D01*
X0354322Y0063408D02*
X0358600Y0063408D01*
X0358600Y0064406D02*
X0332695Y0064406D01*
X0331696Y0065405D02*
X0358600Y0065405D01*
X0358600Y0066403D02*
X0330698Y0066403D01*
X0329699Y0067402D02*
X0358600Y0067402D01*
X0358600Y0068400D02*
X0328701Y0068400D01*
X0327080Y0069399D02*
X0358600Y0069399D01*
X0358600Y0070397D02*
X0276704Y0070397D01*
X0275705Y0071396D02*
X0279189Y0071396D01*
X0277686Y0072394D02*
X0274707Y0072394D01*
X0273708Y0073393D02*
X0276726Y0073393D01*
X0283811Y0071396D02*
X0304189Y0071396D01*
X0303328Y0071753D02*
X0305386Y0070900D01*
X0307614Y0070900D01*
X0309672Y0071753D01*
X0311247Y0073328D01*
X0312100Y0075386D01*
X0312100Y0077614D01*
X0311247Y0079672D01*
X0309672Y0081247D01*
X0307614Y0082100D01*
X0305386Y0082100D01*
X0303328Y0081247D01*
X0301753Y0079672D01*
X0300900Y0077614D01*
X0300900Y0075386D01*
X0301753Y0073328D01*
X0303328Y0071753D01*
X0302686Y0072394D02*
X0285314Y0072394D01*
X0286274Y0073393D02*
X0301726Y0073393D01*
X0301312Y0074391D02*
X0286688Y0074391D01*
X0287100Y0075390D02*
X0300900Y0075390D01*
X0300900Y0076388D02*
X0287100Y0076388D01*
X0287100Y0077387D02*
X0300900Y0077387D01*
X0301220Y0078385D02*
X0286780Y0078385D01*
X0286367Y0079384D02*
X0301633Y0079384D01*
X0302463Y0080382D02*
X0285537Y0080382D01*
X0284350Y0081381D02*
X0303650Y0081381D01*
X0309350Y0081381D02*
X0335355Y0081381D01*
X0335329Y0081377D02*
X0334581Y0081134D01*
X0333879Y0080776D01*
X0333243Y0080314D01*
X0332686Y0079757D01*
X0332224Y0079121D01*
X0331866Y0078419D01*
X0331623Y0077671D01*
X0331517Y0077000D01*
X0336000Y0077000D01*
X0336000Y0081483D01*
X0335329Y0081377D01*
X0336000Y0081381D02*
X0337000Y0081381D01*
X0337000Y0081483D02*
X0337000Y0077000D01*
X0336000Y0077000D01*
X0336000Y0076000D01*
X0331517Y0076000D01*
X0331623Y0075329D01*
X0331866Y0074581D01*
X0332224Y0073879D01*
X0332686Y0073243D01*
X0333243Y0072686D01*
X0333879Y0072224D01*
X0334581Y0071866D01*
X0335329Y0071623D01*
X0336000Y0071517D01*
X0336000Y0076000D01*
X0337000Y0076000D01*
X0337000Y0077000D01*
X0341483Y0077000D01*
X0341377Y0077671D01*
X0341134Y0078419D01*
X0340776Y0079121D01*
X0340314Y0079757D01*
X0339757Y0080314D01*
X0339121Y0080776D01*
X0338419Y0081134D01*
X0337671Y0081377D01*
X0337000Y0081483D01*
X0337645Y0081381D02*
X0358600Y0081381D01*
X0358600Y0082379D02*
X0234722Y0082379D01*
X0235720Y0081381D02*
X0278650Y0081381D01*
X0277463Y0080382D02*
X0236719Y0080382D01*
X0233723Y0083378D02*
X0358600Y0083378D01*
X0358600Y0084376D02*
X0232134Y0084376D01*
X0201726Y0085375D02*
X0358600Y0085375D01*
X0358600Y0086373D02*
X0200728Y0086373D01*
X0199729Y0087372D02*
X0358600Y0087372D01*
X0358600Y0088370D02*
X0199400Y0088370D01*
X0199400Y0089369D02*
X0358600Y0089369D01*
X0358600Y0090368D02*
X0199400Y0090368D01*
X0199400Y0091366D02*
X0358600Y0091366D01*
X0358600Y0092365D02*
X0199400Y0092365D01*
X0199400Y0093363D02*
X0358600Y0093363D01*
X0358600Y0094362D02*
X0199400Y0094362D01*
X0199400Y0095360D02*
X0358600Y0095360D01*
X0358600Y0096359D02*
X0338721Y0096359D01*
X0339672Y0096753D02*
X0341247Y0098328D01*
X0342100Y0100386D01*
X0342100Y0102614D01*
X0341247Y0104672D01*
X0339672Y0106247D01*
X0337614Y0107100D01*
X0335386Y0107100D01*
X0333328Y0106247D01*
X0331753Y0104672D01*
X0330900Y0102614D01*
X0330900Y0100386D01*
X0331753Y0098328D01*
X0333328Y0096753D01*
X0335386Y0095900D01*
X0337614Y0095900D01*
X0339672Y0096753D01*
X0340277Y0097357D02*
X0358600Y0097357D01*
X0358600Y0098356D02*
X0341259Y0098356D01*
X0341673Y0099354D02*
X0358600Y0099354D01*
X0358546Y0100353D02*
X0342086Y0100353D01*
X0342100Y0101351D02*
X0357548Y0101351D01*
X0356549Y0102350D02*
X0342100Y0102350D01*
X0341796Y0103348D02*
X0355551Y0103348D01*
X0354552Y0104347D02*
X0341382Y0104347D01*
X0340574Y0105345D02*
X0353554Y0105345D01*
X0352555Y0106344D02*
X0339440Y0106344D01*
X0333560Y0106344D02*
X0309440Y0106344D01*
X0309672Y0106247D02*
X0307614Y0107100D01*
X0305386Y0107100D01*
X0303328Y0106247D01*
X0301753Y0104672D01*
X0300900Y0102614D01*
X0300900Y0100386D01*
X0301753Y0098328D01*
X0303328Y0096753D01*
X0305386Y0095900D01*
X0307614Y0095900D01*
X0309672Y0096753D01*
X0311247Y0098328D01*
X0312100Y0100386D01*
X0312100Y0102614D01*
X0311247Y0104672D01*
X0309672Y0106247D01*
X0310574Y0105345D02*
X0332426Y0105345D01*
X0331618Y0104347D02*
X0311382Y0104347D01*
X0311796Y0103348D02*
X0331204Y0103348D01*
X0330900Y0102350D02*
X0312100Y0102350D01*
X0312100Y0101351D02*
X0330900Y0101351D01*
X0330914Y0100353D02*
X0312086Y0100353D01*
X0311673Y0099354D02*
X0331327Y0099354D01*
X0331741Y0098356D02*
X0311259Y0098356D01*
X0310277Y0097357D02*
X0332723Y0097357D01*
X0334279Y0096359D02*
X0308721Y0096359D01*
X0304279Y0096359D02*
X0283721Y0096359D01*
X0284672Y0096753D02*
X0286247Y0098328D01*
X0287100Y0100386D01*
X0287100Y0102614D01*
X0286247Y0104672D01*
X0284672Y0106247D01*
X0282614Y0107100D01*
X0280386Y0107100D01*
X0278328Y0106247D01*
X0276753Y0104672D01*
X0275900Y0102614D01*
X0275900Y0100386D01*
X0276753Y0098328D01*
X0278328Y0096753D01*
X0280386Y0095900D01*
X0282614Y0095900D01*
X0284672Y0096753D01*
X0285277Y0097357D02*
X0302723Y0097357D01*
X0301741Y0098356D02*
X0286259Y0098356D01*
X0286673Y0099354D02*
X0301327Y0099354D01*
X0300914Y0100353D02*
X0287086Y0100353D01*
X0287100Y0101351D02*
X0300900Y0101351D01*
X0300900Y0102350D02*
X0287100Y0102350D01*
X0286796Y0103348D02*
X0301204Y0103348D01*
X0301618Y0104347D02*
X0286382Y0104347D01*
X0285574Y0105345D02*
X0302426Y0105345D01*
X0303560Y0106344D02*
X0284440Y0106344D01*
X0278560Y0106344D02*
X0199400Y0106344D01*
X0199400Y0105345D02*
X0277426Y0105345D01*
X0276618Y0104347D02*
X0199400Y0104347D01*
X0199400Y0103348D02*
X0276204Y0103348D01*
X0275900Y0102350D02*
X0199400Y0102350D01*
X0199400Y0101351D02*
X0275900Y0101351D01*
X0275914Y0100353D02*
X0199400Y0100353D01*
X0199400Y0099354D02*
X0276327Y0099354D01*
X0276741Y0098356D02*
X0199400Y0098356D01*
X0199400Y0097357D02*
X0277723Y0097357D01*
X0279279Y0096359D02*
X0199400Y0096359D01*
X0189152Y0089369D02*
X0184400Y0089369D01*
X0184400Y0088370D02*
X0193600Y0088370D01*
X0193600Y0087372D02*
X0184400Y0087372D01*
X0184400Y0086373D02*
X0193600Y0086373D01*
X0193827Y0085375D02*
X0184400Y0085375D01*
X0184400Y0084376D02*
X0194522Y0084376D01*
X0195521Y0083378D02*
X0184400Y0083378D01*
X0184400Y0082379D02*
X0196519Y0082379D01*
X0197518Y0081381D02*
X0188549Y0081381D01*
X0189547Y0080382D02*
X0198516Y0080382D01*
X0184451Y0081381D02*
X0184400Y0081381D01*
X0178600Y0081381D02*
X0168549Y0081381D01*
X0169547Y0080382D02*
X0178600Y0080382D01*
X0178600Y0079384D02*
X0170546Y0079384D01*
X0171400Y0078385D02*
X0178600Y0078385D01*
X0178600Y0077387D02*
X0171400Y0077387D01*
X0171400Y0076388D02*
X0178600Y0076388D01*
X0178600Y0075390D02*
X0171400Y0075390D01*
X0171321Y0074391D02*
X0178600Y0074391D01*
X0178600Y0073393D02*
X0170322Y0073393D01*
X0169324Y0072394D02*
X0178600Y0072394D01*
X0178600Y0071396D02*
X0130705Y0071396D01*
X0129707Y0072394D02*
X0163676Y0072394D01*
X0162678Y0073393D02*
X0128708Y0073393D01*
X0123509Y0075390D02*
X0094504Y0075390D01*
X0094261Y0077367D02*
X0095633Y0078739D01*
X0096375Y0080530D01*
X0096375Y0082470D01*
X0095633Y0084261D01*
X0094261Y0085633D01*
X0092470Y0086375D01*
X0090530Y0086375D01*
X0088739Y0085633D01*
X0087367Y0084261D01*
X0086625Y0082470D01*
X0086625Y0080530D01*
X0087367Y0078739D01*
X0088739Y0077367D01*
X0090530Y0076625D01*
X0092470Y0076625D01*
X0094261Y0077367D01*
X0094281Y0077387D02*
X0121512Y0077387D01*
X0120513Y0078385D02*
X0095279Y0078385D01*
X0095900Y0079384D02*
X0119515Y0079384D01*
X0118824Y0080382D02*
X0096314Y0080382D01*
X0096375Y0081381D02*
X0118600Y0081381D01*
X0118600Y0082379D02*
X0096375Y0082379D01*
X0095999Y0083378D02*
X0118600Y0083378D01*
X0118600Y0084376D02*
X0095518Y0084376D01*
X0094519Y0085375D02*
X0118600Y0085375D01*
X0118600Y0086373D02*
X0092473Y0086373D01*
X0092470Y0086625D02*
X0094261Y0087367D01*
X0095633Y0088739D01*
X0096375Y0090530D01*
X0096375Y0092470D01*
X0095633Y0094261D01*
X0094261Y0095633D01*
X0092470Y0096375D01*
X0090530Y0096375D01*
X0088739Y0095633D01*
X0087367Y0094261D01*
X0086625Y0092470D01*
X0086625Y0090530D01*
X0087367Y0088739D01*
X0088739Y0087367D01*
X0090530Y0086625D01*
X0092470Y0086625D01*
X0094266Y0087372D02*
X0118600Y0087372D01*
X0118600Y0088370D02*
X0095264Y0088370D01*
X0095894Y0089369D02*
X0118600Y0089369D01*
X0118600Y0090368D02*
X0096307Y0090368D01*
X0096375Y0091366D02*
X0118600Y0091366D01*
X0118600Y0092365D02*
X0096375Y0092365D01*
X0096005Y0093363D02*
X0118600Y0093363D01*
X0118600Y0094362D02*
X0095532Y0094362D01*
X0094534Y0095360D02*
X0118600Y0095360D01*
X0118600Y0096359D02*
X0092509Y0096359D01*
X0092470Y0096625D02*
X0094261Y0097367D01*
X0095633Y0098739D01*
X0096375Y0100530D01*
X0096375Y0102470D01*
X0095633Y0104261D01*
X0094261Y0105633D01*
X0092470Y0106375D01*
X0090530Y0106375D01*
X0088739Y0105633D01*
X0087367Y0104261D01*
X0086625Y0102470D01*
X0086625Y0100530D01*
X0087367Y0098739D01*
X0088739Y0097367D01*
X0090530Y0096625D01*
X0092470Y0096625D01*
X0094237Y0097357D02*
X0118600Y0097357D01*
X0118600Y0098356D02*
X0095250Y0098356D01*
X0095888Y0099354D02*
X0118600Y0099354D01*
X0118600Y0100353D02*
X0096301Y0100353D01*
X0096375Y0101351D02*
X0118600Y0101351D01*
X0118600Y0102350D02*
X0096375Y0102350D01*
X0096011Y0103348D02*
X0118600Y0103348D01*
X0118600Y0104347D02*
X0095547Y0104347D01*
X0094549Y0105345D02*
X0118600Y0105345D01*
X0118600Y0106344D02*
X0092545Y0106344D01*
X0092470Y0106625D02*
X0094261Y0107367D01*
X0095633Y0108739D01*
X0096375Y0110530D01*
X0096375Y0112470D01*
X0095633Y0114261D01*
X0094261Y0115633D01*
X0092470Y0116375D01*
X0090530Y0116375D01*
X0088739Y0115633D01*
X0087367Y0114261D01*
X0086625Y0112470D01*
X0086625Y0110530D01*
X0087367Y0108739D01*
X0088739Y0107367D01*
X0090530Y0106625D01*
X0092470Y0106625D01*
X0094201Y0107342D02*
X0118600Y0107342D01*
X0118600Y0108341D02*
X0095235Y0108341D01*
X0095881Y0109339D02*
X0118600Y0109339D01*
X0118600Y0110338D02*
X0096295Y0110338D01*
X0096375Y0111336D02*
X0118600Y0111336D01*
X0118600Y0112335D02*
X0096375Y0112335D01*
X0096017Y0113333D02*
X0118600Y0113333D01*
X0118600Y0114332D02*
X0095562Y0114332D01*
X0094564Y0115330D02*
X0118600Y0115330D01*
X0118600Y0116329D02*
X0092581Y0116329D01*
X0092470Y0116625D02*
X0094261Y0117367D01*
X0095633Y0118739D01*
X0096375Y0120530D01*
X0096375Y0122470D01*
X0095633Y0124261D01*
X0094261Y0125633D01*
X0092470Y0126375D01*
X0090530Y0126375D01*
X0088739Y0125633D01*
X0087367Y0124261D01*
X0086625Y0122470D01*
X0086625Y0120530D01*
X0087367Y0118739D01*
X0088739Y0117367D01*
X0090530Y0116625D01*
X0092470Y0116625D01*
X0094165Y0117327D02*
X0118600Y0117327D01*
X0118600Y0118326D02*
X0095220Y0118326D01*
X0095875Y0119324D02*
X0118600Y0119324D01*
X0118600Y0120323D02*
X0096289Y0120323D01*
X0096375Y0121321D02*
X0118600Y0121321D01*
X0118600Y0122320D02*
X0096375Y0122320D01*
X0096023Y0123318D02*
X0118600Y0123318D01*
X0118600Y0124317D02*
X0095577Y0124317D01*
X0094579Y0125315D02*
X0118583Y0125315D01*
X0117585Y0126314D02*
X0092617Y0126314D01*
X0094129Y0127312D02*
X0116586Y0127312D01*
X0115588Y0128311D02*
X0095205Y0128311D01*
X0090383Y0126314D02*
X0032617Y0126314D01*
X0032470Y0126375D02*
X0030530Y0126375D01*
X0028739Y0125633D01*
X0027367Y0124261D01*
X0026625Y0122470D01*
X0026625Y0120530D01*
X0027367Y0118739D01*
X0028739Y0117367D01*
X0030530Y0116625D01*
X0032470Y0116625D01*
X0034261Y0117367D01*
X0035633Y0118739D01*
X0036375Y0120530D01*
X0036375Y0122470D01*
X0035633Y0124261D01*
X0034261Y0125633D01*
X0032470Y0126375D01*
X0032470Y0126625D02*
X0034261Y0127367D01*
X0035633Y0128739D01*
X0036375Y0130530D01*
X0036375Y0132470D01*
X0035633Y0134261D01*
X0034261Y0135633D01*
X0032470Y0136375D01*
X0030530Y0136375D01*
X0028739Y0135633D01*
X0027367Y0134261D01*
X0026625Y0132470D01*
X0026625Y0130530D01*
X0027367Y0128739D01*
X0028739Y0127367D01*
X0030530Y0126625D01*
X0032470Y0126625D01*
X0034129Y0127312D02*
X0088871Y0127312D01*
X0087795Y0128311D02*
X0035205Y0128311D01*
X0035869Y0129309D02*
X0087131Y0129309D01*
X0086717Y0130308D02*
X0036283Y0130308D01*
X0036375Y0131306D02*
X0086625Y0131306D01*
X0086625Y0132305D02*
X0036375Y0132305D01*
X0036029Y0133303D02*
X0086971Y0133303D01*
X0087408Y0134302D02*
X0035592Y0134302D01*
X0034593Y0135301D02*
X0088407Y0135301D01*
X0088907Y0137298D02*
X0034093Y0137298D01*
X0034261Y0137367D02*
X0035633Y0138739D01*
X0036375Y0140530D01*
X0036375Y0142470D01*
X0035633Y0144261D01*
X0034261Y0145633D01*
X0032470Y0146375D01*
X0030530Y0146375D01*
X0028739Y0145633D01*
X0027367Y0144261D01*
X0026625Y0142470D01*
X0026625Y0140530D01*
X0027367Y0138739D01*
X0028739Y0137367D01*
X0030530Y0136625D01*
X0032470Y0136625D01*
X0034261Y0137367D01*
X0035190Y0138296D02*
X0087810Y0138296D01*
X0087367Y0138739D02*
X0088739Y0137367D01*
X0090530Y0136625D01*
X0092470Y0136625D01*
X0094261Y0137367D01*
X0095633Y0138739D01*
X0096375Y0140530D01*
X0096375Y0142470D01*
X0095633Y0144261D01*
X0094261Y0145633D01*
X0092470Y0146375D01*
X0090530Y0146375D01*
X0088739Y0145633D01*
X0087367Y0144261D01*
X0086625Y0142470D01*
X0086625Y0140530D01*
X0087367Y0138739D01*
X0087137Y0139295D02*
X0035863Y0139295D01*
X0036277Y0140293D02*
X0086723Y0140293D01*
X0086625Y0141292D02*
X0036375Y0141292D01*
X0036375Y0142290D02*
X0086625Y0142290D01*
X0086964Y0143289D02*
X0036036Y0143289D01*
X0035607Y0144287D02*
X0087393Y0144287D01*
X0088392Y0145286D02*
X0034608Y0145286D01*
X0034057Y0147283D02*
X0088943Y0147283D01*
X0088739Y0147367D02*
X0090530Y0146625D01*
X0092470Y0146625D01*
X0094261Y0147367D01*
X0095633Y0148739D01*
X0096375Y0150530D01*
X0096375Y0152470D01*
X0095633Y0154261D01*
X0094261Y0155633D01*
X0092470Y0156375D01*
X0090530Y0156375D01*
X0088739Y0155633D01*
X0087367Y0154261D01*
X0086625Y0152470D01*
X0086625Y0150530D01*
X0087367Y0148739D01*
X0088739Y0147367D01*
X0087825Y0148281D02*
X0035175Y0148281D01*
X0035633Y0148739D02*
X0036375Y0150530D01*
X0036375Y0152470D01*
X0035633Y0154261D01*
X0034261Y0155633D01*
X0032470Y0156375D01*
X0030530Y0156375D01*
X0028739Y0155633D01*
X0027367Y0154261D01*
X0026625Y0152470D01*
X0026625Y0150530D01*
X0027367Y0148739D01*
X0028739Y0147367D01*
X0030530Y0146625D01*
X0032470Y0146625D01*
X0034261Y0147367D01*
X0035633Y0148739D01*
X0035857Y0149280D02*
X0087143Y0149280D01*
X0086730Y0150278D02*
X0036270Y0150278D01*
X0036375Y0151277D02*
X0086625Y0151277D01*
X0086625Y0152275D02*
X0036375Y0152275D01*
X0036042Y0153274D02*
X0086958Y0153274D01*
X0087378Y0154272D02*
X0035622Y0154272D01*
X0034623Y0155271D02*
X0088377Y0155271D01*
X0088979Y0157268D02*
X0034021Y0157268D01*
X0034261Y0157367D02*
X0035633Y0158739D01*
X0036375Y0160530D01*
X0036375Y0162470D01*
X0035633Y0164261D01*
X0034261Y0165633D01*
X0032470Y0166375D01*
X0030530Y0166375D01*
X0028739Y0165633D01*
X0027367Y0164261D01*
X0026625Y0162470D01*
X0026625Y0160530D01*
X0027367Y0158739D01*
X0028739Y0157367D01*
X0030530Y0156625D01*
X0032470Y0156625D01*
X0034261Y0157367D01*
X0035160Y0158266D02*
X0087840Y0158266D01*
X0087367Y0158739D02*
X0088739Y0157367D01*
X0090530Y0156625D01*
X0092470Y0156625D01*
X0094261Y0157367D01*
X0095633Y0158739D01*
X0096375Y0160530D01*
X0096375Y0162470D01*
X0095633Y0164261D01*
X0094261Y0165633D01*
X0092470Y0166375D01*
X0090530Y0166375D01*
X0088739Y0165633D01*
X0087367Y0164261D01*
X0086625Y0162470D01*
X0086625Y0160530D01*
X0087367Y0158739D01*
X0087149Y0159265D02*
X0035851Y0159265D01*
X0036264Y0160263D02*
X0086736Y0160263D01*
X0086625Y0161262D02*
X0036375Y0161262D01*
X0036375Y0162260D02*
X0086625Y0162260D01*
X0086952Y0163259D02*
X0036048Y0163259D01*
X0035634Y0164257D02*
X0087366Y0164257D01*
X0088362Y0165256D02*
X0034638Y0165256D01*
X0035145Y0166625D02*
X0036375Y0167855D01*
X0036375Y0175145D01*
X0035145Y0176375D01*
X0033760Y0176375D01*
X0034672Y0176753D01*
X0036247Y0178328D01*
X0037100Y0180386D01*
X0037100Y0182614D01*
X0036247Y0184672D01*
X0034672Y0186247D01*
X0032614Y0187100D01*
X0030386Y0187100D01*
X0028328Y0186247D01*
X0026753Y0184672D01*
X0025900Y0182614D01*
X0025900Y0180386D01*
X0026753Y0178328D01*
X0028328Y0176753D01*
X0029240Y0176375D01*
X0027855Y0176375D01*
X0026625Y0175145D01*
X0026625Y0167855D01*
X0027855Y0166625D01*
X0035145Y0166625D01*
X0035772Y0167253D02*
X0089015Y0167253D01*
X0088739Y0167367D02*
X0090530Y0166625D01*
X0092470Y0166625D01*
X0094261Y0167367D01*
X0095633Y0168739D01*
X0096375Y0170530D01*
X0096375Y0172470D01*
X0095633Y0174261D01*
X0094261Y0175633D01*
X0093115Y0176108D01*
X0094672Y0176753D01*
X0096247Y0178328D01*
X0097100Y0180386D01*
X0097100Y0182614D01*
X0096247Y0184672D01*
X0094672Y0186247D01*
X0092614Y0187100D01*
X0090386Y0187100D01*
X0088328Y0186247D01*
X0086753Y0184672D01*
X0085900Y0182614D01*
X0085900Y0180386D01*
X0086753Y0178328D01*
X0088328Y0176753D01*
X0089885Y0176108D01*
X0088739Y0175633D01*
X0087367Y0174261D01*
X0086625Y0172470D01*
X0086625Y0170530D01*
X0087367Y0168739D01*
X0088739Y0167367D01*
X0087855Y0168251D02*
X0036375Y0168251D01*
X0036375Y0169250D02*
X0087156Y0169250D01*
X0086742Y0170248D02*
X0036375Y0170248D01*
X0036375Y0171247D02*
X0086625Y0171247D01*
X0086625Y0172245D02*
X0036375Y0172245D01*
X0036375Y0173244D02*
X0086946Y0173244D01*
X0087360Y0174242D02*
X0036375Y0174242D01*
X0036278Y0175241D02*
X0088347Y0175241D01*
X0089567Y0176239D02*
X0035280Y0176239D01*
X0035158Y0177238D02*
X0087842Y0177238D01*
X0086844Y0178237D02*
X0036156Y0178237D01*
X0036623Y0179235D02*
X0086377Y0179235D01*
X0085963Y0180234D02*
X0037037Y0180234D01*
X0037100Y0181232D02*
X0085900Y0181232D01*
X0085900Y0182231D02*
X0037100Y0182231D01*
X0036845Y0183229D02*
X0086155Y0183229D01*
X0086568Y0184228D02*
X0036432Y0184228D01*
X0035693Y0185226D02*
X0087306Y0185226D01*
X0088305Y0186225D02*
X0034695Y0186225D01*
X0028305Y0186225D02*
X0003600Y0186225D01*
X0003600Y0187223D02*
X0153122Y0187223D01*
X0152123Y0186225D02*
X0094695Y0186225D01*
X0095693Y0185226D02*
X0139145Y0185226D01*
X0139719Y0185800D02*
X0137200Y0183281D01*
X0137200Y0181800D01*
X0141200Y0181800D01*
X0141200Y0185800D01*
X0139719Y0185800D01*
X0141200Y0185226D02*
X0141800Y0185226D01*
X0141800Y0185800D02*
X0141800Y0181800D01*
X0141200Y0181800D01*
X0141200Y0181200D01*
X0137200Y0181200D01*
X0137200Y0179719D01*
X0139719Y0177200D01*
X0141200Y0177200D01*
X0141200Y0181200D01*
X0141800Y0181200D01*
X0141800Y0181800D01*
X0145800Y0181800D01*
X0145800Y0183281D01*
X0143281Y0185800D01*
X0141800Y0185800D01*
X0141800Y0184228D02*
X0141200Y0184228D01*
X0141200Y0183229D02*
X0141800Y0183229D01*
X0141800Y0182231D02*
X0141200Y0182231D01*
X0141200Y0181232D02*
X0097100Y0181232D01*
X0097100Y0182231D02*
X0137200Y0182231D01*
X0137200Y0183229D02*
X0096845Y0183229D01*
X0096432Y0184228D02*
X0138146Y0184228D01*
X0141800Y0181232D02*
X0148600Y0181232D01*
X0148600Y0180234D02*
X0145800Y0180234D01*
X0145800Y0179719D02*
X0145800Y0181200D01*
X0141800Y0181200D01*
X0141800Y0177200D01*
X0143281Y0177200D01*
X0145800Y0179719D01*
X0145316Y0179235D02*
X0148600Y0179235D01*
X0148600Y0178237D02*
X0144318Y0178237D01*
X0143319Y0177238D02*
X0148600Y0177238D01*
X0148600Y0176239D02*
X0093433Y0176239D01*
X0094653Y0175241D02*
X0148600Y0175241D01*
X0148600Y0174242D02*
X0095640Y0174242D01*
X0096054Y0173244D02*
X0148600Y0173244D01*
X0148600Y0172245D02*
X0096375Y0172245D01*
X0096375Y0171247D02*
X0148600Y0171247D01*
X0148600Y0170248D02*
X0096258Y0170248D01*
X0095844Y0169250D02*
X0148600Y0169250D01*
X0148600Y0168251D02*
X0095145Y0168251D01*
X0093985Y0167253D02*
X0148600Y0167253D01*
X0148600Y0166254D02*
X0092760Y0166254D01*
X0094638Y0165256D02*
X0148600Y0165256D01*
X0148600Y0164257D02*
X0095634Y0164257D01*
X0096048Y0163259D02*
X0148600Y0163259D01*
X0148600Y0162260D02*
X0096375Y0162260D01*
X0096375Y0161262D02*
X0148600Y0161262D01*
X0148873Y0160263D02*
X0096264Y0160263D01*
X0095851Y0159265D02*
X0149634Y0159265D01*
X0150633Y0158266D02*
X0095160Y0158266D01*
X0094021Y0157268D02*
X0151631Y0157268D01*
X0152630Y0156269D02*
X0092724Y0156269D01*
X0094623Y0155271D02*
X0153628Y0155271D01*
X0154627Y0154272D02*
X0095622Y0154272D01*
X0096042Y0153274D02*
X0155625Y0153274D01*
X0156624Y0152275D02*
X0096375Y0152275D01*
X0096375Y0151277D02*
X0157622Y0151277D01*
X0158621Y0150278D02*
X0096270Y0150278D01*
X0095857Y0149280D02*
X0159619Y0149280D01*
X0160618Y0148281D02*
X0095175Y0148281D01*
X0094057Y0147283D02*
X0161616Y0147283D01*
X0159355Y0146284D02*
X0143645Y0146284D01*
X0144644Y0145286D02*
X0158356Y0145286D01*
X0166400Y0142290D02*
X0166609Y0142290D01*
X0166400Y0141292D02*
X0167607Y0141292D01*
X0168606Y0140293D02*
X0166400Y0140293D01*
X0166224Y0139295D02*
X0169604Y0139295D01*
X0170603Y0138296D02*
X0165226Y0138296D01*
X0164227Y0137298D02*
X0171601Y0137298D01*
X0172600Y0136299D02*
X0154400Y0136299D01*
X0154400Y0135301D02*
X0173598Y0135301D01*
X0173600Y0134302D02*
X0154400Y0134302D01*
X0154400Y0133303D02*
X0159906Y0133303D01*
X0159849Y0133285D02*
X0159246Y0132978D01*
X0158699Y0132580D01*
X0158220Y0132101D01*
X0157822Y0131554D01*
X0157515Y0130951D01*
X0157306Y0130307D01*
X0157200Y0129638D01*
X0157200Y0126800D01*
X0161200Y0126800D01*
X0161200Y0133600D01*
X0161162Y0133600D01*
X0160493Y0133494D01*
X0159849Y0133285D01*
X0161200Y0133303D02*
X0161800Y0133303D01*
X0161800Y0133600D02*
X0161800Y0126800D01*
X0161200Y0126800D01*
X0161200Y0126200D01*
X0157200Y0126200D01*
X0157200Y0123362D01*
X0157306Y0122693D01*
X0157515Y0122049D01*
X0157822Y0121446D01*
X0158220Y0120899D01*
X0158699Y0120420D01*
X0159246Y0120022D01*
X0159849Y0119715D01*
X0160493Y0119506D01*
X0161162Y0119400D01*
X0161200Y0119400D01*
X0161200Y0126200D01*
X0161800Y0126200D01*
X0161800Y0126800D01*
X0165800Y0126800D01*
X0165800Y0129638D01*
X0165694Y0130307D01*
X0165485Y0130951D01*
X0165178Y0131554D01*
X0164780Y0132101D01*
X0164301Y0132580D01*
X0163754Y0132978D01*
X0163151Y0133285D01*
X0162507Y0133494D01*
X0161838Y0133600D01*
X0161800Y0133600D01*
X0161800Y0132305D02*
X0161200Y0132305D01*
X0161200Y0131306D02*
X0161800Y0131306D01*
X0161800Y0130308D02*
X0161200Y0130308D01*
X0161200Y0129309D02*
X0161800Y0129309D01*
X0161800Y0128311D02*
X0161200Y0128311D01*
X0161200Y0127312D02*
X0161800Y0127312D01*
X0161800Y0126314D02*
X0166600Y0126314D01*
X0165800Y0126200D02*
X0161800Y0126200D01*
X0161800Y0119400D01*
X0161838Y0119400D01*
X0162507Y0119506D01*
X0163151Y0119715D01*
X0163754Y0120022D01*
X0164301Y0120420D01*
X0164780Y0120899D01*
X0165178Y0121446D01*
X0165485Y0122049D01*
X0165694Y0122693D01*
X0165800Y0123362D01*
X0165800Y0126200D01*
X0165800Y0125315D02*
X0166600Y0125315D01*
X0166600Y0124317D02*
X0165800Y0124317D01*
X0165793Y0123318D02*
X0166600Y0123318D01*
X0166768Y0122320D02*
X0165573Y0122320D01*
X0165087Y0121321D02*
X0167182Y0121321D01*
X0167948Y0120323D02*
X0164167Y0120323D01*
X0161800Y0120323D02*
X0161200Y0120323D01*
X0161200Y0121321D02*
X0161800Y0121321D01*
X0161800Y0122320D02*
X0161200Y0122320D01*
X0161200Y0123318D02*
X0161800Y0123318D01*
X0161800Y0124317D02*
X0161200Y0124317D01*
X0161200Y0125315D02*
X0161800Y0125315D01*
X0161200Y0126314D02*
X0154400Y0126314D01*
X0154400Y0127312D02*
X0157200Y0127312D01*
X0157200Y0128311D02*
X0154400Y0128311D01*
X0154400Y0129309D02*
X0157200Y0129309D01*
X0157306Y0130308D02*
X0154400Y0130308D01*
X0154400Y0131306D02*
X0157696Y0131306D01*
X0158424Y0132305D02*
X0154400Y0132305D01*
X0154400Y0137298D02*
X0158773Y0137298D01*
X0157774Y0138296D02*
X0154400Y0138296D01*
X0148600Y0138296D02*
X0145226Y0138296D01*
X0144227Y0137298D02*
X0148600Y0137298D01*
X0148600Y0136299D02*
X0092653Y0136299D01*
X0094093Y0137298D02*
X0138773Y0137298D01*
X0137774Y0138296D02*
X0095190Y0138296D01*
X0095863Y0139295D02*
X0136776Y0139295D01*
X0136600Y0140293D02*
X0096277Y0140293D01*
X0096375Y0141292D02*
X0136600Y0141292D01*
X0136600Y0142290D02*
X0096375Y0142290D01*
X0096036Y0143289D02*
X0136600Y0143289D01*
X0137357Y0144287D02*
X0095607Y0144287D01*
X0094608Y0145286D02*
X0138356Y0145286D01*
X0139355Y0146284D02*
X0092689Y0146284D01*
X0090311Y0146284D02*
X0032689Y0146284D01*
X0030311Y0146284D02*
X0003600Y0146284D01*
X0003600Y0145286D02*
X0028392Y0145286D01*
X0027393Y0144287D02*
X0003600Y0144287D01*
X0003600Y0143289D02*
X0026964Y0143289D01*
X0026625Y0142290D02*
X0003600Y0142290D01*
X0003600Y0141292D02*
X0026625Y0141292D01*
X0026723Y0140293D02*
X0003600Y0140293D01*
X0003600Y0139295D02*
X0027137Y0139295D01*
X0027810Y0138296D02*
X0003600Y0138296D01*
X0003600Y0137298D02*
X0028907Y0137298D01*
X0030347Y0136299D02*
X0003600Y0136299D01*
X0003600Y0135301D02*
X0028407Y0135301D01*
X0027408Y0134302D02*
X0003600Y0134302D01*
X0003600Y0133303D02*
X0026971Y0133303D01*
X0026625Y0132305D02*
X0003600Y0132305D01*
X0003600Y0131306D02*
X0026625Y0131306D01*
X0026717Y0130308D02*
X0003600Y0130308D01*
X0003600Y0129309D02*
X0027131Y0129309D01*
X0027795Y0128311D02*
X0003600Y0128311D01*
X0003600Y0127312D02*
X0028871Y0127312D01*
X0030383Y0126314D02*
X0003600Y0126314D01*
X0003600Y0125315D02*
X0028421Y0125315D01*
X0027423Y0124317D02*
X0003600Y0124317D01*
X0003600Y0123318D02*
X0026977Y0123318D01*
X0026625Y0122320D02*
X0003600Y0122320D01*
X0003600Y0121321D02*
X0026625Y0121321D01*
X0026711Y0120323D02*
X0003600Y0120323D01*
X0003600Y0119324D02*
X0027125Y0119324D01*
X0027780Y0118326D02*
X0003600Y0118326D01*
X0003600Y0117327D02*
X0028835Y0117327D01*
X0028739Y0115633D02*
X0030530Y0116375D01*
X0032470Y0116375D01*
X0034261Y0115633D01*
X0035633Y0114261D01*
X0036375Y0112470D01*
X0036375Y0110530D01*
X0035633Y0108739D01*
X0034261Y0107367D01*
X0032470Y0106625D01*
X0030530Y0106625D01*
X0028739Y0107367D01*
X0027367Y0108739D01*
X0026625Y0110530D01*
X0026625Y0112470D01*
X0027367Y0114261D01*
X0028739Y0115633D01*
X0028436Y0115330D02*
X0003600Y0115330D01*
X0003600Y0114332D02*
X0027438Y0114332D01*
X0026983Y0113333D02*
X0003600Y0113333D01*
X0003600Y0112335D02*
X0026625Y0112335D01*
X0026625Y0111336D02*
X0003600Y0111336D01*
X0003600Y0110338D02*
X0026705Y0110338D01*
X0027119Y0109339D02*
X0003600Y0109339D01*
X0003600Y0108341D02*
X0027765Y0108341D01*
X0028799Y0107342D02*
X0003600Y0107342D01*
X0003600Y0106344D02*
X0030455Y0106344D01*
X0030530Y0106375D02*
X0028739Y0105633D01*
X0027367Y0104261D01*
X0026625Y0102470D01*
X0026625Y0100530D01*
X0027367Y0098739D01*
X0028739Y0097367D01*
X0030530Y0096625D01*
X0032470Y0096625D01*
X0034261Y0097367D01*
X0035633Y0098739D01*
X0036375Y0100530D01*
X0036375Y0102470D01*
X0035633Y0104261D01*
X0034261Y0105633D01*
X0032470Y0106375D01*
X0030530Y0106375D01*
X0032545Y0106344D02*
X0090455Y0106344D01*
X0088799Y0107342D02*
X0034201Y0107342D01*
X0035235Y0108341D02*
X0087765Y0108341D01*
X0087119Y0109339D02*
X0035881Y0109339D01*
X0036295Y0110338D02*
X0086705Y0110338D01*
X0086625Y0111336D02*
X0036375Y0111336D01*
X0036375Y0112335D02*
X0086625Y0112335D01*
X0086983Y0113333D02*
X0036017Y0113333D01*
X0035562Y0114332D02*
X0087438Y0114332D01*
X0088436Y0115330D02*
X0034564Y0115330D01*
X0034165Y0117327D02*
X0088835Y0117327D01*
X0087780Y0118326D02*
X0035220Y0118326D01*
X0035875Y0119324D02*
X0087125Y0119324D01*
X0086711Y0120323D02*
X0036289Y0120323D01*
X0036375Y0121321D02*
X0086625Y0121321D01*
X0086625Y0122320D02*
X0036375Y0122320D01*
X0036023Y0123318D02*
X0086977Y0123318D01*
X0087423Y0124317D02*
X0035577Y0124317D01*
X0034579Y0125315D02*
X0088421Y0125315D01*
X0090419Y0116329D02*
X0032581Y0116329D01*
X0030419Y0116329D02*
X0003600Y0116329D01*
X0003600Y0105345D02*
X0028451Y0105345D01*
X0027453Y0104347D02*
X0003600Y0104347D01*
X0003600Y0103348D02*
X0026989Y0103348D01*
X0026625Y0102350D02*
X0003600Y0102350D01*
X0003600Y0101351D02*
X0026625Y0101351D01*
X0026699Y0100353D02*
X0003600Y0100353D01*
X0003600Y0099354D02*
X0027112Y0099354D01*
X0027750Y0098356D02*
X0003600Y0098356D01*
X0003600Y0097357D02*
X0028763Y0097357D01*
X0028739Y0095633D02*
X0027367Y0094261D01*
X0026625Y0092470D01*
X0026625Y0090530D01*
X0027367Y0088739D01*
X0028739Y0087367D01*
X0030530Y0086625D01*
X0032470Y0086625D01*
X0034261Y0087367D01*
X0035633Y0088739D01*
X0036375Y0090530D01*
X0036375Y0092470D01*
X0035633Y0094261D01*
X0034261Y0095633D01*
X0032470Y0096375D01*
X0030530Y0096375D01*
X0028739Y0095633D01*
X0028466Y0095360D02*
X0003600Y0095360D01*
X0003600Y0094362D02*
X0027468Y0094362D01*
X0026995Y0093363D02*
X0003600Y0093363D01*
X0003600Y0092365D02*
X0026625Y0092365D01*
X0026625Y0091366D02*
X0003600Y0091366D01*
X0003600Y0090368D02*
X0026693Y0090368D01*
X0027106Y0089369D02*
X0003600Y0089369D01*
X0003600Y0088370D02*
X0027735Y0088370D01*
X0028734Y0087372D02*
X0003600Y0087372D01*
X0003600Y0086373D02*
X0030527Y0086373D01*
X0030530Y0086375D02*
X0028739Y0085633D01*
X0027367Y0084261D01*
X0026625Y0082470D01*
X0026625Y0080530D01*
X0027367Y0078739D01*
X0028739Y0077367D01*
X0030530Y0076625D01*
X0032470Y0076625D01*
X0034261Y0077367D01*
X0035633Y0078739D01*
X0036375Y0080530D01*
X0036375Y0082470D01*
X0035633Y0084261D01*
X0034261Y0085633D01*
X0032470Y0086375D01*
X0030530Y0086375D01*
X0032473Y0086373D02*
X0090527Y0086373D01*
X0088734Y0087372D02*
X0034266Y0087372D01*
X0035264Y0088370D02*
X0087735Y0088370D01*
X0087106Y0089369D02*
X0035894Y0089369D01*
X0036307Y0090368D02*
X0086693Y0090368D01*
X0086625Y0091366D02*
X0036375Y0091366D01*
X0036375Y0092365D02*
X0086625Y0092365D01*
X0086995Y0093363D02*
X0036005Y0093363D01*
X0035532Y0094362D02*
X0087468Y0094362D01*
X0088466Y0095360D02*
X0034534Y0095360D01*
X0034237Y0097357D02*
X0088763Y0097357D01*
X0087750Y0098356D02*
X0035250Y0098356D01*
X0035888Y0099354D02*
X0087112Y0099354D01*
X0086699Y0100353D02*
X0036301Y0100353D01*
X0036375Y0101351D02*
X0086625Y0101351D01*
X0086625Y0102350D02*
X0036375Y0102350D01*
X0036011Y0103348D02*
X0086989Y0103348D01*
X0087453Y0104347D02*
X0035547Y0104347D01*
X0034549Y0105345D02*
X0088451Y0105345D01*
X0090491Y0096359D02*
X0032509Y0096359D01*
X0030491Y0096359D02*
X0003600Y0096359D01*
X0003600Y0085375D02*
X0028481Y0085375D01*
X0027482Y0084376D02*
X0003600Y0084376D01*
X0003600Y0083378D02*
X0027001Y0083378D01*
X0026625Y0082379D02*
X0003600Y0082379D01*
X0003600Y0081381D02*
X0026625Y0081381D01*
X0026686Y0080382D02*
X0003600Y0080382D01*
X0003600Y0079384D02*
X0027100Y0079384D01*
X0027721Y0078385D02*
X0003600Y0078385D01*
X0003600Y0077387D02*
X0028719Y0077387D01*
X0028739Y0075633D02*
X0027367Y0074261D01*
X0026625Y0072470D01*
X0026625Y0070530D01*
X0027367Y0068739D01*
X0028739Y0067367D01*
X0030530Y0066625D01*
X0032470Y0066625D01*
X0034261Y0067367D01*
X0035633Y0068739D01*
X0036375Y0070530D01*
X0036375Y0072470D01*
X0035633Y0074261D01*
X0034261Y0075633D01*
X0032470Y0076375D01*
X0030530Y0076375D01*
X0028739Y0075633D01*
X0028496Y0075390D02*
X0003600Y0075390D01*
X0003600Y0076388D02*
X0122510Y0076388D01*
X0126719Y0080382D02*
X0163453Y0080382D01*
X0164451Y0081381D02*
X0125720Y0081381D01*
X0124722Y0082379D02*
X0178600Y0082379D01*
X0178600Y0083378D02*
X0124400Y0083378D01*
X0124400Y0084376D02*
X0178600Y0084376D01*
X0178600Y0085375D02*
X0124400Y0085375D01*
X0124400Y0086373D02*
X0178600Y0086373D01*
X0178600Y0087372D02*
X0124400Y0087372D01*
X0124400Y0088370D02*
X0178600Y0088370D01*
X0178600Y0089369D02*
X0173848Y0089369D01*
X0175097Y0090368D02*
X0177903Y0090368D01*
X0177163Y0091366D02*
X0175837Y0091366D01*
X0176251Y0092365D02*
X0176749Y0092365D01*
X0176600Y0093363D02*
X0176400Y0093363D01*
X0169152Y0089369D02*
X0163848Y0089369D01*
X0165097Y0090368D02*
X0167903Y0090368D01*
X0167163Y0091366D02*
X0165837Y0091366D01*
X0166251Y0092365D02*
X0166749Y0092365D01*
X0166600Y0093363D02*
X0166400Y0093363D01*
X0166400Y0094362D02*
X0166600Y0094362D01*
X0166600Y0095360D02*
X0166400Y0095360D01*
X0166400Y0096359D02*
X0166600Y0096359D01*
X0166600Y0097357D02*
X0166400Y0097357D01*
X0166400Y0098356D02*
X0166600Y0098356D01*
X0166600Y0099354D02*
X0166400Y0099354D01*
X0166368Y0100353D02*
X0166632Y0100353D01*
X0167046Y0101351D02*
X0165954Y0101351D01*
X0165380Y0102350D02*
X0167620Y0102350D01*
X0168619Y0103348D02*
X0164381Y0103348D01*
X0158619Y0103348D02*
X0154400Y0103348D01*
X0154400Y0104347D02*
X0193600Y0104347D01*
X0193554Y0105345D02*
X0154400Y0105345D01*
X0154400Y0106344D02*
X0192555Y0106344D01*
X0191557Y0107342D02*
X0154400Y0107342D01*
X0154400Y0108341D02*
X0190558Y0108341D01*
X0195765Y0111336D02*
X0216200Y0111336D01*
X0216200Y0111200D02*
X0212200Y0111200D01*
X0212200Y0109719D01*
X0214719Y0107200D01*
X0216200Y0107200D01*
X0216200Y0111200D01*
X0216800Y0111200D01*
X0216800Y0111800D01*
X0220800Y0111800D01*
X0220800Y0113281D01*
X0218281Y0115800D01*
X0216800Y0115800D01*
X0216800Y0111800D01*
X0216200Y0111800D01*
X0216200Y0115800D01*
X0214719Y0115800D01*
X0212200Y0113281D01*
X0212200Y0111800D01*
X0216200Y0111800D01*
X0216200Y0111200D01*
X0216800Y0111200D02*
X0216800Y0107200D01*
X0218281Y0107200D01*
X0220800Y0109719D01*
X0220800Y0111200D01*
X0216800Y0111200D01*
X0216800Y0111336D02*
X0251600Y0111336D01*
X0251600Y0110338D02*
X0220800Y0110338D01*
X0220420Y0109339D02*
X0251731Y0109339D01*
X0252730Y0108341D02*
X0219422Y0108341D01*
X0218423Y0107342D02*
X0253728Y0107342D01*
X0259272Y0107342D02*
X0351557Y0107342D01*
X0350558Y0108341D02*
X0260270Y0108341D01*
X0251600Y0112335D02*
X0220800Y0112335D01*
X0220748Y0113333D02*
X0251600Y0113333D01*
X0252402Y0114332D02*
X0219749Y0114332D01*
X0218751Y0115330D02*
X0253401Y0115330D01*
X0254399Y0116329D02*
X0180772Y0116329D01*
X0179774Y0117327D02*
X0266571Y0117327D01*
X0265573Y0118326D02*
X0179400Y0118326D01*
X0183741Y0119324D02*
X0189259Y0119324D01*
X0187948Y0120323D02*
X0185052Y0120323D01*
X0185818Y0121321D02*
X0187182Y0121321D01*
X0186768Y0122320D02*
X0186232Y0122320D01*
X0186400Y0123318D02*
X0186600Y0123318D01*
X0193741Y0119324D02*
X0264574Y0119324D01*
X0263576Y0120323D02*
X0195052Y0120323D01*
X0195818Y0121321D02*
X0262577Y0121321D01*
X0261579Y0122320D02*
X0196232Y0122320D01*
X0196400Y0123318D02*
X0260580Y0123318D01*
X0264789Y0127312D02*
X0275900Y0127312D01*
X0275900Y0127614D02*
X0275900Y0125386D01*
X0276753Y0123328D01*
X0278328Y0121753D01*
X0280386Y0120900D01*
X0282614Y0120900D01*
X0284672Y0121753D01*
X0286247Y0123328D01*
X0287100Y0125386D01*
X0287100Y0127614D01*
X0286247Y0129672D01*
X0284672Y0131247D01*
X0282614Y0132100D01*
X0280386Y0132100D01*
X0278328Y0131247D01*
X0276753Y0129672D01*
X0275900Y0127614D01*
X0276189Y0128311D02*
X0263790Y0128311D01*
X0262295Y0129309D02*
X0276602Y0129309D01*
X0277388Y0130308D02*
X0216400Y0130308D01*
X0216400Y0131306D02*
X0278470Y0131306D01*
X0284530Y0131306D02*
X0303470Y0131306D01*
X0303328Y0131247D02*
X0301753Y0129672D01*
X0300900Y0127614D01*
X0300900Y0125386D01*
X0301753Y0123328D01*
X0303328Y0121753D01*
X0305386Y0120900D01*
X0307614Y0120900D01*
X0309672Y0121753D01*
X0311247Y0123328D01*
X0312100Y0125386D01*
X0312100Y0127614D01*
X0311247Y0129672D01*
X0309672Y0131247D01*
X0307614Y0132100D01*
X0305386Y0132100D01*
X0303328Y0131247D01*
X0302388Y0130308D02*
X0285612Y0130308D01*
X0286398Y0129309D02*
X0301602Y0129309D01*
X0301189Y0128311D02*
X0286811Y0128311D01*
X0287100Y0127312D02*
X0300900Y0127312D01*
X0300900Y0126314D02*
X0287100Y0126314D01*
X0287071Y0125315D02*
X0300929Y0125315D01*
X0301343Y0124317D02*
X0286657Y0124317D01*
X0286238Y0123318D02*
X0301762Y0123318D01*
X0302761Y0122320D02*
X0285239Y0122320D01*
X0283631Y0121321D02*
X0304369Y0121321D01*
X0308631Y0121321D02*
X0327220Y0121321D01*
X0326222Y0120323D02*
X0271778Y0120323D01*
X0270780Y0121321D02*
X0279369Y0121321D01*
X0277761Y0122320D02*
X0269781Y0122320D01*
X0268783Y0123318D02*
X0276762Y0123318D01*
X0276343Y0124317D02*
X0267784Y0124317D01*
X0266786Y0125315D02*
X0275929Y0125315D01*
X0275900Y0126314D02*
X0265787Y0126314D01*
X0267570Y0116329D02*
X0258601Y0116329D01*
X0259599Y0115330D02*
X0268568Y0115330D01*
X0310239Y0122320D02*
X0328219Y0122320D01*
X0329217Y0123318D02*
X0311238Y0123318D01*
X0311657Y0124317D02*
X0330216Y0124317D01*
X0330929Y0125315D02*
X0312071Y0125315D01*
X0312100Y0126314D02*
X0330900Y0126314D01*
X0330900Y0127312D02*
X0312100Y0127312D01*
X0311811Y0128311D02*
X0331189Y0128311D01*
X0331602Y0129309D02*
X0311398Y0129309D01*
X0310612Y0130308D02*
X0332388Y0130308D01*
X0333470Y0131306D02*
X0309530Y0131306D01*
X0318724Y0139546D02*
X0320525Y0138800D01*
X0322475Y0138800D01*
X0324276Y0139546D01*
X0325654Y0140924D01*
X0326400Y0142725D01*
X0326400Y0150275D01*
X0325654Y0152076D01*
X0324276Y0153454D01*
X0322475Y0154200D01*
X0320525Y0154200D01*
X0318724Y0153454D01*
X0317346Y0152076D01*
X0316600Y0150275D01*
X0316600Y0142725D01*
X0317346Y0140924D01*
X0318724Y0139546D01*
X0319331Y0139295D02*
X0263669Y0139295D01*
X0264276Y0139546D02*
X0265654Y0140924D01*
X0266400Y0142725D01*
X0266400Y0150275D01*
X0265654Y0152076D01*
X0264276Y0153454D01*
X0262475Y0154200D01*
X0260525Y0154200D01*
X0258724Y0153454D01*
X0257346Y0152076D01*
X0256600Y0150275D01*
X0256600Y0142725D01*
X0257346Y0140924D01*
X0258724Y0139546D01*
X0260525Y0138800D01*
X0262475Y0138800D01*
X0264276Y0139546D01*
X0265023Y0140293D02*
X0317977Y0140293D01*
X0317194Y0141292D02*
X0265806Y0141292D01*
X0266220Y0142290D02*
X0316780Y0142290D01*
X0316600Y0143289D02*
X0266400Y0143289D01*
X0266400Y0144287D02*
X0316600Y0144287D01*
X0316600Y0145286D02*
X0266400Y0145286D01*
X0266400Y0146284D02*
X0316600Y0146284D01*
X0316600Y0147283D02*
X0266400Y0147283D01*
X0266400Y0148281D02*
X0316600Y0148281D01*
X0316600Y0149280D02*
X0266400Y0149280D01*
X0266399Y0150278D02*
X0316601Y0150278D01*
X0317015Y0151277D02*
X0265985Y0151277D01*
X0265454Y0152275D02*
X0317546Y0152275D01*
X0318544Y0153274D02*
X0264456Y0153274D01*
X0258544Y0153274D02*
X0254456Y0153274D01*
X0254276Y0153454D02*
X0252475Y0154200D01*
X0250525Y0154200D01*
X0248724Y0153454D01*
X0247346Y0152076D01*
X0246600Y0150275D01*
X0246600Y0142725D01*
X0247346Y0140924D01*
X0248724Y0139546D01*
X0250525Y0138800D01*
X0252475Y0138800D01*
X0254276Y0139546D01*
X0255654Y0140924D01*
X0256400Y0142725D01*
X0256400Y0150275D01*
X0255654Y0152076D01*
X0254276Y0153454D01*
X0255454Y0152275D02*
X0257546Y0152275D01*
X0257015Y0151277D02*
X0255985Y0151277D01*
X0256399Y0150278D02*
X0256601Y0150278D01*
X0256600Y0149280D02*
X0256400Y0149280D01*
X0256400Y0148281D02*
X0256600Y0148281D01*
X0256600Y0147283D02*
X0256400Y0147283D01*
X0256400Y0146284D02*
X0256600Y0146284D01*
X0256600Y0145286D02*
X0256400Y0145286D01*
X0256400Y0144287D02*
X0256600Y0144287D01*
X0256600Y0143289D02*
X0256400Y0143289D01*
X0256220Y0142290D02*
X0256780Y0142290D01*
X0257194Y0141292D02*
X0255806Y0141292D01*
X0255023Y0140293D02*
X0257977Y0140293D01*
X0259331Y0139295D02*
X0253669Y0139295D01*
X0249331Y0139295D02*
X0243669Y0139295D01*
X0245023Y0140293D02*
X0247977Y0140293D01*
X0247194Y0141292D02*
X0245806Y0141292D01*
X0246220Y0142290D02*
X0246780Y0142290D01*
X0246600Y0143289D02*
X0246400Y0143289D01*
X0246400Y0144287D02*
X0246600Y0144287D01*
X0246600Y0145286D02*
X0246400Y0145286D01*
X0246400Y0146284D02*
X0246600Y0146284D01*
X0246600Y0147283D02*
X0246400Y0147283D01*
X0246400Y0148281D02*
X0246600Y0148281D01*
X0246600Y0149280D02*
X0246400Y0149280D01*
X0246399Y0150278D02*
X0246601Y0150278D01*
X0247015Y0151277D02*
X0245985Y0151277D01*
X0245454Y0152275D02*
X0247546Y0152275D01*
X0248544Y0153274D02*
X0244456Y0153274D01*
X0243373Y0154272D02*
X0340171Y0154272D01*
X0341170Y0155271D02*
X0244372Y0155271D01*
X0245370Y0156269D02*
X0342168Y0156269D01*
X0343167Y0157268D02*
X0246369Y0157268D01*
X0247367Y0158266D02*
X0344165Y0158266D01*
X0345597Y0159265D02*
X0248366Y0159265D01*
X0249127Y0160263D02*
X0358600Y0160263D01*
X0358600Y0161262D02*
X0249400Y0161262D01*
X0249400Y0162260D02*
X0358600Y0162260D01*
X0358600Y0163259D02*
X0249400Y0163259D01*
X0249400Y0164257D02*
X0358600Y0164257D01*
X0358600Y0165256D02*
X0249400Y0165256D01*
X0249400Y0166254D02*
X0358600Y0166254D01*
X0358600Y0167253D02*
X0249400Y0167253D01*
X0249400Y0168251D02*
X0358600Y0168251D01*
X0358600Y0169250D02*
X0353561Y0169250D01*
X0354276Y0169546D02*
X0355654Y0170924D01*
X0356400Y0172725D01*
X0356400Y0180275D01*
X0355654Y0182076D01*
X0354276Y0183454D01*
X0352475Y0184200D01*
X0350525Y0184200D01*
X0348724Y0183454D01*
X0347346Y0182076D01*
X0346600Y0180275D01*
X0346600Y0172725D01*
X0347346Y0170924D01*
X0348724Y0169546D01*
X0350525Y0168800D01*
X0352475Y0168800D01*
X0354276Y0169546D01*
X0354978Y0170248D02*
X0358022Y0170248D01*
X0357212Y0171247D02*
X0355788Y0171247D01*
X0356201Y0172245D02*
X0356799Y0172245D01*
X0356600Y0173244D02*
X0356400Y0173244D01*
X0356400Y0174242D02*
X0356600Y0174242D01*
X0356600Y0175241D02*
X0356400Y0175241D01*
X0356400Y0176239D02*
X0356600Y0176239D01*
X0356600Y0177238D02*
X0356400Y0177238D01*
X0356400Y0178237D02*
X0356600Y0178237D01*
X0356600Y0179235D02*
X0356400Y0179235D01*
X0356400Y0180234D02*
X0356600Y0180234D01*
X0356997Y0181232D02*
X0356003Y0181232D01*
X0355499Y0182231D02*
X0357501Y0182231D01*
X0358499Y0183229D02*
X0354501Y0183229D01*
X0348499Y0183229D02*
X0344501Y0183229D01*
X0344276Y0183454D02*
X0342475Y0184200D01*
X0340525Y0184200D01*
X0338724Y0183454D01*
X0337346Y0182076D01*
X0336600Y0180275D01*
X0336600Y0172725D01*
X0337346Y0170924D01*
X0338724Y0169546D01*
X0340525Y0168800D01*
X0342475Y0168800D01*
X0344276Y0169546D01*
X0345654Y0170924D01*
X0346400Y0172725D01*
X0346400Y0180275D01*
X0345654Y0182076D01*
X0344276Y0183454D01*
X0345499Y0182231D02*
X0347501Y0182231D01*
X0346997Y0181232D02*
X0346003Y0181232D01*
X0346400Y0180234D02*
X0346600Y0180234D01*
X0346600Y0179235D02*
X0346400Y0179235D01*
X0346400Y0178237D02*
X0346600Y0178237D01*
X0346600Y0177238D02*
X0346400Y0177238D01*
X0346400Y0176239D02*
X0346600Y0176239D01*
X0346600Y0175241D02*
X0346400Y0175241D01*
X0346400Y0174242D02*
X0346600Y0174242D01*
X0346600Y0173244D02*
X0346400Y0173244D01*
X0346201Y0172245D02*
X0346799Y0172245D01*
X0347212Y0171247D02*
X0345788Y0171247D01*
X0344978Y0170248D02*
X0348022Y0170248D01*
X0349439Y0169250D02*
X0343561Y0169250D01*
X0339439Y0169250D02*
X0333561Y0169250D01*
X0334276Y0169546D02*
X0335654Y0170924D01*
X0336400Y0172725D01*
X0336400Y0180275D01*
X0335654Y0182076D01*
X0334276Y0183454D01*
X0332475Y0184200D01*
X0330525Y0184200D01*
X0328724Y0183454D01*
X0327346Y0182076D01*
X0326600Y0180275D01*
X0326600Y0172725D01*
X0327346Y0170924D01*
X0328724Y0169546D01*
X0330525Y0168800D01*
X0332475Y0168800D01*
X0334276Y0169546D01*
X0334978Y0170248D02*
X0338022Y0170248D01*
X0337212Y0171247D02*
X0335788Y0171247D01*
X0336201Y0172245D02*
X0336799Y0172245D01*
X0336600Y0173244D02*
X0336400Y0173244D01*
X0336400Y0174242D02*
X0336600Y0174242D01*
X0336600Y0175241D02*
X0336400Y0175241D01*
X0336400Y0176239D02*
X0336600Y0176239D01*
X0336600Y0177238D02*
X0336400Y0177238D01*
X0336400Y0178237D02*
X0336600Y0178237D01*
X0336600Y0179235D02*
X0336400Y0179235D01*
X0336400Y0180234D02*
X0336600Y0180234D01*
X0336997Y0181232D02*
X0336003Y0181232D01*
X0335499Y0182231D02*
X0337501Y0182231D01*
X0338499Y0183229D02*
X0334501Y0183229D01*
X0328499Y0183229D02*
X0324501Y0183229D01*
X0324276Y0183454D02*
X0322475Y0184200D01*
X0320525Y0184200D01*
X0318724Y0183454D01*
X0317346Y0182076D01*
X0316600Y0180275D01*
X0316600Y0172725D01*
X0317346Y0170924D01*
X0318724Y0169546D01*
X0320525Y0168800D01*
X0322475Y0168800D01*
X0324276Y0169546D01*
X0325654Y0170924D01*
X0326400Y0172725D01*
X0326400Y0180275D01*
X0325654Y0182076D01*
X0324276Y0183454D01*
X0325499Y0182231D02*
X0327501Y0182231D01*
X0326997Y0181232D02*
X0326003Y0181232D01*
X0326400Y0180234D02*
X0326600Y0180234D01*
X0326600Y0179235D02*
X0326400Y0179235D01*
X0326400Y0178237D02*
X0326600Y0178237D01*
X0326600Y0177238D02*
X0326400Y0177238D01*
X0326400Y0176239D02*
X0326600Y0176239D01*
X0326600Y0175241D02*
X0326400Y0175241D01*
X0326400Y0174242D02*
X0326600Y0174242D01*
X0326600Y0173244D02*
X0326400Y0173244D01*
X0326201Y0172245D02*
X0326799Y0172245D01*
X0327212Y0171247D02*
X0325788Y0171247D01*
X0324978Y0170248D02*
X0328022Y0170248D01*
X0329439Y0169250D02*
X0323561Y0169250D01*
X0319439Y0169250D02*
X0263561Y0169250D01*
X0264276Y0169546D02*
X0265654Y0170924D01*
X0266400Y0172725D01*
X0266400Y0180275D01*
X0265654Y0182076D01*
X0264276Y0183454D01*
X0262475Y0184200D01*
X0260525Y0184200D01*
X0258724Y0183454D01*
X0257346Y0182076D01*
X0256600Y0180275D01*
X0256600Y0172725D01*
X0257346Y0170924D01*
X0258724Y0169546D01*
X0260525Y0168800D01*
X0262475Y0168800D01*
X0264276Y0169546D01*
X0264978Y0170248D02*
X0318022Y0170248D01*
X0317212Y0171247D02*
X0265788Y0171247D01*
X0266201Y0172245D02*
X0316799Y0172245D01*
X0316600Y0173244D02*
X0266400Y0173244D01*
X0266400Y0174242D02*
X0316600Y0174242D01*
X0316600Y0175241D02*
X0266400Y0175241D01*
X0266400Y0176239D02*
X0316600Y0176239D01*
X0316600Y0177238D02*
X0266400Y0177238D01*
X0266400Y0178237D02*
X0316600Y0178237D01*
X0316600Y0179235D02*
X0266400Y0179235D01*
X0266400Y0180234D02*
X0316600Y0180234D01*
X0316997Y0181232D02*
X0266003Y0181232D01*
X0265499Y0182231D02*
X0317501Y0182231D01*
X0318499Y0183229D02*
X0264501Y0183229D01*
X0258499Y0183229D02*
X0254501Y0183229D01*
X0255499Y0182231D02*
X0257501Y0182231D01*
X0256997Y0181232D02*
X0256003Y0181232D01*
X0256400Y0180234D02*
X0256600Y0180234D01*
X0256600Y0179235D02*
X0256400Y0179235D01*
X0256400Y0178237D02*
X0256600Y0178237D01*
X0256600Y0177238D02*
X0256400Y0177238D01*
X0256400Y0176239D02*
X0256600Y0176239D01*
X0256600Y0175241D02*
X0256400Y0175241D01*
X0256400Y0174242D02*
X0256600Y0174242D01*
X0256600Y0173244D02*
X0256400Y0173244D01*
X0256201Y0172245D02*
X0256799Y0172245D01*
X0257212Y0171247D02*
X0255788Y0171247D01*
X0254978Y0170248D02*
X0258022Y0170248D01*
X0259439Y0169250D02*
X0253561Y0169250D01*
X0249439Y0169250D02*
X0249400Y0169250D01*
X0243600Y0169250D02*
X0243561Y0169250D01*
X0243600Y0168251D02*
X0199400Y0168251D01*
X0199400Y0167253D02*
X0243600Y0167253D01*
X0243600Y0166254D02*
X0199400Y0166254D01*
X0199400Y0165256D02*
X0243600Y0165256D01*
X0243600Y0164257D02*
X0199400Y0164257D01*
X0199400Y0163259D02*
X0243600Y0163259D01*
X0243159Y0162260D02*
X0199400Y0162260D01*
X0199400Y0161262D02*
X0242161Y0161262D01*
X0241162Y0160263D02*
X0199400Y0160263D01*
X0199400Y0159265D02*
X0205597Y0159265D01*
X0204165Y0158266D02*
X0199400Y0158266D01*
X0199833Y0157268D02*
X0203167Y0157268D01*
X0202168Y0156269D02*
X0200832Y0156269D01*
X0196624Y0152275D02*
X0194400Y0152275D01*
X0194400Y0151277D02*
X0197015Y0151277D01*
X0196601Y0150278D02*
X0194400Y0150278D01*
X0194400Y0149280D02*
X0196600Y0149280D01*
X0196600Y0148281D02*
X0194400Y0148281D01*
X0194400Y0147283D02*
X0196600Y0147283D01*
X0196600Y0146284D02*
X0194400Y0146284D01*
X0194400Y0145286D02*
X0196600Y0145286D01*
X0196600Y0144287D02*
X0194400Y0144287D01*
X0194400Y0143289D02*
X0196600Y0143289D01*
X0196780Y0142290D02*
X0194400Y0142290D01*
X0194400Y0141292D02*
X0197194Y0141292D01*
X0197977Y0140293D02*
X0194400Y0140293D01*
X0194400Y0139295D02*
X0199331Y0139295D01*
X0199369Y0136299D02*
X0194400Y0136299D01*
X0194400Y0135301D02*
X0198371Y0135301D01*
X0197372Y0134302D02*
X0194400Y0134302D01*
X0194426Y0133303D02*
X0196600Y0133303D01*
X0196600Y0132305D02*
X0195425Y0132305D01*
X0195973Y0131306D02*
X0196600Y0131306D01*
X0196600Y0130308D02*
X0196386Y0130308D01*
X0188600Y0133330D02*
X0187346Y0132076D01*
X0186600Y0130275D01*
X0186600Y0129400D01*
X0186400Y0129400D01*
X0186400Y0130275D01*
X0185654Y0132076D01*
X0184276Y0133454D01*
X0182475Y0134200D01*
X0180525Y0134200D01*
X0179400Y0133734D01*
X0179400Y0137077D01*
X0179087Y0137832D01*
X0179719Y0137200D01*
X0181200Y0137200D01*
X0181200Y0141200D01*
X0177200Y0141200D01*
X0177200Y0139901D01*
X0154400Y0162701D01*
X0154400Y0180299D01*
X0156600Y0182499D01*
X0156600Y0179470D01*
X0159470Y0176600D01*
X0163530Y0176600D01*
X0166400Y0179470D01*
X0166400Y0182299D01*
X0167701Y0183600D01*
X0176670Y0183600D01*
X0176600Y0183530D01*
X0176600Y0179470D01*
X0179470Y0176600D01*
X0183530Y0176600D01*
X0186400Y0179470D01*
X0186400Y0182499D01*
X0188600Y0180299D01*
X0188600Y0133330D01*
X0188574Y0133303D02*
X0184426Y0133303D01*
X0185425Y0132305D02*
X0187575Y0132305D01*
X0187027Y0131306D02*
X0185973Y0131306D01*
X0186386Y0130308D02*
X0186614Y0130308D01*
X0188600Y0134302D02*
X0179400Y0134302D01*
X0179400Y0135301D02*
X0188600Y0135301D01*
X0188600Y0136299D02*
X0179400Y0136299D01*
X0179309Y0137298D02*
X0179621Y0137298D01*
X0181200Y0137298D02*
X0181800Y0137298D01*
X0181800Y0137200D02*
X0183281Y0137200D01*
X0185800Y0139719D01*
X0185800Y0141200D01*
X0181800Y0141200D01*
X0181800Y0141800D01*
X0181200Y0141800D01*
X0181200Y0145800D01*
X0179719Y0145800D01*
X0177200Y0143281D01*
X0177200Y0141800D01*
X0181200Y0141800D01*
X0181200Y0141200D01*
X0181800Y0141200D01*
X0181800Y0137200D01*
X0181800Y0138296D02*
X0181200Y0138296D01*
X0181200Y0139295D02*
X0181800Y0139295D01*
X0181800Y0140293D02*
X0181200Y0140293D01*
X0181200Y0141292D02*
X0175810Y0141292D01*
X0174811Y0142290D02*
X0177200Y0142290D01*
X0177208Y0143289D02*
X0173813Y0143289D01*
X0172814Y0144287D02*
X0178206Y0144287D01*
X0179205Y0145286D02*
X0171816Y0145286D01*
X0170817Y0146284D02*
X0188600Y0146284D01*
X0188600Y0145286D02*
X0183795Y0145286D01*
X0183281Y0145800D02*
X0181800Y0145800D01*
X0181800Y0141800D01*
X0185800Y0141800D01*
X0185800Y0143281D01*
X0183281Y0145800D01*
X0181800Y0145286D02*
X0181200Y0145286D01*
X0181200Y0144287D02*
X0181800Y0144287D01*
X0181800Y0143289D02*
X0181200Y0143289D01*
X0181200Y0142290D02*
X0181800Y0142290D01*
X0181800Y0141292D02*
X0188600Y0141292D01*
X0188600Y0142290D02*
X0185800Y0142290D01*
X0185792Y0143289D02*
X0188600Y0143289D01*
X0188600Y0144287D02*
X0184794Y0144287D01*
X0188600Y0147283D02*
X0169819Y0147283D01*
X0168820Y0148281D02*
X0188600Y0148281D01*
X0188600Y0149280D02*
X0167822Y0149280D01*
X0166823Y0150278D02*
X0188600Y0150278D01*
X0188600Y0151277D02*
X0165824Y0151277D01*
X0164826Y0152275D02*
X0188600Y0152275D01*
X0188600Y0153274D02*
X0163827Y0153274D01*
X0162829Y0154272D02*
X0188600Y0154272D01*
X0188600Y0155271D02*
X0161830Y0155271D01*
X0160832Y0156269D02*
X0188600Y0156269D01*
X0188600Y0157268D02*
X0159833Y0157268D01*
X0158835Y0158266D02*
X0188600Y0158266D01*
X0188600Y0159265D02*
X0157836Y0159265D01*
X0156838Y0160263D02*
X0188600Y0160263D01*
X0188600Y0161262D02*
X0155839Y0161262D01*
X0154841Y0162260D02*
X0188600Y0162260D01*
X0188600Y0163259D02*
X0154400Y0163259D01*
X0154400Y0164257D02*
X0188600Y0164257D01*
X0188600Y0165256D02*
X0154400Y0165256D01*
X0154400Y0166254D02*
X0188600Y0166254D01*
X0188600Y0167253D02*
X0154400Y0167253D01*
X0154400Y0168251D02*
X0188600Y0168251D01*
X0188600Y0169250D02*
X0154400Y0169250D01*
X0154400Y0170248D02*
X0188600Y0170248D01*
X0188600Y0171247D02*
X0154400Y0171247D01*
X0154400Y0172245D02*
X0188600Y0172245D01*
X0188600Y0173244D02*
X0154400Y0173244D01*
X0154400Y0174242D02*
X0188600Y0174242D01*
X0188600Y0175241D02*
X0154400Y0175241D01*
X0154400Y0176239D02*
X0188600Y0176239D01*
X0188600Y0177238D02*
X0184168Y0177238D01*
X0185166Y0178237D02*
X0188600Y0178237D01*
X0188600Y0179235D02*
X0186165Y0179235D01*
X0186400Y0180234D02*
X0188600Y0180234D01*
X0187667Y0181232D02*
X0186400Y0181232D01*
X0186400Y0182231D02*
X0186668Y0182231D01*
X0178832Y0177238D02*
X0164168Y0177238D01*
X0165166Y0178237D02*
X0177834Y0178237D01*
X0176835Y0179235D02*
X0166165Y0179235D01*
X0166400Y0180234D02*
X0176600Y0180234D01*
X0176600Y0181232D02*
X0166400Y0181232D01*
X0166400Y0182231D02*
X0176600Y0182231D01*
X0176600Y0183229D02*
X0167330Y0183229D01*
X0158832Y0177238D02*
X0154400Y0177238D01*
X0154400Y0178237D02*
X0157834Y0178237D01*
X0156835Y0179235D02*
X0154400Y0179235D01*
X0154400Y0180234D02*
X0156600Y0180234D01*
X0156600Y0181232D02*
X0155333Y0181232D01*
X0156332Y0182231D02*
X0156600Y0182231D01*
X0150126Y0184228D02*
X0144854Y0184228D01*
X0145800Y0183229D02*
X0149128Y0183229D01*
X0148664Y0182231D02*
X0145800Y0182231D01*
X0141800Y0180234D02*
X0141200Y0180234D01*
X0141200Y0179235D02*
X0141800Y0179235D01*
X0141800Y0178237D02*
X0141200Y0178237D01*
X0141200Y0177238D02*
X0141800Y0177238D01*
X0139681Y0177238D02*
X0095158Y0177238D01*
X0096156Y0178237D02*
X0138682Y0178237D01*
X0137684Y0179235D02*
X0096623Y0179235D01*
X0097037Y0180234D02*
X0137200Y0180234D01*
X0143855Y0185226D02*
X0151125Y0185226D01*
X0154120Y0188222D02*
X0003600Y0188222D01*
X0003600Y0189220D02*
X0155119Y0189220D01*
X0156117Y0190219D02*
X0003600Y0190219D01*
X0003600Y0191217D02*
X0157116Y0191217D01*
X0158114Y0192216D02*
X0003600Y0192216D01*
X0003600Y0193214D02*
X0159113Y0193214D01*
X0160471Y0194213D02*
X0003600Y0194213D01*
X0003600Y0185226D02*
X0027306Y0185226D01*
X0026568Y0184228D02*
X0003600Y0184228D01*
X0003600Y0183229D02*
X0026155Y0183229D01*
X0025900Y0182231D02*
X0003600Y0182231D01*
X0003600Y0181232D02*
X0025900Y0181232D01*
X0025963Y0180234D02*
X0003600Y0180234D01*
X0003600Y0179235D02*
X0026377Y0179235D01*
X0026844Y0178237D02*
X0003600Y0178237D01*
X0003600Y0177238D02*
X0027842Y0177238D01*
X0027720Y0176239D02*
X0003600Y0176239D01*
X0003600Y0175241D02*
X0026722Y0175241D01*
X0026625Y0174242D02*
X0003600Y0174242D01*
X0003600Y0173244D02*
X0026625Y0173244D01*
X0026625Y0172245D02*
X0003600Y0172245D01*
X0003600Y0171247D02*
X0026625Y0171247D01*
X0026625Y0170248D02*
X0003600Y0170248D01*
X0003600Y0169250D02*
X0026625Y0169250D01*
X0026625Y0168251D02*
X0003600Y0168251D01*
X0003600Y0167253D02*
X0027228Y0167253D01*
X0028362Y0165256D02*
X0003600Y0165256D01*
X0003600Y0166254D02*
X0030240Y0166254D01*
X0032760Y0166254D02*
X0090240Y0166254D01*
X0090276Y0156269D02*
X0032724Y0156269D01*
X0030276Y0156269D02*
X0003600Y0156269D01*
X0003600Y0155271D02*
X0028377Y0155271D01*
X0027378Y0154272D02*
X0003600Y0154272D01*
X0003600Y0153274D02*
X0026958Y0153274D01*
X0026625Y0152275D02*
X0003600Y0152275D01*
X0003600Y0151277D02*
X0026625Y0151277D01*
X0026730Y0150278D02*
X0003600Y0150278D01*
X0003600Y0149280D02*
X0027143Y0149280D01*
X0027825Y0148281D02*
X0003600Y0148281D01*
X0003600Y0147283D02*
X0028943Y0147283D01*
X0028979Y0157268D02*
X0003600Y0157268D01*
X0003600Y0158266D02*
X0027840Y0158266D01*
X0027149Y0159265D02*
X0003600Y0159265D01*
X0003600Y0160263D02*
X0026736Y0160263D01*
X0026625Y0161262D02*
X0003600Y0161262D01*
X0003600Y0162260D02*
X0026625Y0162260D01*
X0026952Y0163259D02*
X0003600Y0163259D01*
X0003600Y0164257D02*
X0027366Y0164257D01*
X0032653Y0136299D02*
X0090347Y0136299D01*
X0094593Y0135301D02*
X0148600Y0135301D01*
X0148600Y0134302D02*
X0117313Y0134302D01*
X0118798Y0133303D02*
X0148600Y0133303D01*
X0148600Y0132305D02*
X0119796Y0132305D01*
X0120795Y0131306D02*
X0148600Y0131306D01*
X0148600Y0130308D02*
X0121793Y0130308D01*
X0122792Y0129309D02*
X0148600Y0129309D01*
X0148600Y0128311D02*
X0123790Y0128311D01*
X0124302Y0127312D02*
X0148600Y0127312D01*
X0148600Y0126314D02*
X0124400Y0126314D01*
X0124400Y0125315D02*
X0148600Y0125315D01*
X0148600Y0124317D02*
X0124400Y0124317D01*
X0124400Y0123318D02*
X0148600Y0123318D01*
X0148600Y0122320D02*
X0124400Y0122320D01*
X0124400Y0121321D02*
X0148600Y0121321D01*
X0148600Y0120323D02*
X0124400Y0120323D01*
X0124400Y0119324D02*
X0148600Y0119324D01*
X0148600Y0118326D02*
X0124400Y0118326D01*
X0124400Y0117327D02*
X0148600Y0117327D01*
X0148600Y0116329D02*
X0124400Y0116329D01*
X0124400Y0115330D02*
X0148600Y0115330D01*
X0148600Y0114332D02*
X0124400Y0114332D01*
X0124400Y0113333D02*
X0148600Y0113333D01*
X0148600Y0112335D02*
X0124400Y0112335D01*
X0124400Y0111336D02*
X0148600Y0111336D01*
X0148600Y0110338D02*
X0124400Y0110338D01*
X0124400Y0109339D02*
X0148600Y0109339D01*
X0148600Y0108341D02*
X0124400Y0108341D01*
X0124400Y0107342D02*
X0148600Y0107342D01*
X0148600Y0106344D02*
X0124400Y0106344D01*
X0124400Y0105345D02*
X0148600Y0105345D01*
X0148600Y0104347D02*
X0124400Y0104347D01*
X0124400Y0103348D02*
X0148600Y0103348D01*
X0148600Y0102350D02*
X0124400Y0102350D01*
X0124400Y0101351D02*
X0148600Y0101351D01*
X0148836Y0100353D02*
X0124400Y0100353D01*
X0124400Y0099354D02*
X0149545Y0099354D01*
X0150543Y0098356D02*
X0124400Y0098356D01*
X0124400Y0097357D02*
X0151542Y0097357D01*
X0152540Y0096359D02*
X0124400Y0096359D01*
X0124400Y0095360D02*
X0153539Y0095360D01*
X0154537Y0094362D02*
X0124400Y0094362D01*
X0124400Y0093363D02*
X0156600Y0093363D01*
X0156749Y0092365D02*
X0124400Y0092365D01*
X0124400Y0091366D02*
X0157163Y0091366D01*
X0157903Y0090368D02*
X0124400Y0090368D01*
X0124400Y0089369D02*
X0159152Y0089369D01*
X0157046Y0101351D02*
X0155750Y0101351D01*
X0154752Y0102350D02*
X0157620Y0102350D01*
X0154400Y0109339D02*
X0179560Y0109339D01*
X0178561Y0110338D02*
X0154400Y0110338D01*
X0154400Y0111336D02*
X0177563Y0111336D01*
X0176564Y0112335D02*
X0154400Y0112335D01*
X0154400Y0113333D02*
X0175566Y0113333D01*
X0174567Y0114332D02*
X0154400Y0114332D01*
X0154400Y0115330D02*
X0173846Y0115330D01*
X0173600Y0116329D02*
X0154400Y0116329D01*
X0154400Y0117327D02*
X0173600Y0117327D01*
X0173600Y0118326D02*
X0154400Y0118326D01*
X0154400Y0119324D02*
X0169259Y0119324D01*
X0158833Y0120323D02*
X0154400Y0120323D01*
X0154400Y0121321D02*
X0157913Y0121321D01*
X0157427Y0122320D02*
X0154400Y0122320D01*
X0154400Y0123318D02*
X0157207Y0123318D01*
X0157200Y0124317D02*
X0154400Y0124317D01*
X0154400Y0125315D02*
X0157200Y0125315D01*
X0165800Y0127312D02*
X0166600Y0127312D01*
X0166600Y0128311D02*
X0165800Y0128311D01*
X0165800Y0129309D02*
X0166600Y0129309D01*
X0166614Y0130308D02*
X0165694Y0130308D01*
X0165304Y0131306D02*
X0167027Y0131306D01*
X0167575Y0132305D02*
X0164576Y0132305D01*
X0163094Y0133303D02*
X0168574Y0133303D01*
X0176808Y0140293D02*
X0177200Y0140293D01*
X0183379Y0137298D02*
X0188600Y0137298D01*
X0188600Y0138296D02*
X0184377Y0138296D01*
X0185376Y0139295D02*
X0188600Y0139295D01*
X0188600Y0140293D02*
X0185800Y0140293D01*
X0194400Y0138296D02*
X0333600Y0138296D01*
X0333600Y0137298D02*
X0194400Y0137298D01*
X0203631Y0136299D02*
X0209369Y0136299D01*
X0208371Y0135301D02*
X0204629Y0135301D01*
X0205628Y0134302D02*
X0207372Y0134302D01*
X0206600Y0133303D02*
X0206400Y0133303D01*
X0206400Y0132305D02*
X0206600Y0132305D01*
X0206600Y0131306D02*
X0206400Y0131306D01*
X0206400Y0130308D02*
X0206600Y0130308D01*
X0214629Y0135301D02*
X0333600Y0135301D01*
X0333600Y0136299D02*
X0213631Y0136299D01*
X0215628Y0134302D02*
X0333600Y0134302D01*
X0333600Y0133303D02*
X0216400Y0133303D01*
X0216400Y0132305D02*
X0333600Y0132305D01*
X0339400Y0132305D02*
X0378600Y0132305D01*
X0378600Y0133303D02*
X0339400Y0133303D01*
X0339400Y0134302D02*
X0378600Y0134302D01*
X0378600Y0135301D02*
X0339400Y0135301D01*
X0339400Y0136299D02*
X0378600Y0136299D01*
X0378600Y0137298D02*
X0339400Y0137298D01*
X0339400Y0138296D02*
X0378600Y0138296D01*
X0378600Y0131306D02*
X0339530Y0131306D01*
X0340612Y0130308D02*
X0378600Y0130308D01*
X0378600Y0129309D02*
X0341398Y0129309D01*
X0341811Y0128311D02*
X0378600Y0128311D01*
X0378600Y0127312D02*
X0342100Y0127312D01*
X0342100Y0126314D02*
X0378600Y0126314D01*
X0378600Y0125315D02*
X0342071Y0125315D01*
X0341657Y0124317D02*
X0378600Y0124317D01*
X0378600Y0123318D02*
X0341238Y0123318D01*
X0340239Y0122320D02*
X0378600Y0122320D01*
X0378600Y0121321D02*
X0338631Y0121321D01*
X0334424Y0120323D02*
X0378600Y0120323D01*
X0378600Y0119324D02*
X0333426Y0119324D01*
X0332427Y0118326D02*
X0378600Y0118326D01*
X0378600Y0117327D02*
X0331429Y0117327D01*
X0330430Y0116329D02*
X0378600Y0116329D01*
X0378600Y0115330D02*
X0329431Y0115330D01*
X0352242Y0114332D02*
X0378600Y0114332D01*
X0378600Y0113333D02*
X0353768Y0113333D01*
X0354766Y0112335D02*
X0378600Y0112335D01*
X0378600Y0111336D02*
X0355765Y0111336D01*
X0356763Y0110338D02*
X0378600Y0110338D01*
X0378600Y0109339D02*
X0357762Y0109339D01*
X0358760Y0108341D02*
X0378600Y0108341D01*
X0378600Y0107342D02*
X0359759Y0107342D01*
X0360758Y0106344D02*
X0378600Y0106344D01*
X0378600Y0105345D02*
X0361756Y0105345D01*
X0362755Y0104347D02*
X0378600Y0104347D01*
X0378600Y0103348D02*
X0363753Y0103348D01*
X0364287Y0102350D02*
X0378600Y0102350D01*
X0378600Y0101351D02*
X0364400Y0101351D01*
X0364400Y0100353D02*
X0378600Y0100353D01*
X0378600Y0099354D02*
X0364400Y0099354D01*
X0364400Y0098356D02*
X0378600Y0098356D01*
X0378600Y0097357D02*
X0364400Y0097357D01*
X0364400Y0096359D02*
X0378600Y0096359D01*
X0378600Y0095360D02*
X0364400Y0095360D01*
X0364400Y0094362D02*
X0378600Y0094362D01*
X0378600Y0093363D02*
X0364400Y0093363D01*
X0364400Y0092365D02*
X0378600Y0092365D01*
X0378600Y0091366D02*
X0364400Y0091366D01*
X0364400Y0090368D02*
X0378600Y0090368D01*
X0378600Y0089369D02*
X0364400Y0089369D01*
X0364400Y0088370D02*
X0378600Y0088370D01*
X0378600Y0087372D02*
X0364400Y0087372D01*
X0364400Y0086373D02*
X0378600Y0086373D01*
X0378600Y0085375D02*
X0364400Y0085375D01*
X0364400Y0084376D02*
X0378600Y0084376D01*
X0378600Y0083378D02*
X0364400Y0083378D01*
X0364400Y0082379D02*
X0378600Y0082379D01*
X0378600Y0081381D02*
X0364400Y0081381D01*
X0364400Y0080382D02*
X0378600Y0080382D01*
X0378600Y0079384D02*
X0364400Y0079384D01*
X0364400Y0078385D02*
X0378600Y0078385D01*
X0378600Y0077387D02*
X0364400Y0077387D01*
X0364400Y0076388D02*
X0378600Y0076388D01*
X0378600Y0075390D02*
X0364400Y0075390D01*
X0364400Y0074391D02*
X0378600Y0074391D01*
X0378600Y0073393D02*
X0364400Y0073393D01*
X0364400Y0072394D02*
X0378600Y0072394D01*
X0378600Y0071396D02*
X0364400Y0071396D01*
X0364400Y0070397D02*
X0378600Y0070397D01*
X0378600Y0069399D02*
X0364400Y0069399D01*
X0364400Y0068400D02*
X0378600Y0068400D01*
X0378301Y0067402D02*
X0364400Y0067402D01*
X0364400Y0066403D02*
X0377302Y0066403D01*
X0376304Y0065405D02*
X0364400Y0065405D01*
X0364400Y0064406D02*
X0375305Y0064406D01*
X0368678Y0063408D02*
X0364400Y0063408D01*
X0365320Y0062409D02*
X0367680Y0062409D01*
X0367071Y0061411D02*
X0365929Y0061411D01*
X0366343Y0060412D02*
X0366657Y0060412D01*
X0366600Y0059414D02*
X0366400Y0059414D01*
X0366400Y0058415D02*
X0366600Y0058415D01*
X0366600Y0057417D02*
X0366400Y0057417D01*
X0366400Y0056418D02*
X0366600Y0056418D01*
X0366600Y0055420D02*
X0366400Y0055420D01*
X0366400Y0054421D02*
X0366600Y0054421D01*
X0366600Y0053423D02*
X0366400Y0053423D01*
X0366275Y0052424D02*
X0366725Y0052424D01*
X0367138Y0051426D02*
X0365862Y0051426D01*
X0365157Y0050427D02*
X0367843Y0050427D01*
X0369008Y0049429D02*
X0363992Y0049429D01*
X0373992Y0049429D02*
X0379008Y0049429D01*
X0377843Y0050427D02*
X0375157Y0050427D01*
X0375862Y0051426D02*
X0377138Y0051426D01*
X0376725Y0052424D02*
X0376275Y0052424D01*
X0376400Y0053423D02*
X0376600Y0053423D01*
X0376600Y0054421D02*
X0376400Y0054421D01*
X0376400Y0055420D02*
X0376600Y0055420D01*
X0376600Y0056418D02*
X0376400Y0056418D01*
X0376518Y0057417D02*
X0376600Y0057417D01*
X0358600Y0071396D02*
X0308811Y0071396D01*
X0310314Y0072394D02*
X0333644Y0072394D01*
X0332577Y0073393D02*
X0311274Y0073393D01*
X0311688Y0074391D02*
X0331963Y0074391D01*
X0331613Y0075390D02*
X0312100Y0075390D01*
X0312100Y0076388D02*
X0336000Y0076388D01*
X0336000Y0075390D02*
X0337000Y0075390D01*
X0337000Y0076000D02*
X0337000Y0071517D01*
X0337671Y0071623D01*
X0338419Y0071866D01*
X0339121Y0072224D01*
X0339757Y0072686D01*
X0340314Y0073243D01*
X0340776Y0073879D01*
X0341134Y0074581D01*
X0341377Y0075329D01*
X0341483Y0076000D01*
X0337000Y0076000D01*
X0337000Y0076388D02*
X0358600Y0076388D01*
X0358600Y0075390D02*
X0341386Y0075390D01*
X0341037Y0074391D02*
X0358600Y0074391D01*
X0358600Y0073393D02*
X0340423Y0073393D01*
X0339355Y0072394D02*
X0358600Y0072394D01*
X0358600Y0077387D02*
X0341422Y0077387D01*
X0341145Y0078385D02*
X0358600Y0078385D01*
X0358600Y0079384D02*
X0340585Y0079384D01*
X0339663Y0080382D02*
X0358600Y0080382D01*
X0337000Y0080382D02*
X0336000Y0080382D01*
X0336000Y0079384D02*
X0337000Y0079384D01*
X0337000Y0078385D02*
X0336000Y0078385D01*
X0336000Y0077387D02*
X0337000Y0077387D01*
X0333337Y0080382D02*
X0310537Y0080382D01*
X0311367Y0079384D02*
X0332415Y0079384D01*
X0331855Y0078385D02*
X0311780Y0078385D01*
X0312100Y0077387D02*
X0331578Y0077387D01*
X0336000Y0074391D02*
X0337000Y0074391D01*
X0337000Y0073393D02*
X0336000Y0073393D01*
X0336000Y0072394D02*
X0337000Y0072394D01*
X0338678Y0063408D02*
X0334322Y0063408D01*
X0335320Y0062409D02*
X0337680Y0062409D01*
X0337071Y0061411D02*
X0335929Y0061411D01*
X0336343Y0060412D02*
X0336657Y0060412D01*
X0336600Y0059414D02*
X0336400Y0059414D01*
X0336400Y0058415D02*
X0336600Y0058415D01*
X0336600Y0057417D02*
X0336400Y0057417D01*
X0336400Y0056418D02*
X0336600Y0056418D01*
X0336600Y0055420D02*
X0336400Y0055420D01*
X0336400Y0054421D02*
X0336600Y0054421D01*
X0336600Y0053423D02*
X0336400Y0053423D01*
X0336275Y0052424D02*
X0336725Y0052424D01*
X0337138Y0051426D02*
X0335862Y0051426D01*
X0335157Y0050427D02*
X0337843Y0050427D01*
X0339008Y0049429D02*
X0333992Y0049429D01*
X0329008Y0049429D02*
X0323992Y0049429D01*
X0325157Y0050427D02*
X0327843Y0050427D01*
X0327138Y0051426D02*
X0325862Y0051426D01*
X0326275Y0052424D02*
X0326725Y0052424D01*
X0326600Y0053423D02*
X0326400Y0053423D01*
X0326400Y0054421D02*
X0326600Y0054421D01*
X0326600Y0055420D02*
X0326400Y0055420D01*
X0326400Y0056418D02*
X0326600Y0056418D01*
X0326600Y0057417D02*
X0326400Y0057417D01*
X0326400Y0058415D02*
X0326600Y0058415D01*
X0326600Y0059414D02*
X0326400Y0059414D01*
X0326343Y0060412D02*
X0326657Y0060412D01*
X0327071Y0061411D02*
X0325929Y0061411D01*
X0326490Y0062409D02*
X0325320Y0062409D01*
X0325491Y0063408D02*
X0324322Y0063408D01*
X0318678Y0063408D02*
X0294322Y0063408D01*
X0295320Y0062409D02*
X0317680Y0062409D01*
X0317071Y0061411D02*
X0295929Y0061411D01*
X0296343Y0060412D02*
X0316657Y0060412D01*
X0316600Y0059414D02*
X0296400Y0059414D01*
X0296400Y0058415D02*
X0316600Y0058415D01*
X0316600Y0057417D02*
X0296400Y0057417D01*
X0296400Y0056418D02*
X0316600Y0056418D01*
X0316600Y0055420D02*
X0296400Y0055420D01*
X0296400Y0054421D02*
X0316600Y0054421D01*
X0316600Y0053423D02*
X0296400Y0053423D01*
X0296275Y0052424D02*
X0316725Y0052424D01*
X0317138Y0051426D02*
X0295862Y0051426D01*
X0295157Y0050427D02*
X0317843Y0050427D01*
X0319008Y0049429D02*
X0293992Y0049429D01*
X0292531Y0048430D02*
X0340469Y0048430D01*
X0341467Y0047432D02*
X0291533Y0047432D01*
X0290534Y0046433D02*
X0342466Y0046433D01*
X0343464Y0045434D02*
X0289536Y0045434D01*
X0288537Y0044436D02*
X0344463Y0044436D01*
X0347673Y0049429D02*
X0349008Y0049429D01*
X0347843Y0050427D02*
X0346674Y0050427D01*
X0347138Y0051426D02*
X0345862Y0051426D01*
X0346275Y0052424D02*
X0346725Y0052424D01*
X0346600Y0053423D02*
X0346400Y0053423D01*
X0346400Y0054421D02*
X0346600Y0054421D01*
X0346600Y0055420D02*
X0346400Y0055420D01*
X0346400Y0056418D02*
X0346600Y0056418D01*
X0346600Y0057417D02*
X0346400Y0057417D01*
X0346400Y0058415D02*
X0346600Y0058415D01*
X0346600Y0059414D02*
X0346400Y0059414D01*
X0346343Y0060412D02*
X0346657Y0060412D01*
X0347071Y0061411D02*
X0345929Y0061411D01*
X0345320Y0062409D02*
X0347680Y0062409D01*
X0348678Y0063408D02*
X0344322Y0063408D01*
X0398101Y0043437D02*
X0144400Y0043437D01*
X0144400Y0042439D02*
X0398101Y0042439D01*
X0398101Y0041440D02*
X0144400Y0041440D01*
X0144400Y0040442D02*
X0398101Y0040442D01*
X0398101Y0039443D02*
X0144400Y0039443D01*
X0144400Y0038445D02*
X0194344Y0038445D01*
X0194041Y0038143D02*
X0182299Y0026400D01*
X0179470Y0026400D01*
X0176600Y0023530D01*
X0176600Y0019470D01*
X0179470Y0016600D01*
X0183530Y0016600D01*
X0186400Y0019470D01*
X0186400Y0022299D01*
X0197701Y0033600D01*
X0199077Y0033600D01*
X0198724Y0033454D01*
X0197346Y0032076D01*
X0196600Y0030275D01*
X0196600Y0022725D01*
X0197346Y0020924D01*
X0198724Y0019546D01*
X0200525Y0018800D01*
X0202475Y0018800D01*
X0204276Y0019546D01*
X0205654Y0020924D01*
X0206400Y0022725D01*
X0206400Y0030275D01*
X0205654Y0032076D01*
X0204276Y0033454D01*
X0203923Y0033600D01*
X0209077Y0033600D01*
X0208724Y0033454D01*
X0207346Y0032076D01*
X0206600Y0030275D01*
X0206600Y0022725D01*
X0207346Y0020924D01*
X0208724Y0019546D01*
X0210525Y0018800D01*
X0212475Y0018800D01*
X0214276Y0019546D01*
X0215654Y0020924D01*
X0216400Y0022725D01*
X0216400Y0030275D01*
X0215654Y0032076D01*
X0214276Y0033454D01*
X0213923Y0033600D01*
X0219077Y0033600D01*
X0218724Y0033454D01*
X0217346Y0032076D01*
X0216600Y0030275D01*
X0216600Y0022725D01*
X0217346Y0020924D01*
X0218724Y0019546D01*
X0220525Y0018800D01*
X0222475Y0018800D01*
X0224276Y0019546D01*
X0225654Y0020924D01*
X0226400Y0022725D01*
X0226400Y0030275D01*
X0225654Y0032076D01*
X0224276Y0033454D01*
X0223923Y0033600D01*
X0225299Y0033600D01*
X0227193Y0031706D01*
X0226600Y0030275D01*
X0226600Y0022725D01*
X0227346Y0020924D01*
X0228724Y0019546D01*
X0230525Y0018800D01*
X0232475Y0018800D01*
X0234276Y0019546D01*
X0235654Y0020924D01*
X0236400Y0022725D01*
X0236400Y0030275D01*
X0235807Y0031706D01*
X0237701Y0033600D01*
X0259077Y0033600D01*
X0258724Y0033454D01*
X0257346Y0032076D01*
X0256600Y0030275D01*
X0256600Y0022725D01*
X0257346Y0020924D01*
X0258724Y0019546D01*
X0260525Y0018800D01*
X0262475Y0018800D01*
X0264276Y0019546D01*
X0265654Y0020924D01*
X0266400Y0022725D01*
X0266400Y0030275D01*
X0265654Y0032076D01*
X0264276Y0033454D01*
X0263923Y0033600D01*
X0269077Y0033600D01*
X0268724Y0033454D01*
X0267346Y0032076D01*
X0266600Y0030275D01*
X0266600Y0022725D01*
X0267346Y0020924D01*
X0268724Y0019546D01*
X0270525Y0018800D01*
X0272475Y0018800D01*
X0274276Y0019546D01*
X0275654Y0020924D01*
X0276400Y0022725D01*
X0276400Y0030275D01*
X0275654Y0032076D01*
X0274276Y0033454D01*
X0273923Y0033600D01*
X0279077Y0033600D01*
X0278724Y0033454D01*
X0277346Y0032076D01*
X0276600Y0030275D01*
X0276600Y0022725D01*
X0277346Y0020924D01*
X0278724Y0019546D01*
X0280525Y0018800D01*
X0282475Y0018800D01*
X0284276Y0019546D01*
X0285654Y0020924D01*
X0286400Y0022725D01*
X0286400Y0030275D01*
X0285654Y0032076D01*
X0284276Y0033454D01*
X0283923Y0033600D01*
X0285299Y0033600D01*
X0287193Y0031706D01*
X0286600Y0030275D01*
X0286600Y0022725D01*
X0287346Y0020924D01*
X0288724Y0019546D01*
X0290525Y0018800D01*
X0292475Y0018800D01*
X0294276Y0019546D01*
X0295654Y0020924D01*
X0296400Y0022725D01*
X0296400Y0030275D01*
X0295654Y0032076D01*
X0294276Y0033454D01*
X0293203Y0033898D01*
X0293143Y0033958D01*
X0288143Y0038958D01*
X0287077Y0039400D01*
X0235923Y0039400D01*
X0234857Y0038958D01*
X0234041Y0038143D01*
X0231500Y0035601D01*
X0228958Y0038143D01*
X0228143Y0038958D01*
X0227077Y0039400D01*
X0195923Y0039400D01*
X0194857Y0038958D01*
X0194041Y0038143D01*
X0193345Y0037446D02*
X0144400Y0037446D01*
X0144400Y0036448D02*
X0192347Y0036448D01*
X0191348Y0035449D02*
X0144400Y0035449D01*
X0144400Y0034451D02*
X0190350Y0034451D01*
X0189351Y0033452D02*
X0144400Y0033452D01*
X0144400Y0032454D02*
X0188353Y0032454D01*
X0187354Y0031455D02*
X0144400Y0031455D01*
X0144400Y0030457D02*
X0186356Y0030457D01*
X0185357Y0029458D02*
X0144400Y0029458D01*
X0144400Y0028460D02*
X0184359Y0028460D01*
X0183360Y0027461D02*
X0144400Y0027461D01*
X0144400Y0026463D02*
X0182362Y0026463D01*
X0178535Y0025464D02*
X0163617Y0025464D01*
X0163281Y0025800D02*
X0161800Y0025800D01*
X0161800Y0021800D01*
X0161200Y0021800D01*
X0161200Y0025800D01*
X0159719Y0025800D01*
X0157200Y0023281D01*
X0157200Y0021800D01*
X0161200Y0021800D01*
X0161200Y0021200D01*
X0157200Y0021200D01*
X0157200Y0019719D01*
X0159719Y0017200D01*
X0161200Y0017200D01*
X0161200Y0021200D01*
X0161800Y0021200D01*
X0161800Y0021800D01*
X0165800Y0021800D01*
X0165800Y0023281D01*
X0163281Y0025800D01*
X0161800Y0025464D02*
X0161200Y0025464D01*
X0161200Y0024466D02*
X0161800Y0024466D01*
X0161800Y0023467D02*
X0161200Y0023467D01*
X0161200Y0022469D02*
X0161800Y0022469D01*
X0161800Y0021470D02*
X0176600Y0021470D01*
X0176600Y0020472D02*
X0165800Y0020472D01*
X0165800Y0021200D02*
X0161800Y0021200D01*
X0161800Y0017200D01*
X0163281Y0017200D01*
X0165800Y0019719D01*
X0165800Y0021200D01*
X0165800Y0022469D02*
X0176600Y0022469D01*
X0176600Y0023467D02*
X0165614Y0023467D01*
X0164615Y0024466D02*
X0177536Y0024466D01*
X0186570Y0022469D02*
X0196706Y0022469D01*
X0196600Y0023467D02*
X0187568Y0023467D01*
X0188567Y0024466D02*
X0196600Y0024466D01*
X0196600Y0025464D02*
X0189565Y0025464D01*
X0190564Y0026463D02*
X0196600Y0026463D01*
X0196600Y0027461D02*
X0191563Y0027461D01*
X0192561Y0028460D02*
X0196600Y0028460D01*
X0196600Y0029458D02*
X0193560Y0029458D01*
X0194558Y0030457D02*
X0196675Y0030457D01*
X0197089Y0031455D02*
X0195557Y0031455D01*
X0196555Y0032454D02*
X0197724Y0032454D01*
X0197554Y0033452D02*
X0198723Y0033452D01*
X0204277Y0033452D02*
X0208723Y0033452D01*
X0207724Y0032454D02*
X0205276Y0032454D01*
X0205911Y0031455D02*
X0207089Y0031455D01*
X0206675Y0030457D02*
X0206325Y0030457D01*
X0206400Y0029458D02*
X0206600Y0029458D01*
X0206600Y0028460D02*
X0206400Y0028460D01*
X0206400Y0027461D02*
X0206600Y0027461D01*
X0206600Y0026463D02*
X0206400Y0026463D01*
X0206400Y0025464D02*
X0206600Y0025464D01*
X0206600Y0024466D02*
X0206400Y0024466D01*
X0206400Y0023467D02*
X0206600Y0023467D01*
X0206706Y0022469D02*
X0206294Y0022469D01*
X0205880Y0021470D02*
X0207120Y0021470D01*
X0207799Y0020472D02*
X0205201Y0020472D01*
X0204100Y0019473D02*
X0208900Y0019473D01*
X0214100Y0019473D02*
X0218900Y0019473D01*
X0217799Y0020472D02*
X0215201Y0020472D01*
X0215880Y0021470D02*
X0217120Y0021470D01*
X0216706Y0022469D02*
X0216294Y0022469D01*
X0216400Y0023467D02*
X0216600Y0023467D01*
X0216600Y0024466D02*
X0216400Y0024466D01*
X0216400Y0025464D02*
X0216600Y0025464D01*
X0216600Y0026463D02*
X0216400Y0026463D01*
X0216400Y0027461D02*
X0216600Y0027461D01*
X0216600Y0028460D02*
X0216400Y0028460D01*
X0216400Y0029458D02*
X0216600Y0029458D01*
X0216675Y0030457D02*
X0216325Y0030457D01*
X0215911Y0031455D02*
X0217089Y0031455D01*
X0217724Y0032454D02*
X0215276Y0032454D01*
X0214277Y0033452D02*
X0218723Y0033452D01*
X0224277Y0033452D02*
X0225446Y0033452D01*
X0225276Y0032454D02*
X0226445Y0032454D01*
X0225911Y0031455D02*
X0227089Y0031455D01*
X0226675Y0030457D02*
X0226325Y0030457D01*
X0226400Y0029458D02*
X0226600Y0029458D01*
X0226600Y0028460D02*
X0226400Y0028460D01*
X0226400Y0027461D02*
X0226600Y0027461D01*
X0226600Y0026463D02*
X0226400Y0026463D01*
X0226400Y0025464D02*
X0226600Y0025464D01*
X0226600Y0024466D02*
X0226400Y0024466D01*
X0226400Y0023467D02*
X0226600Y0023467D01*
X0226706Y0022469D02*
X0226294Y0022469D01*
X0225880Y0021470D02*
X0227120Y0021470D01*
X0227799Y0020472D02*
X0225201Y0020472D01*
X0224100Y0019473D02*
X0228900Y0019473D01*
X0234100Y0019473D02*
X0258900Y0019473D01*
X0257799Y0020472D02*
X0235201Y0020472D01*
X0235880Y0021470D02*
X0257120Y0021470D01*
X0256706Y0022469D02*
X0236294Y0022469D01*
X0236400Y0023467D02*
X0256600Y0023467D01*
X0256600Y0024466D02*
X0236400Y0024466D01*
X0236400Y0025464D02*
X0256600Y0025464D01*
X0256600Y0026463D02*
X0236400Y0026463D01*
X0236400Y0027461D02*
X0256600Y0027461D01*
X0256600Y0028460D02*
X0236400Y0028460D01*
X0236400Y0029458D02*
X0256600Y0029458D01*
X0256675Y0030457D02*
X0236325Y0030457D01*
X0235911Y0031455D02*
X0257089Y0031455D01*
X0257724Y0032454D02*
X0236555Y0032454D01*
X0237554Y0033452D02*
X0258723Y0033452D01*
X0264277Y0033452D02*
X0268723Y0033452D01*
X0267724Y0032454D02*
X0265276Y0032454D01*
X0265911Y0031455D02*
X0267089Y0031455D01*
X0266675Y0030457D02*
X0266325Y0030457D01*
X0266400Y0029458D02*
X0266600Y0029458D01*
X0266600Y0028460D02*
X0266400Y0028460D01*
X0266400Y0027461D02*
X0266600Y0027461D01*
X0266600Y0026463D02*
X0266400Y0026463D01*
X0266400Y0025464D02*
X0266600Y0025464D01*
X0266600Y0024466D02*
X0266400Y0024466D01*
X0266400Y0023467D02*
X0266600Y0023467D01*
X0266706Y0022469D02*
X0266294Y0022469D01*
X0265880Y0021470D02*
X0267120Y0021470D01*
X0267799Y0020472D02*
X0265201Y0020472D01*
X0264100Y0019473D02*
X0268900Y0019473D01*
X0274100Y0019473D02*
X0278900Y0019473D01*
X0277799Y0020472D02*
X0275201Y0020472D01*
X0275880Y0021470D02*
X0277120Y0021470D01*
X0276706Y0022469D02*
X0276294Y0022469D01*
X0276400Y0023467D02*
X0276600Y0023467D01*
X0276600Y0024466D02*
X0276400Y0024466D01*
X0276400Y0025464D02*
X0276600Y0025464D01*
X0276600Y0026463D02*
X0276400Y0026463D01*
X0276400Y0027461D02*
X0276600Y0027461D01*
X0276600Y0028460D02*
X0276400Y0028460D01*
X0276400Y0029458D02*
X0276600Y0029458D01*
X0276675Y0030457D02*
X0276325Y0030457D01*
X0275911Y0031455D02*
X0277089Y0031455D01*
X0277724Y0032454D02*
X0275276Y0032454D01*
X0274277Y0033452D02*
X0278723Y0033452D01*
X0284277Y0033452D02*
X0285446Y0033452D01*
X0285276Y0032454D02*
X0286445Y0032454D01*
X0285911Y0031455D02*
X0287089Y0031455D01*
X0286675Y0030457D02*
X0286325Y0030457D01*
X0286400Y0029458D02*
X0286600Y0029458D01*
X0286600Y0028460D02*
X0286400Y0028460D01*
X0286400Y0027461D02*
X0286600Y0027461D01*
X0286600Y0026463D02*
X0286400Y0026463D01*
X0286400Y0025464D02*
X0286600Y0025464D01*
X0286600Y0024466D02*
X0286400Y0024466D01*
X0286400Y0023467D02*
X0286600Y0023467D01*
X0286706Y0022469D02*
X0286294Y0022469D01*
X0285880Y0021470D02*
X0287120Y0021470D01*
X0287799Y0020472D02*
X0285201Y0020472D01*
X0284100Y0019473D02*
X0288900Y0019473D01*
X0294100Y0019473D02*
X0318900Y0019473D01*
X0318724Y0019546D02*
X0320525Y0018800D01*
X0322475Y0018800D01*
X0324276Y0019546D01*
X0325654Y0020924D01*
X0326400Y0022725D01*
X0326400Y0023600D01*
X0326600Y0023600D01*
X0326600Y0022725D01*
X0327346Y0020924D01*
X0328724Y0019546D01*
X0330525Y0018800D01*
X0332475Y0018800D01*
X0334276Y0019546D01*
X0335654Y0020924D01*
X0336400Y0022725D01*
X0336400Y0030275D01*
X0335654Y0032076D01*
X0334276Y0033454D01*
X0332475Y0034200D01*
X0330525Y0034200D01*
X0328724Y0033454D01*
X0327346Y0032076D01*
X0326600Y0030275D01*
X0326600Y0029400D01*
X0326400Y0029400D01*
X0326400Y0030275D01*
X0325654Y0032076D01*
X0324276Y0033454D01*
X0322475Y0034200D01*
X0320525Y0034200D01*
X0318724Y0033454D01*
X0317346Y0032076D01*
X0316600Y0030275D01*
X0316600Y0022725D01*
X0317346Y0020924D01*
X0318724Y0019546D01*
X0317799Y0020472D02*
X0295201Y0020472D01*
X0295880Y0021470D02*
X0317120Y0021470D01*
X0316706Y0022469D02*
X0296294Y0022469D01*
X0296400Y0023467D02*
X0316600Y0023467D01*
X0316600Y0024466D02*
X0296400Y0024466D01*
X0296400Y0025464D02*
X0316600Y0025464D01*
X0316600Y0026463D02*
X0296400Y0026463D01*
X0296400Y0027461D02*
X0316600Y0027461D01*
X0316600Y0028460D02*
X0296400Y0028460D01*
X0296400Y0029458D02*
X0316600Y0029458D01*
X0316675Y0030457D02*
X0296325Y0030457D01*
X0295911Y0031455D02*
X0317089Y0031455D01*
X0317724Y0032454D02*
X0295276Y0032454D01*
X0294277Y0033452D02*
X0318723Y0033452D01*
X0324277Y0033452D02*
X0328723Y0033452D01*
X0327724Y0032454D02*
X0325276Y0032454D01*
X0325911Y0031455D02*
X0327089Y0031455D01*
X0326675Y0030457D02*
X0326325Y0030457D01*
X0326400Y0029458D02*
X0326600Y0029458D01*
X0334277Y0033452D02*
X0340365Y0033452D01*
X0340493Y0033494D02*
X0339849Y0033285D01*
X0339246Y0032978D01*
X0338699Y0032580D01*
X0338220Y0032101D01*
X0337822Y0031554D01*
X0337515Y0030951D01*
X0337306Y0030307D01*
X0337200Y0029638D01*
X0337200Y0026800D01*
X0341200Y0026800D01*
X0341200Y0033600D01*
X0341162Y0033600D01*
X0340493Y0033494D01*
X0341200Y0033452D02*
X0341800Y0033452D01*
X0341800Y0033600D02*
X0341800Y0026800D01*
X0341200Y0026800D01*
X0341200Y0026200D01*
X0337200Y0026200D01*
X0337200Y0023362D01*
X0337306Y0022693D01*
X0337515Y0022049D01*
X0337822Y0021446D01*
X0338220Y0020899D01*
X0338699Y0020420D01*
X0339246Y0020022D01*
X0339849Y0019715D01*
X0340493Y0019506D01*
X0341162Y0019400D01*
X0341200Y0019400D01*
X0341200Y0026200D01*
X0341800Y0026200D01*
X0341800Y0026800D01*
X0345800Y0026800D01*
X0345800Y0029638D01*
X0345694Y0030307D01*
X0345485Y0030951D01*
X0345178Y0031554D01*
X0344780Y0032101D01*
X0344301Y0032580D01*
X0343754Y0032978D01*
X0343151Y0033285D01*
X0342507Y0033494D01*
X0341838Y0033600D01*
X0341800Y0033600D01*
X0342635Y0033452D02*
X0348723Y0033452D01*
X0348724Y0033454D02*
X0347346Y0032076D01*
X0346600Y0030275D01*
X0346600Y0022725D01*
X0347346Y0020924D01*
X0348724Y0019546D01*
X0350525Y0018800D01*
X0352475Y0018800D01*
X0354276Y0019546D01*
X0355654Y0020924D01*
X0356400Y0022725D01*
X0356400Y0030275D01*
X0355654Y0032076D01*
X0354276Y0033454D01*
X0352475Y0034200D01*
X0350525Y0034200D01*
X0348724Y0033454D01*
X0347724Y0032454D02*
X0344427Y0032454D01*
X0345228Y0031455D02*
X0347089Y0031455D01*
X0346675Y0030457D02*
X0345645Y0030457D01*
X0345800Y0029458D02*
X0346600Y0029458D01*
X0346600Y0028460D02*
X0345800Y0028460D01*
X0345800Y0027461D02*
X0346600Y0027461D01*
X0346600Y0026463D02*
X0341800Y0026463D01*
X0341800Y0026200D02*
X0345800Y0026200D01*
X0345800Y0023362D01*
X0345694Y0022693D01*
X0345485Y0022049D01*
X0345178Y0021446D01*
X0344780Y0020899D01*
X0344301Y0020420D01*
X0343754Y0020022D01*
X0343151Y0019715D01*
X0342507Y0019506D01*
X0341838Y0019400D01*
X0341800Y0019400D01*
X0341800Y0026200D01*
X0341200Y0026463D02*
X0336400Y0026463D01*
X0336400Y0027461D02*
X0337200Y0027461D01*
X0337200Y0028460D02*
X0336400Y0028460D01*
X0336400Y0029458D02*
X0337200Y0029458D01*
X0337355Y0030457D02*
X0336325Y0030457D01*
X0335911Y0031455D02*
X0337772Y0031455D01*
X0338573Y0032454D02*
X0335276Y0032454D01*
X0341200Y0032454D02*
X0341800Y0032454D01*
X0341800Y0031455D02*
X0341200Y0031455D01*
X0341200Y0030457D02*
X0341800Y0030457D01*
X0341800Y0029458D02*
X0341200Y0029458D01*
X0341200Y0028460D02*
X0341800Y0028460D01*
X0341800Y0027461D02*
X0341200Y0027461D01*
X0341200Y0025464D02*
X0341800Y0025464D01*
X0341800Y0024466D02*
X0341200Y0024466D01*
X0341200Y0023467D02*
X0341800Y0023467D01*
X0341800Y0022469D02*
X0341200Y0022469D01*
X0341200Y0021470D02*
X0341800Y0021470D01*
X0341800Y0020472D02*
X0341200Y0020472D01*
X0341200Y0019473D02*
X0341800Y0019473D01*
X0342301Y0019473D02*
X0348900Y0019473D01*
X0347799Y0020472D02*
X0344353Y0020472D01*
X0345190Y0021470D02*
X0347120Y0021470D01*
X0346706Y0022469D02*
X0345621Y0022469D01*
X0345800Y0023467D02*
X0346600Y0023467D01*
X0346600Y0024466D02*
X0345800Y0024466D01*
X0345800Y0025464D02*
X0346600Y0025464D01*
X0338647Y0020472D02*
X0335201Y0020472D01*
X0335880Y0021470D02*
X0337810Y0021470D01*
X0337379Y0022469D02*
X0336294Y0022469D01*
X0336400Y0023467D02*
X0337200Y0023467D01*
X0337200Y0024466D02*
X0336400Y0024466D01*
X0336400Y0025464D02*
X0337200Y0025464D01*
X0327799Y0020472D02*
X0325201Y0020472D01*
X0325880Y0021470D02*
X0327120Y0021470D01*
X0326706Y0022469D02*
X0326294Y0022469D01*
X0326400Y0023467D02*
X0326600Y0023467D01*
X0328900Y0019473D02*
X0324100Y0019473D01*
X0334100Y0019473D02*
X0340699Y0019473D01*
X0354100Y0019473D02*
X0358900Y0019473D01*
X0358724Y0019546D02*
X0360525Y0018800D01*
X0362475Y0018800D01*
X0364276Y0019546D01*
X0365654Y0020924D01*
X0366400Y0022725D01*
X0366400Y0030275D01*
X0365654Y0032076D01*
X0364276Y0033454D01*
X0362475Y0034200D01*
X0360525Y0034200D01*
X0358724Y0033454D01*
X0357346Y0032076D01*
X0356600Y0030275D01*
X0356600Y0022725D01*
X0357346Y0020924D01*
X0358724Y0019546D01*
X0357799Y0020472D02*
X0355201Y0020472D01*
X0355880Y0021470D02*
X0357120Y0021470D01*
X0356706Y0022469D02*
X0356294Y0022469D01*
X0356400Y0023467D02*
X0356600Y0023467D01*
X0356600Y0024466D02*
X0356400Y0024466D01*
X0356400Y0025464D02*
X0356600Y0025464D01*
X0356600Y0026463D02*
X0356400Y0026463D01*
X0356400Y0027461D02*
X0356600Y0027461D01*
X0356600Y0028460D02*
X0356400Y0028460D01*
X0356400Y0029458D02*
X0356600Y0029458D01*
X0356675Y0030457D02*
X0356325Y0030457D01*
X0355911Y0031455D02*
X0357089Y0031455D01*
X0357724Y0032454D02*
X0355276Y0032454D01*
X0354277Y0033452D02*
X0358723Y0033452D01*
X0364277Y0033452D02*
X0368723Y0033452D01*
X0368724Y0033454D02*
X0367346Y0032076D01*
X0366600Y0030275D01*
X0366600Y0022725D01*
X0367346Y0020924D01*
X0368724Y0019546D01*
X0370525Y0018800D01*
X0372475Y0018800D01*
X0374276Y0019546D01*
X0375654Y0020924D01*
X0376400Y0022725D01*
X0376400Y0030275D01*
X0375654Y0032076D01*
X0374276Y0033454D01*
X0372475Y0034200D01*
X0370525Y0034200D01*
X0368724Y0033454D01*
X0367724Y0032454D02*
X0365276Y0032454D01*
X0365911Y0031455D02*
X0367089Y0031455D01*
X0366675Y0030457D02*
X0366325Y0030457D01*
X0366400Y0029458D02*
X0366600Y0029458D01*
X0366600Y0028460D02*
X0366400Y0028460D01*
X0366400Y0027461D02*
X0366600Y0027461D01*
X0366600Y0026463D02*
X0366400Y0026463D01*
X0366400Y0025464D02*
X0366600Y0025464D01*
X0366600Y0024466D02*
X0366400Y0024466D01*
X0366400Y0023467D02*
X0366600Y0023467D01*
X0366706Y0022469D02*
X0366294Y0022469D01*
X0365880Y0021470D02*
X0367120Y0021470D01*
X0367799Y0020472D02*
X0365201Y0020472D01*
X0364100Y0019473D02*
X0368900Y0019473D01*
X0374100Y0019473D02*
X0378900Y0019473D01*
X0378724Y0019546D02*
X0380525Y0018800D01*
X0382475Y0018800D01*
X0384276Y0019546D01*
X0385654Y0020924D01*
X0386400Y0022725D01*
X0386400Y0030275D01*
X0385654Y0032076D01*
X0384276Y0033454D01*
X0382475Y0034200D01*
X0380525Y0034200D01*
X0378724Y0033454D01*
X0377346Y0032076D01*
X0376600Y0030275D01*
X0376600Y0022725D01*
X0377346Y0020924D01*
X0378724Y0019546D01*
X0377799Y0020472D02*
X0375201Y0020472D01*
X0375880Y0021470D02*
X0377120Y0021470D01*
X0376706Y0022469D02*
X0376294Y0022469D01*
X0376400Y0023467D02*
X0376600Y0023467D01*
X0376600Y0024466D02*
X0376400Y0024466D01*
X0376400Y0025464D02*
X0376600Y0025464D01*
X0376600Y0026463D02*
X0376400Y0026463D01*
X0376400Y0027461D02*
X0376600Y0027461D01*
X0376600Y0028460D02*
X0376400Y0028460D01*
X0376400Y0029458D02*
X0376600Y0029458D01*
X0376675Y0030457D02*
X0376325Y0030457D01*
X0375911Y0031455D02*
X0377089Y0031455D01*
X0377724Y0032454D02*
X0375276Y0032454D01*
X0374277Y0033452D02*
X0378723Y0033452D01*
X0384277Y0033452D02*
X0398101Y0033452D01*
X0398101Y0032454D02*
X0385276Y0032454D01*
X0385911Y0031455D02*
X0398101Y0031455D01*
X0398101Y0030457D02*
X0386325Y0030457D01*
X0386400Y0029458D02*
X0398101Y0029458D01*
X0398101Y0028460D02*
X0386400Y0028460D01*
X0386400Y0027461D02*
X0398101Y0027461D01*
X0398101Y0026463D02*
X0386400Y0026463D01*
X0386400Y0025464D02*
X0398101Y0025464D01*
X0398101Y0024466D02*
X0386400Y0024466D01*
X0386400Y0023467D02*
X0398101Y0023467D01*
X0398101Y0022469D02*
X0386294Y0022469D01*
X0385880Y0021470D02*
X0398101Y0021470D01*
X0398101Y0020472D02*
X0385201Y0020472D01*
X0384100Y0019473D02*
X0398101Y0019473D01*
X0398101Y0018475D02*
X0185404Y0018475D01*
X0186400Y0019473D02*
X0198900Y0019473D01*
X0197799Y0020472D02*
X0186400Y0020472D01*
X0186400Y0021470D02*
X0197120Y0021470D01*
X0184406Y0017476D02*
X0398101Y0017476D01*
X0398101Y0016478D02*
X0094009Y0016478D01*
X0094672Y0016753D02*
X0096247Y0018328D01*
X0097100Y0020386D01*
X0097100Y0022614D01*
X0096247Y0024672D01*
X0094672Y0026247D01*
X0093115Y0026892D01*
X0094261Y0027367D01*
X0095633Y0028739D01*
X0096375Y0030530D01*
X0096375Y0032470D01*
X0095633Y0034261D01*
X0094261Y0035633D01*
X0092470Y0036375D01*
X0090530Y0036375D01*
X0088739Y0035633D01*
X0087367Y0034261D01*
X0086625Y0032470D01*
X0086625Y0030530D01*
X0087367Y0028739D01*
X0088739Y0027367D01*
X0089885Y0026892D01*
X0088328Y0026247D01*
X0086753Y0024672D01*
X0085900Y0022614D01*
X0085900Y0020386D01*
X0086753Y0018328D01*
X0088328Y0016753D01*
X0090386Y0015900D01*
X0092614Y0015900D01*
X0094672Y0016753D01*
X0095396Y0017476D02*
X0138594Y0017476D01*
X0137596Y0018475D02*
X0096308Y0018475D01*
X0096722Y0019473D02*
X0134426Y0019473D01*
X0133427Y0020472D02*
X0097100Y0020472D01*
X0097100Y0021470D02*
X0132429Y0021470D01*
X0131430Y0022469D02*
X0097100Y0022469D01*
X0096747Y0023467D02*
X0130432Y0023467D01*
X0129433Y0024466D02*
X0096333Y0024466D01*
X0095455Y0025464D02*
X0128790Y0025464D01*
X0128600Y0026463D02*
X0094152Y0026463D01*
X0094355Y0027461D02*
X0128600Y0027461D01*
X0128600Y0028460D02*
X0095354Y0028460D01*
X0095931Y0029458D02*
X0128600Y0029458D01*
X0128600Y0030457D02*
X0096344Y0030457D01*
X0096375Y0031455D02*
X0128600Y0031455D01*
X0128600Y0032454D02*
X0096375Y0032454D01*
X0095968Y0033452D02*
X0128600Y0033452D01*
X0128600Y0034451D02*
X0095443Y0034451D01*
X0094445Y0035449D02*
X0128600Y0035449D01*
X0128600Y0036448D02*
X0003600Y0036448D01*
X0003600Y0037446D02*
X0030142Y0037446D01*
X0029859Y0037538D02*
X0030499Y0037330D01*
X0031164Y0037225D01*
X0031213Y0037225D01*
X0031213Y0041213D01*
X0027225Y0041213D01*
X0027225Y0041164D01*
X0027330Y0040499D01*
X0027538Y0039859D01*
X0027844Y0039260D01*
X0028239Y0038715D01*
X0028715Y0038239D01*
X0029260Y0037844D01*
X0029859Y0037538D01*
X0030530Y0036375D02*
X0028739Y0035633D01*
X0027367Y0034261D01*
X0026625Y0032470D01*
X0026625Y0030530D01*
X0027367Y0028739D01*
X0028739Y0027367D01*
X0029885Y0026892D01*
X0028328Y0026247D01*
X0026753Y0024672D01*
X0025900Y0022614D01*
X0025900Y0020386D01*
X0026753Y0018328D01*
X0028328Y0016753D01*
X0030386Y0015900D01*
X0032614Y0015900D01*
X0034672Y0016753D01*
X0036247Y0018328D01*
X0037100Y0020386D01*
X0037100Y0022614D01*
X0036247Y0024672D01*
X0034672Y0026247D01*
X0033115Y0026892D01*
X0034261Y0027367D01*
X0035633Y0028739D01*
X0036375Y0030530D01*
X0036375Y0032470D01*
X0035633Y0034261D01*
X0034261Y0035633D01*
X0032470Y0036375D01*
X0030530Y0036375D01*
X0031213Y0037446D02*
X0031787Y0037446D01*
X0031787Y0037225D02*
X0031836Y0037225D01*
X0032501Y0037330D01*
X0033141Y0037538D01*
X0033740Y0037844D01*
X0034285Y0038239D01*
X0034761Y0038715D01*
X0035156Y0039260D01*
X0035462Y0039859D01*
X0035670Y0040499D01*
X0035775Y0041164D01*
X0035775Y0041213D01*
X0031787Y0041213D01*
X0031787Y0037225D01*
X0032858Y0037446D02*
X0088660Y0037446D01*
X0088739Y0037367D02*
X0090530Y0036625D01*
X0092470Y0036625D01*
X0094261Y0037367D01*
X0095633Y0038739D01*
X0096375Y0040530D01*
X0096375Y0042470D01*
X0095633Y0044261D01*
X0094261Y0045633D01*
X0092470Y0046375D01*
X0090530Y0046375D01*
X0088739Y0045633D01*
X0087367Y0044261D01*
X0086625Y0042470D01*
X0086625Y0040530D01*
X0087367Y0038739D01*
X0088739Y0037367D01*
X0087661Y0038445D02*
X0034490Y0038445D01*
X0035250Y0039443D02*
X0087075Y0039443D01*
X0086662Y0040442D02*
X0035651Y0040442D01*
X0035775Y0041787D02*
X0031787Y0041787D01*
X0031213Y0041787D01*
X0031213Y0041213D01*
X0031787Y0041213D01*
X0031787Y0041787D01*
X0031787Y0045775D01*
X0031836Y0045775D01*
X0032501Y0045670D01*
X0033141Y0045462D01*
X0033740Y0045156D01*
X0034285Y0044761D01*
X0034761Y0044285D01*
X0035156Y0043740D01*
X0035462Y0043141D01*
X0035670Y0042501D01*
X0035775Y0041836D01*
X0035775Y0041787D01*
X0035679Y0042439D02*
X0086625Y0042439D01*
X0086625Y0041440D02*
X0031787Y0041440D01*
X0031213Y0041440D02*
X0003600Y0041440D01*
X0003600Y0040442D02*
X0027349Y0040442D01*
X0027750Y0039443D02*
X0003600Y0039443D01*
X0003600Y0038445D02*
X0028510Y0038445D01*
X0031213Y0038445D02*
X0031787Y0038445D01*
X0031787Y0039443D02*
X0031213Y0039443D01*
X0031213Y0040442D02*
X0031787Y0040442D01*
X0031213Y0041787D02*
X0027225Y0041787D01*
X0027225Y0041836D01*
X0027330Y0042501D01*
X0027538Y0043141D01*
X0027844Y0043740D01*
X0028239Y0044285D01*
X0028715Y0044761D01*
X0029260Y0045156D01*
X0029859Y0045462D01*
X0030499Y0045670D01*
X0031164Y0045775D01*
X0031213Y0045775D01*
X0031213Y0041787D01*
X0031213Y0042439D02*
X0031787Y0042439D01*
X0031787Y0043437D02*
X0031213Y0043437D01*
X0031213Y0044436D02*
X0031787Y0044436D01*
X0031787Y0045434D02*
X0031213Y0045434D01*
X0030530Y0046625D02*
X0032470Y0046625D01*
X0034261Y0047367D01*
X0035633Y0048739D01*
X0036375Y0050530D01*
X0036375Y0052470D01*
X0035633Y0054261D01*
X0034261Y0055633D01*
X0032470Y0056375D01*
X0030530Y0056375D01*
X0028739Y0055633D01*
X0027367Y0054261D01*
X0026625Y0052470D01*
X0026625Y0050530D01*
X0027367Y0048739D01*
X0028739Y0047367D01*
X0030530Y0046625D01*
X0029806Y0045434D02*
X0003600Y0045434D01*
X0003600Y0044436D02*
X0028391Y0044436D01*
X0027689Y0043437D02*
X0003600Y0043437D01*
X0003600Y0042439D02*
X0027321Y0042439D01*
X0033194Y0045434D02*
X0088540Y0045434D01*
X0087542Y0044436D02*
X0034609Y0044436D01*
X0035311Y0043437D02*
X0087026Y0043437D01*
X0088739Y0047367D02*
X0090530Y0046625D01*
X0092470Y0046625D01*
X0094261Y0047367D01*
X0095633Y0048739D01*
X0096375Y0050530D01*
X0096375Y0052470D01*
X0095633Y0054261D01*
X0094261Y0055633D01*
X0092470Y0056375D01*
X0090530Y0056375D01*
X0088739Y0055633D01*
X0087367Y0054261D01*
X0086625Y0052470D01*
X0086625Y0050530D01*
X0087367Y0048739D01*
X0088739Y0047367D01*
X0088674Y0047432D02*
X0034326Y0047432D01*
X0035324Y0048430D02*
X0087676Y0048430D01*
X0087082Y0049429D02*
X0035918Y0049429D01*
X0036332Y0050427D02*
X0086668Y0050427D01*
X0086625Y0051426D02*
X0036375Y0051426D01*
X0036375Y0052424D02*
X0086625Y0052424D01*
X0087020Y0053423D02*
X0035980Y0053423D01*
X0035473Y0054421D02*
X0087527Y0054421D01*
X0088526Y0055420D02*
X0034474Y0055420D01*
X0034261Y0057367D02*
X0032470Y0056625D01*
X0030530Y0056625D01*
X0028739Y0057367D01*
X0027367Y0058739D01*
X0026625Y0060530D01*
X0026625Y0062470D01*
X0027367Y0064261D01*
X0028739Y0065633D01*
X0030530Y0066375D01*
X0032470Y0066375D01*
X0034261Y0065633D01*
X0035633Y0064261D01*
X0036375Y0062470D01*
X0036375Y0060530D01*
X0035633Y0058739D01*
X0034261Y0057367D01*
X0034311Y0057417D02*
X0088689Y0057417D01*
X0088739Y0057367D02*
X0090530Y0056625D01*
X0092470Y0056625D01*
X0094261Y0057367D01*
X0095633Y0058739D01*
X0096375Y0060530D01*
X0096375Y0062470D01*
X0095633Y0064261D01*
X0094261Y0065633D01*
X0092470Y0066375D01*
X0090530Y0066375D01*
X0088739Y0065633D01*
X0087367Y0064261D01*
X0086625Y0062470D01*
X0086625Y0060530D01*
X0087367Y0058739D01*
X0088739Y0057367D01*
X0087691Y0058415D02*
X0035309Y0058415D01*
X0035912Y0059414D02*
X0087088Y0059414D01*
X0086674Y0060412D02*
X0036326Y0060412D01*
X0036375Y0061411D02*
X0086625Y0061411D01*
X0086625Y0062409D02*
X0036375Y0062409D01*
X0035986Y0063408D02*
X0087014Y0063408D01*
X0087512Y0064406D02*
X0035488Y0064406D01*
X0034489Y0065405D02*
X0088511Y0065405D01*
X0088704Y0067402D02*
X0034296Y0067402D01*
X0035294Y0068400D02*
X0087706Y0068400D01*
X0087094Y0069399D02*
X0035906Y0069399D01*
X0036320Y0070397D02*
X0086680Y0070397D01*
X0086625Y0071396D02*
X0036375Y0071396D01*
X0036375Y0072394D02*
X0086625Y0072394D01*
X0087008Y0073393D02*
X0035992Y0073393D01*
X0035503Y0074391D02*
X0087497Y0074391D01*
X0088496Y0075390D02*
X0034504Y0075390D01*
X0034281Y0077387D02*
X0088719Y0077387D01*
X0087721Y0078385D02*
X0035279Y0078385D01*
X0035900Y0079384D02*
X0087100Y0079384D01*
X0086686Y0080382D02*
X0036314Y0080382D01*
X0036375Y0081381D02*
X0086625Y0081381D01*
X0086625Y0082379D02*
X0036375Y0082379D01*
X0035999Y0083378D02*
X0087001Y0083378D01*
X0087482Y0084376D02*
X0035518Y0084376D01*
X0034519Y0085375D02*
X0088481Y0085375D01*
X0095294Y0068400D02*
X0125499Y0068400D01*
X0126497Y0067402D02*
X0094296Y0067402D01*
X0094489Y0065405D02*
X0128494Y0065405D01*
X0128600Y0064406D02*
X0095488Y0064406D01*
X0095986Y0063408D02*
X0128600Y0063408D01*
X0128600Y0062409D02*
X0096375Y0062409D01*
X0096375Y0061411D02*
X0128600Y0061411D01*
X0128600Y0060412D02*
X0096326Y0060412D01*
X0095912Y0059414D02*
X0128600Y0059414D01*
X0128600Y0058415D02*
X0095309Y0058415D01*
X0094311Y0057417D02*
X0128600Y0057417D01*
X0128600Y0056418D02*
X0003600Y0056418D01*
X0003600Y0055420D02*
X0028526Y0055420D01*
X0027527Y0054421D02*
X0003600Y0054421D01*
X0003600Y0053423D02*
X0027020Y0053423D01*
X0026625Y0052424D02*
X0003600Y0052424D01*
X0003600Y0051426D02*
X0026625Y0051426D01*
X0026668Y0050427D02*
X0003600Y0050427D01*
X0003600Y0049429D02*
X0027082Y0049429D01*
X0027676Y0048430D02*
X0003600Y0048430D01*
X0003600Y0047432D02*
X0028674Y0047432D01*
X0028689Y0057417D02*
X0003600Y0057417D01*
X0003600Y0058415D02*
X0027691Y0058415D01*
X0027088Y0059414D02*
X0003600Y0059414D01*
X0003600Y0060412D02*
X0026674Y0060412D01*
X0026625Y0061411D02*
X0003600Y0061411D01*
X0003600Y0062409D02*
X0026625Y0062409D01*
X0027014Y0063408D02*
X0003600Y0063408D01*
X0003600Y0064406D02*
X0027512Y0064406D01*
X0028511Y0065405D02*
X0003600Y0065405D01*
X0003600Y0066403D02*
X0127496Y0066403D01*
X0131704Y0070397D02*
X0178818Y0070397D01*
X0186400Y0063408D02*
X0200227Y0063408D01*
X0200493Y0063494D02*
X0199849Y0063285D01*
X0199246Y0062978D01*
X0198699Y0062580D01*
X0198220Y0062101D01*
X0197822Y0061554D01*
X0197515Y0060951D01*
X0197306Y0060307D01*
X0197200Y0059638D01*
X0197200Y0056800D01*
X0201200Y0056800D01*
X0201200Y0063600D01*
X0201162Y0063600D01*
X0200493Y0063494D01*
X0201200Y0063408D02*
X0201800Y0063408D01*
X0201800Y0063600D02*
X0201800Y0056800D01*
X0201200Y0056800D01*
X0201200Y0056200D01*
X0197200Y0056200D01*
X0197200Y0053362D01*
X0197306Y0052693D01*
X0197515Y0052049D01*
X0197822Y0051446D01*
X0198220Y0050899D01*
X0198699Y0050420D01*
X0199246Y0050022D01*
X0199849Y0049715D01*
X0200493Y0049506D01*
X0201162Y0049400D01*
X0201200Y0049400D01*
X0201200Y0056200D01*
X0201800Y0056200D01*
X0201800Y0056800D01*
X0205800Y0056800D01*
X0205800Y0059638D01*
X0205694Y0060307D01*
X0205485Y0060951D01*
X0205178Y0061554D01*
X0204780Y0062101D01*
X0204301Y0062580D01*
X0203754Y0062978D01*
X0203151Y0063285D01*
X0202507Y0063494D01*
X0201838Y0063600D01*
X0201800Y0063600D01*
X0202773Y0063408D02*
X0208678Y0063408D01*
X0207680Y0062409D02*
X0204472Y0062409D01*
X0205251Y0061411D02*
X0207071Y0061411D01*
X0206657Y0060412D02*
X0205660Y0060412D01*
X0205800Y0059414D02*
X0206600Y0059414D01*
X0206600Y0058415D02*
X0205800Y0058415D01*
X0205800Y0057417D02*
X0206600Y0057417D01*
X0206600Y0056418D02*
X0201800Y0056418D01*
X0201800Y0056200D02*
X0205800Y0056200D01*
X0205800Y0053362D01*
X0205694Y0052693D01*
X0205485Y0052049D01*
X0205178Y0051446D01*
X0204780Y0050899D01*
X0204301Y0050420D01*
X0203754Y0050022D01*
X0203151Y0049715D01*
X0202507Y0049506D01*
X0201838Y0049400D01*
X0201800Y0049400D01*
X0201800Y0056200D01*
X0201200Y0056418D02*
X0180519Y0056418D01*
X0179521Y0055420D02*
X0197200Y0055420D01*
X0197200Y0054421D02*
X0178522Y0054421D01*
X0184346Y0057417D02*
X0197200Y0057417D01*
X0197200Y0058415D02*
X0185345Y0058415D01*
X0186343Y0059414D02*
X0197200Y0059414D01*
X0197340Y0060412D02*
X0186400Y0060412D01*
X0186400Y0061411D02*
X0197749Y0061411D01*
X0198528Y0062409D02*
X0186400Y0062409D01*
X0201200Y0062409D02*
X0201800Y0062409D01*
X0201800Y0061411D02*
X0201200Y0061411D01*
X0201200Y0060412D02*
X0201800Y0060412D01*
X0201800Y0059414D02*
X0201200Y0059414D01*
X0201200Y0058415D02*
X0201800Y0058415D01*
X0201800Y0057417D02*
X0201200Y0057417D01*
X0201200Y0055420D02*
X0201800Y0055420D01*
X0201800Y0054421D02*
X0201200Y0054421D01*
X0201200Y0053423D02*
X0201800Y0053423D01*
X0201800Y0052424D02*
X0201200Y0052424D01*
X0201200Y0051426D02*
X0201800Y0051426D01*
X0201800Y0050427D02*
X0201200Y0050427D01*
X0201200Y0049429D02*
X0201800Y0049429D01*
X0202019Y0049429D02*
X0209008Y0049429D01*
X0207843Y0050427D02*
X0204308Y0050427D01*
X0205163Y0051426D02*
X0207138Y0051426D01*
X0206725Y0052424D02*
X0205607Y0052424D01*
X0205800Y0053423D02*
X0206600Y0053423D01*
X0206600Y0054421D02*
X0205800Y0054421D01*
X0205800Y0055420D02*
X0206600Y0055420D01*
X0197837Y0051426D02*
X0145527Y0051426D01*
X0146525Y0052424D02*
X0197393Y0052424D01*
X0197200Y0053423D02*
X0147524Y0053423D01*
X0142317Y0056418D02*
X0134400Y0056418D01*
X0134400Y0055420D02*
X0141318Y0055420D01*
X0140320Y0054421D02*
X0134400Y0054421D01*
X0134400Y0053423D02*
X0139321Y0053423D01*
X0138744Y0052424D02*
X0134400Y0052424D01*
X0134400Y0051426D02*
X0138600Y0051426D01*
X0138600Y0050427D02*
X0134400Y0050427D01*
X0134400Y0049429D02*
X0138600Y0049429D01*
X0138600Y0048430D02*
X0134400Y0048430D01*
X0134400Y0047432D02*
X0138600Y0047432D01*
X0138600Y0046433D02*
X0134400Y0046433D01*
X0134400Y0045434D02*
X0138600Y0045434D01*
X0138600Y0044436D02*
X0134400Y0044436D01*
X0134400Y0043437D02*
X0138600Y0043437D01*
X0138600Y0042439D02*
X0134400Y0042439D01*
X0134400Y0041440D02*
X0138600Y0041440D01*
X0138600Y0040442D02*
X0134400Y0040442D01*
X0134400Y0039443D02*
X0138600Y0039443D01*
X0138600Y0038445D02*
X0134400Y0038445D01*
X0134400Y0037446D02*
X0138600Y0037446D01*
X0138600Y0036448D02*
X0134400Y0036448D01*
X0134400Y0035449D02*
X0138600Y0035449D01*
X0138600Y0034451D02*
X0134400Y0034451D01*
X0134400Y0033452D02*
X0138600Y0033452D01*
X0138600Y0032454D02*
X0134400Y0032454D01*
X0134400Y0031455D02*
X0138600Y0031455D01*
X0138600Y0030457D02*
X0134400Y0030457D01*
X0134400Y0029458D02*
X0138600Y0029458D01*
X0138600Y0028460D02*
X0134400Y0028460D01*
X0134640Y0027461D02*
X0138600Y0027461D01*
X0138600Y0026463D02*
X0135638Y0026463D01*
X0136637Y0025464D02*
X0138535Y0025464D01*
X0144465Y0025464D02*
X0159383Y0025464D01*
X0158385Y0024466D02*
X0145464Y0024466D01*
X0146400Y0023467D02*
X0157386Y0023467D01*
X0157200Y0022469D02*
X0146400Y0022469D01*
X0146400Y0021470D02*
X0161200Y0021470D01*
X0161200Y0020472D02*
X0161800Y0020472D01*
X0161800Y0019473D02*
X0161200Y0019473D01*
X0161200Y0018475D02*
X0161800Y0018475D01*
X0161800Y0017476D02*
X0161200Y0017476D01*
X0159443Y0017476D02*
X0144406Y0017476D01*
X0145404Y0018475D02*
X0158444Y0018475D01*
X0157446Y0019473D02*
X0146400Y0019473D01*
X0146400Y0020472D02*
X0157200Y0020472D01*
X0164556Y0018475D02*
X0177596Y0018475D01*
X0176600Y0019473D02*
X0165554Y0019473D01*
X0163557Y0017476D02*
X0178594Y0017476D01*
X0228656Y0038445D02*
X0234344Y0038445D01*
X0234041Y0038143D02*
X0234041Y0038143D01*
X0233345Y0037446D02*
X0229655Y0037446D01*
X0228958Y0038143D02*
X0228958Y0038143D01*
X0230653Y0036448D02*
X0232347Y0036448D01*
X0214463Y0044436D02*
X0144400Y0044436D01*
X0144400Y0045434D02*
X0213464Y0045434D01*
X0212466Y0046433D02*
X0144400Y0046433D01*
X0144400Y0047432D02*
X0211467Y0047432D01*
X0210469Y0048430D02*
X0144400Y0048430D01*
X0144400Y0049429D02*
X0200981Y0049429D01*
X0198692Y0050427D02*
X0144528Y0050427D01*
X0138654Y0057417D02*
X0134400Y0057417D01*
X0134400Y0058415D02*
X0137655Y0058415D01*
X0136657Y0059414D02*
X0134400Y0059414D01*
X0134400Y0060412D02*
X0136600Y0060412D01*
X0136600Y0061411D02*
X0134400Y0061411D01*
X0134400Y0062409D02*
X0136600Y0062409D01*
X0136600Y0063408D02*
X0134400Y0063408D01*
X0134400Y0064406D02*
X0137477Y0064406D01*
X0138475Y0065405D02*
X0134400Y0065405D01*
X0134400Y0066403D02*
X0162302Y0066403D01*
X0163301Y0067402D02*
X0134265Y0067402D01*
X0133701Y0068400D02*
X0164299Y0068400D01*
X0165920Y0069399D02*
X0132702Y0069399D01*
X0144525Y0065405D02*
X0158475Y0065405D01*
X0157477Y0064406D02*
X0145523Y0064406D01*
X0128600Y0055420D02*
X0094474Y0055420D01*
X0095473Y0054421D02*
X0128600Y0054421D01*
X0128600Y0053423D02*
X0095980Y0053423D01*
X0096375Y0052424D02*
X0128600Y0052424D01*
X0128600Y0051426D02*
X0096375Y0051426D01*
X0096332Y0050427D02*
X0128600Y0050427D01*
X0128600Y0049429D02*
X0095918Y0049429D01*
X0095324Y0048430D02*
X0128600Y0048430D01*
X0128600Y0047432D02*
X0094326Y0047432D01*
X0094459Y0045434D02*
X0128600Y0045434D01*
X0128600Y0044436D02*
X0095458Y0044436D01*
X0095974Y0043437D02*
X0128600Y0043437D01*
X0128600Y0042439D02*
X0096375Y0042439D01*
X0096375Y0041440D02*
X0128600Y0041440D01*
X0128600Y0040442D02*
X0096338Y0040442D01*
X0095925Y0039443D02*
X0128600Y0039443D01*
X0128600Y0038445D02*
X0095339Y0038445D01*
X0094340Y0037446D02*
X0128600Y0037446D01*
X0128600Y0046433D02*
X0003600Y0046433D01*
X0003600Y0035449D02*
X0028555Y0035449D01*
X0027557Y0034451D02*
X0003600Y0034451D01*
X0003600Y0033452D02*
X0027032Y0033452D01*
X0026625Y0032454D02*
X0003600Y0032454D01*
X0003600Y0031455D02*
X0026625Y0031455D01*
X0026656Y0030457D02*
X0003600Y0030457D01*
X0003600Y0029458D02*
X0027069Y0029458D01*
X0027646Y0028460D02*
X0003600Y0028460D01*
X0003600Y0027461D02*
X0028645Y0027461D01*
X0028848Y0026463D02*
X0003600Y0026463D01*
X0003600Y0025464D02*
X0027545Y0025464D01*
X0026667Y0024466D02*
X0003600Y0024466D01*
X0003600Y0023467D02*
X0026253Y0023467D01*
X0025900Y0022469D02*
X0003600Y0022469D01*
X0003600Y0021470D02*
X0025900Y0021470D01*
X0025900Y0020472D02*
X0003600Y0020472D01*
X0003600Y0019473D02*
X0026278Y0019473D01*
X0026692Y0018475D02*
X0003600Y0018475D01*
X0003600Y0017476D02*
X0027604Y0017476D01*
X0028991Y0016478D02*
X0003600Y0016478D01*
X0003600Y0015479D02*
X0398101Y0015479D01*
X0398101Y0014481D02*
X0003600Y0014481D01*
X0003600Y0013482D02*
X0398101Y0013482D01*
X0398101Y0012484D02*
X0003600Y0012484D01*
X0003600Y0011485D02*
X0398101Y0011485D01*
X0398101Y0010487D02*
X0003600Y0010487D01*
X0003600Y0009488D02*
X0398101Y0009488D01*
X0398101Y0008490D02*
X0003600Y0008490D01*
X0003600Y0007491D02*
X0398101Y0007491D01*
X0398101Y0006493D02*
X0003600Y0006493D01*
X0003600Y0005494D02*
X0398101Y0005494D01*
X0398101Y0004496D02*
X0003600Y0004496D01*
X0034009Y0016478D02*
X0088991Y0016478D01*
X0087604Y0017476D02*
X0035396Y0017476D01*
X0036308Y0018475D02*
X0086692Y0018475D01*
X0086278Y0019473D02*
X0036722Y0019473D01*
X0037100Y0020472D02*
X0085900Y0020472D01*
X0085900Y0021470D02*
X0037100Y0021470D01*
X0037100Y0022469D02*
X0085900Y0022469D01*
X0086253Y0023467D02*
X0036747Y0023467D01*
X0036333Y0024466D02*
X0086667Y0024466D01*
X0087545Y0025464D02*
X0035455Y0025464D01*
X0034152Y0026463D02*
X0088848Y0026463D01*
X0088645Y0027461D02*
X0034355Y0027461D01*
X0035354Y0028460D02*
X0087646Y0028460D01*
X0087069Y0029458D02*
X0035931Y0029458D01*
X0036344Y0030457D02*
X0086656Y0030457D01*
X0086625Y0031455D02*
X0036375Y0031455D01*
X0036375Y0032454D02*
X0086625Y0032454D01*
X0087032Y0033452D02*
X0035968Y0033452D01*
X0035443Y0034451D02*
X0087557Y0034451D01*
X0088555Y0035449D02*
X0034445Y0035449D01*
X0028704Y0067402D02*
X0003600Y0067402D01*
X0003600Y0068400D02*
X0027706Y0068400D01*
X0027094Y0069399D02*
X0003600Y0069399D01*
X0003600Y0070397D02*
X0026680Y0070397D01*
X0026625Y0071396D02*
X0003600Y0071396D01*
X0003600Y0072394D02*
X0026625Y0072394D01*
X0027008Y0073393D02*
X0003600Y0073393D01*
X0003600Y0074391D02*
X0027497Y0074391D01*
X0174381Y0103348D02*
X0178619Y0103348D01*
X0177620Y0102350D02*
X0175380Y0102350D01*
X0175954Y0101351D02*
X0177046Y0101351D01*
X0176632Y0100353D02*
X0176368Y0100353D01*
X0184381Y0103348D02*
X0188619Y0103348D01*
X0187620Y0102350D02*
X0185380Y0102350D01*
X0185954Y0101351D02*
X0187046Y0101351D01*
X0186632Y0100353D02*
X0186368Y0100353D01*
X0186400Y0099354D02*
X0186600Y0099354D01*
X0186600Y0098356D02*
X0186400Y0098356D01*
X0186400Y0097357D02*
X0186600Y0097357D01*
X0186600Y0096359D02*
X0186400Y0096359D01*
X0186400Y0095360D02*
X0186600Y0095360D01*
X0186600Y0094362D02*
X0186400Y0094362D01*
X0186400Y0093363D02*
X0186600Y0093363D01*
X0186749Y0092365D02*
X0186251Y0092365D01*
X0185837Y0091366D02*
X0187163Y0091366D01*
X0187903Y0090368D02*
X0185097Y0090368D01*
X0199290Y0107342D02*
X0214577Y0107342D01*
X0213578Y0108341D02*
X0198760Y0108341D01*
X0197762Y0109339D02*
X0212580Y0109339D01*
X0212200Y0110338D02*
X0196763Y0110338D01*
X0194766Y0112335D02*
X0212200Y0112335D01*
X0212252Y0113333D02*
X0193768Y0113333D01*
X0192242Y0114332D02*
X0213251Y0114332D01*
X0214249Y0115330D02*
X0181771Y0115330D01*
X0216200Y0115330D02*
X0216800Y0115330D01*
X0216800Y0114332D02*
X0216200Y0114332D01*
X0216200Y0113333D02*
X0216800Y0113333D01*
X0216800Y0112335D02*
X0216200Y0112335D01*
X0216200Y0110338D02*
X0216800Y0110338D01*
X0216800Y0109339D02*
X0216200Y0109339D01*
X0216200Y0108341D02*
X0216800Y0108341D01*
X0216800Y0107342D02*
X0216200Y0107342D01*
X0213669Y0139295D02*
X0219331Y0139295D01*
X0217977Y0140293D02*
X0215023Y0140293D01*
X0215806Y0141292D02*
X0217194Y0141292D01*
X0216780Y0142290D02*
X0216220Y0142290D01*
X0216400Y0143289D02*
X0216600Y0143289D01*
X0216600Y0144287D02*
X0216400Y0144287D01*
X0216400Y0145286D02*
X0216600Y0145286D01*
X0216600Y0146284D02*
X0216400Y0146284D01*
X0216400Y0147283D02*
X0216600Y0147283D01*
X0216600Y0148281D02*
X0216400Y0148281D01*
X0216400Y0149280D02*
X0216600Y0149280D01*
X0216601Y0150278D02*
X0216399Y0150278D01*
X0215985Y0151277D02*
X0217015Y0151277D01*
X0217546Y0152275D02*
X0215454Y0152275D01*
X0214456Y0153274D02*
X0218544Y0153274D01*
X0224456Y0153274D02*
X0228544Y0153274D01*
X0227546Y0152275D02*
X0225454Y0152275D01*
X0225985Y0151277D02*
X0227015Y0151277D01*
X0226601Y0150278D02*
X0226399Y0150278D01*
X0226400Y0149280D02*
X0226600Y0149280D01*
X0226600Y0148281D02*
X0226400Y0148281D01*
X0226400Y0147283D02*
X0226600Y0147283D01*
X0226600Y0146284D02*
X0226400Y0146284D01*
X0226400Y0145286D02*
X0226600Y0145286D01*
X0226600Y0144287D02*
X0226400Y0144287D01*
X0226400Y0143289D02*
X0226600Y0143289D01*
X0226780Y0142290D02*
X0226220Y0142290D01*
X0225806Y0141292D02*
X0227194Y0141292D01*
X0227977Y0140293D02*
X0225023Y0140293D01*
X0223669Y0139295D02*
X0229331Y0139295D01*
X0233669Y0139295D02*
X0239331Y0139295D01*
X0237977Y0140293D02*
X0235023Y0140293D01*
X0235806Y0141292D02*
X0237194Y0141292D01*
X0236780Y0142290D02*
X0236220Y0142290D01*
X0236400Y0143289D02*
X0236600Y0143289D01*
X0236600Y0144287D02*
X0236400Y0144287D01*
X0236400Y0145286D02*
X0236600Y0145286D01*
X0236600Y0146284D02*
X0236400Y0146284D01*
X0236400Y0147283D02*
X0236600Y0147283D01*
X0236600Y0148281D02*
X0236400Y0148281D01*
X0236400Y0149280D02*
X0236600Y0149280D01*
X0236601Y0150278D02*
X0236399Y0150278D01*
X0235985Y0151277D02*
X0237015Y0151277D01*
X0237546Y0152275D02*
X0235454Y0152275D01*
X0234456Y0153274D02*
X0238544Y0153274D01*
X0239439Y0169250D02*
X0233561Y0169250D01*
X0234978Y0170248D02*
X0238022Y0170248D01*
X0237212Y0171247D02*
X0235788Y0171247D01*
X0236201Y0172245D02*
X0236799Y0172245D01*
X0236600Y0173244D02*
X0236400Y0173244D01*
X0236400Y0174242D02*
X0236600Y0174242D01*
X0236600Y0175241D02*
X0236400Y0175241D01*
X0236400Y0176239D02*
X0236600Y0176239D01*
X0236600Y0177238D02*
X0236400Y0177238D01*
X0236400Y0178237D02*
X0236600Y0178237D01*
X0236600Y0179235D02*
X0236400Y0179235D01*
X0236400Y0180234D02*
X0236600Y0180234D01*
X0236997Y0181232D02*
X0236003Y0181232D01*
X0235499Y0182231D02*
X0237501Y0182231D01*
X0238499Y0183229D02*
X0234501Y0183229D01*
X0234400Y0184228D02*
X0378600Y0184228D01*
X0378600Y0185226D02*
X0234400Y0185226D01*
X0235326Y0186225D02*
X0377674Y0186225D01*
X0376676Y0187223D02*
X0236324Y0187223D01*
X0237323Y0188222D02*
X0375677Y0188222D01*
X0374276Y0183454D02*
X0372475Y0184200D01*
X0370525Y0184200D01*
X0368724Y0183454D01*
X0367346Y0182076D01*
X0366600Y0180275D01*
X0366600Y0172725D01*
X0367346Y0170924D01*
X0368724Y0169546D01*
X0370525Y0168800D01*
X0372475Y0168800D01*
X0374276Y0169546D01*
X0375654Y0170924D01*
X0376400Y0172725D01*
X0376400Y0180275D01*
X0375654Y0182076D01*
X0374276Y0183454D01*
X0374501Y0183229D02*
X0378499Y0183229D01*
X0377501Y0182231D02*
X0375499Y0182231D01*
X0376003Y0181232D02*
X0376997Y0181232D01*
X0376600Y0180234D02*
X0376400Y0180234D01*
X0376400Y0179235D02*
X0376600Y0179235D01*
X0376600Y0178237D02*
X0376400Y0178237D01*
X0376400Y0177238D02*
X0376600Y0177238D01*
X0376600Y0176239D02*
X0376400Y0176239D01*
X0376400Y0175241D02*
X0376600Y0175241D01*
X0376600Y0174242D02*
X0376400Y0174242D01*
X0376400Y0173244D02*
X0376600Y0173244D01*
X0376799Y0172245D02*
X0376201Y0172245D01*
X0375788Y0171247D02*
X0377212Y0171247D01*
X0378022Y0170248D02*
X0374978Y0170248D01*
X0373561Y0169250D02*
X0379439Y0169250D01*
X0369439Y0169250D02*
X0364400Y0169250D01*
X0364978Y0170248D02*
X0368022Y0170248D01*
X0367212Y0171247D02*
X0365788Y0171247D01*
X0366201Y0172245D02*
X0366799Y0172245D01*
X0366600Y0173244D02*
X0366400Y0173244D01*
X0366400Y0174242D02*
X0366600Y0174242D01*
X0366600Y0175241D02*
X0366400Y0175241D01*
X0366400Y0176239D02*
X0366600Y0176239D01*
X0366600Y0177238D02*
X0366400Y0177238D01*
X0366400Y0178237D02*
X0366600Y0178237D01*
X0366600Y0179235D02*
X0366400Y0179235D01*
X0366400Y0180234D02*
X0366600Y0180234D01*
X0366997Y0181232D02*
X0366003Y0181232D01*
X0365499Y0182231D02*
X0367501Y0182231D01*
X0368499Y0183229D02*
X0364501Y0183229D01*
X0358544Y0153274D02*
X0354456Y0153274D01*
X0355454Y0152275D02*
X0357546Y0152275D01*
X0357015Y0151277D02*
X0355985Y0151277D01*
X0356399Y0150278D02*
X0356601Y0150278D01*
X0356600Y0149280D02*
X0356400Y0149280D01*
X0356400Y0148281D02*
X0356600Y0148281D01*
X0356600Y0147283D02*
X0356400Y0147283D01*
X0356400Y0146284D02*
X0356600Y0146284D01*
X0356600Y0145286D02*
X0356400Y0145286D01*
X0356400Y0144287D02*
X0356600Y0144287D01*
X0356600Y0143289D02*
X0356400Y0143289D01*
X0356220Y0142290D02*
X0356780Y0142290D01*
X0357194Y0141292D02*
X0355806Y0141292D01*
X0355023Y0140293D02*
X0357977Y0140293D01*
X0359331Y0139295D02*
X0353669Y0139295D01*
X0349331Y0139295D02*
X0343669Y0139295D01*
X0345023Y0140293D02*
X0347977Y0140293D01*
X0347194Y0141292D02*
X0345806Y0141292D01*
X0346220Y0142290D02*
X0346780Y0142290D01*
X0346600Y0143289D02*
X0346400Y0143289D01*
X0346400Y0144287D02*
X0346600Y0144287D01*
X0346600Y0145286D02*
X0346400Y0145286D01*
X0346400Y0146284D02*
X0346600Y0146284D01*
X0346600Y0147283D02*
X0346400Y0147283D01*
X0346400Y0148281D02*
X0346600Y0148281D01*
X0346600Y0149280D02*
X0346400Y0149280D01*
X0346399Y0150278D02*
X0346601Y0150278D01*
X0347015Y0151277D02*
X0345985Y0151277D01*
X0346376Y0152275D02*
X0347546Y0152275D01*
X0347375Y0153274D02*
X0348544Y0153274D01*
X0338544Y0153274D02*
X0334456Y0153274D01*
X0335454Y0152275D02*
X0337546Y0152275D01*
X0337015Y0151277D02*
X0335985Y0151277D01*
X0336399Y0150278D02*
X0336601Y0150278D01*
X0336600Y0149280D02*
X0336400Y0149280D01*
X0336400Y0148281D02*
X0336600Y0148281D01*
X0336600Y0147283D02*
X0336400Y0147283D01*
X0336400Y0146284D02*
X0336600Y0146284D01*
X0326600Y0146284D02*
X0326400Y0146284D01*
X0326400Y0145286D02*
X0326600Y0145286D01*
X0326600Y0144287D02*
X0326400Y0144287D01*
X0326400Y0143289D02*
X0326600Y0143289D01*
X0326780Y0142290D02*
X0326220Y0142290D01*
X0325806Y0141292D02*
X0327194Y0141292D01*
X0327977Y0140293D02*
X0325023Y0140293D01*
X0323669Y0139295D02*
X0329331Y0139295D01*
X0326600Y0147283D02*
X0326400Y0147283D01*
X0326400Y0148281D02*
X0326600Y0148281D01*
X0326600Y0149280D02*
X0326400Y0149280D01*
X0326399Y0150278D02*
X0326601Y0150278D01*
X0327015Y0151277D02*
X0325985Y0151277D01*
X0325454Y0152275D02*
X0327546Y0152275D01*
X0328544Y0153274D02*
X0324456Y0153274D01*
X0248499Y0183229D02*
X0244501Y0183229D01*
X0245499Y0182231D02*
X0247501Y0182231D01*
X0246997Y0181232D02*
X0246003Y0181232D01*
X0246400Y0180234D02*
X0246600Y0180234D01*
X0228499Y0183229D02*
X0224501Y0183229D01*
X0224276Y0183454D02*
X0222475Y0184200D01*
X0220525Y0184200D01*
X0218724Y0183454D01*
X0217346Y0182076D01*
X0216600Y0180275D01*
X0216600Y0172725D01*
X0217346Y0170924D01*
X0218724Y0169546D01*
X0220525Y0168800D01*
X0222475Y0168800D01*
X0224276Y0169546D01*
X0225654Y0170924D01*
X0226400Y0172725D01*
X0226400Y0180275D01*
X0225654Y0182076D01*
X0224276Y0183454D01*
X0225499Y0182231D02*
X0227501Y0182231D01*
X0226997Y0181232D02*
X0226003Y0181232D01*
X0226400Y0180234D02*
X0226600Y0180234D01*
X0226600Y0179235D02*
X0226400Y0179235D01*
X0226400Y0178237D02*
X0226600Y0178237D01*
X0226600Y0177238D02*
X0226400Y0177238D01*
X0226400Y0176239D02*
X0226600Y0176239D01*
X0226600Y0175241D02*
X0226400Y0175241D01*
X0226400Y0174242D02*
X0226600Y0174242D01*
X0226600Y0173244D02*
X0226400Y0173244D01*
X0226201Y0172245D02*
X0226799Y0172245D01*
X0227212Y0171247D02*
X0225788Y0171247D01*
X0224978Y0170248D02*
X0228022Y0170248D01*
X0229439Y0169250D02*
X0223561Y0169250D01*
X0219439Y0169250D02*
X0213561Y0169250D01*
X0214276Y0169546D02*
X0212475Y0168800D01*
X0210525Y0168800D01*
X0208724Y0169546D01*
X0207346Y0170924D01*
X0206600Y0172725D01*
X0206600Y0180275D01*
X0207346Y0182076D01*
X0208724Y0183454D01*
X0210525Y0184200D01*
X0212475Y0184200D01*
X0214276Y0183454D01*
X0215654Y0182076D01*
X0216400Y0180275D01*
X0216400Y0172725D01*
X0215654Y0170924D01*
X0214276Y0169546D01*
X0214978Y0170248D02*
X0218022Y0170248D01*
X0217212Y0171247D02*
X0215788Y0171247D01*
X0216201Y0172245D02*
X0216799Y0172245D01*
X0216600Y0173244D02*
X0216400Y0173244D01*
X0216400Y0174242D02*
X0216600Y0174242D01*
X0216600Y0175241D02*
X0216400Y0175241D01*
X0216400Y0176239D02*
X0216600Y0176239D01*
X0216600Y0177238D02*
X0216400Y0177238D01*
X0216400Y0178237D02*
X0216600Y0178237D01*
X0216600Y0179235D02*
X0216400Y0179235D01*
X0216400Y0180234D02*
X0216600Y0180234D01*
X0216997Y0181232D02*
X0216003Y0181232D01*
X0215499Y0182231D02*
X0217501Y0182231D01*
X0218499Y0183229D02*
X0214501Y0183229D01*
X0208499Y0183229D02*
X0203260Y0183229D01*
X0203151Y0183285D02*
X0202507Y0183494D01*
X0201838Y0183600D01*
X0201800Y0183600D01*
X0201800Y0176800D01*
X0205800Y0176800D01*
X0205800Y0179638D01*
X0205694Y0180307D01*
X0205485Y0180951D01*
X0205178Y0181554D01*
X0204780Y0182101D01*
X0204301Y0182580D01*
X0203754Y0182978D01*
X0203151Y0183285D01*
X0201800Y0183229D02*
X0201200Y0183229D01*
X0201200Y0182231D02*
X0201800Y0182231D01*
X0201800Y0181232D02*
X0201200Y0181232D01*
X0201200Y0180234D02*
X0201800Y0180234D01*
X0201800Y0179235D02*
X0201200Y0179235D01*
X0201200Y0178237D02*
X0201800Y0178237D01*
X0201800Y0177238D02*
X0201200Y0177238D01*
X0201800Y0176239D02*
X0206600Y0176239D01*
X0205800Y0176200D02*
X0201800Y0176200D01*
X0201800Y0169400D01*
X0201838Y0169400D01*
X0202507Y0169506D01*
X0203151Y0169715D01*
X0203754Y0170022D01*
X0204301Y0170420D01*
X0204780Y0170899D01*
X0205178Y0171446D01*
X0205485Y0172049D01*
X0205694Y0172693D01*
X0205800Y0173362D01*
X0205800Y0176200D01*
X0205800Y0175241D02*
X0206600Y0175241D01*
X0206600Y0174242D02*
X0205800Y0174242D01*
X0205781Y0173244D02*
X0206600Y0173244D01*
X0206799Y0172245D02*
X0205549Y0172245D01*
X0205033Y0171247D02*
X0207212Y0171247D01*
X0208022Y0170248D02*
X0204065Y0170248D01*
X0201800Y0170248D02*
X0201200Y0170248D01*
X0201200Y0171247D02*
X0201800Y0171247D01*
X0201800Y0172245D02*
X0201200Y0172245D01*
X0201200Y0173244D02*
X0201800Y0173244D01*
X0201800Y0174242D02*
X0201200Y0174242D01*
X0201200Y0175241D02*
X0201800Y0175241D01*
X0205800Y0177238D02*
X0206600Y0177238D01*
X0206600Y0178237D02*
X0205800Y0178237D01*
X0205800Y0179235D02*
X0206600Y0179235D01*
X0206600Y0180234D02*
X0205706Y0180234D01*
X0205342Y0181232D02*
X0206997Y0181232D01*
X0207501Y0182231D02*
X0204651Y0182231D01*
X0199740Y0183229D02*
X0199400Y0183229D01*
X0199400Y0184228D02*
X0228600Y0184228D01*
X0228600Y0185226D02*
X0199400Y0185226D01*
X0199400Y0186225D02*
X0228600Y0186225D01*
X0228661Y0187223D02*
X0199339Y0187223D01*
X0198880Y0188222D02*
X0229120Y0188222D01*
X0230119Y0189220D02*
X0197881Y0189220D01*
X0196883Y0190219D02*
X0231117Y0190219D01*
X0232116Y0191217D02*
X0195884Y0191217D01*
X0194886Y0192216D02*
X0233114Y0192216D01*
X0234113Y0193214D02*
X0193887Y0193214D01*
X0192529Y0194213D02*
X0235471Y0194213D01*
X0209439Y0169250D02*
X0199400Y0169250D01*
X0194627Y0154272D02*
X0194400Y0154272D01*
X0194400Y0153274D02*
X0195625Y0153274D01*
X0205985Y0151277D02*
X0207015Y0151277D01*
X0206601Y0150278D02*
X0206399Y0150278D01*
X0206400Y0149280D02*
X0206600Y0149280D01*
X0206600Y0148281D02*
X0206400Y0148281D01*
X0206400Y0147283D02*
X0206600Y0147283D01*
X0206600Y0146284D02*
X0206400Y0146284D01*
X0206400Y0145286D02*
X0206600Y0145286D01*
X0206600Y0144287D02*
X0206400Y0144287D01*
X0206400Y0143289D02*
X0206600Y0143289D01*
X0206780Y0142290D02*
X0206220Y0142290D01*
X0205806Y0141292D02*
X0207194Y0141292D01*
X0207977Y0140293D02*
X0205023Y0140293D01*
X0203669Y0139295D02*
X0209331Y0139295D01*
X0207546Y0152275D02*
X0206376Y0152275D01*
X0207375Y0153274D02*
X0208544Y0153274D01*
X0218501Y0068600D02*
X0220299Y0068600D01*
X0224857Y0064041D01*
X0225923Y0063600D01*
X0265299Y0063600D01*
X0267193Y0061706D01*
X0266600Y0060275D01*
X0266600Y0052725D01*
X0267346Y0050924D01*
X0268724Y0049546D01*
X0269077Y0049400D01*
X0223923Y0049400D01*
X0224276Y0049546D01*
X0225654Y0050924D01*
X0226400Y0052725D01*
X0226400Y0060275D01*
X0225654Y0062076D01*
X0224276Y0063454D01*
X0223203Y0063898D01*
X0218958Y0068143D01*
X0218501Y0068600D01*
X0218701Y0068400D02*
X0220499Y0068400D01*
X0219699Y0067402D02*
X0221497Y0067402D01*
X0220698Y0066403D02*
X0222496Y0066403D01*
X0221696Y0065405D02*
X0223494Y0065405D01*
X0222695Y0064406D02*
X0224493Y0064406D01*
X0224322Y0063408D02*
X0230227Y0063408D01*
X0230493Y0063494D02*
X0229849Y0063285D01*
X0229246Y0062978D01*
X0228699Y0062580D01*
X0228220Y0062101D01*
X0227822Y0061554D01*
X0227515Y0060951D01*
X0227306Y0060307D01*
X0227200Y0059638D01*
X0227200Y0056800D01*
X0231200Y0056800D01*
X0231200Y0063600D01*
X0231162Y0063600D01*
X0230493Y0063494D01*
X0231200Y0063408D02*
X0231800Y0063408D01*
X0231800Y0063600D02*
X0231800Y0056800D01*
X0231200Y0056800D01*
X0231200Y0056200D01*
X0227200Y0056200D01*
X0227200Y0053362D01*
X0227306Y0052693D01*
X0227515Y0052049D01*
X0227822Y0051446D01*
X0228220Y0050899D01*
X0228699Y0050420D01*
X0229246Y0050022D01*
X0229849Y0049715D01*
X0230493Y0049506D01*
X0231162Y0049400D01*
X0231200Y0049400D01*
X0231200Y0056200D01*
X0231800Y0056200D01*
X0231800Y0056800D01*
X0235800Y0056800D01*
X0235800Y0059638D01*
X0235694Y0060307D01*
X0235485Y0060951D01*
X0235178Y0061554D01*
X0234780Y0062101D01*
X0234301Y0062580D01*
X0233754Y0062978D01*
X0233151Y0063285D01*
X0232507Y0063494D01*
X0231838Y0063600D01*
X0231800Y0063600D01*
X0232773Y0063408D02*
X0260227Y0063408D01*
X0260493Y0063494D02*
X0259849Y0063285D01*
X0259246Y0062978D01*
X0258699Y0062580D01*
X0258220Y0062101D01*
X0257822Y0061554D01*
X0257515Y0060951D01*
X0257306Y0060307D01*
X0257200Y0059638D01*
X0257200Y0056800D01*
X0261200Y0056800D01*
X0261200Y0063600D01*
X0261162Y0063600D01*
X0260493Y0063494D01*
X0261200Y0063408D02*
X0261800Y0063408D01*
X0261800Y0063600D02*
X0261800Y0056800D01*
X0261200Y0056800D01*
X0261200Y0056200D01*
X0257200Y0056200D01*
X0257200Y0053362D01*
X0257306Y0052693D01*
X0257515Y0052049D01*
X0257822Y0051446D01*
X0258220Y0050899D01*
X0258699Y0050420D01*
X0259246Y0050022D01*
X0259849Y0049715D01*
X0260493Y0049506D01*
X0261162Y0049400D01*
X0261200Y0049400D01*
X0261200Y0056200D01*
X0261800Y0056200D01*
X0261800Y0056800D01*
X0265800Y0056800D01*
X0265800Y0059638D01*
X0265694Y0060307D01*
X0265485Y0060951D01*
X0265178Y0061554D01*
X0264780Y0062101D01*
X0264301Y0062580D01*
X0263754Y0062978D01*
X0263151Y0063285D01*
X0262507Y0063494D01*
X0261838Y0063600D01*
X0261800Y0063600D01*
X0262773Y0063408D02*
X0265491Y0063408D01*
X0266490Y0062409D02*
X0264472Y0062409D01*
X0265251Y0061411D02*
X0267071Y0061411D01*
X0266657Y0060412D02*
X0265660Y0060412D01*
X0265800Y0059414D02*
X0266600Y0059414D01*
X0266600Y0058415D02*
X0265800Y0058415D01*
X0265800Y0057417D02*
X0266600Y0057417D01*
X0266600Y0056418D02*
X0261800Y0056418D01*
X0261800Y0056200D02*
X0265800Y0056200D01*
X0265800Y0053362D01*
X0265694Y0052693D01*
X0265485Y0052049D01*
X0265178Y0051446D01*
X0264780Y0050899D01*
X0264301Y0050420D01*
X0263754Y0050022D01*
X0263151Y0049715D01*
X0262507Y0049506D01*
X0261838Y0049400D01*
X0261800Y0049400D01*
X0261800Y0056200D01*
X0261200Y0056418D02*
X0231800Y0056418D01*
X0231800Y0056200D02*
X0235800Y0056200D01*
X0235800Y0053362D01*
X0235694Y0052693D01*
X0235485Y0052049D01*
X0235178Y0051446D01*
X0234780Y0050899D01*
X0234301Y0050420D01*
X0233754Y0050022D01*
X0233151Y0049715D01*
X0232507Y0049506D01*
X0231838Y0049400D01*
X0231800Y0049400D01*
X0231800Y0056200D01*
X0231200Y0056418D02*
X0226400Y0056418D01*
X0226400Y0055420D02*
X0227200Y0055420D01*
X0227200Y0054421D02*
X0226400Y0054421D01*
X0226400Y0053423D02*
X0227200Y0053423D01*
X0227393Y0052424D02*
X0226275Y0052424D01*
X0225862Y0051426D02*
X0227837Y0051426D01*
X0228692Y0050427D02*
X0225157Y0050427D01*
X0223992Y0049429D02*
X0230981Y0049429D01*
X0231200Y0049429D02*
X0231800Y0049429D01*
X0232019Y0049429D02*
X0260981Y0049429D01*
X0261200Y0049429D02*
X0261800Y0049429D01*
X0262019Y0049429D02*
X0269008Y0049429D01*
X0267843Y0050427D02*
X0264308Y0050427D01*
X0265163Y0051426D02*
X0267138Y0051426D01*
X0266725Y0052424D02*
X0265607Y0052424D01*
X0265800Y0053423D02*
X0266600Y0053423D01*
X0266600Y0054421D02*
X0265800Y0054421D01*
X0265800Y0055420D02*
X0266600Y0055420D01*
X0261800Y0055420D02*
X0261200Y0055420D01*
X0261200Y0054421D02*
X0261800Y0054421D01*
X0261800Y0053423D02*
X0261200Y0053423D01*
X0261200Y0052424D02*
X0261800Y0052424D01*
X0261800Y0051426D02*
X0261200Y0051426D01*
X0261200Y0050427D02*
X0261800Y0050427D01*
X0258692Y0050427D02*
X0234308Y0050427D01*
X0235163Y0051426D02*
X0257837Y0051426D01*
X0257393Y0052424D02*
X0235607Y0052424D01*
X0235800Y0053423D02*
X0257200Y0053423D01*
X0257200Y0054421D02*
X0235800Y0054421D01*
X0235800Y0055420D02*
X0257200Y0055420D01*
X0257200Y0057417D02*
X0235800Y0057417D01*
X0235800Y0058415D02*
X0257200Y0058415D01*
X0257200Y0059414D02*
X0235800Y0059414D01*
X0235660Y0060412D02*
X0257340Y0060412D01*
X0257749Y0061411D02*
X0235251Y0061411D01*
X0234472Y0062409D02*
X0258528Y0062409D01*
X0261200Y0062409D02*
X0261800Y0062409D01*
X0261800Y0061411D02*
X0261200Y0061411D01*
X0261200Y0060412D02*
X0261800Y0060412D01*
X0261800Y0059414D02*
X0261200Y0059414D01*
X0261200Y0058415D02*
X0261800Y0058415D01*
X0261800Y0057417D02*
X0261200Y0057417D01*
X0231800Y0057417D02*
X0231200Y0057417D01*
X0231200Y0058415D02*
X0231800Y0058415D01*
X0231800Y0059414D02*
X0231200Y0059414D01*
X0231200Y0060412D02*
X0231800Y0060412D01*
X0231800Y0061411D02*
X0231200Y0061411D01*
X0231200Y0062409D02*
X0231800Y0062409D01*
X0228528Y0062409D02*
X0225320Y0062409D01*
X0225929Y0061411D02*
X0227749Y0061411D01*
X0227340Y0060412D02*
X0226343Y0060412D01*
X0226400Y0059414D02*
X0227200Y0059414D01*
X0227200Y0058415D02*
X0226400Y0058415D01*
X0226400Y0057417D02*
X0227200Y0057417D01*
X0231200Y0055420D02*
X0231800Y0055420D01*
X0231800Y0054421D02*
X0231200Y0054421D01*
X0231200Y0053423D02*
X0231800Y0053423D01*
X0231800Y0052424D02*
X0231200Y0052424D01*
X0231200Y0051426D02*
X0231800Y0051426D01*
X0231800Y0050427D02*
X0231200Y0050427D01*
X0288656Y0038445D02*
X0398101Y0038445D01*
X0398101Y0037446D02*
X0289655Y0037446D01*
X0290653Y0036448D02*
X0398101Y0036448D01*
X0398101Y0035449D02*
X0291652Y0035449D01*
X0292650Y0034451D02*
X0398101Y0034451D01*
M02*
