G75*
%MOIN*%
%OFA0B0*%
%FSLAX25Y25*%
%IPPOS*%
%LPD*%
%AMOC8*
5,1,8,0,0,1.08239X$1,22.5*
%
%ADD10C,0.07800*%
%ADD11R,0.06350X0.06350*%
%ADD12C,0.06350*%
%ADD13C,0.06400*%
%ADD14OC8,0.06400*%
D10*
X0031500Y0021500D03*
X0091500Y0021500D03*
X0281500Y0076500D03*
X0306500Y0076500D03*
X0336500Y0076500D03*
X0336500Y0101500D03*
X0306500Y0101500D03*
X0281500Y0101500D03*
X0281500Y0126500D03*
X0306500Y0126500D03*
X0336500Y0126500D03*
X0091500Y0181500D03*
X0031500Y0181500D03*
D11*
X0031500Y0171500D03*
D12*
X0031500Y0161500D03*
X0031500Y0151500D03*
X0031500Y0141500D03*
X0031500Y0131500D03*
X0031500Y0121500D03*
X0031500Y0111500D03*
X0031500Y0101500D03*
X0031500Y0091500D03*
X0031500Y0081500D03*
X0031500Y0071500D03*
X0031500Y0061500D03*
X0031500Y0051500D03*
X0031500Y0041500D03*
X0031500Y0031500D03*
X0091500Y0031500D03*
X0091500Y0041500D03*
X0091500Y0051500D03*
X0091500Y0061500D03*
X0091500Y0071500D03*
X0091500Y0081500D03*
X0091500Y0091500D03*
X0091500Y0101500D03*
X0091500Y0111500D03*
X0091500Y0121500D03*
X0091500Y0131500D03*
X0091500Y0141500D03*
X0091500Y0151500D03*
X0091500Y0161500D03*
X0091500Y0171500D03*
D13*
X0161500Y0129300D02*
X0161500Y0123700D01*
X0171500Y0123700D02*
X0171500Y0129300D01*
X0181500Y0129300D02*
X0181500Y0123700D01*
X0191500Y0123700D02*
X0191500Y0129300D01*
X0201500Y0143700D02*
X0201500Y0149300D01*
X0211500Y0149300D02*
X0211500Y0143700D01*
X0221500Y0143700D02*
X0221500Y0149300D01*
X0231500Y0149300D02*
X0231500Y0143700D01*
X0241500Y0143700D02*
X0241500Y0149300D01*
X0251500Y0149300D02*
X0251500Y0143700D01*
X0261500Y0143700D02*
X0261500Y0149300D01*
X0261500Y0173700D02*
X0261500Y0179300D01*
X0251500Y0179300D02*
X0251500Y0173700D01*
X0241500Y0173700D02*
X0241500Y0179300D01*
X0231500Y0179300D02*
X0231500Y0173700D01*
X0221500Y0173700D02*
X0221500Y0179300D01*
X0211500Y0179300D02*
X0211500Y0173700D01*
X0201500Y0173700D02*
X0201500Y0179300D01*
X0321500Y0179300D02*
X0321500Y0173700D01*
X0331500Y0173700D02*
X0331500Y0179300D01*
X0341500Y0179300D02*
X0341500Y0173700D01*
X0351500Y0173700D02*
X0351500Y0179300D01*
X0361500Y0179300D02*
X0361500Y0173700D01*
X0371500Y0173700D02*
X0371500Y0179300D01*
X0381500Y0179300D02*
X0381500Y0173700D01*
X0381500Y0149300D02*
X0381500Y0143700D01*
X0371500Y0143700D02*
X0371500Y0149300D01*
X0361500Y0149300D02*
X0361500Y0143700D01*
X0351500Y0143700D02*
X0351500Y0149300D01*
X0341500Y0149300D02*
X0341500Y0143700D01*
X0331500Y0143700D02*
X0331500Y0149300D01*
X0321500Y0149300D02*
X0321500Y0143700D01*
X0191500Y0099300D02*
X0191500Y0093700D01*
X0181500Y0093700D02*
X0181500Y0099300D01*
X0171500Y0099300D02*
X0171500Y0093700D01*
X0161500Y0093700D02*
X0161500Y0099300D01*
X0201500Y0059300D02*
X0201500Y0053700D01*
X0211500Y0053700D02*
X0211500Y0059300D01*
X0221500Y0059300D02*
X0221500Y0053700D01*
X0231500Y0053700D02*
X0231500Y0059300D01*
X0261500Y0059300D02*
X0261500Y0053700D01*
X0271500Y0053700D02*
X0271500Y0059300D01*
X0281500Y0059300D02*
X0281500Y0053700D01*
X0291500Y0053700D02*
X0291500Y0059300D01*
X0321500Y0059300D02*
X0321500Y0053700D01*
X0331500Y0053700D02*
X0331500Y0059300D01*
X0341500Y0059300D02*
X0341500Y0053700D01*
X0351500Y0053700D02*
X0351500Y0059300D01*
X0361500Y0059300D02*
X0361500Y0053700D01*
X0371500Y0053700D02*
X0371500Y0059300D01*
X0381500Y0059300D02*
X0381500Y0053700D01*
X0381500Y0029300D02*
X0381500Y0023700D01*
X0371500Y0023700D02*
X0371500Y0029300D01*
X0361500Y0029300D02*
X0361500Y0023700D01*
X0351500Y0023700D02*
X0351500Y0029300D01*
X0341500Y0029300D02*
X0341500Y0023700D01*
X0331500Y0023700D02*
X0331500Y0029300D01*
X0321500Y0029300D02*
X0321500Y0023700D01*
X0291500Y0023700D02*
X0291500Y0029300D01*
X0281500Y0029300D02*
X0281500Y0023700D01*
X0271500Y0023700D02*
X0271500Y0029300D01*
X0261500Y0029300D02*
X0261500Y0023700D01*
X0231500Y0023700D02*
X0231500Y0029300D01*
X0221500Y0029300D02*
X0221500Y0023700D01*
X0211500Y0023700D02*
X0211500Y0029300D01*
X0201500Y0029300D02*
X0201500Y0023700D01*
D14*
X0181500Y0021500D03*
X0161500Y0021500D03*
X0141500Y0021500D03*
X0141500Y0061500D03*
X0161500Y0061500D03*
X0181500Y0061500D03*
X0186500Y0076500D03*
X0166500Y0076500D03*
X0216500Y0111500D03*
X0211500Y0131500D03*
X0201500Y0131500D03*
X0181500Y0141500D03*
X0161500Y0141500D03*
X0141500Y0141500D03*
X0141500Y0181500D03*
X0161500Y0181500D03*
X0181500Y0181500D03*
X0256500Y0111500D03*
M02*
